<svg width="544" height="230" viewBox="0 0 544 230" fill="none" xmlns="http://www.w3.org/2000/svg">
<path d="M2.94815 14V3.09091H10.1712V4.99254H5.25462V7.59197H9.69176V9.49361H5.25462V14H2.94815ZM13.9491 3.09091V14H11.68V3.09091H13.9491ZM19.4636 14.1598C18.6362 14.1598 17.9206 13.984 17.3169 13.6325C16.7168 13.2773 16.2534 12.7837 15.9267 12.1516C15.6 11.516 15.4366 10.7791 15.4366 9.94105C15.4366 9.09588 15.6 8.35724 15.9267 7.72514C16.2534 7.08949 16.7168 6.59588 17.3169 6.24432C17.9206 5.8892 18.6362 5.71165 19.4636 5.71165C20.291 5.71165 21.0048 5.8892 21.6049 6.24432C22.2086 6.59588 22.6738 7.08949 23.0005 7.72514C23.3272 8.35724 23.4906 9.09588 23.4906 9.94105C23.4906 10.7791 23.3272 11.516 23.0005 12.1516C22.6738 12.7837 22.2086 13.2773 21.6049 13.6325C21.0048 13.984 20.291 14.1598 19.4636 14.1598ZM19.4743 12.402C19.8507 12.402 20.165 12.2955 20.4171 12.0824C20.6692 11.8658 20.8592 11.571 20.987 11.1982C21.1184 10.8253 21.1841 10.4009 21.1841 9.92507C21.1841 9.44922 21.1184 9.02486 20.987 8.65199C20.8592 8.27912 20.6692 7.98437 20.4171 7.76776C20.165 7.55114 19.8507 7.44283 19.4743 7.44283C19.0943 7.44283 18.7747 7.55114 18.5154 7.76776C18.2598 7.98437 18.0662 8.27912 17.9348 8.65199C17.807 9.02486 17.7431 9.44922 17.7431 9.92507C17.7431 10.4009 17.807 10.8253 17.9348 11.1982C18.0662 11.571 18.2598 11.8658 18.5154 12.0824C18.7747 12.2955 19.0943 12.402 19.4743 12.402ZM28.6628 14.1598C27.8354 14.1598 27.1199 13.984 26.5162 13.6325C25.916 13.2773 25.4526 12.7837 25.1259 12.1516C24.7992 11.516 24.6358 10.7791 24.6358 9.94105C24.6358 9.09588 24.7992 8.35724 25.1259 7.72514C25.4526 7.08949 25.916 6.59588 26.5162 6.24432C27.1199 5.8892 27.8354 5.71165 28.6628 5.71165C29.4902 5.71165 30.204 5.8892 30.8042 6.24432C31.4078 6.59588 31.873 7.08949 32.1998 7.72514C32.5265 8.35724 32.6898 9.09588 32.6898 9.94105C32.6898 10.7791 32.5265 11.516 32.1998 12.1516C31.873 12.7837 31.4078 13.2773 30.8042 13.6325C30.204 13.984 29.4902 14.1598 28.6628 14.1598ZM28.6735 12.402C29.0499 12.402 29.3642 12.2955 29.6163 12.0824C29.8684 11.8658 30.0584 11.571 30.1863 11.1982C30.3176 10.8253 30.3833 10.4009 30.3833 9.92507C30.3833 9.44922 30.3176 9.02486 30.1863 8.65199C30.0584 8.27912 29.8684 7.98437 29.6163 7.76776C29.3642 7.55114 29.0499 7.44283 28.6735 7.44283C28.2935 7.44283 27.9739 7.55114 27.7147 7.76776C27.459 7.98437 27.2654 8.27912 27.1341 8.65199C27.0062 9.02486 26.9423 9.44922 26.9423 9.92507C26.9423 10.4009 27.0062 10.8253 27.1341 11.1982C27.2654 11.571 27.459 11.8658 27.7147 12.0824C27.9739 12.2955 28.2935 12.402 28.6735 12.402ZM34.1653 14V5.81818H36.3652V7.24574H36.4505C36.5996 6.73793 36.85 6.3544 37.2015 6.09517C37.5531 5.83239 37.9579 5.70099 38.416 5.70099C38.5297 5.70099 38.6522 5.7081 38.7836 5.7223C38.915 5.73651 39.0304 5.75604 39.1298 5.78089V7.79439C39.0233 7.76243 38.8759 7.73402 38.6877 7.70916C38.4995 7.6843 38.3272 7.67188 38.171 7.67188C37.8372 7.67188 37.5389 7.74467 37.2761 7.89027C37.0169 8.03232 36.8109 8.23118 36.6582 8.48686C36.5091 8.74254 36.4345 9.03729 36.4345 9.37109V14H34.1653ZM43.7534 14V12.3381L47.6365 8.74254C47.9668 8.42294 48.2438 8.1353 48.4675 7.87962C48.6948 7.62393 48.867 7.37358 48.9842 7.12855C49.1014 6.87997 49.16 6.61186 49.16 6.32422C49.16 6.00462 49.0872 5.7294 48.9416 5.49858C48.796 5.2642 48.5971 5.08487 48.345 4.96058C48.0929 4.83274 47.807 4.76882 47.4874 4.76882C47.1536 4.76882 46.8624 4.83629 46.6138 4.97124C46.3652 5.10618 46.1735 5.29972 46.0385 5.55185C45.9036 5.80398 45.8361 6.10405 45.8361 6.45206H43.6468C43.6468 5.73828 43.8084 5.11861 44.1316 4.59304C44.4547 4.06747 44.9075 3.66087 45.4899 3.37322C46.0723 3.08558 46.7434 2.94176 47.5034 2.94176C48.2846 2.94176 48.9647 3.08026 49.5435 3.35724C50.1259 3.63068 50.5787 4.01065 50.9018 4.49716C51.225 4.98366 51.3865 5.54119 51.3865 6.16974C51.3865 6.58168 51.3049 6.98828 51.1415 7.38956C50.9817 7.79084 50.6958 8.23651 50.2839 8.72656C49.872 9.21307 49.2914 9.79723 48.5421 10.479L46.9494 12.0398V12.1143H51.5304V14H43.7534Z" fill="black"/>
<path d="M539.303 21H2V227.977H77.2643V165.256L123.259 117.868H399.228L482.855 200.798L496.793 186.86L504.459 193.829H539.303V21Z" fill="#D9D9D9" stroke="black" stroke-width="4"/>
<path d="M121.865 21.6968H2V140.168H64.7202L121.865 82.3263V21.6968Z" fill="#91FFE5" stroke="black" stroke-width="2"/>
<path d="M418.741 21.6968H540V172.922H508.64L476.55 140.168L418.741 82.3263V21.6968Z" fill="#91FFE5" stroke="black" stroke-width="2"/>
<path d="M157.407 21H121.865V83.0233L142.075 63.5104H157.407V21Z" fill="#3BDE73" stroke="black" stroke-width="2"/>
<path d="M382.503 21.6968H418.741V83.0232L398.135 63.7295H382.503V21.6968Z" fill="#3BDE73" stroke="black" stroke-width="2"/>
<path d="M245.912 21.6968H158.104V63.5103H245.912V21.6968Z" fill="#E99BDD" stroke="black" stroke-width="2"/>
<path d="M77.2642 183.376H41.0259V227.977H77.2642V183.376Z" fill="#96DC3C" stroke="black" stroke-width="2"/>
<path d="M87.7176 152.712H41.0259V183.376H77.2642V163.166L87.7176 152.712Z" fill="#96DC3C" stroke="black" stroke-width="2"/>
<path d="M27.0881 202.889H2V227.977H27.0881V202.889Z" fill="#96DC3C" stroke="black" stroke-width="2"/>
<path d="M27.0881 140.168H2V204.282H27.0881V140.168Z" fill="#575757" stroke="black" stroke-width="2"/>
<path d="M294.694 21.6968H245.912V63.5103H294.694V21.6968Z" fill="#E99BDD" stroke="black" stroke-width="2"/>
<path d="M310.026 77.4482H257.062V94.1736H310.026V77.4482Z" fill="#FD6D2F" stroke="black" stroke-width="2"/>
<path d="M310.026 94.1736H257.062V106.718H310.026V94.1736Z" fill="#3BDE73" stroke="black" stroke-width="2"/>
<path d="M382.503 21.6968H294.694V63.5103H382.503V21.6968Z" fill="#E99BDD" stroke="black" stroke-width="2"/>
<path d="M418.741 137.381C419.299 138.496 429.659 127.16 434.769 121.352L418.741 105.809L402.712 121.352C407.823 126.231 418.183 136.266 418.741 137.381Z" fill="#3BDE73"/>
<path d="M411.772 99.0518L418.741 105.809M418.741 105.809L434.769 121.352C429.659 127.16 419.299 138.496 418.741 137.381C418.183 136.266 407.823 126.231 402.712 121.352L418.741 105.809Z" stroke="black" stroke-width="2"/>
<path d="M453.585 140.168L434.769 122.049L419.438 137.381L438.254 155.5L453.585 140.168Z" fill="#575757" stroke="black" stroke-width="2"/>
<path d="M496.793 183.376L453.586 140.168L438.254 155.5L481.461 199.404L496.793 183.376Z" fill="#6BD617" stroke="black" stroke-width="2"/>
<path d="M508.64 172.922L497.49 184.77L505.852 193.132H540V172.922H508.64Z" fill="#3BDE73" stroke="black" stroke-width="2"/>
<path d="M151.135 92.0829V117.868H245.912V93.4766H204.795V79.5388H165.072L151.135 92.0829Z" fill="#575757" stroke="black" stroke-width="2"/>
<path d="M257.062 117.171V106.718H309.329V80.2358H360.899L397.834 117.171H257.062Z" fill="#575757" stroke="black" stroke-width="2"/>
<path d="M206 79H165V93H206V79Z" fill="#3BDE73" stroke="black" stroke-width="2"/>
<path d="M48.8694 205L47.1551 199.009H48.5388L49.5306 203.172H49.5803L50.6745 199.009H51.8593L52.9505 203.18H53.0032L53.9949 199.009H55.3787L53.6644 205H52.4298L51.2888 201.083H51.242L50.104 205H48.8694ZM56.486 205H55.1286L57.1969 199.009H58.8294L60.8948 205H59.5374L58.0366 200.378H57.9898L56.486 205ZM56.4012 202.645H59.6076V203.634H56.4012V202.645ZM64.7295 200.732C64.706 200.496 64.6056 200.312 64.4281 200.182C64.2506 200.051 64.0098 199.986 63.7055 199.986C63.4988 199.986 63.3242 200.015 63.1818 200.073C63.0395 200.13 62.9303 200.209 62.8542 200.31C62.7801 200.412 62.743 200.527 62.743 200.656C62.7391 200.763 62.7615 200.856 62.8103 200.936C62.861 201.016 62.9303 201.086 63.018 201.144C63.1058 201.201 63.2072 201.25 63.3223 201.293C63.4373 201.334 63.5602 201.369 63.6909 201.399L64.2292 201.527C64.4905 201.586 64.7304 201.664 64.9489 201.761C65.1673 201.859 65.3565 201.979 65.5164 202.121C65.6764 202.264 65.8002 202.431 65.888 202.624C65.9777 202.818 66.0235 203.039 66.0255 203.289C66.0235 203.655 65.9299 203.973 65.7446 204.242C65.5613 204.509 65.296 204.717 64.9489 204.865C64.6037 205.012 64.1873 205.085 63.6997 205.085C63.216 205.085 62.7947 205.011 62.4358 204.862C62.0789 204.714 61.8 204.495 61.5991 204.204C61.4002 203.912 61.2959 203.55 61.2861 203.119H62.5119C62.5256 203.32 62.5831 203.487 62.6845 203.622C62.7879 203.755 62.9254 203.855 63.097 203.923C63.2706 203.99 63.4666 204.023 63.685 204.023C63.8996 204.023 64.0858 203.992 64.2438 203.929C64.4037 203.867 64.5276 203.78 64.6154 203.669C64.7031 203.558 64.747 203.43 64.747 203.286C64.747 203.151 64.707 203.038 64.6271 202.946C64.549 202.855 64.434 202.777 64.2818 202.712C64.1317 202.648 63.9474 202.589 63.7289 202.537L63.0765 202.373C62.5714 202.25 62.1725 202.058 61.88 201.797C61.5874 201.535 61.4421 201.183 61.4441 200.74C61.4421 200.378 61.5387 200.061 61.7337 199.79C61.9307 199.519 62.2008 199.307 62.5441 199.155C62.8873 199.003 63.2774 198.927 63.7143 198.927C64.159 198.927 64.5471 199.003 64.8787 199.155C65.2122 199.307 65.4716 199.519 65.6568 199.79C65.8421 200.061 65.9377 200.375 65.9435 200.732H64.7295ZM66.8775 205V199.009H68.1443V201.481H70.7158V199.009H71.9797V205H70.7158V202.525H68.1443V205H66.8775ZM47.5207 215V209.009H49.8846C50.3371 209.009 50.7232 209.089 51.0431 209.251C51.3649 209.411 51.6097 209.638 51.7774 209.933C51.9471 210.226 52.0319 210.57 52.0319 210.966C52.0319 211.364 51.9461 211.706 51.7745 211.993C51.6028 212.277 51.3542 212.496 51.0285 212.648C50.7047 212.8 50.3127 212.876 49.8524 212.876H48.2697V211.858H49.6476C49.8895 211.858 50.0903 211.825 50.2503 211.759C50.4102 211.692 50.5292 211.593 50.6072 211.46C50.6871 211.327 50.7271 211.163 50.7271 210.966C50.7271 210.767 50.6871 210.599 50.6072 210.463C50.5292 210.326 50.4092 210.223 50.2473 210.152C50.0874 210.08 49.8855 210.044 49.6418 210.044H48.7875V215H47.5207ZM50.7564 212.273L52.2455 215H50.8471L49.3902 212.273H50.7564ZM58.433 212.004C58.433 212.658 58.3091 213.213 58.0614 213.672C57.8157 214.13 57.4802 214.48 57.0551 214.722C56.6318 214.962 56.1559 215.082 55.6274 215.082C55.0949 215.082 54.6171 214.961 54.1939 214.719C53.7707 214.477 53.4362 214.127 53.1904 213.669C52.9447 213.211 52.8218 212.656 52.8218 212.004C52.8218 211.351 52.9447 210.795 53.1904 210.337C53.4362 209.878 53.7707 209.529 54.1939 209.289C54.6171 209.048 55.0949 208.927 55.6274 208.927C56.1559 208.927 56.6318 209.048 57.0551 209.289C57.4802 209.529 57.8157 209.878 58.0614 210.337C58.3091 210.795 58.433 211.351 58.433 212.004ZM57.1487 212.004C57.1487 211.581 57.0853 211.224 56.9585 210.934C56.8337 210.643 56.6572 210.423 56.429 210.272C56.2008 210.122 55.9336 210.047 55.6274 210.047C55.3212 210.047 55.054 210.122 54.8258 210.272C54.5976 210.423 54.4201 210.643 54.2934 210.934C54.1685 211.224 54.1061 211.581 54.1061 212.004C54.1061 212.427 54.1685 212.784 54.2934 213.075C54.4201 213.366 54.5976 213.586 54.8258 213.736C55.054 213.886 55.3212 213.961 55.6274 213.961C55.9336 213.961 56.2008 213.886 56.429 213.736C56.6572 213.586 56.8337 213.366 56.9585 213.075C57.0853 212.784 57.1487 212.427 57.1487 212.004ZM64.8772 212.004C64.8772 212.658 64.7533 213.213 64.5057 213.672C64.2599 214.13 63.9244 214.48 63.4993 214.722C63.076 214.962 62.6002 215.082 62.0716 215.082C61.5392 215.082 61.0613 214.961 60.6381 214.719C60.2149 214.477 59.8804 214.127 59.6346 213.669C59.3889 213.211 59.266 212.656 59.266 212.004C59.266 211.351 59.3889 210.795 59.6346 210.337C59.8804 209.878 60.2149 209.529 60.6381 209.289C61.0613 209.048 61.5392 208.927 62.0716 208.927C62.6002 208.927 63.076 209.048 63.4993 209.289C63.9244 209.529 64.2599 209.878 64.5057 210.337C64.7533 210.795 64.8772 211.351 64.8772 212.004ZM63.5929 212.004C63.5929 211.581 63.5295 211.224 63.4027 210.934C63.2779 210.643 63.1014 210.423 62.8732 210.272C62.645 210.122 62.3778 210.047 62.0716 210.047C61.7654 210.047 61.4982 210.122 61.27 210.272C61.0418 210.423 60.8643 210.643 60.7376 210.934C60.6127 211.224 60.5503 211.581 60.5503 212.004C60.5503 212.427 60.6127 212.784 60.7376 213.075C60.8643 213.366 61.0418 213.586 61.27 213.736C61.4982 213.886 61.7654 213.961 62.0716 213.961C62.3778 213.961 62.645 213.886 62.8732 213.736C63.1014 213.586 63.2779 213.366 63.4027 213.075C63.5295 212.784 63.5929 212.427 63.5929 212.004ZM65.8156 209.009H67.3778L69.0278 213.034H69.098L70.748 209.009H72.3102V215H71.0815V211.1H71.0318L69.4812 214.971H68.6445L67.094 211.086H67.0443V215H65.8156V209.009Z" fill="black"/>
<path d="M448.552 154.81L451.576 149.361L452.555 150.34L450.312 153.985L450.347 154.02L454.065 151.85L454.903 152.688L452.724 156.409L452.762 156.446L456.413 154.198L457.391 155.176L451.942 158.201L451.069 157.328L453.033 153.751L452.999 153.718L449.425 155.683L448.552 154.81ZM453.938 160.196L452.978 159.236L458.677 156.462L459.831 157.616L457.055 163.313L456.095 162.353L458.303 158.024L458.269 157.991L453.938 160.196ZM455.543 158.471L457.81 160.738L457.111 161.437L454.844 159.17L455.543 158.471ZM462.785 163.007C462.935 162.823 462.994 162.623 462.961 162.405C462.928 162.187 462.803 161.97 462.588 161.755C462.442 161.609 462.298 161.506 462.156 161.447C462.015 161.386 461.882 161.365 461.757 161.383C461.633 161.402 461.525 161.457 461.434 161.548C461.355 161.621 461.305 161.703 461.283 161.794C461.262 161.887 461.262 161.985 461.283 162.088C461.305 162.19 461.342 162.297 461.393 162.409C461.445 162.519 461.507 162.631 461.579 162.744L461.868 163.216C462.012 163.442 462.126 163.666 462.212 163.89C462.297 164.113 462.346 164.332 462.359 164.546C462.371 164.759 462.34 164.966 462.266 165.164C462.192 165.364 462.068 165.553 461.893 165.731C461.633 165.989 461.342 166.148 461.02 166.207C460.702 166.266 460.367 166.225 460.017 166.085C459.669 165.944 459.323 165.701 458.978 165.357C458.636 165.015 458.391 164.664 458.242 164.306C458.094 163.949 458.052 163.596 458.116 163.249C458.182 162.901 458.364 162.571 458.662 162.26L459.529 163.127C459.396 163.278 459.318 163.438 459.295 163.604C459.274 163.771 459.3 163.94 459.374 164.109C459.449 164.279 459.565 164.441 459.719 164.595C459.871 164.747 460.024 164.857 460.18 164.924C460.338 164.993 460.486 165.019 460.627 165.003C460.768 164.986 460.889 164.927 460.991 164.825C461.086 164.73 461.138 164.622 461.146 164.5C461.156 164.38 461.13 164.244 461.068 164.091C461.007 163.939 460.918 163.767 460.801 163.575L460.455 162.998C460.185 162.554 460.039 162.136 460.017 161.745C459.995 161.353 460.141 161.001 460.455 160.69C460.711 160.432 461.003 160.276 461.333 160.222C461.664 160.17 462.004 160.211 462.355 160.346C462.705 160.481 463.034 160.703 463.343 161.012C463.658 161.327 463.878 161.655 464.005 161.997C464.134 162.34 464.167 162.674 464.107 162.996C464.046 163.319 463.892 163.609 463.643 163.865L462.785 163.007ZM461.286 167.544L465.522 163.307L466.418 164.203L464.67 165.951L466.488 167.769L468.236 166.021L469.13 166.915L464.893 171.151L464 170.258L465.75 168.508L463.931 166.689L462.181 168.439L461.286 167.544ZM465.632 171.89L469.868 167.653L471.54 169.325C471.86 169.645 472.076 169.975 472.187 170.316C472.302 170.656 472.314 170.99 472.225 171.317C472.138 171.644 471.954 171.947 471.674 172.227C471.393 172.508 471.09 172.69 470.766 172.771C470.443 172.851 470.113 172.83 469.775 172.707C469.439 172.586 469.108 172.362 468.782 172.037L467.663 170.918L468.383 170.198L469.357 171.172C469.528 171.343 469.694 171.462 469.854 171.528C470.014 171.594 470.168 171.608 470.317 171.569C470.468 171.532 470.612 171.444 470.752 171.305C470.892 171.164 470.983 171.017 471.023 170.864C471.064 170.712 471.052 170.554 470.988 170.39C470.925 170.226 470.808 170.058 470.636 169.885L470.032 169.281L466.528 172.786L465.632 171.89ZM469.848 172.25L468.973 175.231L467.984 174.242L468.882 171.284L469.848 172.25ZM475.466 177.488C475.004 177.95 474.524 178.255 474.024 178.404C473.526 178.554 473.042 178.565 472.57 178.435C472.101 178.306 471.68 178.054 471.306 177.68C470.93 177.304 470.677 176.88 470.549 176.41C470.421 175.94 470.432 175.456 470.582 174.958C470.732 174.46 471.038 173.981 471.499 173.52C471.961 173.058 472.44 172.752 472.938 172.602C473.436 172.451 473.92 172.441 474.388 172.571C474.859 172.699 475.282 172.951 475.659 173.328C476.032 173.701 476.283 174.123 476.412 174.594C476.543 175.064 476.533 175.548 476.383 176.046C476.234 176.545 475.928 177.026 475.466 177.488ZM474.558 176.58C474.857 176.28 475.065 175.983 475.181 175.688C475.298 175.394 475.329 175.114 475.274 174.846C475.219 174.579 475.083 174.336 474.866 174.12C474.65 173.903 474.408 173.768 474.14 173.712C473.873 173.657 473.591 173.688 473.296 173.803C473.002 173.921 472.706 174.129 472.407 174.428C472.107 174.727 471.899 175.024 471.782 175.318C471.666 175.613 471.636 175.894 471.691 176.162C471.746 176.429 471.882 176.671 472.098 176.888C472.315 177.104 472.557 177.24 472.825 177.295C473.092 177.351 473.373 177.32 473.666 177.202C473.962 177.086 474.259 176.879 474.558 176.58ZM480.023 182.045C479.561 182.507 479.08 182.812 478.581 182.961C478.083 183.111 477.598 183.122 477.127 182.992C476.658 182.862 476.237 182.611 475.863 182.237C475.486 181.86 475.234 181.437 475.106 180.967C474.977 180.496 474.989 180.012 475.139 179.515C475.289 179.017 475.595 178.537 476.055 178.077C476.517 177.615 476.997 177.309 477.495 177.158C477.993 177.008 478.476 176.998 478.945 177.127C479.415 177.256 479.839 177.508 480.215 177.884C480.589 178.258 480.84 178.68 480.968 179.15C481.099 179.621 481.09 180.105 480.939 180.603C480.79 181.102 480.485 181.582 480.023 182.045ZM479.115 181.136C479.414 180.837 479.622 180.54 479.737 180.245C479.855 179.951 479.886 179.67 479.831 179.403C479.775 179.135 479.64 178.893 479.423 178.677C479.207 178.46 478.964 178.324 478.697 178.269C478.429 178.214 478.148 178.244 477.853 178.36C477.559 178.477 477.263 178.686 476.963 178.985C476.664 179.284 476.456 179.581 476.339 179.874C476.223 180.17 476.192 180.451 476.248 180.718C476.303 180.986 476.439 181.228 476.655 181.445C476.872 181.661 477.114 181.797 477.381 181.852C477.649 181.907 477.929 181.876 478.223 181.759C478.518 181.643 478.816 181.436 479.115 181.136ZM482.805 180.59L483.909 181.694L482.23 185.708L482.279 185.757L486.293 184.077L487.397 185.182L483.161 189.419L482.292 188.55L485.049 185.792L485.014 185.757L481.181 187.398L480.589 186.806L482.24 182.962L482.205 182.927L479.437 185.695L478.568 184.826L482.805 180.59Z" fill="black"/>
<path d="M468.521 50V44.0085H469.787V46.4806H472.359V44.0085H473.623V50H472.359V47.525H469.787V50H468.521ZM475.7 50H474.343L476.411 44.0085H478.043L480.109 50H478.751L477.251 45.3777H477.204L475.7 50ZM475.615 47.6449H478.822V48.6338H475.615V47.6449ZM485.835 46.1061H484.553C484.53 45.9403 484.482 45.7931 484.41 45.6644C484.338 45.5337 484.245 45.4225 484.132 45.3309C484.019 45.2392 483.888 45.169 483.74 45.1202C483.594 45.0715 483.435 45.0471 483.263 45.0471C482.953 45.0471 482.683 45.1241 482.453 45.2782C482.223 45.4303 482.044 45.6527 481.917 45.9452C481.791 46.2358 481.727 46.5888 481.727 47.0043C481.727 47.4314 481.791 47.7902 481.917 48.0809C482.046 48.3715 482.226 48.5909 482.456 48.7391C482.686 48.8873 482.952 48.9614 483.254 48.9614C483.424 48.9614 483.581 48.939 483.725 48.8941C483.872 48.8493 484.001 48.784 484.115 48.6981C484.228 48.6104 484.321 48.5041 484.395 48.3793C484.471 48.2544 484.524 48.1121 484.553 47.9521L485.835 47.958C485.802 48.233 485.719 48.4982 485.586 48.7537C485.455 49.0073 485.279 49.2345 485.057 49.4354C484.836 49.6343 484.573 49.7923 484.267 49.9093C483.962 50.0244 483.618 50.0819 483.234 50.0819C482.7 50.0819 482.222 49.961 481.8 49.7191C481.381 49.4773 481.05 49.1272 480.806 48.6689C480.564 48.2105 480.443 47.6557 480.443 47.0043C480.443 46.3509 480.566 45.795 480.812 45.3367C481.057 44.8784 481.391 44.5293 481.812 44.2894C482.233 44.0475 482.707 43.9266 483.234 43.9266C483.581 43.9266 483.903 43.9754 484.199 44.0729C484.498 44.1704 484.762 44.3128 484.992 44.5C485.222 44.6853 485.41 44.9125 485.554 45.1816C485.7 45.4508 485.794 45.759 485.835 46.1061ZM486.743 50V44.0085H488.01V46.6503H488.089L490.245 44.0085H491.763L489.54 46.6912L491.79 50H490.274L488.633 47.5367L488.01 48.2973V50H486.743ZM492.423 50V44.0085H496.46V45.0529H493.69V46.4806H496.253V47.525H493.69V48.9556H496.472V50H492.423ZM497.467 50V44.0085H499.831C500.284 44.0085 500.67 44.0895 500.99 44.2513C501.312 44.4113 501.556 44.6385 501.724 44.933C501.894 45.2255 501.979 45.5698 501.979 45.9657C501.979 46.3636 501.893 46.7059 501.721 46.9926C501.55 47.2773 501.301 47.4957 500.975 47.6479C500.651 47.8 500.259 47.8761 499.799 47.8761H498.216V46.858H499.594C499.836 46.858 500.037 46.8248 500.197 46.7585C500.357 46.6922 500.476 46.5927 500.554 46.4601C500.634 46.3275 500.674 46.1627 500.674 45.9657C500.674 45.7668 500.634 45.599 500.554 45.4625C500.476 45.326 500.356 45.2226 500.194 45.1524C500.034 45.0802 499.832 45.0441 499.588 45.0441H498.734V50H497.467ZM500.703 47.2734L502.192 50H500.794L499.337 47.2734H500.703ZM471.771 55.7316C471.748 55.4957 471.647 55.3123 471.47 55.1816C471.292 55.051 471.051 54.9856 470.747 54.9856C470.54 54.9856 470.366 55.0149 470.223 55.0734C470.081 55.13 469.972 55.209 469.896 55.3104C469.822 55.4118 469.785 55.5269 469.785 55.6556C469.781 55.7629 469.803 55.8565 469.852 55.9364C469.903 56.0164 469.972 56.0856 470.06 56.1441C470.147 56.2007 470.249 56.2504 470.364 56.2934C470.479 56.3343 470.602 56.3694 470.732 56.3987L471.271 56.5274C471.532 56.5859 471.772 56.6639 471.99 56.7614C472.209 56.859 472.398 56.9789 472.558 57.1213C472.718 57.2637 472.842 57.4314 472.93 57.6245C473.019 57.8176 473.065 58.0389 473.067 58.2886C473.065 58.6552 472.971 58.9731 472.786 59.2423C472.603 59.5095 472.338 59.7172 471.99 59.8654C471.645 60.0117 471.229 60.0848 470.741 60.0848C470.258 60.0848 469.836 60.0107 469.477 59.8625C469.12 59.7143 468.842 59.4949 468.641 59.2043C468.442 58.9117 468.337 58.5499 468.328 58.1189H469.553C469.567 58.3198 469.625 58.4875 469.726 58.6221C469.829 58.7547 469.967 58.8551 470.139 58.9234C470.312 58.9897 470.508 59.0229 470.727 59.0229C470.941 59.0229 471.127 58.9917 471.285 58.9293C471.445 58.8668 471.569 58.7801 471.657 58.6689C471.745 58.5577 471.789 58.43 471.789 58.2856C471.789 58.1511 471.749 58.0379 471.669 57.9463C471.591 57.8546 471.476 57.7766 471.323 57.7122C471.173 57.6479 470.989 57.5894 470.77 57.5367L470.118 57.3729C469.613 57.25 469.214 57.0579 468.922 56.7965C468.629 56.5352 468.484 56.1832 468.486 55.7404C468.484 55.3777 468.58 55.0607 468.775 54.7896C468.972 54.5185 469.242 54.3069 469.586 54.1548C469.929 54.0027 470.319 53.9266 470.756 53.9266C471.201 53.9266 471.589 54.0027 471.92 54.1548C472.254 54.3069 472.513 54.5185 472.698 54.7896C472.884 55.0607 472.979 55.3747 472.985 55.7316H471.771ZM473.919 60V54.0085H476.283C476.737 54.0085 477.124 54.0953 477.444 54.2689C477.764 54.4405 478.008 54.6794 478.176 54.9856C478.345 55.2899 478.43 55.641 478.43 56.0388C478.43 56.4367 478.344 56.7878 478.173 57.092C478.001 57.3963 477.753 57.6332 477.427 57.8029C477.103 57.9726 476.711 58.0574 476.251 58.0574H474.744V57.0423H476.046C476.29 57.0423 476.491 57.0004 476.649 56.9165C476.809 56.8307 476.928 56.7127 477.006 56.5625C477.085 56.4104 477.125 56.2358 477.125 56.0388C477.125 55.8399 477.085 55.6663 477.006 55.5181C476.928 55.3679 476.809 55.2519 476.649 55.1699C476.489 55.0861 476.286 55.0441 476.04 55.0441H475.186V60H473.919ZM479.594 60H478.236L480.305 54.0085H481.937L484.003 60H482.645L481.144 55.3777H481.098L479.594 60ZM479.509 57.6449H482.715V58.6338H479.509V57.6449ZM489.729 56.1061H488.447C488.424 55.9403 488.376 55.7931 488.304 55.6644C488.232 55.5337 488.139 55.4225 488.026 55.3309C487.913 55.2392 487.782 55.169 487.634 55.1202C487.488 55.0715 487.329 55.0471 487.157 55.0471C486.847 55.0471 486.577 55.1241 486.347 55.2782C486.117 55.4303 485.938 55.6527 485.811 55.9452C485.685 56.2358 485.621 56.5888 485.621 57.0043C485.621 57.4314 485.685 57.7902 485.811 58.0809C485.94 58.3715 486.12 58.5909 486.35 58.7391C486.58 58.8873 486.846 58.9614 487.148 58.9614C487.318 58.9614 487.475 58.939 487.619 58.8941C487.766 58.8493 487.895 58.784 488.008 58.6981C488.122 58.6104 488.215 58.5041 488.289 58.3793C488.365 58.2544 488.418 58.1121 488.447 57.9521L489.729 57.958C489.695 58.233 489.613 58.4982 489.48 58.7537C489.349 59.0073 489.173 59.2345 488.95 59.4354C488.73 59.6343 488.467 59.7923 488.161 59.9093C487.856 60.0244 487.512 60.0819 487.128 60.0819C486.593 60.0819 486.116 59.961 485.694 59.7191C485.275 59.4773 484.943 59.1272 484.7 58.6689C484.458 58.2105 484.337 57.6557 484.337 57.0043C484.337 56.3509 484.46 55.795 484.706 55.3367C484.951 54.8784 485.285 54.5293 485.706 54.2894C486.127 54.0475 486.601 53.9266 487.128 53.9266C487.475 53.9266 487.797 53.9754 488.093 54.0729C488.392 54.1704 488.656 54.3128 488.886 54.5C489.116 54.6853 489.303 54.9125 489.448 55.1816C489.594 55.4508 489.688 55.759 489.729 56.1061ZM490.637 60V54.0085H494.674V55.0529H491.904V56.4806H494.467V57.525H491.904V58.9556H494.686V60H490.637ZM473.807 66.1061H472.526C472.502 65.9403 472.455 65.7931 472.382 65.6644C472.31 65.5337 472.218 65.4225 472.105 65.3309C471.991 65.2392 471.861 65.169 471.712 65.1202C471.566 65.0715 471.407 65.0471 471.236 65.0471C470.926 65.0471 470.655 65.1241 470.425 65.2782C470.195 65.4303 470.017 65.6527 469.89 65.9452C469.763 66.2358 469.7 66.5888 469.7 67.0043C469.7 67.4314 469.763 67.7902 469.89 68.0809C470.019 68.3715 470.198 68.5909 470.428 68.7391C470.658 68.8873 470.925 68.9614 471.227 68.9614C471.397 68.9614 471.554 68.939 471.698 68.8941C471.844 68.8493 471.974 68.784 472.087 68.6981C472.2 68.6104 472.294 68.5041 472.368 68.3793C472.444 68.2544 472.497 68.1121 472.526 67.9521L473.807 67.958C473.774 68.233 473.691 68.4982 473.559 68.7537C473.428 69.0073 473.251 69.2345 473.029 69.4354C472.809 69.6343 472.545 69.7923 472.239 69.9093C471.935 70.0244 471.591 70.0819 471.206 70.0819C470.672 70.0819 470.194 69.961 469.773 69.7191C469.354 69.4773 469.022 69.1272 468.778 68.6689C468.536 68.2105 468.415 67.6557 468.415 67.0043C468.415 66.3509 468.538 65.795 468.784 65.3367C469.03 64.8784 469.363 64.5293 469.785 64.2894C470.206 64.0475 470.68 63.9266 471.206 63.9266C471.554 63.9266 471.875 63.9754 472.172 64.0729C472.47 64.1704 472.734 64.3128 472.965 64.5C473.195 64.6853 473.382 64.9125 473.526 65.1816C473.673 65.4508 473.766 65.759 473.807 66.1061ZM474.68 70V69.0872L476.813 67.1125C476.995 66.937 477.147 66.779 477.27 66.6386C477.394 66.4981 477.489 66.3606 477.553 66.2261C477.618 66.0895 477.65 65.9423 477.65 65.7843C477.65 65.6088 477.61 65.4576 477.53 65.3309C477.45 65.2021 477.341 65.1036 477.202 65.0354C477.064 64.9652 476.907 64.9301 476.731 64.9301C476.548 64.9301 476.388 64.9671 476.251 65.0412C476.115 65.1153 476.01 65.2216 475.936 65.3601C475.861 65.4986 475.824 65.6634 475.824 65.8545H474.622C474.622 65.4625 474.711 65.1222 474.888 64.8335C475.066 64.5449 475.314 64.3215 475.634 64.1636C475.954 64.0056 476.323 63.9266 476.74 63.9266C477.169 63.9266 477.543 64.0027 477.861 64.1548C478.18 64.305 478.429 64.5137 478.607 64.7809C478.784 65.048 478.873 65.3543 478.873 65.6995C478.873 65.9257 478.828 66.149 478.738 66.3694C478.65 66.5898 478.493 66.8346 478.267 67.1037C478.041 67.3709 477.722 67.6918 477.311 68.0662L476.436 68.9234V68.9644H478.952V70H474.68ZM482.476 64.0085V70H481.21V65.2109H481.174L479.802 66.071V64.9476L481.286 64.0085H482.476ZM486.249 70.1316C485.746 70.1297 485.313 70.0059 484.951 69.7601C484.59 69.5144 484.312 69.1584 484.117 68.6923C483.924 68.2262 483.828 67.6654 483.83 67.0101C483.83 66.3567 483.927 65.7999 484.12 65.3396C484.315 64.8793 484.593 64.5293 484.953 64.2894C485.316 64.0475 485.748 63.9266 486.249 63.9266C486.751 63.9266 487.182 64.0475 487.543 64.2894C487.905 64.5312 488.184 64.8823 488.379 65.3426C488.574 65.8009 488.671 66.3567 488.669 67.0101C488.669 67.6674 488.571 68.2291 488.376 68.6952C488.183 69.1613 487.906 69.5173 487.545 69.763C487.185 70.0088 486.753 70.1316 486.249 70.1316ZM486.249 69.0814C486.593 69.0814 486.867 68.9088 487.072 68.5636C487.276 68.2184 487.378 67.7005 487.376 67.0101C487.376 66.5557 487.329 66.1773 487.235 65.875C487.144 65.5727 487.013 65.3455 486.843 65.1934C486.676 65.0412 486.478 64.9652 486.249 64.9652C485.908 64.9652 485.635 65.1358 485.43 65.4771C485.226 65.8184 485.122 66.3294 485.12 67.0101C485.12 67.4704 485.166 67.8546 485.258 68.1628C485.351 68.469 485.483 68.6991 485.653 68.8532C485.822 69.0053 486.021 69.0814 486.249 69.0814Z" fill="black"/>
<path d="M186.521 35V29.0085H187.787V31.4806H190.359V29.0085H191.623V35H190.359V32.525H187.787V35H186.521ZM193.7 35H192.343L194.411 29.0085H196.043L198.109 35H196.751L195.251 30.3777H195.204L193.7 35ZM193.615 32.6449H196.822V33.6338H193.615V32.6449ZM203.835 31.1061H202.553C202.53 30.9403 202.482 30.7931 202.41 30.6644C202.338 30.5337 202.245 30.4225 202.132 30.3309C202.019 30.2392 201.888 30.169 201.74 30.1202C201.594 30.0715 201.435 30.0471 201.263 30.0471C200.953 30.0471 200.683 30.1241 200.453 30.2782C200.223 30.4303 200.044 30.6527 199.917 30.9452C199.791 31.2358 199.727 31.5888 199.727 32.0043C199.727 32.4314 199.791 32.7902 199.917 33.0809C200.046 33.3715 200.226 33.5909 200.456 33.7391C200.686 33.8873 200.952 33.9614 201.254 33.9614C201.424 33.9614 201.581 33.939 201.725 33.8941C201.872 33.8493 202.001 33.784 202.115 33.6981C202.228 33.6104 202.321 33.5041 202.395 33.3793C202.471 33.2544 202.524 33.1121 202.553 32.9521L203.835 32.958C203.802 33.233 203.719 33.4982 203.586 33.7537C203.455 34.0073 203.279 34.2345 203.057 34.4354C202.836 34.6343 202.573 34.7923 202.267 34.9093C201.962 35.0244 201.618 35.0819 201.234 35.0819C200.7 35.0819 200.222 34.961 199.8 34.7191C199.381 34.4773 199.05 34.1272 198.806 33.6689C198.564 33.2105 198.443 32.6557 198.443 32.0043C198.443 31.3509 198.566 30.795 198.812 30.3367C199.057 29.8784 199.391 29.5293 199.812 29.2894C200.233 29.0475 200.707 28.9266 201.234 28.9266C201.581 28.9266 201.903 28.9754 202.199 29.0729C202.498 29.1704 202.762 29.3128 202.992 29.5C203.222 29.6853 203.41 29.9125 203.554 30.1816C203.7 30.4508 203.794 30.759 203.835 31.1061ZM204.743 35V29.0085H206.01V31.6503H206.089L208.245 29.0085H209.763L207.54 31.6912L209.79 35H208.274L206.633 32.5367L206.01 33.2973V35H204.743ZM210.423 35V29.0085H214.46V30.0529H211.69V31.4806H214.253V32.525H211.69V33.9556H214.472V35H210.423ZM215.467 35V29.0085H217.831C218.284 29.0085 218.67 29.0895 218.99 29.2513C219.312 29.4113 219.556 29.6385 219.724 29.933C219.894 30.2255 219.979 30.5698 219.979 30.9657C219.979 31.3636 219.893 31.7059 219.721 31.9926C219.55 32.2773 219.301 32.4957 218.975 32.6479C218.651 32.8 218.259 32.8761 217.799 32.8761H216.216V31.858H217.594C217.836 31.858 218.037 31.8248 218.197 31.7585C218.357 31.6922 218.476 31.5927 218.554 31.4601C218.634 31.3275 218.674 31.1627 218.674 30.9657C218.674 30.7668 218.634 30.599 218.554 30.4625C218.476 30.326 218.356 30.2226 218.194 30.1524C218.034 30.0802 217.832 30.0441 217.588 30.0441H216.734V35H215.467ZM218.703 32.2734L220.192 35H218.794L217.337 32.2734H218.703ZM186.521 45V39.0085H188.885C189.337 39.0085 189.723 39.0895 190.043 39.2513C190.365 39.4113 190.61 39.6385 190.777 39.933C190.947 40.2255 191.032 40.5698 191.032 40.9657C191.032 41.3636 190.946 41.7059 190.774 41.9926C190.603 42.2773 190.354 42.4957 190.028 42.6479C189.705 42.8 189.313 42.8761 188.852 42.8761H187.27V41.858H188.648C188.889 41.858 189.09 41.8248 189.25 41.7585C189.41 41.6922 189.529 41.5927 189.607 41.4601C189.687 41.3275 189.727 41.1627 189.727 40.9657C189.727 40.7668 189.687 40.599 189.607 40.4625C189.529 40.326 189.409 40.2226 189.247 40.1524C189.087 40.0802 188.886 40.0441 188.642 40.0441H187.787V45H186.521ZM189.756 42.2734L191.245 45H189.847L188.39 42.2734H189.756ZM197.433 42.0043C197.433 42.6576 197.309 43.2135 197.061 43.6718C196.816 44.1301 196.48 44.4802 196.055 44.7221C195.632 44.962 195.156 45.0819 194.627 45.0819C194.095 45.0819 193.617 44.961 193.194 44.7191C192.771 44.4773 192.436 44.1272 192.19 43.6689C191.945 43.2105 191.822 42.6557 191.822 42.0043C191.822 41.3509 191.945 40.795 192.19 40.3367C192.436 39.8784 192.771 39.5293 193.194 39.2894C193.617 39.0475 194.095 38.9266 194.627 38.9266C195.156 38.9266 195.632 39.0475 196.055 39.2894C196.48 39.5293 196.816 39.8784 197.061 40.3367C197.309 40.795 197.433 41.3509 197.433 42.0043ZM196.149 42.0043C196.149 41.581 196.085 41.2241 195.959 40.9335C195.834 40.6429 195.657 40.4225 195.429 40.2723C195.201 40.1222 194.934 40.0471 194.627 40.0471C194.321 40.0471 194.054 40.1222 193.826 40.2723C193.598 40.4225 193.42 40.6429 193.293 40.9335C193.169 41.2241 193.106 41.581 193.106 42.0043C193.106 42.4275 193.169 42.7844 193.293 43.075C193.42 43.3656 193.598 43.586 193.826 43.7362C194.054 43.8863 194.321 43.9614 194.627 43.9614C194.934 43.9614 195.201 43.8863 195.429 43.7362C195.657 43.586 195.834 43.3656 195.959 43.075C196.085 42.7844 196.149 42.4275 196.149 42.0043ZM203.877 42.0043C203.877 42.6576 203.753 43.2135 203.506 43.6718C203.26 44.1301 202.924 44.4802 202.499 44.7221C202.076 44.962 201.6 45.0819 201.072 45.0819C200.539 45.0819 200.061 44.961 199.638 44.7191C199.215 44.4773 198.88 44.1272 198.635 43.6689C198.389 43.2105 198.266 42.6557 198.266 42.0043C198.266 41.3509 198.389 40.795 198.635 40.3367C198.88 39.8784 199.215 39.5293 199.638 39.2894C200.061 39.0475 200.539 38.9266 201.072 38.9266C201.6 38.9266 202.076 39.0475 202.499 39.2894C202.924 39.5293 203.26 39.8784 203.506 40.3367C203.753 40.795 203.877 41.3509 203.877 42.0043ZM202.593 42.0043C202.593 41.581 202.529 41.2241 202.403 40.9335C202.278 40.6429 202.101 40.4225 201.873 40.2723C201.645 40.1222 201.378 40.0471 201.072 40.0471C200.765 40.0471 200.498 40.1222 200.27 40.2723C200.042 40.4225 199.864 40.6429 199.738 40.9335C199.613 41.2241 199.55 41.581 199.55 42.0043C199.55 42.4275 199.613 42.7844 199.738 43.075C199.864 43.3656 200.042 43.586 200.27 43.7362C200.498 43.8863 200.765 43.9614 201.072 43.9614C201.378 43.9614 201.645 43.8863 201.873 43.7362C202.101 43.586 202.278 43.3656 202.403 43.075C202.529 42.7844 202.593 42.4275 202.593 42.0043ZM204.816 39.0085H206.378L208.028 43.034H208.098L209.748 39.0085H211.31V45H210.082V41.1003H210.032L208.481 44.9707H207.645L206.094 41.0856H206.044V45H204.816V39.0085ZM191.807 51.1061H190.526C190.502 50.9403 190.455 50.7931 190.382 50.6644C190.31 50.5337 190.218 50.4225 190.105 50.3309C189.991 50.2392 189.861 50.169 189.712 50.1202C189.566 50.0715 189.407 50.0471 189.236 50.0471C188.926 50.0471 188.655 50.1241 188.425 50.2782C188.195 50.4303 188.017 50.6527 187.89 50.9452C187.763 51.2358 187.7 51.5888 187.7 52.0043C187.7 52.4314 187.763 52.7902 187.89 53.0809C188.019 53.3715 188.198 53.5909 188.428 53.7391C188.658 53.8873 188.925 53.9614 189.227 53.9614C189.397 53.9614 189.554 53.939 189.698 53.8941C189.844 53.8493 189.974 53.784 190.087 53.6981C190.2 53.6104 190.294 53.5041 190.368 53.3793C190.444 53.2544 190.497 53.1121 190.526 52.9521L191.807 52.958C191.774 53.233 191.691 53.4982 191.559 53.7537C191.428 54.0073 191.251 54.2345 191.029 54.4354C190.809 54.6343 190.545 54.7923 190.239 54.9093C189.935 55.0244 189.591 55.0819 189.206 55.0819C188.672 55.0819 188.194 54.961 187.773 54.7191C187.354 54.4773 187.022 54.1272 186.778 53.6689C186.536 53.2105 186.415 52.6557 186.415 52.0043C186.415 51.3509 186.538 50.795 186.784 50.3367C187.03 49.8784 187.363 49.5293 187.785 49.2894C188.206 49.0475 188.68 48.9266 189.206 48.9266C189.554 48.9266 189.875 48.9754 190.172 49.0729C190.47 49.1704 190.734 49.3128 190.965 49.5C191.195 49.6853 191.382 49.9125 191.526 50.1816C191.673 50.4508 191.766 50.759 191.807 51.1061ZM192.68 55V54.0872L194.813 52.1125C194.995 51.937 195.147 51.779 195.27 51.6386C195.394 51.4981 195.489 51.3606 195.553 51.2261C195.618 51.0895 195.65 50.9423 195.65 50.7843C195.65 50.6088 195.61 50.4576 195.53 50.3309C195.45 50.2021 195.341 50.1036 195.202 50.0354C195.064 49.9652 194.907 49.9301 194.731 49.9301C194.548 49.9301 194.388 49.9671 194.251 50.0412C194.115 50.1153 194.01 50.2216 193.936 50.3601C193.861 50.4986 193.824 50.6634 193.824 50.8545H192.622C192.622 50.4625 192.711 50.1222 192.888 49.8335C193.066 49.5449 193.314 49.3215 193.634 49.1636C193.954 49.0056 194.323 48.9266 194.74 48.9266C195.169 48.9266 195.543 49.0027 195.861 49.1548C196.18 49.305 196.429 49.5137 196.607 49.7809C196.784 50.048 196.873 50.3543 196.873 50.6995C196.873 50.9257 196.828 51.149 196.738 51.3694C196.65 51.5898 196.493 51.8346 196.267 52.1037C196.041 52.3709 195.722 52.6918 195.311 53.0662L194.436 53.9234V53.9644H196.952V55H192.68ZM200.084 55.0819C199.647 55.0819 199.258 55.0068 198.917 54.8566C198.578 54.7045 198.309 54.4958 198.112 54.2306C197.917 53.9634 197.817 53.6552 197.811 53.3061H199.087C199.094 53.4524 199.142 53.5811 199.23 53.6923C199.32 53.8015 199.439 53.8863 199.587 53.9468C199.735 54.0073 199.902 54.0375 200.087 54.0375C200.28 54.0375 200.451 54.0034 200.599 53.9351C200.747 53.8668 200.863 53.7723 200.947 53.6513C201.031 53.5304 201.073 53.391 201.073 53.233C201.073 53.073 201.028 52.9316 200.938 52.8088C200.851 52.684 200.724 52.5864 200.558 52.5162C200.394 52.446 200.199 52.4109 199.973 52.4109H199.414V51.4806H199.973C200.164 51.4806 200.333 51.4474 200.479 51.3811C200.627 51.3148 200.742 51.2231 200.824 51.1061C200.906 50.9871 200.947 50.8487 200.947 50.6907C200.947 50.5405 200.911 50.4089 200.839 50.2957C200.769 50.1807 200.669 50.091 200.541 50.0266C200.414 49.9622 200.266 49.9301 200.096 49.9301C199.924 49.9301 199.767 49.9613 199.625 50.0237C199.483 50.0841 199.368 50.1709 199.283 50.284C199.197 50.3972 199.151 50.5298 199.145 50.6819H197.931C197.937 50.3367 198.035 50.0324 198.227 49.7691C198.418 49.5059 198.675 49.3001 198.999 49.1519C199.325 49.0017 199.692 48.9266 200.102 48.9266C200.515 48.9266 200.877 49.0017 201.187 49.1519C201.497 49.302 201.738 49.5049 201.91 49.7604C202.083 50.0139 202.169 50.2987 202.167 50.6146C202.169 50.9501 202.065 51.23 201.854 51.4543C201.646 51.6785 201.373 51.8209 201.038 51.8814V51.9282C201.479 51.9848 201.814 52.1379 202.044 52.3875C202.276 52.6352 202.392 52.9453 202.39 53.3178C202.392 53.6591 202.293 53.9624 202.094 54.2277C201.897 54.4929 201.625 54.7016 201.278 54.8537C200.931 55.0059 200.533 55.0819 200.084 55.0819ZM205.649 55.1316C205.146 55.1297 204.713 55.0059 204.35 54.7601C203.99 54.5144 203.712 54.1584 203.517 53.6923C203.324 53.2262 203.228 52.6654 203.23 52.0101C203.23 51.3567 203.326 50.7999 203.52 50.3396C203.715 49.8793 203.993 49.5293 204.353 49.2894C204.716 49.0475 205.148 48.9266 205.649 48.9266C206.151 48.9266 206.582 49.0475 206.942 49.2894C207.305 49.5312 207.584 49.8823 207.779 50.3426C207.974 50.8009 208.071 51.3567 208.069 52.0101C208.069 52.6674 207.971 53.2291 207.776 53.6952C207.583 54.1613 207.306 54.5173 206.945 54.763C206.585 55.0088 206.153 55.1316 205.649 55.1316ZM205.649 54.0814C205.993 54.0814 206.267 53.9088 206.471 53.5636C206.676 53.2184 206.778 52.7005 206.776 52.0101C206.776 51.5557 206.729 51.1773 206.635 50.875C206.544 50.5727 206.413 50.3455 206.243 50.1934C206.075 50.0412 205.878 49.9652 205.649 49.9652C205.308 49.9652 205.035 50.1358 204.83 50.4771C204.625 50.8184 204.522 51.3294 204.52 52.0101C204.52 52.4704 204.566 52.8546 204.658 53.1628C204.751 53.469 204.883 53.6991 205.053 53.8532C205.222 54.0053 205.421 54.0814 205.649 54.0814Z" fill="black"/>
<path d="M173.771 83.7316C173.748 83.4957 173.647 83.3123 173.47 83.1816C173.292 83.051 173.051 82.9856 172.747 82.9856C172.54 82.9856 172.366 83.0149 172.223 83.0734C172.081 83.13 171.972 83.209 171.896 83.3104C171.822 83.4118 171.785 83.5269 171.785 83.6556C171.781 83.7629 171.803 83.8565 171.852 83.9364C171.903 84.0164 171.972 84.0856 172.06 84.1441C172.147 84.2007 172.249 84.2504 172.364 84.2934C172.479 84.3343 172.602 84.3694 172.732 84.3987L173.271 84.5274C173.532 84.5859 173.772 84.6639 173.99 84.7614C174.209 84.859 174.398 84.9789 174.558 85.1213C174.718 85.2637 174.842 85.4314 174.93 85.6245C175.019 85.8176 175.065 86.0389 175.067 86.2886C175.065 86.6552 174.971 86.9731 174.786 87.2423C174.603 87.5095 174.338 87.7172 173.99 87.8654C173.645 88.0117 173.229 88.0848 172.741 88.0848C172.258 88.0848 171.836 88.0107 171.477 87.8625C171.12 87.7143 170.842 87.4949 170.641 87.2043C170.442 86.9117 170.337 86.5499 170.328 86.1189H171.553C171.567 86.3198 171.625 86.4875 171.726 86.6221C171.829 86.7547 171.967 86.8551 172.139 86.9234C172.312 86.9897 172.508 87.0229 172.727 87.0229C172.941 87.0229 173.127 86.9917 173.285 86.9293C173.445 86.8668 173.569 86.7801 173.657 86.6689C173.745 86.5577 173.789 86.43 173.789 86.2856C173.789 86.1511 173.749 86.0379 173.669 85.9463C173.591 85.8546 173.476 85.7766 173.323 85.7122C173.173 85.6479 172.989 85.5894 172.77 85.5367L172.118 85.3729C171.613 85.25 171.214 85.0579 170.922 84.7965C170.629 84.5352 170.484 84.1832 170.486 83.7404C170.484 83.3777 170.58 83.0607 170.775 82.7896C170.972 82.5185 171.242 82.3069 171.586 82.1548C171.929 82.0027 172.319 81.9266 172.756 81.9266C173.201 81.9266 173.589 82.0027 173.92 82.1548C174.254 82.3069 174.513 82.5185 174.698 82.7896C174.884 83.0607 174.979 83.3747 174.985 83.7316H173.771ZM175.691 83.0529V82.0085H180.612V83.0529H178.777V88H177.525V83.0529H175.691ZM181.723 88H180.365L182.434 82.0085H184.066L186.131 88H184.774L183.273 83.3777H183.226L181.723 88ZM181.638 85.6449H184.844V86.6338H181.638V85.6449ZM188.119 82.0085V88H186.853V82.0085H188.119ZM189.162 88V82.0085H191.525C191.978 82.0085 192.364 82.0895 192.684 82.2513C193.006 82.4113 193.25 82.6385 193.418 82.933C193.588 83.2255 193.673 83.5698 193.673 83.9657C193.673 84.3636 193.587 84.7059 193.415 84.9926C193.244 85.2773 192.995 85.4957 192.669 85.6479C192.345 85.8 191.953 85.8761 191.493 85.8761H189.91V84.858H191.288C191.53 84.858 191.731 84.8248 191.891 84.7585C192.051 84.6922 192.17 84.5927 192.248 84.4601C192.328 84.3275 192.368 84.1627 192.368 83.9657C192.368 83.7668 192.328 83.599 192.248 83.4625C192.17 83.326 192.05 83.2226 191.888 83.1524C191.728 83.0802 191.526 83.0441 191.283 83.0441H190.428V88H189.162ZM192.397 85.2734L193.886 88H192.488L191.031 85.2734H192.397ZM197.818 83.7316C197.795 83.4957 197.694 83.3123 197.517 83.1816C197.339 83.051 197.098 82.9856 196.794 82.9856C196.587 82.9856 196.413 83.0149 196.271 83.0734C196.128 83.13 196.019 83.209 195.943 83.3104C195.869 83.4118 195.832 83.5269 195.832 83.6556C195.828 83.7629 195.85 83.8565 195.899 83.9364C195.95 84.0164 196.019 84.0856 196.107 84.1441C196.194 84.2007 196.296 84.2504 196.411 84.2934C196.526 84.3343 196.649 84.3694 196.78 84.3987L197.318 84.5274C197.579 84.5859 197.819 84.6639 198.038 84.7614C198.256 84.859 198.445 84.9789 198.605 85.1213C198.765 85.2637 198.889 85.4314 198.977 85.6245C199.066 85.8176 199.112 86.0389 199.114 86.2886C199.112 86.6552 199.019 86.9731 198.833 87.2423C198.65 87.5095 198.385 87.7172 198.038 87.8654C197.692 88.0117 197.276 88.0848 196.788 88.0848C196.305 88.0848 195.883 88.0107 195.525 87.8625C195.168 87.7143 194.889 87.4949 194.688 87.2043C194.489 86.9117 194.385 86.5499 194.375 86.1189H195.601C195.614 86.3198 195.672 86.4875 195.773 86.6221C195.877 86.7547 196.014 86.8551 196.186 86.9234C196.359 86.9897 196.555 87.0229 196.774 87.0229C196.988 87.0229 197.175 86.9917 197.333 86.9293C197.492 86.8668 197.616 86.7801 197.704 86.6689C197.792 86.5577 197.836 86.43 197.836 86.2856C197.836 86.1511 197.796 86.0379 197.716 85.9463C197.638 85.8546 197.523 85.7766 197.371 85.7122C197.22 85.6479 197.036 85.5894 196.818 85.5367L196.165 85.3729C195.66 85.25 195.261 85.0579 194.969 84.7965C194.676 84.5352 194.531 84.1832 194.533 83.7404C194.531 83.3777 194.627 83.0607 194.822 82.7896C195.019 82.5185 195.29 82.3069 195.633 82.1548C195.976 82.0027 196.366 81.9266 196.803 81.9266C197.248 81.9266 197.636 82.0027 197.967 82.1548C198.301 82.3069 198.56 82.5185 198.746 82.7896C198.931 83.0607 199.026 83.3747 199.032 83.7316H197.818Z" fill="black"/>
<path d="M270.771 99.7316C270.748 99.4957 270.647 99.3123 270.47 99.1816C270.292 99.051 270.051 98.9856 269.747 98.9856C269.54 98.9856 269.366 99.0149 269.223 99.0734C269.081 99.13 268.972 99.209 268.896 99.3104C268.822 99.4118 268.785 99.5269 268.785 99.6556C268.781 99.7629 268.803 99.8565 268.852 99.9364C268.903 100.016 268.972 100.086 269.06 100.144C269.147 100.201 269.249 100.25 269.364 100.293C269.479 100.334 269.602 100.369 269.732 100.399L270.271 100.527C270.532 100.586 270.772 100.664 270.99 100.761C271.209 100.859 271.398 100.979 271.558 101.121C271.718 101.264 271.842 101.431 271.93 101.624C272.019 101.818 272.065 102.039 272.067 102.289C272.065 102.655 271.971 102.973 271.786 103.242C271.603 103.509 271.338 103.717 270.99 103.865C270.645 104.012 270.229 104.085 269.741 104.085C269.258 104.085 268.836 104.011 268.477 103.862C268.12 103.714 267.842 103.495 267.641 103.204C267.442 102.912 267.337 102.55 267.328 102.119H268.553C268.567 102.32 268.625 102.487 268.726 102.622C268.829 102.755 268.967 102.855 269.139 102.923C269.312 102.99 269.508 103.023 269.727 103.023C269.941 103.023 270.127 102.992 270.285 102.929C270.445 102.867 270.569 102.78 270.657 102.669C270.745 102.558 270.789 102.43 270.789 102.286C270.789 102.151 270.749 102.038 270.669 101.946C270.591 101.855 270.476 101.777 270.323 101.712C270.173 101.648 269.989 101.589 269.77 101.537L269.118 101.373C268.613 101.25 268.214 101.058 267.922 100.797C267.629 100.535 267.484 100.183 267.486 99.7404C267.484 99.3777 267.58 99.0607 267.775 98.7896C267.972 98.5185 268.242 98.3069 268.586 98.1548C268.929 98.0027 269.319 97.9266 269.756 97.9266C270.201 97.9266 270.589 98.0027 270.92 98.1548C271.254 98.3069 271.513 98.5185 271.698 98.7896C271.884 99.0607 271.979 99.3747 271.985 99.7316H270.771ZM272.691 99.0529V98.0085H277.612V99.0529H275.777V104H274.525V99.0529H272.691ZM278.723 104H277.365L279.434 98.0085H281.066L283.131 104H281.774L280.273 99.3777H280.226L278.723 104ZM278.638 101.645H281.844V102.634H278.638V101.645ZM285.119 98.0085V104H283.853V98.0085H285.119ZM286.162 104V98.0085H288.525C288.978 98.0085 289.364 98.0895 289.684 98.2513C290.006 98.4113 290.25 98.6385 290.418 98.933C290.588 99.2255 290.673 99.5698 290.673 99.9657C290.673 100.364 290.587 100.706 290.415 100.993C290.244 101.277 289.995 101.496 289.669 101.648C289.345 101.8 288.953 101.876 288.493 101.876H286.91V100.858H288.288C288.53 100.858 288.731 100.825 288.891 100.759C289.051 100.692 289.17 100.593 289.248 100.46C289.328 100.327 289.368 100.163 289.368 99.9657C289.368 99.7668 289.328 99.599 289.248 99.4625C289.17 99.326 289.05 99.2226 288.888 99.1524C288.728 99.0802 288.526 99.0441 288.283 99.0441H287.428V104H286.162ZM289.397 101.273L290.886 104H289.488L288.031 101.273H289.397ZM294.818 99.7316C294.795 99.4957 294.694 99.3123 294.517 99.1816C294.339 99.051 294.098 98.9856 293.794 98.9856C293.587 98.9856 293.413 99.0149 293.271 99.0734C293.128 99.13 293.019 99.209 292.943 99.3104C292.869 99.4118 292.832 99.5269 292.832 99.6556C292.828 99.7629 292.85 99.8565 292.899 99.9364C292.95 100.016 293.019 100.086 293.107 100.144C293.194 100.201 293.296 100.25 293.411 100.293C293.526 100.334 293.649 100.369 293.78 100.399L294.318 100.527C294.579 100.586 294.819 100.664 295.038 100.761C295.256 100.859 295.445 100.979 295.605 101.121C295.765 101.264 295.889 101.431 295.977 101.624C296.066 101.818 296.112 102.039 296.114 102.289C296.112 102.655 296.019 102.973 295.833 103.242C295.65 103.509 295.385 103.717 295.038 103.865C294.692 104.012 294.276 104.085 293.788 104.085C293.305 104.085 292.883 104.011 292.525 103.862C292.168 103.714 291.889 103.495 291.688 103.204C291.489 102.912 291.385 102.55 291.375 102.119H292.601C292.614 102.32 292.672 102.487 292.773 102.622C292.877 102.755 293.014 102.855 293.186 102.923C293.359 102.99 293.555 103.023 293.774 103.023C293.988 103.023 294.175 102.992 294.333 102.929C294.492 102.867 294.616 102.78 294.704 102.669C294.792 102.558 294.836 102.43 294.836 102.286C294.836 102.151 294.796 102.038 294.716 101.946C294.638 101.855 294.523 101.777 294.371 101.712C294.22 101.648 294.036 101.589 293.818 101.537L293.165 101.373C292.66 101.25 292.261 101.058 291.969 100.797C291.676 100.535 291.531 100.183 291.533 99.7404C291.531 99.3777 291.627 99.0607 291.822 98.7896C292.019 98.5185 292.29 98.3069 292.633 98.1548C292.976 98.0027 293.366 97.9266 293.803 97.9266C294.248 97.9266 294.636 98.0027 294.967 98.1548C295.301 98.3069 295.56 98.5185 295.746 98.7896C295.931 99.0607 296.026 99.3747 296.032 99.7316H294.818Z" fill="black"/>
<path d="M262.521 89V83.0085H266.558V84.0529H263.787V85.4806H266.35V86.525H263.787V87.9556H266.57V89H262.521ZM267.565 89V83.0085H268.832V87.9556H271.4V89H267.565ZM272.239 89V83.0085H276.277V84.0529H273.506V85.4806H276.069V86.525H273.506V87.9556H276.288V89H272.239ZM278.366 83.0085L279.814 87.5606H279.87L281.321 83.0085H282.725L280.66 89H279.027L276.959 83.0085H278.366ZM283.683 89H282.325L284.393 83.0085H286.026L288.091 89H286.734L285.233 84.3777H285.186L283.683 89ZM283.598 86.6449H286.804V87.6338H283.598V86.6449ZM287.852 84.0529V83.0085H292.773V84.0529H290.939V89H289.687V84.0529H287.852ZM298.816 86.0043C298.816 86.6576 298.692 87.2135 298.444 87.6718C298.198 88.1301 297.863 88.4802 297.438 88.7221C297.014 88.962 296.539 89.0819 296.01 89.0819C295.478 89.0819 295 88.961 294.577 88.7191C294.153 88.4773 293.819 88.1272 293.573 87.6689C293.327 87.2105 293.204 86.6557 293.204 86.0043C293.204 85.3509 293.327 84.795 293.573 84.3367C293.819 83.8784 294.153 83.5293 294.577 83.2894C295 83.0475 295.478 82.9266 296.01 82.9266C296.539 82.9266 297.014 83.0475 297.438 83.2894C297.863 83.5293 298.198 83.8784 298.444 84.3367C298.692 84.795 298.816 85.3509 298.816 86.0043ZM297.531 86.0043C297.531 85.581 297.468 85.2241 297.341 84.9335C297.216 84.6429 297.04 84.4225 296.812 84.2723C296.583 84.1222 296.316 84.0471 296.01 84.0471C295.704 84.0471 295.437 84.1222 295.208 84.2723C294.98 84.4225 294.803 84.6429 294.676 84.9335C294.551 85.2241 294.489 85.581 294.489 86.0043C294.489 86.4275 294.551 86.7844 294.676 87.075C294.803 87.3656 294.98 87.586 295.208 87.7362C295.437 87.8863 295.704 87.9614 296.01 87.9614C296.316 87.9614 296.583 87.8863 296.812 87.7362C297.04 87.586 297.216 87.3656 297.341 87.075C297.468 86.7844 297.531 86.4275 297.531 86.0043ZM299.754 89V83.0085H302.118C302.57 83.0085 302.956 83.0895 303.276 83.2513C303.598 83.4113 303.843 83.6385 304.011 83.933C304.18 84.2255 304.265 84.5698 304.265 84.9657C304.265 85.3636 304.179 85.7059 304.008 85.9926C303.836 86.2773 303.587 86.4957 303.262 86.6479C302.938 86.8 302.546 86.8761 302.086 86.8761H300.503V85.858H301.881C302.123 85.858 302.324 85.8248 302.484 85.7585C302.643 85.6922 302.762 85.5927 302.84 85.4601C302.92 85.3275 302.96 85.1627 302.96 84.9657C302.96 84.7668 302.92 84.599 302.84 84.4625C302.762 84.326 302.642 84.2226 302.481 84.1524C302.321 84.0802 302.119 84.0441 301.875 84.0441H301.021V89H299.754ZM302.99 86.2734L304.479 89H303.08L301.623 86.2734H302.99Z" fill="black"/>
<path d="M46.8694 168L45.1551 162.009H46.5388L47.5306 166.172H47.5803L48.6745 162.009H49.8593L50.9505 166.18H51.0032L51.9949 162.009H53.3787L51.6644 168H50.4298L49.2888 164.083H49.242L48.104 168H46.8694ZM54.486 168H53.1286L55.1969 162.009H56.8294L58.8948 168H57.5374L56.0366 163.378H55.9898L54.486 168ZM54.4012 165.645H57.6076V166.634H54.4012V165.645ZM62.7295 163.732C62.706 163.496 62.6056 163.312 62.4281 163.182C62.2506 163.051 62.0098 162.986 61.7055 162.986C61.4988 162.986 61.3242 163.015 61.1818 163.073C61.0395 163.13 60.9303 163.209 60.8542 163.31C60.7801 163.412 60.743 163.527 60.743 163.656C60.7391 163.763 60.7615 163.856 60.8103 163.936C60.861 164.016 60.9303 164.086 61.018 164.144C61.1058 164.201 61.2072 164.25 61.3223 164.293C61.4373 164.334 61.5602 164.369 61.6909 164.399L62.2292 164.527C62.4905 164.586 62.7304 164.664 62.9489 164.761C63.1673 164.859 63.3565 164.979 63.5164 165.121C63.6764 165.264 63.8002 165.431 63.888 165.624C63.9777 165.818 64.0235 166.039 64.0255 166.289C64.0235 166.655 63.9299 166.973 63.7446 167.242C63.5613 167.509 63.296 167.717 62.9489 167.865C62.6037 168.012 62.1873 168.085 61.6997 168.085C61.216 168.085 60.7947 168.011 60.4358 167.862C60.0789 167.714 59.8 167.495 59.5991 167.204C59.4002 166.912 59.2959 166.55 59.2861 166.119H60.5119C60.5256 166.32 60.5831 166.487 60.6845 166.622C60.7879 166.755 60.9254 166.855 61.097 166.923C61.2706 166.99 61.4666 167.023 61.685 167.023C61.8996 167.023 62.0858 166.992 62.2438 166.929C62.4037 166.867 62.5276 166.78 62.6154 166.669C62.7031 166.558 62.747 166.43 62.747 166.286C62.747 166.151 62.707 166.038 62.6271 165.946C62.549 165.855 62.434 165.777 62.2818 165.712C62.1317 165.648 61.9474 165.589 61.7289 165.537L61.0765 165.373C60.5714 165.25 60.1725 165.058 59.88 164.797C59.5874 164.535 59.4421 164.183 59.4441 163.74C59.4421 163.378 59.5387 163.061 59.7337 162.79C59.9307 162.519 60.2008 162.307 60.5441 162.155C60.8873 162.003 61.2774 161.927 61.7143 161.927C62.159 161.927 62.5471 162.003 62.8787 162.155C63.2122 162.307 63.4716 162.519 63.6568 162.79C63.8421 163.061 63.9377 163.375 63.9435 163.732H62.7295ZM64.8775 168V162.009H66.1443V164.481H68.7158V162.009H69.9797V168H68.7158V165.525H66.1443V168H64.8775ZM45.5207 178V172.009H47.8846C48.3371 172.009 48.7232 172.089 49.0431 172.251C49.3649 172.411 49.6097 172.638 49.7774 172.933C49.9471 173.226 50.0319 173.57 50.0319 173.966C50.0319 174.364 49.9461 174.706 49.7745 174.993C49.6028 175.277 49.3542 175.496 49.0285 175.648C48.7047 175.8 48.3127 175.876 47.8524 175.876H46.2697V174.858H47.6476C47.8895 174.858 48.0903 174.825 48.2503 174.759C48.4102 174.692 48.5292 174.593 48.6072 174.46C48.6871 174.327 48.7271 174.163 48.7271 173.966C48.7271 173.767 48.6871 173.599 48.6072 173.463C48.5292 173.326 48.4092 173.223 48.2473 173.152C48.0874 173.08 47.8855 173.044 47.6418 173.044H46.7875V178H45.5207ZM48.7564 175.273L50.2455 178H48.8471L47.3902 175.273H48.7564ZM56.433 175.004C56.433 175.658 56.3091 176.213 56.0614 176.672C55.8157 177.13 55.4802 177.48 55.0551 177.722C54.6318 177.962 54.1559 178.082 53.6274 178.082C53.0949 178.082 52.6171 177.961 52.1939 177.719C51.7707 177.477 51.4362 177.127 51.1904 176.669C50.9447 176.211 50.8218 175.656 50.8218 175.004C50.8218 174.351 50.9447 173.795 51.1904 173.337C51.4362 172.878 51.7707 172.529 52.1939 172.289C52.6171 172.048 53.0949 171.927 53.6274 171.927C54.1559 171.927 54.6318 172.048 55.0551 172.289C55.4802 172.529 55.8157 172.878 56.0614 173.337C56.3091 173.795 56.433 174.351 56.433 175.004ZM55.1487 175.004C55.1487 174.581 55.0853 174.224 54.9585 173.934C54.8337 173.643 54.6572 173.423 54.429 173.272C54.2008 173.122 53.9336 173.047 53.6274 173.047C53.3212 173.047 53.054 173.122 52.8258 173.272C52.5976 173.423 52.4201 173.643 52.2934 173.934C52.1685 174.224 52.1061 174.581 52.1061 175.004C52.1061 175.427 52.1685 175.784 52.2934 176.075C52.4201 176.366 52.5976 176.586 52.8258 176.736C53.054 176.886 53.3212 176.961 53.6274 176.961C53.9336 176.961 54.2008 176.886 54.429 176.736C54.6572 176.586 54.8337 176.366 54.9585 176.075C55.0853 175.784 55.1487 175.427 55.1487 175.004ZM62.8772 175.004C62.8772 175.658 62.7533 176.213 62.5057 176.672C62.2599 177.13 61.9244 177.48 61.4993 177.722C61.076 177.962 60.6002 178.082 60.0716 178.082C59.5392 178.082 59.0613 177.961 58.6381 177.719C58.2149 177.477 57.8804 177.127 57.6346 176.669C57.3889 176.211 57.266 175.656 57.266 175.004C57.266 174.351 57.3889 173.795 57.6346 173.337C57.8804 172.878 58.2149 172.529 58.6381 172.289C59.0613 172.048 59.5392 171.927 60.0716 171.927C60.6002 171.927 61.076 172.048 61.4993 172.289C61.9244 172.529 62.2599 172.878 62.5057 173.337C62.7533 173.795 62.8772 174.351 62.8772 175.004ZM61.5929 175.004C61.5929 174.581 61.5295 174.224 61.4027 173.934C61.2779 173.643 61.1014 173.423 60.8732 173.272C60.645 173.122 60.3778 173.047 60.0716 173.047C59.7654 173.047 59.4982 173.122 59.27 173.272C59.0418 173.423 58.8643 173.643 58.7376 173.934C58.6127 174.224 58.5503 174.581 58.5503 175.004C58.5503 175.427 58.6127 175.784 58.7376 176.075C58.8643 176.366 59.0418 176.586 59.27 176.736C59.4982 176.886 59.7654 176.961 60.0716 176.961C60.3778 176.961 60.645 176.886 60.8732 176.736C61.1014 176.586 61.2779 176.366 61.4027 176.075C61.5295 175.784 61.5929 175.427 61.5929 175.004ZM63.8156 172.009H65.3778L67.0278 176.034H67.098L68.748 172.009H70.3102V178H69.0815V174.1H69.0318L67.4812 177.971H66.6445L65.094 174.086H65.0443V178H63.8156V172.009Z" fill="black"/>
<path d="M127.771 39.7316C127.748 39.4957 127.647 39.3123 127.47 39.1816C127.292 39.051 127.051 38.9856 126.747 38.9856C126.54 38.9856 126.366 39.0149 126.223 39.0734C126.081 39.13 125.972 39.209 125.896 39.3104C125.822 39.4118 125.785 39.5269 125.785 39.6556C125.781 39.7629 125.803 39.8565 125.852 39.9364C125.903 40.0164 125.972 40.0856 126.06 40.1441C126.147 40.2007 126.249 40.2504 126.364 40.2934C126.479 40.3343 126.602 40.3694 126.732 40.3987L127.271 40.5274C127.532 40.5859 127.772 40.6639 127.99 40.7614C128.209 40.859 128.398 40.9789 128.558 41.1213C128.718 41.2637 128.842 41.4314 128.93 41.6245C129.019 41.8176 129.065 42.0389 129.067 42.2886C129.065 42.6552 128.971 42.9731 128.786 43.2423C128.603 43.5095 128.338 43.7172 127.99 43.8654C127.645 44.0117 127.229 44.0848 126.741 44.0848C126.258 44.0848 125.836 44.0107 125.477 43.8625C125.12 43.7143 124.842 43.4949 124.641 43.2043C124.442 42.9117 124.337 42.5499 124.328 42.1189H125.553C125.567 42.3198 125.625 42.4875 125.726 42.6221C125.829 42.7547 125.967 42.8551 126.139 42.9234C126.312 42.9897 126.508 43.0229 126.727 43.0229C126.941 43.0229 127.127 42.9917 127.285 42.9293C127.445 42.8668 127.569 42.7801 127.657 42.6689C127.745 42.5577 127.789 42.43 127.789 42.2856C127.789 42.1511 127.749 42.0379 127.669 41.9463C127.591 41.8546 127.476 41.7766 127.323 41.7122C127.173 41.6479 126.989 41.5894 126.77 41.5367L126.118 41.3729C125.613 41.25 125.214 41.0579 124.922 40.7965C124.629 40.5352 124.484 40.1832 124.486 39.7404C124.484 39.3777 124.58 39.0607 124.775 38.7896C124.972 38.5185 125.242 38.3069 125.586 38.1548C125.929 38.0027 126.319 37.9266 126.756 37.9266C127.201 37.9266 127.589 38.0027 127.92 38.1548C128.254 38.3069 128.513 38.5185 128.698 38.7896C128.884 39.0607 128.979 39.3747 128.985 39.7316H127.771ZM129.691 39.0529V38.0085H134.612V39.0529H132.777V44H131.525V39.0529H129.691ZM135.723 44H134.365L136.434 38.0085H138.066L140.131 44H138.774L137.273 39.3777H137.226L135.723 44ZM135.638 41.6449H138.844V42.6338H135.638V41.6449ZM142.119 38.0085V44H140.853V38.0085H142.119ZM143.162 44V38.0085H145.525C145.978 38.0085 146.364 38.0895 146.684 38.2513C147.006 38.4113 147.25 38.6385 147.418 38.933C147.588 39.2255 147.673 39.5698 147.673 39.9657C147.673 40.3636 147.587 40.7059 147.415 40.9926C147.244 41.2773 146.995 41.4957 146.669 41.6479C146.345 41.8 145.953 41.8761 145.493 41.8761H143.91V40.858H145.288C145.53 40.858 145.731 40.8248 145.891 40.7585C146.051 40.6922 146.17 40.5927 146.248 40.4601C146.328 40.3275 146.368 40.1627 146.368 39.9657C146.368 39.7668 146.328 39.599 146.248 39.4625C146.17 39.326 146.05 39.2226 145.888 39.1524C145.728 39.0802 145.526 39.0441 145.283 39.0441H144.428V44H143.162ZM146.397 41.2734L147.886 44H146.488L145.031 41.2734H146.397ZM151.818 39.7316C151.795 39.4957 151.694 39.3123 151.517 39.1816C151.339 39.051 151.098 38.9856 150.794 38.9856C150.587 38.9856 150.413 39.0149 150.271 39.0734C150.128 39.13 150.019 39.209 149.943 39.3104C149.869 39.4118 149.832 39.5269 149.832 39.6556C149.828 39.7629 149.85 39.8565 149.899 39.9364C149.95 40.0164 150.019 40.0856 150.107 40.1441C150.194 40.2007 150.296 40.2504 150.411 40.2934C150.526 40.3343 150.649 40.3694 150.78 40.3987L151.318 40.5274C151.579 40.5859 151.819 40.6639 152.038 40.7614C152.256 40.859 152.445 40.9789 152.605 41.1213C152.765 41.2637 152.889 41.4314 152.977 41.6245C153.066 41.8176 153.112 42.0389 153.114 42.2886C153.112 42.6552 153.019 42.9731 152.833 43.2423C152.65 43.5095 152.385 43.7172 152.038 43.8654C151.692 44.0117 151.276 44.0848 150.788 44.0848C150.305 44.0848 149.883 44.0107 149.525 43.8625C149.168 43.7143 148.889 43.4949 148.688 43.2043C148.489 42.9117 148.385 42.5499 148.375 42.1189H149.601C149.614 42.3198 149.672 42.4875 149.773 42.6221C149.877 42.7547 150.014 42.8551 150.186 42.9234C150.359 42.9897 150.555 43.0229 150.774 43.0229C150.988 43.0229 151.175 42.9917 151.333 42.9293C151.492 42.8668 151.616 42.7801 151.704 42.6689C151.792 42.5577 151.836 42.43 151.836 42.2856C151.836 42.1511 151.796 42.0379 151.716 41.9463C151.638 41.8546 151.523 41.7766 151.371 41.7122C151.22 41.6479 151.036 41.5894 150.818 41.5367L150.165 41.3729C149.66 41.25 149.261 41.0579 148.969 40.7965C148.676 40.5352 148.531 40.1832 148.533 39.7404C148.531 39.3777 148.627 39.0607 148.822 38.7896C149.019 38.5185 149.29 38.3069 149.633 38.1548C149.976 38.0027 150.366 37.9266 150.803 37.9266C151.248 37.9266 151.636 38.0027 151.967 38.1548C152.301 38.3069 152.56 38.5185 152.746 38.7896C152.931 39.0607 153.026 39.3747 153.032 39.7316H151.818Z" fill="black"/>
<path d="M387.771 39.7316C387.748 39.4957 387.647 39.3123 387.47 39.1816C387.292 39.051 387.051 38.9856 386.747 38.9856C386.54 38.9856 386.366 39.0149 386.223 39.0734C386.081 39.13 385.972 39.209 385.896 39.3104C385.822 39.4118 385.785 39.5269 385.785 39.6556C385.781 39.7629 385.803 39.8565 385.852 39.9364C385.903 40.0164 385.972 40.0856 386.06 40.1441C386.147 40.2007 386.249 40.2504 386.364 40.2934C386.479 40.3343 386.602 40.3694 386.732 40.3987L387.271 40.5274C387.532 40.5859 387.772 40.6639 387.99 40.7614C388.209 40.859 388.398 40.9789 388.558 41.1213C388.718 41.2637 388.842 41.4314 388.93 41.6245C389.019 41.8176 389.065 42.0389 389.067 42.2886C389.065 42.6552 388.971 42.9731 388.786 43.2423C388.603 43.5095 388.338 43.7172 387.99 43.8654C387.645 44.0117 387.229 44.0848 386.741 44.0848C386.258 44.0848 385.836 44.0107 385.477 43.8625C385.12 43.7143 384.842 43.4949 384.641 43.2043C384.442 42.9117 384.337 42.5499 384.328 42.1189H385.553C385.567 42.3198 385.625 42.4875 385.726 42.6221C385.829 42.7547 385.967 42.8551 386.139 42.9234C386.312 42.9897 386.508 43.0229 386.727 43.0229C386.941 43.0229 387.127 42.9917 387.285 42.9293C387.445 42.8668 387.569 42.7801 387.657 42.6689C387.745 42.5577 387.789 42.43 387.789 42.2856C387.789 42.1511 387.749 42.0379 387.669 41.9463C387.591 41.8546 387.476 41.7766 387.323 41.7122C387.173 41.6479 386.989 41.5894 386.77 41.5367L386.118 41.3729C385.613 41.25 385.214 41.0579 384.922 40.7965C384.629 40.5352 384.484 40.1832 384.486 39.7404C384.484 39.3777 384.58 39.0607 384.775 38.7896C384.972 38.5185 385.242 38.3069 385.586 38.1548C385.929 38.0027 386.319 37.9266 386.756 37.9266C387.201 37.9266 387.589 38.0027 387.92 38.1548C388.254 38.3069 388.513 38.5185 388.698 38.7896C388.884 39.0607 388.979 39.3747 388.985 39.7316H387.771ZM389.691 39.0529V38.0085H394.612V39.0529H392.777V44H391.525V39.0529H389.691ZM395.723 44H394.365L396.434 38.0085H398.066L400.131 44H398.774L397.273 39.3777H397.226L395.723 44ZM395.638 41.6449H398.844V42.6338H395.638V41.6449ZM402.119 38.0085V44H400.853V38.0085H402.119ZM403.162 44V38.0085H405.525C405.978 38.0085 406.364 38.0895 406.684 38.2513C407.006 38.4113 407.25 38.6385 407.418 38.933C407.588 39.2255 407.673 39.5698 407.673 39.9657C407.673 40.3636 407.587 40.7059 407.415 40.9926C407.244 41.2773 406.995 41.4957 406.669 41.6479C406.345 41.8 405.953 41.8761 405.493 41.8761H403.91V40.858H405.288C405.53 40.858 405.731 40.8248 405.891 40.7585C406.051 40.6922 406.17 40.5927 406.248 40.4601C406.328 40.3275 406.368 40.1627 406.368 39.9657C406.368 39.7668 406.328 39.599 406.248 39.4625C406.17 39.326 406.05 39.2226 405.888 39.1524C405.728 39.0802 405.526 39.0441 405.283 39.0441H404.428V44H403.162ZM406.397 41.2734L407.886 44H406.488L405.031 41.2734H406.397ZM411.818 39.7316C411.795 39.4957 411.694 39.3123 411.517 39.1816C411.339 39.051 411.098 38.9856 410.794 38.9856C410.587 38.9856 410.413 39.0149 410.271 39.0734C410.128 39.13 410.019 39.209 409.943 39.3104C409.869 39.4118 409.832 39.5269 409.832 39.6556C409.828 39.7629 409.85 39.8565 409.899 39.9364C409.95 40.0164 410.019 40.0856 410.107 40.1441C410.194 40.2007 410.296 40.2504 410.411 40.2934C410.526 40.3343 410.649 40.3694 410.78 40.3987L411.318 40.5274C411.579 40.5859 411.819 40.6639 412.038 40.7614C412.256 40.859 412.445 40.9789 412.605 41.1213C412.765 41.2637 412.889 41.4314 412.977 41.6245C413.066 41.8176 413.112 42.0389 413.114 42.2886C413.112 42.6552 413.019 42.9731 412.833 43.2423C412.65 43.5095 412.385 43.7172 412.038 43.8654C411.692 44.0117 411.276 44.0848 410.788 44.0848C410.305 44.0848 409.883 44.0107 409.525 43.8625C409.168 43.7143 408.889 43.4949 408.688 43.2043C408.489 42.9117 408.385 42.5499 408.375 42.1189H409.601C409.614 42.3198 409.672 42.4875 409.773 42.6221C409.877 42.7547 410.014 42.8551 410.186 42.9234C410.359 42.9897 410.555 43.0229 410.774 43.0229C410.988 43.0229 411.175 42.9917 411.333 42.9293C411.492 42.8668 411.616 42.7801 411.704 42.6689C411.792 42.5577 411.836 42.43 411.836 42.2856C411.836 42.1511 411.796 42.0379 411.716 41.9463C411.638 41.8546 411.523 41.7766 411.371 41.7122C411.22 41.6479 411.036 41.5894 410.818 41.5367L410.165 41.3729C409.66 41.25 409.261 41.0579 408.969 40.7965C408.676 40.5352 408.531 40.1832 408.533 39.7404C408.531 39.3777 408.627 39.0607 408.822 38.7896C409.019 38.5185 409.29 38.3069 409.633 38.1548C409.976 38.0027 410.366 37.9266 410.803 37.9266C411.248 37.9266 411.636 38.0027 411.967 38.1548C412.301 38.3069 412.56 38.5185 412.746 38.7896C412.931 39.0607 413.026 39.3747 413.032 39.7316H411.818Z" fill="black"/>
<path d="M410.746 120.891C410.729 120.719 410.656 120.586 410.527 120.491C410.398 120.396 410.222 120.348 410.001 120.348C409.85 120.348 409.723 120.369 409.619 120.412C409.516 120.453 409.436 120.511 409.381 120.585C409.327 120.658 409.3 120.742 409.3 120.836C409.297 120.914 409.313 120.982 409.349 121.04C409.386 121.099 409.436 121.149 409.5 121.192C409.564 121.233 409.638 121.269 409.722 121.3C409.805 121.33 409.895 121.356 409.99 121.377L410.382 121.471C410.572 121.513 410.747 121.57 410.906 121.641C411.065 121.712 411.203 121.8 411.32 121.903C411.436 122.007 411.526 122.129 411.59 122.27C411.656 122.411 411.689 122.572 411.69 122.754C411.689 123.021 411.621 123.252 411.486 123.448C411.352 123.643 411.159 123.794 410.906 123.902C410.655 124.009 410.352 124.062 409.996 124.062C409.644 124.062 409.337 124.008 409.076 123.9C408.816 123.792 408.613 123.632 408.467 123.42C408.322 123.207 408.246 122.944 408.239 122.63H409.131C409.141 122.776 409.183 122.898 409.257 122.996C409.332 123.093 409.433 123.166 409.558 123.216C409.684 123.264 409.827 123.288 409.986 123.288C410.142 123.288 410.278 123.266 410.393 123.22C410.509 123.175 410.599 123.112 410.663 123.031C410.727 122.95 410.759 122.857 410.759 122.751C410.759 122.653 410.73 122.571 410.672 122.504C410.615 122.437 410.531 122.381 410.42 122.334C410.311 122.287 410.177 122.244 410.018 122.206L409.543 122.087C409.175 121.997 408.884 121.857 408.671 121.667C408.458 121.477 408.352 121.22 408.354 120.898C408.352 120.634 408.423 120.403 408.565 120.205C408.708 120.008 408.905 119.854 409.155 119.743C409.405 119.632 409.689 119.577 410.007 119.577C410.331 119.577 410.614 119.632 410.855 119.743C411.098 119.854 411.287 120.008 411.422 120.205C411.557 120.403 411.626 120.631 411.631 120.891H410.746ZM412.145 120.397V119.636H415.729V120.397H414.393V124H413.481V120.397H412.145ZM416.538 124H415.549L417.055 119.636H418.244L419.749 124H418.76L417.667 120.634H417.633L416.538 124ZM416.476 122.285H418.811V123.005H416.476V122.285ZM421.196 119.636V124H420.274V119.636H421.196ZM421.955 124V119.636H423.677C424.007 119.636 424.288 119.695 424.521 119.813C424.755 119.93 424.933 120.095 425.056 120.31C425.179 120.523 425.241 120.773 425.241 121.062C425.241 121.352 425.178 121.601 425.053 121.81C424.928 122.017 424.747 122.176 424.51 122.287C424.274 122.398 423.989 122.453 423.654 122.453H422.501V121.712H423.504C423.681 121.712 423.827 121.687 423.943 121.639C424.06 121.591 424.146 121.518 424.203 121.422C424.262 121.325 424.291 121.205 424.291 121.062C424.291 120.917 424.262 120.795 424.203 120.695C424.146 120.596 424.059 120.521 423.941 120.469C423.825 120.417 423.678 120.391 423.5 120.391H422.878V124H421.955ZM424.312 122.014L425.396 124H424.378L423.317 122.014H424.312ZM428.26 120.891C428.243 120.719 428.17 120.586 428.041 120.491C427.911 120.396 427.736 120.348 427.514 120.348C427.364 120.348 427.237 120.369 427.133 120.412C427.029 120.453 426.95 120.511 426.894 120.585C426.84 120.658 426.813 120.742 426.813 120.836C426.811 120.914 426.827 120.982 426.862 121.04C426.899 121.099 426.95 121.149 427.014 121.192C427.078 121.233 427.151 121.269 427.235 121.3C427.319 121.33 427.409 121.356 427.504 121.377L427.896 121.471C428.086 121.513 428.261 121.57 428.42 121.641C428.579 121.712 428.717 121.8 428.833 121.903C428.95 122.007 429.04 122.129 429.104 122.27C429.169 122.411 429.203 122.572 429.204 122.754C429.203 123.021 429.134 123.252 428.999 123.448C428.866 123.643 428.673 123.794 428.42 123.902C428.169 124.009 427.865 124.062 427.51 124.062C427.158 124.062 426.851 124.008 426.59 123.9C426.33 123.792 426.127 123.632 425.98 123.42C425.835 123.207 425.759 122.944 425.752 122.63H426.645C426.655 122.776 426.697 122.898 426.771 122.996C426.846 123.093 426.946 123.166 427.071 123.216C427.198 123.264 427.34 123.288 427.499 123.288C427.656 123.288 427.791 123.266 427.906 123.22C428.023 123.175 428.113 123.112 428.177 123.031C428.241 122.95 428.273 122.857 428.273 122.751C428.273 122.653 428.244 122.571 428.186 122.504C428.129 122.437 428.045 122.381 427.934 122.334C427.825 122.287 427.691 122.244 427.531 122.206L427.056 122.087C426.688 121.997 426.398 121.857 426.185 121.667C425.972 121.477 425.866 121.22 425.867 120.898C425.866 120.634 425.936 120.403 426.078 120.205C426.222 120.008 426.419 119.854 426.669 119.743C426.919 119.632 427.203 119.577 427.521 119.577C427.845 119.577 428.127 119.632 428.369 119.743C428.612 119.854 428.801 120.008 428.936 120.205C429.07 120.403 429.14 120.631 429.144 120.891H428.26Z" fill="black"/>
<path d="M509.771 183.732C509.748 183.496 509.647 183.312 509.47 183.182C509.292 183.051 509.051 182.986 508.747 182.986C508.54 182.986 508.366 183.015 508.223 183.073C508.081 183.13 507.972 183.209 507.896 183.31C507.822 183.412 507.785 183.527 507.785 183.656C507.781 183.763 507.803 183.856 507.852 183.936C507.903 184.016 507.972 184.086 508.06 184.144C508.147 184.201 508.249 184.25 508.364 184.293C508.479 184.334 508.602 184.369 508.732 184.399L509.271 184.527C509.532 184.586 509.772 184.664 509.99 184.761C510.209 184.859 510.398 184.979 510.558 185.121C510.718 185.264 510.842 185.431 510.93 185.624C511.019 185.818 511.065 186.039 511.067 186.289C511.065 186.655 510.971 186.973 510.786 187.242C510.603 187.509 510.338 187.717 509.99 187.865C509.645 188.012 509.229 188.085 508.741 188.085C508.258 188.085 507.836 188.011 507.477 187.862C507.12 187.714 506.842 187.495 506.641 187.204C506.442 186.912 506.337 186.55 506.328 186.119H507.553C507.567 186.32 507.625 186.487 507.726 186.622C507.829 186.755 507.967 186.855 508.139 186.923C508.312 186.99 508.508 187.023 508.727 187.023C508.941 187.023 509.127 186.992 509.285 186.929C509.445 186.867 509.569 186.78 509.657 186.669C509.745 186.558 509.789 186.43 509.789 186.286C509.789 186.151 509.749 186.038 509.669 185.946C509.591 185.855 509.476 185.777 509.323 185.712C509.173 185.648 508.989 185.589 508.77 185.537L508.118 185.373C507.613 185.25 507.214 185.058 506.922 184.797C506.629 184.535 506.484 184.183 506.486 183.74C506.484 183.378 506.58 183.061 506.775 182.79C506.972 182.519 507.242 182.307 507.586 182.155C507.929 182.003 508.319 181.927 508.756 181.927C509.201 181.927 509.589 182.003 509.92 182.155C510.254 182.307 510.513 182.519 510.698 182.79C510.884 183.061 510.979 183.375 510.985 183.732H509.771ZM511.691 183.053V182.009H516.612V183.053H514.777V188H513.525V183.053H511.691ZM517.723 188H516.365L518.434 182.009H520.066L522.131 188H520.774L519.273 183.378H519.226L517.723 188ZM517.638 185.645H520.844V186.634H517.638V185.645ZM524.119 182.009V188H522.853V182.009H524.119ZM525.162 188V182.009H527.525C527.978 182.009 528.364 182.089 528.684 182.251C529.006 182.411 529.25 182.638 529.418 182.933C529.588 183.226 529.673 183.57 529.673 183.966C529.673 184.364 529.587 184.706 529.415 184.993C529.244 185.277 528.995 185.496 528.669 185.648C528.345 185.8 527.953 185.876 527.493 185.876H525.91V184.858H527.288C527.53 184.858 527.731 184.825 527.891 184.759C528.051 184.692 528.17 184.593 528.248 184.46C528.328 184.327 528.368 184.163 528.368 183.966C528.368 183.767 528.328 183.599 528.248 183.463C528.17 183.326 528.05 183.223 527.888 183.152C527.728 183.08 527.526 183.044 527.283 183.044H526.428V188H525.162ZM528.397 185.273L529.886 188H528.488L527.031 185.273H528.397ZM533.818 183.732C533.795 183.496 533.694 183.312 533.517 183.182C533.339 183.051 533.098 182.986 532.794 182.986C532.587 182.986 532.413 183.015 532.271 183.073C532.128 183.13 532.019 183.209 531.943 183.31C531.869 183.412 531.832 183.527 531.832 183.656C531.828 183.763 531.85 183.856 531.899 183.936C531.95 184.016 532.019 184.086 532.107 184.144C532.194 184.201 532.296 184.25 532.411 184.293C532.526 184.334 532.649 184.369 532.78 184.399L533.318 184.527C533.579 184.586 533.819 184.664 534.038 184.761C534.256 184.859 534.445 184.979 534.605 185.121C534.765 185.264 534.889 185.431 534.977 185.624C535.066 185.818 535.112 186.039 535.114 186.289C535.112 186.655 535.019 186.973 534.833 187.242C534.65 187.509 534.385 187.717 534.038 187.865C533.692 188.012 533.276 188.085 532.788 188.085C532.305 188.085 531.883 188.011 531.525 187.862C531.168 187.714 530.889 187.495 530.688 187.204C530.489 186.912 530.385 186.55 530.375 186.119H531.601C531.614 186.32 531.672 186.487 531.773 186.622C531.877 186.755 532.014 186.855 532.186 186.923C532.359 186.99 532.555 187.023 532.774 187.023C532.988 187.023 533.175 186.992 533.333 186.929C533.492 186.867 533.616 186.78 533.704 186.669C533.792 186.558 533.836 186.43 533.836 186.286C533.836 186.151 533.796 186.038 533.716 185.946C533.638 185.855 533.523 185.777 533.371 185.712C533.22 185.648 533.036 185.589 532.818 185.537L532.165 185.373C531.66 185.25 531.261 185.058 530.969 184.797C530.676 184.535 530.531 184.183 530.533 183.74C530.531 183.378 530.627 183.061 530.822 182.79C531.019 182.519 531.29 182.307 531.633 182.155C531.976 182.003 532.366 181.927 532.803 181.927C533.248 181.927 533.636 182.003 533.967 182.155C534.301 182.307 534.56 182.519 534.746 182.79C534.931 183.061 535.026 183.375 535.032 183.732H533.818Z" fill="black"/>
<path d="M41.5207 67V61.0085H43.8846C44.3371 61.0085 44.7232 61.0895 45.0431 61.2513C45.3649 61.4113 45.6097 61.6385 45.7774 61.933C45.9471 62.2255 46.0319 62.5698 46.0319 62.9657C46.0319 63.3636 45.9461 63.7059 45.7745 63.9926C45.6028 64.2773 45.3542 64.4957 45.0285 64.6479C44.7047 64.8 44.3127 64.8761 43.8524 64.8761H42.2697V63.858H43.6476C43.8895 63.858 44.0903 63.8248 44.2503 63.7585C44.4102 63.6922 44.5292 63.5927 44.6072 63.4601C44.6871 63.3275 44.7271 63.1627 44.7271 62.9657C44.7271 62.7668 44.6871 62.599 44.6072 62.4625C44.5292 62.326 44.4092 62.2226 44.2473 62.1524C44.0874 62.0802 43.8855 62.0441 43.6418 62.0441H42.7875V67H41.5207ZM44.7564 64.2734L46.2455 67H44.8471L43.3902 64.2734H44.7564ZM52.433 64.0043C52.433 64.6576 52.3091 65.2135 52.0614 65.6718C51.8157 66.1301 51.4802 66.4802 51.0551 66.7221C50.6318 66.962 50.1559 67.0819 49.6274 67.0819C49.0949 67.0819 48.6171 66.961 48.1939 66.7191C47.7707 66.4773 47.4362 66.1272 47.1904 65.6689C46.9447 65.2105 46.8218 64.6557 46.8218 64.0043C46.8218 63.3509 46.9447 62.795 47.1904 62.3367C47.4362 61.8784 47.7707 61.5293 48.1939 61.2894C48.6171 61.0475 49.0949 60.9266 49.6274 60.9266C50.1559 60.9266 50.6318 61.0475 51.0551 61.2894C51.4802 61.5293 51.8157 61.8784 52.0614 62.3367C52.3091 62.795 52.433 63.3509 52.433 64.0043ZM51.1487 64.0043C51.1487 63.581 51.0853 63.2241 50.9585 62.9335C50.8337 62.6429 50.6572 62.4225 50.429 62.2723C50.2008 62.1222 49.9336 62.0471 49.6274 62.0471C49.3212 62.0471 49.054 62.1222 48.8258 62.2723C48.5976 62.4225 48.4201 62.6429 48.2934 62.9335C48.1685 63.2241 48.1061 63.581 48.1061 64.0043C48.1061 64.4275 48.1685 64.7844 48.2934 65.075C48.4201 65.3656 48.5976 65.586 48.8258 65.7362C49.054 65.8863 49.3212 65.9614 49.6274 65.9614C49.9336 65.9614 50.2008 65.8863 50.429 65.7362C50.6572 65.586 50.8337 65.3656 50.9585 65.075C51.0853 64.7844 51.1487 64.4275 51.1487 64.0043ZM58.8772 64.0043C58.8772 64.6576 58.7533 65.2135 58.5057 65.6718C58.2599 66.1301 57.9244 66.4802 57.4993 66.7221C57.076 66.962 56.6002 67.0819 56.0716 67.0819C55.5392 67.0819 55.0613 66.961 54.6381 66.7191C54.2149 66.4773 53.8804 66.1272 53.6346 65.6689C53.3889 65.2105 53.266 64.6557 53.266 64.0043C53.266 63.3509 53.3889 62.795 53.6346 62.3367C53.8804 61.8784 54.2149 61.5293 54.6381 61.2894C55.0613 61.0475 55.5392 60.9266 56.0716 60.9266C56.6002 60.9266 57.076 61.0475 57.4993 61.2894C57.9244 61.5293 58.2599 61.8784 58.5057 62.3367C58.7533 62.795 58.8772 63.3509 58.8772 64.0043ZM57.5929 64.0043C57.5929 63.581 57.5295 63.2241 57.4027 62.9335C57.2779 62.6429 57.1014 62.4225 56.8732 62.2723C56.645 62.1222 56.3778 62.0471 56.0716 62.0471C55.7654 62.0471 55.4982 62.1222 55.27 62.2723C55.0418 62.4225 54.8643 62.6429 54.7376 62.9335C54.6127 63.2241 54.5503 63.581 54.5503 64.0043C54.5503 64.4275 54.6127 64.7844 54.7376 65.075C54.8643 65.3656 55.0418 65.586 55.27 65.7362C55.4982 65.8863 55.7654 65.9614 56.0716 65.9614C56.3778 65.9614 56.645 65.8863 56.8732 65.7362C57.1014 65.586 57.2779 65.3656 57.4027 65.075C57.5295 64.7844 57.5929 64.4275 57.5929 64.0043ZM59.8156 61.0085H61.3778L63.0278 65.034H63.098L64.748 61.0085H66.3102V67H65.0815V63.1003H65.0318L63.4812 66.9707H62.6445L61.094 63.0856H61.0443V67H59.8156V61.0085ZM46.8072 73.1061H45.5258C45.5024 72.9403 45.4546 72.7931 45.3824 72.6644C45.3103 72.5337 45.2176 72.4225 45.1045 72.3309C44.9914 72.2392 44.8607 72.169 44.7125 72.1202C44.5662 72.0715 44.4073 72.0471 44.2356 72.0471C43.9255 72.0471 43.6554 72.1241 43.4253 72.2782C43.1951 72.4303 43.0167 72.6527 42.8899 72.9452C42.7631 73.2358 42.6997 73.5888 42.6997 74.0043C42.6997 74.4314 42.7631 74.7902 42.8899 75.0809C43.0186 75.3715 43.198 75.5909 43.4282 75.7391C43.6583 75.8873 43.9246 75.9614 44.2269 75.9614C44.3965 75.9614 44.5535 75.939 44.6979 75.8941C44.8441 75.8493 44.9738 75.784 45.087 75.6981C45.2001 75.6104 45.2937 75.5041 45.3678 75.3793C45.4439 75.2544 45.4965 75.1121 45.5258 74.9521L46.8072 74.958C46.774 75.233 46.6911 75.4982 46.5585 75.7537C46.4278 76.0073 46.2513 76.2345 46.029 76.4354C45.8086 76.6343 45.5453 76.7923 45.2391 76.9093C44.9348 77.0244 44.5906 77.0819 44.2064 77.0819C43.672 77.0819 43.1941 76.961 42.7729 76.7191C42.3535 76.4773 42.022 76.1272 41.7782 75.6689C41.5363 75.2105 41.4154 74.6557 41.4154 74.0043C41.4154 73.3509 41.5383 72.795 41.784 72.3367C42.0298 71.8784 42.3633 71.5293 42.7846 71.2894C43.2059 71.0475 43.6798 70.9266 44.2064 70.9266C44.5535 70.9266 44.8754 70.9754 45.1718 71.0729C45.4702 71.1704 45.7345 71.3128 45.9646 71.5C46.1948 71.6853 46.382 71.9125 46.5263 72.1816C46.6726 72.4508 46.7662 72.759 46.8072 73.1061ZM47.6805 77V76.0872L49.8132 74.1125C49.9945 73.937 50.1467 73.779 50.2695 73.6386C50.3944 73.4981 50.489 73.3606 50.5533 73.2261C50.6177 73.0895 50.6499 72.9423 50.6499 72.7843C50.6499 72.6088 50.6099 72.4576 50.5299 72.3309C50.45 72.2021 50.3407 72.1036 50.2023 72.0354C50.0638 71.9652 49.9068 71.9301 49.7312 71.9301C49.5479 71.9301 49.388 71.9671 49.2515 72.0412C49.1149 72.1153 49.0096 72.2216 48.9355 72.3601C48.8614 72.4986 48.8243 72.6634 48.8243 72.8545H47.6219C47.6219 72.4625 47.7107 72.1222 47.8882 71.8335C48.0656 71.5449 48.3143 71.3215 48.6342 71.1636C48.954 71.0056 49.3227 70.9266 49.74 70.9266C50.1691 70.9266 50.5426 71.0027 50.8605 71.1548C51.1804 71.305 51.429 71.5137 51.6065 71.7809C51.784 72.048 51.8727 72.3543 51.8727 72.6995C51.8727 72.9257 51.8279 73.149 51.7382 73.3694C51.6504 73.5898 51.4934 73.8346 51.2672 74.1037C51.0409 74.3709 50.722 74.6918 50.3105 75.0662L49.4358 75.9234V75.9644H51.9517V77H47.6805ZM52.6502 75.9468V74.9492L55.1515 71.0085H56.0116V72.3894H55.5026L53.9257 74.8848V74.9316H57.4803V75.9468H52.6502ZM55.526 77V75.6426L55.5494 75.2008V71.0085H56.7372V77H55.526ZM60.6735 77.1316C60.1703 77.1297 59.7373 77.0059 59.3745 76.7601C59.0137 76.5144 58.7358 76.1584 58.5408 75.6923C58.3477 75.2262 58.2521 74.6654 58.2541 74.0101C58.2541 73.3567 58.3506 72.7999 58.5437 72.3396C58.7387 71.8793 59.0166 71.5293 59.3775 71.2894C59.7402 71.0475 60.1722 70.9266 60.6735 70.9266C61.1747 70.9266 61.6057 71.0475 61.9666 71.2894C62.3293 71.5312 62.6082 71.8823 62.8033 72.3426C62.9983 72.8009 63.0948 73.3567 63.0929 74.0101C63.0929 74.6674 62.9954 75.2291 62.8003 75.6952C62.6072 76.1613 62.3303 76.5173 61.9695 76.763C61.6087 77.0088 61.1767 77.1316 60.6735 77.1316ZM60.6735 76.0814C61.0167 76.0814 61.2908 75.9088 61.4955 75.5636C61.7003 75.2184 61.8018 74.7005 61.7998 74.0101C61.7998 73.5557 61.753 73.1773 61.6594 72.875C61.5677 72.5727 61.437 72.3455 61.2674 72.1934C61.0996 72.0412 60.9017 71.9652 60.6735 71.9652C60.3322 71.9652 60.0591 72.1358 59.8543 72.4771C59.6495 72.8184 59.5462 73.3294 59.5442 74.0101C59.5442 74.4704 59.59 74.8546 59.6817 75.1628C59.7753 75.469 59.907 75.6991 60.0767 75.8532C60.2463 76.0053 60.4453 76.0814 60.6735 76.0814Z" fill="black"/>
<path d="M325.521 40V34.0085H327.885C328.337 34.0085 328.723 34.0895 329.043 34.2513C329.365 34.4113 329.61 34.6385 329.777 34.933C329.947 35.2255 330.032 35.5698 330.032 35.9657C330.032 36.3636 329.946 36.7059 329.774 36.9926C329.603 37.2773 329.354 37.4957 329.028 37.6479C328.705 37.8 328.313 37.8761 327.852 37.8761H326.27V36.858H327.648C327.889 36.858 328.09 36.8248 328.25 36.7585C328.41 36.6922 328.529 36.5927 328.607 36.4601C328.687 36.3275 328.727 36.1627 328.727 35.9657C328.727 35.7668 328.687 35.599 328.607 35.4625C328.529 35.326 328.409 35.2226 328.247 35.1524C328.087 35.0802 327.886 35.0441 327.642 35.0441H326.787V40H325.521ZM328.756 37.2734L330.245 40H328.847L327.39 37.2734H328.756ZM336.433 37.0043C336.433 37.6576 336.309 38.2135 336.061 38.6718C335.816 39.1301 335.48 39.4802 335.055 39.7221C334.632 39.962 334.156 40.0819 333.627 40.0819C333.095 40.0819 332.617 39.961 332.194 39.7191C331.771 39.4773 331.436 39.1272 331.19 38.6689C330.945 38.2105 330.822 37.6557 330.822 37.0043C330.822 36.3509 330.945 35.795 331.19 35.3367C331.436 34.8784 331.771 34.5293 332.194 34.2894C332.617 34.0475 333.095 33.9266 333.627 33.9266C334.156 33.9266 334.632 34.0475 335.055 34.2894C335.48 34.5293 335.816 34.8784 336.061 35.3367C336.309 35.795 336.433 36.3509 336.433 37.0043ZM335.149 37.0043C335.149 36.581 335.085 36.2241 334.959 35.9335C334.834 35.6429 334.657 35.4225 334.429 35.2723C334.201 35.1222 333.934 35.0471 333.627 35.0471C333.321 35.0471 333.054 35.1222 332.826 35.2723C332.598 35.4225 332.42 35.6429 332.293 35.9335C332.169 36.2241 332.106 36.581 332.106 37.0043C332.106 37.4275 332.169 37.7844 332.293 38.075C332.42 38.3656 332.598 38.586 332.826 38.7362C333.054 38.8863 333.321 38.9614 333.627 38.9614C333.934 38.9614 334.201 38.8863 334.429 38.7362C334.657 38.586 334.834 38.3656 334.959 38.075C335.085 37.7844 335.149 37.4275 335.149 37.0043ZM342.877 37.0043C342.877 37.6576 342.753 38.2135 342.506 38.6718C342.26 39.1301 341.924 39.4802 341.499 39.7221C341.076 39.962 340.6 40.0819 340.072 40.0819C339.539 40.0819 339.061 39.961 338.638 39.7191C338.215 39.4773 337.88 39.1272 337.635 38.6689C337.389 38.2105 337.266 37.6557 337.266 37.0043C337.266 36.3509 337.389 35.795 337.635 35.3367C337.88 34.8784 338.215 34.5293 338.638 34.2894C339.061 34.0475 339.539 33.9266 340.072 33.9266C340.6 33.9266 341.076 34.0475 341.499 34.2894C341.924 34.5293 342.26 34.8784 342.506 35.3367C342.753 35.795 342.877 36.3509 342.877 37.0043ZM341.593 37.0043C341.593 36.581 341.529 36.2241 341.403 35.9335C341.278 35.6429 341.101 35.4225 340.873 35.2723C340.645 35.1222 340.378 35.0471 340.072 35.0471C339.765 35.0471 339.498 35.1222 339.27 35.2723C339.042 35.4225 338.864 35.6429 338.738 35.9335C338.613 36.2241 338.55 36.581 338.55 37.0043C338.55 37.4275 338.613 37.7844 338.738 38.075C338.864 38.3656 339.042 38.586 339.27 38.7362C339.498 38.8863 339.765 38.9614 340.072 38.9614C340.378 38.9614 340.645 38.8863 340.873 38.7362C341.101 38.586 341.278 38.3656 341.403 38.075C341.529 37.7844 341.593 37.4275 341.593 37.0043ZM343.816 34.0085H345.378L347.028 38.034H347.098L348.748 34.0085H350.31V40H349.082V36.1003H349.032L347.481 39.9707H346.645L345.094 36.0856H345.044V40H343.816V34.0085ZM330.807 46.1061H329.526C329.502 45.9403 329.455 45.7931 329.382 45.6644C329.31 45.5337 329.218 45.4225 329.105 45.3309C328.991 45.2392 328.861 45.169 328.712 45.1202C328.566 45.0715 328.407 45.0471 328.236 45.0471C327.926 45.0471 327.655 45.1241 327.425 45.2782C327.195 45.4303 327.017 45.6527 326.89 45.9452C326.763 46.2358 326.7 46.5888 326.7 47.0043C326.7 47.4314 326.763 47.7902 326.89 48.0809C327.019 48.3715 327.198 48.5909 327.428 48.7391C327.658 48.8873 327.925 48.9614 328.227 48.9614C328.397 48.9614 328.554 48.939 328.698 48.8941C328.844 48.8493 328.974 48.784 329.087 48.6981C329.2 48.6104 329.294 48.5041 329.368 48.3793C329.444 48.2544 329.497 48.1121 329.526 47.9521L330.807 47.958C330.774 48.233 330.691 48.4982 330.559 48.7537C330.428 49.0073 330.251 49.2345 330.029 49.4354C329.809 49.6343 329.545 49.7923 329.239 49.9093C328.935 50.0244 328.591 50.0819 328.206 50.0819C327.672 50.0819 327.194 49.961 326.773 49.7191C326.354 49.4773 326.022 49.1272 325.778 48.6689C325.536 48.2105 325.415 47.6557 325.415 47.0043C325.415 46.3509 325.538 45.795 325.784 45.3367C326.03 44.8784 326.363 44.5293 326.785 44.2894C327.206 44.0475 327.68 43.9266 328.206 43.9266C328.554 43.9266 328.875 43.9754 329.172 44.0729C329.47 44.1704 329.734 44.3128 329.965 44.5C330.195 44.6853 330.382 44.9125 330.526 45.1816C330.673 45.4508 330.766 45.759 330.807 46.1061ZM331.68 50V49.0872L333.813 47.1125C333.995 46.937 334.147 46.779 334.27 46.6386C334.394 46.4981 334.489 46.3606 334.553 46.2261C334.618 46.0895 334.65 45.9423 334.65 45.7843C334.65 45.6088 334.61 45.4576 334.53 45.3309C334.45 45.2021 334.341 45.1036 334.202 45.0354C334.064 44.9652 333.907 44.9301 333.731 44.9301C333.548 44.9301 333.388 44.9671 333.251 45.0412C333.115 45.1153 333.01 45.2216 332.936 45.3601C332.861 45.4986 332.824 45.6634 332.824 45.8545H331.622C331.622 45.4625 331.711 45.1222 331.888 44.8335C332.066 44.5449 332.314 44.3215 332.634 44.1636C332.954 44.0056 333.323 43.9266 333.74 43.9266C334.169 43.9266 334.543 44.0027 334.861 44.1548C335.18 44.305 335.429 44.5137 335.607 44.7809C335.784 45.048 335.873 45.3543 335.873 45.6995C335.873 45.9257 335.828 46.149 335.738 46.3694C335.65 46.5898 335.493 46.8346 335.267 47.1037C335.041 47.3709 334.722 47.6918 334.311 48.0662L333.436 48.9234V48.9644H335.952V50H331.68ZM336.87 50V49.0872L339.002 47.1125C339.184 46.937 339.336 46.779 339.459 46.6386C339.584 46.4981 339.678 46.3606 339.742 46.2261C339.807 46.0895 339.839 45.9423 339.839 45.7843C339.839 45.6088 339.799 45.4576 339.719 45.3309C339.639 45.2021 339.53 45.1036 339.391 45.0354C339.253 44.9652 339.096 44.9301 338.92 44.9301C338.737 44.9301 338.577 44.9671 338.441 45.0412C338.304 45.1153 338.199 45.2216 338.125 45.3601C338.051 45.4986 338.013 45.6634 338.013 45.8545H336.811C336.811 45.4625 336.9 45.1222 337.077 44.8335C337.255 44.5449 337.503 44.3215 337.823 44.1636C338.143 44.0056 338.512 43.9266 338.929 43.9266C339.358 43.9266 339.732 44.0027 340.05 44.1548C340.37 44.305 340.618 44.5137 340.796 44.7809C340.973 45.048 341.062 45.3543 341.062 45.6995C341.062 45.9257 341.017 46.149 340.927 46.3694C340.84 46.5898 340.683 46.8346 340.456 47.1037C340.23 47.3709 339.911 47.6918 339.5 48.0662L338.625 48.9234V48.9644H341.141V50H336.87ZM344.408 50.1316C343.905 50.1297 343.472 50.0059 343.109 49.7601C342.748 49.5144 342.47 49.1584 342.275 48.6923C342.082 48.2262 341.987 47.6654 341.989 47.0101C341.989 46.3567 342.085 45.7999 342.278 45.3396C342.473 44.8793 342.751 44.5293 343.112 44.2894C343.475 44.0475 343.907 43.9266 344.408 43.9266C344.909 43.9266 345.34 44.0475 345.701 44.2894C346.064 44.5312 346.343 44.8823 346.538 45.3426C346.733 45.8009 346.829 46.3567 346.827 47.0101C346.827 47.6674 346.73 48.2291 346.535 48.6952C346.342 49.1613 346.065 49.5173 345.704 49.763C345.343 50.0088 344.911 50.1316 344.408 50.1316ZM344.408 49.0814C344.751 49.0814 345.025 48.9088 345.23 48.5636C345.435 48.2184 345.536 47.7005 345.534 47.0101C345.534 46.5557 345.487 46.1773 345.394 45.875C345.302 45.5727 345.172 45.3455 345.002 45.1934C344.834 45.0412 344.636 44.9652 344.408 44.9652C344.067 44.9652 343.794 45.1358 343.589 45.4771C343.384 45.8184 343.281 46.3294 343.279 47.0101C343.279 47.4704 343.325 47.8546 343.416 48.1628C343.51 48.469 343.641 48.6991 343.811 48.8532C343.981 49.0053 344.18 49.0814 344.408 49.0814Z" fill="black"/>
</svg>
