<svg width="563" height="215" viewBox="0 0 563 215" fill="none" xmlns="http://www.w3.org/2000/svg">
<path d="M8.94815 14V3.09091H16.1712V4.99254H11.2546V7.59197H15.6918V9.49361H11.2546V14H8.94815ZM19.9491 3.09091V14H17.68V3.09091H19.9491ZM25.4636 14.1598C24.6362 14.1598 23.9206 13.984 23.3169 13.6325C22.7168 13.2773 22.2534 12.7837 21.9267 12.1516C21.6 11.516 21.4366 10.7791 21.4366 9.94105C21.4366 9.09588 21.6 8.35724 21.9267 7.72514C22.2534 7.08949 22.7168 6.59588 23.3169 6.24432C23.9206 5.8892 24.6362 5.71165 25.4636 5.71165C26.291 5.71165 27.0048 5.8892 27.6049 6.24432C28.2086 6.59588 28.6738 7.08949 29.0005 7.72514C29.3272 8.35724 29.4906 9.09588 29.4906 9.94105C29.4906 10.7791 29.3272 11.516 29.0005 12.1516C28.6738 12.7837 28.2086 13.2773 27.6049 13.6325C27.0048 13.984 26.291 14.1598 25.4636 14.1598ZM25.4743 12.402C25.8507 12.402 26.165 12.2955 26.4171 12.0824C26.6692 11.8658 26.8592 11.571 26.987 11.1982C27.1184 10.8253 27.1841 10.4009 27.1841 9.92507C27.1841 9.44922 27.1184 9.02486 26.987 8.65199C26.8592 8.27912 26.6692 7.98437 26.4171 7.76776C26.165 7.55114 25.8507 7.44283 25.4743 7.44283C25.0943 7.44283 24.7747 7.55114 24.5154 7.76776C24.2598 7.98437 24.0662 8.27912 23.9348 8.65199C23.807 9.02486 23.7431 9.44922 23.7431 9.92507C23.7431 10.4009 23.807 10.8253 23.9348 11.1982C24.0662 11.571 24.2598 11.8658 24.5154 12.0824C24.7747 12.2955 25.0943 12.402 25.4743 12.402ZM34.6628 14.1598C33.8354 14.1598 33.1199 13.984 32.5162 13.6325C31.916 13.2773 31.4526 12.7837 31.1259 12.1516C30.7992 11.516 30.6358 10.7791 30.6358 9.94105C30.6358 9.09588 30.7992 8.35724 31.1259 7.72514C31.4526 7.08949 31.916 6.59588 32.5162 6.24432C33.1199 5.8892 33.8354 5.71165 34.6628 5.71165C35.4902 5.71165 36.204 5.8892 36.8042 6.24432C37.4078 6.59588 37.873 7.08949 38.1998 7.72514C38.5265 8.35724 38.6898 9.09588 38.6898 9.94105C38.6898 10.7791 38.5265 11.516 38.1998 12.1516C37.873 12.7837 37.4078 13.2773 36.8042 13.6325C36.204 13.984 35.4902 14.1598 34.6628 14.1598ZM34.6735 12.402C35.0499 12.402 35.3642 12.2955 35.6163 12.0824C35.8684 11.8658 36.0584 11.571 36.1863 11.1982C36.3176 10.8253 36.3833 10.4009 36.3833 9.92507C36.3833 9.44922 36.3176 9.02486 36.1863 8.65199C36.0584 8.27912 35.8684 7.98437 35.6163 7.76776C35.3642 7.55114 35.0499 7.44283 34.6735 7.44283C34.2935 7.44283 33.9739 7.55114 33.7147 7.76776C33.459 7.98437 33.2654 8.27912 33.1341 8.65199C33.0062 9.02486 32.9423 9.44922 32.9423 9.92507C32.9423 10.4009 33.0062 10.8253 33.1341 11.1982C33.2654 11.571 33.459 11.8658 33.7147 12.0824C33.9739 12.2955 34.2935 12.402 34.6735 12.402ZM40.1653 14V5.81818H42.3652V7.24574H42.4505C42.5996 6.73793 42.85 6.3544 43.2015 6.09517C43.5531 5.83239 43.9579 5.70099 44.416 5.70099C44.5297 5.70099 44.6522 5.7081 44.7836 5.7223C44.915 5.73651 45.0304 5.75604 45.1298 5.78089V7.79439C45.0233 7.76243 44.8759 7.73402 44.6877 7.70916C44.4995 7.6843 44.3272 7.67188 44.171 7.67188C43.8372 7.67188 43.5389 7.74467 43.2761 7.89027C43.0169 8.03232 42.8109 8.23118 42.6582 8.48686C42.5091 8.74254 42.4345 9.03729 42.4345 9.37109V14H40.1653ZM54.4995 3.09091V14H52.193V5.28018H52.1291L49.6309 6.84624V4.80078L52.3315 3.09091H54.4995Z" fill="black"/>
<path d="M322.1 69.3001V54.2144H316.914V69.3001H322.1Z" stroke="black" stroke-width="2"/>
<path d="M389.043 56.1001V71.1858" stroke="black" stroke-width="2"/>
<path d="M316.914 56.1001H389.514V70.7144H316.914V56.1001Z" fill="#EA1010" stroke="black" stroke-width="2"/>
<path d="M307.014 125.871V110.314H367.829V125.871H307.014Z" stroke="black" stroke-width="2"/>
<path d="M204.243 29.7001V73.0715H174.071V87.2144H158.986L82.6143 164.529H4.35712M292.4 29.7001V70.7144H305.129V29.7001M316.914 56.1001H389.043V70.7144" stroke="black" stroke-width="2"/>
<path d="M192.457 22.6286H6.24286V164.057H2V178.671H84.0286V190.929H100.529L150.971 139.071H260.343V155.571H309.371V212.143H367.357V164.057H436.186L536.6 63.6429L513.971 42.4286H498.414V20.7429H449.386L440.429 29.7001H202.357L192.457 22.6286Z" fill="#D0D0D0" stroke="black" stroke-width="4"/>
<path d="M356.514 176.786H367.829V211.672H309.371V176.786H319.743V147.086H356.514V176.786Z" fill="#96DC3C" stroke="black" stroke-width="2"/>
<path d="M292.4 71.1858V30.6429H306.071V71.1858H292.4Z" fill="#565656" stroke="black" stroke-width="2"/>
<path d="M389.514 69.3001V54.2144H316.914V69.3001H389.514Z" fill="#3BDE73" stroke="black" stroke-width="2"/>
<path d="M368.3 86.7429H306.543V108.429H368.3V86.7429Z" fill="#FD6D2F" stroke="black" stroke-width="2"/>
<path d="M306.543 128.7V108.429H368.3V128.7H306.543Z" fill="#3BDE73" stroke="black" stroke-width="2"/>
<path d="M177 138V123H239V138H177Z" fill="#CA67E2" stroke="black" stroke-width="2"/>
<path d="M440.429 71.1858V29.7001L448.914 20.7429H497.471V61.2858L502.186 66.0001L489.457 78.7286H472.014V71.1858H440.429Z" fill="#3BDE73" stroke="black" stroke-width="2"/>
<path d="M149.557 91.9287V22.6287H7.18573V160.286H81.6714L149.557 91.9287Z" fill="#B0E7F8" stroke="black" stroke-width="2"/>
<path d="M193.4 22.6287H150.029V91.9287L156.629 85.8001H173.129V70.243H204.243V31.5858L193.4 22.6287Z" fill="#3BDE73" stroke="black" stroke-width="2"/>
<path d="M379.143 140.486V164.057H436.186L493.7 106.543L486.629 99.9429L455.043 131.057L440.9 116.443H397.529V140.486H379.143Z" fill="#CA67E3" stroke="black" stroke-width="2"/>
<path d="M43.3018 81.543H41.1779V75.5515H43.3194C43.9221 75.5515 44.4409 75.6714 44.8758 75.9113C45.3107 76.1493 45.6452 76.4916 45.8792 76.9382C46.1152 77.3848 46.2332 77.9192 46.2332 78.5414C46.2332 79.1655 46.1152 79.7018 45.8792 80.1504C45.6452 80.599 45.3088 80.9432 44.8699 81.1831C44.4331 81.423 43.9104 81.543 43.3018 81.543ZM42.4447 80.4576H43.2492C43.6237 80.4576 43.9386 80.3913 44.1941 80.2587C44.4516 80.1241 44.6447 79.9164 44.7734 79.6355C44.9041 79.3527 44.9694 78.988 44.9694 78.5414C44.9694 78.0986 44.9041 77.7369 44.7734 77.456C44.6447 77.1751 44.4526 76.9684 44.1971 76.8358C43.9416 76.7032 43.6266 76.6369 43.2521 76.6369H42.4447V80.4576ZM47.1716 81.543V75.5515H51.2088V76.5959H48.4383V78.0236H51.0011V79.068H48.4383V80.4986H51.2205V81.543H47.1716ZM52.2159 75.5515H53.7782L55.4282 79.577H55.4984L57.1484 75.5515H58.7106V81.543H57.4819V77.6432H57.4322L55.8816 81.5137H55.0449L53.4944 77.6286H53.4447V81.543H52.2159V75.5515ZM65.2602 78.5472C65.2602 79.2006 65.1363 79.7564 64.8886 80.2148C64.6429 80.6731 64.3074 81.0232 63.8822 81.265C63.459 81.5049 62.9831 81.6249 62.4546 81.6249C61.9221 81.6249 61.4443 81.504 61.0211 81.2621C60.5978 81.0203 60.2633 80.6702 60.0176 80.2119C59.7719 79.7535 59.649 79.1986 59.649 78.5472C59.649 77.8939 59.7719 77.338 60.0176 76.8797C60.2633 76.4213 60.5978 76.0722 61.0211 75.8323C61.4443 75.5905 61.9221 75.4696 62.4546 75.4696C62.9831 75.4696 63.459 75.5905 63.8822 75.8323C64.3074 76.0722 64.6429 76.4213 64.8886 76.8797C65.1363 77.338 65.2602 77.8939 65.2602 78.5472ZM63.9758 78.5472C63.9758 78.124 63.9125 77.7671 63.7857 77.4765C63.6609 77.1859 63.4844 76.9655 63.2562 76.8153C63.028 76.6651 62.7608 76.59 62.4546 76.59C62.1484 76.59 61.8812 76.6651 61.653 76.8153C61.4248 76.9655 61.2473 77.1859 61.1205 77.4765C60.9957 77.7671 60.9333 78.124 60.9333 78.5472C60.9333 78.9705 60.9957 79.3274 61.1205 79.618C61.2473 79.9086 61.4248 80.129 61.653 80.2791C61.8812 80.4293 62.1484 80.5044 62.4546 80.5044C62.7608 80.5044 63.028 80.4293 63.2562 80.2791C63.4844 80.129 63.6609 79.9086 63.7857 79.618C63.9125 79.3274 63.9758 78.9705 63.9758 78.5472ZM68.1052 81.543V75.5515H70.4691C70.9215 75.5515 71.3077 75.6324 71.6276 75.7943C71.9494 75.9542 72.1942 76.1814 72.3619 76.4759C72.5316 76.7685 72.6164 77.1127 72.6164 77.5087C72.6164 77.9065 72.5306 78.2488 72.359 78.5355C72.1873 78.8203 71.9387 79.0387 71.6129 79.1908C71.2892 79.343 70.8972 79.419 70.4369 79.419H68.8542V78.4009H70.2321C70.4739 78.4009 70.6748 78.3678 70.8348 78.3015C70.9947 78.2352 71.1137 78.1357 71.1917 78.0031C71.2716 77.8705 71.3116 77.7056 71.3116 77.5087C71.3116 77.3097 71.2716 77.142 71.1917 77.0055C71.1137 76.8689 70.9937 76.7656 70.8318 76.6954C70.6719 76.6232 70.47 76.5871 70.2262 76.5871H69.372V81.543H68.1052ZM71.3409 78.8164L72.83 81.543H71.4316L69.9747 78.8164H71.3409ZM79.0175 78.5472C79.0175 79.2006 78.8936 79.7564 78.6459 80.2148C78.4002 80.6731 78.0647 81.0232 77.6395 81.265C77.2163 81.5049 76.7404 81.6249 76.2119 81.6249C75.6794 81.6249 75.2016 81.504 74.7784 81.2621C74.3551 81.0203 74.0207 80.6702 73.7749 80.2119C73.5292 79.7535 73.4063 79.1986 73.4063 78.5472C73.4063 77.8939 73.5292 77.338 73.7749 76.8797C74.0207 76.4213 74.3551 76.0722 74.7784 75.8323C75.2016 75.5905 75.6794 75.4696 76.2119 75.4696C76.7404 75.4696 77.2163 75.5905 77.6395 75.8323C78.0647 76.0722 78.4002 76.4213 78.6459 76.8797C78.8936 77.338 79.0175 77.8939 79.0175 78.5472ZM77.7332 78.5472C77.7332 78.124 77.6698 77.7671 77.543 77.4765C77.4182 77.1859 77.2417 76.9655 77.0135 76.8153C76.7853 76.6651 76.5181 76.59 76.2119 76.59C75.9057 76.59 75.6385 76.6651 75.4103 76.8153C75.1821 76.9655 75.0046 77.1859 74.8778 77.4765C74.753 77.7671 74.6906 78.124 74.6906 78.5472C74.6906 78.9705 74.753 79.3274 74.8778 79.618C75.0046 79.9086 75.1821 80.129 75.4103 80.2791C75.6385 80.4293 75.9057 80.5044 76.2119 80.5044C76.5181 80.5044 76.7853 80.4293 77.0135 80.2791C77.2417 80.129 77.4182 79.9086 77.543 79.618C77.6698 79.3274 77.7332 78.9705 77.7332 78.5472ZM85.4617 78.5472C85.4617 79.2006 85.3378 79.7564 85.0901 80.2148C84.8444 80.6731 84.5089 81.0232 84.0838 81.265C83.6605 81.5049 83.1846 81.6249 82.6561 81.6249C82.1237 81.6249 81.6458 81.504 81.2226 81.2621C80.7994 81.0203 80.4649 80.6702 80.2191 80.2119C79.9734 79.7535 79.8505 79.1986 79.8505 78.5472C79.8505 77.8939 79.9734 77.338 80.2191 76.8797C80.4649 76.4213 80.7994 76.0722 81.2226 75.8323C81.6458 75.5905 82.1237 75.4696 82.6561 75.4696C83.1846 75.4696 83.6605 75.5905 84.0838 75.8323C84.5089 76.0722 84.8444 76.4213 85.0901 76.8797C85.3378 77.338 85.4617 77.8939 85.4617 78.5472ZM84.1774 78.5472C84.1774 78.124 84.114 77.7671 83.9872 77.4765C83.8624 77.1859 83.6859 76.9655 83.4577 76.8153C83.2295 76.6651 82.9623 76.59 82.6561 76.59C82.3499 76.59 82.0827 76.6651 81.8545 76.8153C81.6263 76.9655 81.4488 77.1859 81.3221 77.4765C81.1972 77.7671 81.1348 78.124 81.1348 78.5472C81.1348 78.9705 81.1972 79.3274 81.3221 79.618C81.4488 79.9086 81.6263 80.129 81.8545 80.2791C82.0827 80.4293 82.3499 80.5044 82.6561 80.5044C82.9623 80.5044 83.2295 80.4293 83.4577 80.2791C83.6859 80.129 83.8624 79.9086 83.9872 79.618C84.114 79.3274 84.1774 78.9705 84.1774 78.5472ZM86.4 75.5515H87.9623L89.6123 79.577H89.6825L91.3325 75.5515H92.8947V81.543H91.666V77.6432H91.6163L90.0657 81.5137H89.229L87.6785 77.6286H87.6288V81.543H86.4V75.5515ZM46.4643 87.6491H45.183C45.1596 87.4833 45.1118 87.3361 45.0396 87.2073C44.9674 87.0767 44.8748 86.9655 44.7617 86.8738C44.6486 86.7822 44.5179 86.7119 44.3697 86.6632C44.2234 86.6144 44.0644 86.59 43.8928 86.59C43.5827 86.59 43.3126 86.6671 43.0824 86.8212C42.8523 86.9733 42.6738 87.1956 42.5471 87.4882C42.4203 87.7788 42.3569 88.1318 42.3569 88.5472C42.3569 88.9744 42.4203 89.3332 42.5471 89.6238C42.6758 89.9144 42.8552 90.1338 43.0854 90.2821C43.3155 90.4303 43.5817 90.5044 43.884 90.5044C44.0537 90.5044 44.2107 90.482 44.355 90.4371C44.5013 90.3923 44.631 90.3269 44.7441 90.2411C44.8573 90.1533 44.9509 90.047 45.025 89.9222C45.101 89.7974 45.1537 89.655 45.183 89.4951L46.4643 89.5009C46.4312 89.7759 46.3483 90.0412 46.2157 90.2967C46.085 90.5502 45.9085 90.7775 45.6862 90.9783C45.4658 91.1773 45.2025 91.3353 44.8963 91.4523C44.592 91.5673 44.2478 91.6249 43.8635 91.6249C43.3292 91.6249 42.8513 91.504 42.43 91.2621C42.0107 91.0203 41.6792 90.6702 41.4354 90.2119C41.1935 89.7535 41.0726 89.1986 41.0726 88.5472C41.0726 87.8939 41.1955 87.338 41.4412 86.8797C41.687 86.4213 42.0205 86.0722 42.4417 85.8323C42.863 85.5905 43.337 85.4696 43.8635 85.4696C44.2107 85.4696 44.5325 85.5183 44.829 85.6158C45.1274 85.7134 45.3917 85.8557 45.6218 86.043C45.8519 86.2283 46.0392 86.4555 46.1835 86.7246C46.3298 86.9938 46.4234 87.3019 46.4643 87.6491ZM49.9443 85.5515V91.543H48.6775V86.7539H48.6424L47.2703 87.614V86.4906L48.7536 85.5515H49.9443ZM51.2776 90.4898V89.4922L53.7789 85.5515H54.639V86.9323H54.13L52.5531 89.4278V89.4746H56.1076V90.4898H51.2776ZM54.1534 91.543V90.1855L54.1768 89.7438V85.5515H55.3645V91.543H54.1534ZM59.3008 91.6746C58.7977 91.6727 58.3647 91.5488 58.0019 91.3031C57.6411 91.0573 57.3632 90.7014 57.1681 90.2353C56.9751 89.7691 56.8795 89.2084 56.8814 88.5531C56.8814 87.8997 56.978 87.3429 57.1711 86.8826C57.3661 86.4223 57.644 86.0722 58.0048 85.8323C58.3676 85.5905 58.7996 85.4696 59.3008 85.4696C59.8021 85.4696 60.2331 85.5905 60.5939 85.8323C60.9567 86.0742 61.2356 86.4252 61.4306 86.8855C61.6257 87.3439 61.7222 87.8997 61.7203 88.5531C61.7203 89.2103 61.6227 89.772 61.4277 90.2382C61.2346 90.7043 60.9577 91.0603 60.5969 91.306C60.236 91.5517 59.804 91.6746 59.3008 91.6746ZM59.3008 90.6244C59.6441 90.6244 59.9181 90.4517 60.1229 90.1065C60.3277 89.7613 60.4291 89.2435 60.4272 88.5531C60.4272 88.0986 60.3804 87.7203 60.2868 87.418C60.1951 87.1157 60.0644 86.8884 59.8947 86.7363C59.727 86.5842 59.529 86.5081 59.3008 86.5081C58.9595 86.5081 58.6865 86.6788 58.4817 87.0201C58.2769 87.3614 58.1735 87.8724 58.1716 88.5531C58.1716 89.0134 58.2174 89.3976 58.3091 89.7057C58.4027 90.0119 58.5344 90.2421 58.704 90.3962C58.8737 90.5483 59.0727 90.6244 59.3008 90.6244Z" fill="black"/>
<path d="M160.871 47.5745C160.848 47.3386 160.747 47.1552 160.57 47.0245C160.392 46.8939 160.151 46.8285 159.847 46.8285C159.64 46.8285 159.466 46.8578 159.323 46.9163C159.181 46.9729 159.072 47.0518 158.996 47.1533C158.922 47.2547 158.885 47.3698 158.885 47.4985C158.881 47.6058 158.903 47.6994 158.952 47.7793C159.003 47.8593 159.072 47.9285 159.16 47.987C159.247 48.0436 159.349 48.0933 159.464 48.1362C159.579 48.1772 159.702 48.2123 159.832 48.2416L160.371 48.3703C160.632 48.4288 160.872 48.5068 161.09 48.6043C161.309 48.7018 161.498 48.8218 161.658 48.9642C161.818 49.1065 161.942 49.2743 162.03 49.4674C162.119 49.6604 162.165 49.8818 162.167 50.1315C162.165 50.4981 162.071 50.816 161.886 51.0852C161.703 51.3524 161.438 51.5601 161.09 51.7083C160.745 51.8546 160.329 51.9277 159.841 51.9277C159.358 51.9277 158.936 51.8536 158.577 51.7054C158.22 51.5572 157.942 51.3378 157.741 51.0472C157.542 50.7546 157.437 50.3928 157.428 49.9618H158.653C158.667 50.1627 158.725 50.3304 158.826 50.465C158.929 50.5976 159.067 50.698 159.239 50.7663C159.412 50.8326 159.608 50.8658 159.827 50.8658C160.041 50.8658 160.227 50.8346 160.385 50.7722C160.545 50.7097 160.669 50.6229 160.757 50.5118C160.845 50.4006 160.889 50.2729 160.889 50.1285C160.889 49.994 160.849 49.8808 160.769 49.7892C160.691 49.6975 160.576 49.6195 160.423 49.5551C160.273 49.4908 160.089 49.4323 159.87 49.3796L159.218 49.2158C158.713 49.0929 158.314 48.9008 158.022 48.6394C157.729 48.3781 157.584 48.0261 157.586 47.5833C157.584 47.2206 157.68 46.9036 157.875 46.6325C158.072 46.3614 158.342 46.1498 158.686 45.9977C159.029 45.8456 159.419 45.7695 159.856 45.7695C160.301 45.7695 160.689 45.8456 161.02 45.9977C161.354 46.1498 161.613 46.3614 161.798 46.6325C161.984 46.9036 162.079 47.2176 162.085 47.5745H160.871ZM162.791 46.8958V45.8514H167.712V46.8958H165.877V51.8429H164.625V46.8958H162.791ZM168.823 51.8429H167.465L169.534 45.8514H171.166L173.231 51.8429H171.874L170.373 47.2206H170.326L168.823 51.8429ZM168.738 49.4878H171.944V50.4767H168.738V49.4878ZM175.219 45.8514V51.8429H173.953V45.8514H175.219ZM176.262 51.8429V45.8514H178.625C179.078 45.8514 179.464 45.9323 179.784 46.0942C180.106 46.2542 180.35 46.4814 180.518 46.7759C180.688 47.0684 180.773 47.4127 180.773 47.8086C180.773 48.2065 180.687 48.5487 180.515 48.8354C180.344 49.1202 180.095 49.3386 179.769 49.4908C179.445 49.6429 179.053 49.719 178.593 49.719H177.01V48.7009H178.388C178.63 48.7009 178.831 48.6677 178.991 48.6014C179.151 48.5351 179.27 48.4356 179.348 48.303C179.428 48.1704 179.468 48.0056 179.468 47.8086C179.468 47.6097 179.428 47.4419 179.348 47.3054C179.27 47.1689 179.15 47.0655 178.988 46.9953C178.828 46.9231 178.626 46.887 178.383 46.887H177.528V51.8429H176.262ZM179.497 49.1163L180.986 51.8429H179.588L178.131 49.1163H179.497ZM184.918 47.5745C184.895 47.3386 184.794 47.1552 184.617 47.0245C184.439 46.8939 184.198 46.8285 183.894 46.8285C183.687 46.8285 183.513 46.8578 183.371 46.9163C183.228 46.9729 183.119 47.0518 183.043 47.1533C182.969 47.2547 182.932 47.3698 182.932 47.4985C182.928 47.6058 182.95 47.6994 182.999 47.7793C183.05 47.8593 183.119 47.9285 183.207 47.987C183.294 48.0436 183.396 48.0933 183.511 48.1362C183.626 48.1772 183.749 48.2123 183.88 48.2416L184.418 48.3703C184.679 48.4288 184.919 48.5068 185.138 48.6043C185.356 48.7018 185.545 48.8218 185.705 48.9642C185.865 49.1065 185.989 49.2743 186.077 49.4674C186.166 49.6604 186.212 49.8818 186.214 50.1315C186.212 50.4981 186.119 50.816 185.933 51.0852C185.75 51.3524 185.485 51.5601 185.138 51.7083C184.792 51.8546 184.376 51.9277 183.888 51.9277C183.405 51.9277 182.983 51.8536 182.625 51.7054C182.268 51.5572 181.989 51.3378 181.788 51.0472C181.589 50.7546 181.485 50.3928 181.475 49.9618H182.701C182.714 50.1627 182.772 50.3304 182.873 50.465C182.977 50.5976 183.114 50.698 183.286 50.7663C183.459 50.8326 183.655 50.8658 183.874 50.8658C184.088 50.8658 184.275 50.8346 184.433 50.7722C184.592 50.7097 184.716 50.6229 184.804 50.5118C184.892 50.4006 184.936 50.2729 184.936 50.1285C184.936 49.994 184.896 49.8808 184.816 49.7892C184.738 49.6975 184.623 49.6195 184.471 49.5551C184.32 49.4908 184.136 49.4323 183.918 49.3796L183.265 49.2158C182.76 49.0929 182.361 48.9008 182.069 48.6394C181.776 48.3781 181.631 48.0261 181.633 47.5833C181.631 47.2206 181.727 46.9036 181.922 46.6325C182.119 46.3614 182.39 46.1498 182.733 45.9977C183.076 45.8456 183.466 45.7695 183.903 45.7695C184.348 45.7695 184.736 45.8456 185.067 45.9977C185.401 46.1498 185.66 46.3614 185.846 46.6325C186.031 46.9036 186.126 47.2176 186.132 47.5745H184.918Z" fill="black"/>
<path d="M341.9 59.8317C341.876 59.5958 341.776 59.4124 341.598 59.2817C341.421 59.1511 341.18 59.0857 340.876 59.0857C340.669 59.0857 340.494 59.115 340.352 59.1735C340.21 59.2301 340.1 59.3091 340.024 59.4105C339.95 59.5119 339.913 59.627 339.913 59.7557C339.909 59.863 339.932 59.9566 339.98 60.0365C340.031 60.1165 340.1 60.1857 340.188 60.2442C340.276 60.3008 340.377 60.3505 340.492 60.3934C340.607 60.4344 340.73 60.4695 340.861 60.4988L341.399 60.6275C341.661 60.686 341.901 60.764 342.119 60.8615C342.337 60.9591 342.527 61.079 342.687 61.2214C342.846 61.3638 342.97 61.5315 343.058 61.7246C343.148 61.9177 343.194 62.139 343.196 62.3887C343.194 62.7553 343.1 63.0732 342.915 63.3424C342.731 63.6096 342.466 63.8173 342.119 63.9655C341.774 64.1118 341.357 64.1849 340.87 64.1849C340.386 64.1849 339.965 64.1108 339.606 63.9626C339.249 63.8144 338.97 63.595 338.769 63.3044C338.57 63.0118 338.466 62.65 338.456 62.219H339.682C339.696 62.4199 339.753 62.5876 339.855 62.7222C339.958 62.8548 340.096 62.9552 340.267 63.0235C340.441 63.0898 340.637 63.123 340.855 63.123C341.07 63.123 341.256 63.0918 341.414 63.0294C341.574 62.9669 341.698 62.8802 341.785 62.769C341.873 62.6578 341.917 62.5301 341.917 62.3857C341.917 62.2512 341.877 62.138 341.797 62.0464C341.719 61.9547 341.604 61.8767 341.452 61.8123C341.302 61.748 341.117 61.6895 340.899 61.6368L340.247 61.473C339.742 61.3501 339.343 61.158 339.05 60.8966C338.758 60.6353 338.612 60.2833 338.614 59.8405C338.612 59.4778 338.709 59.1608 338.904 58.8897C339.101 58.6186 339.371 58.407 339.714 58.2549C340.057 58.1028 340.448 58.0267 340.884 58.0267C341.329 58.0267 341.717 58.1028 342.049 58.2549C342.382 58.407 342.642 58.6186 342.827 58.8897C343.012 59.1608 343.108 59.4748 343.114 59.8317H341.9ZM343.819 59.153V58.1086H348.74V59.153H346.906V64.1001H345.654V59.153H343.819ZM349.851 64.1001H348.494L350.562 58.1086H352.195L354.26 64.1001H352.903L351.402 59.4778H351.355L349.851 64.1001ZM349.766 61.745H352.973V62.7339H349.766V61.745ZM356.248 58.1086V64.1001H354.981V58.1086H356.248ZM357.29 64.1001V58.1086H359.654C360.106 58.1086 360.493 58.1895 360.812 58.3514C361.134 58.5114 361.379 58.7386 361.547 59.0331C361.716 59.3256 361.801 59.6699 361.801 60.0658C361.801 60.4637 361.715 60.8059 361.544 61.0927C361.372 61.3774 361.123 61.5958 360.798 61.748C360.474 61.9001 360.082 61.9762 359.622 61.9762H358.039V60.9581H359.417C359.659 60.9581 359.86 60.9249 360.02 60.8586C360.18 60.7923 360.298 60.6928 360.377 60.5602C360.456 60.4276 360.496 60.2628 360.496 60.0658C360.496 59.8669 360.456 59.6991 360.377 59.5626C360.298 59.4261 360.179 59.3227 360.017 59.2525C359.857 59.1803 359.655 59.1442 359.411 59.1442H358.557V64.1001H357.29ZM360.526 61.3735L362.015 64.1001H360.616L359.159 61.3735H360.526ZM365.947 59.8317C365.923 59.5958 365.823 59.4124 365.645 59.2817C365.468 59.1511 365.227 59.0857 364.923 59.0857C364.716 59.0857 364.541 59.115 364.399 59.1735C364.257 59.2301 364.148 59.3091 364.071 59.4105C363.997 59.5119 363.96 59.627 363.96 59.7557C363.956 59.863 363.979 59.9566 364.028 60.0365C364.078 60.1165 364.148 60.1857 364.235 60.2442C364.323 60.3008 364.424 60.3505 364.54 60.3934C364.655 60.4344 364.777 60.4695 364.908 60.4988L365.446 60.6275C365.708 60.686 365.948 60.764 366.166 60.8615C366.385 60.9591 366.574 61.079 366.734 61.2214C366.894 61.3638 367.017 61.5315 367.105 61.7246C367.195 61.9177 367.241 62.139 367.243 62.3887C367.241 62.7553 367.147 63.0732 366.962 63.3424C366.779 63.6096 366.513 63.8173 366.166 63.9655C365.821 64.1118 365.405 64.1849 364.917 64.1849C364.433 64.1849 364.012 64.1108 363.653 63.9626C363.296 63.8144 363.017 63.595 362.816 63.3044C362.617 63.0118 362.513 62.65 362.503 62.219H363.729C363.743 62.4199 363.8 62.5876 363.902 62.7222C364.005 62.8548 364.143 62.9552 364.314 63.0235C364.488 63.0898 364.684 63.123 364.902 63.123C365.117 63.123 365.303 63.0918 365.461 63.0294C365.621 62.9669 365.745 62.8802 365.833 62.769C365.92 62.6578 365.964 62.5301 365.964 62.3857C365.964 62.2512 365.924 62.138 365.844 62.0464C365.766 61.9547 365.651 61.8767 365.499 61.8123C365.349 61.748 365.165 61.6895 364.946 61.6368L364.294 61.473C363.789 61.3501 363.39 61.158 363.097 60.8966C362.805 60.6353 362.659 60.2833 362.661 59.8405C362.659 59.4778 362.756 59.1608 362.951 58.8897C363.148 58.6186 363.418 58.407 363.761 58.2549C364.105 58.1028 364.495 58.0267 364.932 58.0267C365.376 58.0267 365.764 58.1028 366.096 58.2549C366.429 58.407 366.689 58.6186 366.874 58.8897C367.059 59.1608 367.155 59.4748 367.161 59.8317H365.947Z" fill="black"/>
<path d="M402.442 133V127.916H403.517V130.014H405.699V127.916H406.771V133H405.699V130.9H403.517V133H402.442ZM408.533 133H407.382L409.137 127.916H410.522L412.274 133H411.122L409.849 129.078H409.809L408.533 133ZM408.461 131.002H411.182V131.841H408.461V131.002ZM417.133 129.696H416.045C416.025 129.555 415.985 129.43 415.924 129.321C415.862 129.21 415.784 129.116 415.688 129.038C415.592 128.961 415.481 128.901 415.355 128.86C415.231 128.818 415.096 128.798 414.951 128.798C414.687 128.798 414.458 128.863 414.263 128.994C414.068 129.123 413.916 129.311 413.809 129.56C413.701 129.806 413.647 130.106 413.647 130.458C413.647 130.821 413.701 131.125 413.809 131.372C413.918 131.618 414.07 131.804 414.266 131.93C414.461 132.056 414.687 132.119 414.943 132.119C415.087 132.119 415.22 132.1 415.343 132.062C415.467 132.024 415.577 131.968 415.673 131.895C415.769 131.821 415.848 131.731 415.911 131.625C415.976 131.519 416.02 131.398 416.045 131.262L417.133 131.267C417.104 131.501 417.034 131.726 416.922 131.943C416.811 132.158 416.661 132.35 416.472 132.521C416.285 132.69 416.062 132.824 415.802 132.923C415.544 133.021 415.252 133.07 414.926 133.07C414.472 133.07 414.067 132.967 413.709 132.762C413.354 132.557 413.072 132.259 412.866 131.871C412.66 131.482 412.558 131.011 412.558 130.458C412.558 129.904 412.662 129.432 412.87 129.043C413.079 128.654 413.362 128.358 413.719 128.155C414.077 127.949 414.479 127.847 414.926 127.847C415.22 127.847 415.493 127.888 415.745 127.971C415.998 128.054 416.222 128.174 416.418 128.333C416.613 128.491 416.772 128.683 416.894 128.912C417.018 129.14 417.098 129.402 417.133 129.696ZM417.903 133V127.916H418.978V130.158H419.045L420.875 127.916H422.163L420.276 130.193L422.185 133H420.899L419.507 130.91L418.978 131.555V133H417.903ZM422.723 133V127.916H426.148V128.802H423.797V130.014H425.972V130.9H423.797V132.114H426.158V133H422.723ZM427.003 133V127.916H429.008C429.392 127.916 429.72 127.985 429.991 128.122C430.264 128.258 430.472 128.451 430.614 128.701C430.758 128.949 430.83 129.241 430.83 129.577C430.83 129.915 430.758 130.205 430.612 130.448C430.466 130.69 430.255 130.875 429.979 131.004C429.704 131.133 429.372 131.198 428.981 131.198H427.638V130.334H428.807C429.012 130.334 429.183 130.306 429.319 130.25C429.454 130.193 429.555 130.109 429.621 129.996C429.689 129.884 429.723 129.744 429.723 129.577C429.723 129.408 429.689 129.266 429.621 129.15C429.555 129.034 429.453 128.946 429.316 128.887C429.18 128.826 429.009 128.795 428.802 128.795H428.077V133H427.003ZM429.748 130.687L431.012 133H429.825L428.589 130.687H429.748ZM402.442 141V135.916H404.448C404.831 135.916 405.159 135.985 405.43 136.122C405.704 136.258 405.911 136.451 406.054 136.701C406.198 136.949 406.27 137.241 406.27 137.577C406.27 137.915 406.197 138.205 406.051 138.448C405.905 138.69 405.694 138.875 405.418 139.004C405.143 139.133 404.811 139.198 404.42 139.198H403.077V138.334H404.246C404.452 138.334 404.622 138.306 404.758 138.25C404.893 138.193 404.994 138.109 405.061 137.996C405.128 137.884 405.162 137.744 405.162 137.577C405.162 137.408 405.128 137.266 405.061 137.15C404.994 137.034 404.893 136.946 404.755 136.887C404.62 136.826 404.448 136.795 404.241 136.795H403.517V141H402.442ZM405.187 138.687L406.451 141H405.264L404.028 138.687H405.187ZM407.029 141V135.916H410.455V136.802H408.104V138.014H410.278V138.9H408.104V140.114H410.465V141H407.029ZM414.68 137.56C414.645 137.439 414.596 137.332 414.534 137.239C414.471 137.145 414.394 137.066 414.303 137.001C414.213 136.935 414.111 136.884 413.995 136.85C413.881 136.815 413.754 136.798 413.615 136.798C413.355 136.798 413.127 136.862 412.93 136.991C412.735 137.12 412.583 137.308 412.473 137.555C412.364 137.8 412.309 138.099 412.309 138.453C412.309 138.807 412.363 139.109 412.471 139.357C412.578 139.605 412.731 139.794 412.928 139.925C413.124 140.054 413.357 140.119 413.625 140.119C413.868 140.119 414.076 140.076 414.248 139.99C414.422 139.902 414.554 139.779 414.645 139.62C414.738 139.461 414.784 139.273 414.784 139.056L415.003 139.089H413.692V138.279H415.819V138.92C415.819 139.367 415.725 139.751 415.536 140.072C415.348 140.391 415.088 140.638 414.757 140.811C414.426 140.983 414.047 141.07 413.62 141.07C413.144 141.07 412.725 140.964 412.364 140.754C412.003 140.542 411.722 140.242 411.52 139.853C411.32 139.463 411.22 138.999 411.22 138.463C411.22 138.051 411.279 137.684 411.398 137.361C411.519 137.037 411.688 136.762 411.905 136.537C412.122 136.312 412.374 136.141 412.662 136.023C412.95 135.906 413.262 135.847 413.598 135.847C413.886 135.847 414.154 135.889 414.402 135.973C414.65 136.056 414.87 136.174 415.062 136.326C415.256 136.478 415.414 136.659 415.536 136.87C415.659 137.078 415.737 137.308 415.772 137.56H414.68ZM417.702 135.916V141H416.627V135.916H417.702ZM421.344 137.378C421.324 137.178 421.239 137.023 421.088 136.912C420.937 136.801 420.733 136.745 420.475 136.745C420.299 136.745 420.151 136.77 420.031 136.82C419.91 136.868 419.817 136.935 419.753 137.021C419.69 137.107 419.658 137.205 419.658 137.314C419.655 137.405 419.674 137.484 419.715 137.552C419.758 137.62 419.817 137.679 419.892 137.728C419.966 137.776 420.052 137.819 420.15 137.855C420.247 137.89 420.352 137.92 420.462 137.944L420.919 138.054C421.141 138.103 421.345 138.169 421.53 138.252C421.715 138.335 421.876 138.437 422.011 138.557C422.147 138.678 422.252 138.821 422.327 138.984C422.403 139.148 422.442 139.336 422.443 139.548C422.442 139.859 422.362 140.129 422.205 140.357C422.049 140.584 421.824 140.76 421.53 140.886C421.237 141.01 420.884 141.072 420.47 141.072C420.06 141.072 419.702 141.009 419.398 140.883C419.095 140.758 418.858 140.571 418.688 140.325C418.519 140.077 418.43 139.77 418.422 139.404H419.462C419.474 139.574 419.523 139.717 419.609 139.831C419.696 139.943 419.813 140.029 419.959 140.087C420.106 140.143 420.272 140.171 420.458 140.171C420.64 140.171 420.798 140.144 420.932 140.091C421.067 140.039 421.172 139.965 421.247 139.871C421.321 139.776 421.359 139.668 421.359 139.545C421.359 139.431 421.325 139.335 421.257 139.257C421.191 139.18 421.093 139.113 420.964 139.059C420.836 139.004 420.68 138.955 420.495 138.91L419.941 138.771C419.513 138.667 419.174 138.504 418.926 138.282C418.678 138.06 418.554 137.761 418.556 137.386C418.554 137.078 418.636 136.809 418.802 136.579C418.969 136.349 419.198 136.17 419.489 136.04C419.781 135.911 420.112 135.847 420.482 135.847C420.86 135.847 421.189 135.911 421.47 136.04C421.753 136.17 421.973 136.349 422.131 136.579C422.288 136.809 422.369 137.076 422.374 137.378H421.344ZM422.973 136.802V135.916H427.148V136.802H425.591V141H424.529V136.802H422.973ZM427.835 141V135.916H429.841C430.225 135.916 430.553 135.985 430.824 136.122C431.097 136.258 431.305 136.451 431.447 136.701C431.591 136.949 431.663 137.241 431.663 137.577C431.663 137.915 431.59 138.205 431.445 138.448C431.299 138.69 431.088 138.875 430.812 139.004C430.537 139.133 430.204 139.198 429.814 139.198H428.471V138.334H429.64C429.845 138.334 430.016 138.306 430.151 138.25C430.287 138.193 430.388 138.109 430.454 137.996C430.522 137.884 430.556 137.744 430.556 137.577C430.556 137.408 430.522 137.266 430.454 137.15C430.388 137.034 430.286 136.946 430.149 136.887C430.013 136.826 429.842 136.795 429.635 136.795H428.91V141H427.835ZM430.581 138.687L431.844 141H430.658L429.422 138.687H430.581ZM433.299 141H432.147L433.902 135.916H435.287L437.04 141H435.888L434.615 137.078H434.575L433.299 141ZM433.227 139.002H435.948V139.841H433.227V139.002ZM436.837 136.802V135.916H441.012V136.802H439.456V141H438.393V136.802H436.837ZM442.774 135.916V141H441.7V135.916H442.774ZM448.33 138.458C448.33 139.013 448.225 139.484 448.015 139.873C447.807 140.262 447.522 140.559 447.161 140.764C446.802 140.968 446.398 141.07 445.95 141.07C445.498 141.07 445.093 140.967 444.734 140.762C444.374 140.557 444.091 140.259 443.882 139.871C443.674 139.482 443.569 139.011 443.569 138.458C443.569 137.904 443.674 137.432 443.882 137.043C444.091 136.654 444.374 136.358 444.734 136.155C445.093 135.949 445.498 135.847 445.95 135.847C446.398 135.847 446.802 135.949 447.161 136.155C447.522 136.358 447.807 136.654 448.015 137.043C448.225 137.432 448.33 137.904 448.33 138.458ZM447.241 138.458C447.241 138.099 447.187 137.796 447.079 137.55C446.973 137.303 446.824 137.116 446.63 136.989C446.436 136.861 446.21 136.798 445.95 136.798C445.69 136.798 445.463 136.861 445.27 136.989C445.076 137.116 444.925 137.303 444.818 137.55C444.712 137.796 444.659 138.099 444.659 138.458C444.659 138.817 444.712 139.12 444.818 139.367C444.925 139.613 445.076 139.8 445.27 139.928C445.463 140.055 445.69 140.119 445.95 140.119C446.21 140.119 446.436 140.055 446.63 139.928C446.824 139.8 446.973 139.613 447.079 139.367C447.187 139.12 447.241 138.817 447.241 138.458ZM453.379 135.916V141H452.45L450.239 137.8H450.201V141H449.127V135.916H450.07L452.264 139.113H452.309V135.916H453.379Z" fill="black"/>
<path d="M316.612 194L315.134 188.835H316.327L317.182 192.424H317.224L318.168 188.835H319.189L320.13 192.431H320.175L321.03 188.835H322.223L320.745 194H319.681L318.697 190.623H318.657L317.676 194H316.612ZM323.178 194H322.007L323.79 188.835H325.198L326.978 194H325.808L324.514 190.015H324.474L323.178 194ZM323.104 191.97H325.869V192.822H323.104V191.97ZM330.284 190.32C330.264 190.117 330.177 189.959 330.024 189.846C329.871 189.734 329.664 189.677 329.401 189.677C329.223 189.677 329.073 189.702 328.95 189.753C328.827 189.802 328.733 189.87 328.667 189.957C328.604 190.045 328.572 190.144 328.572 190.255C328.568 190.347 328.588 190.428 328.63 190.497C328.673 190.566 328.733 190.626 328.809 190.676C328.884 190.725 328.972 190.768 329.071 190.805C329.17 190.84 329.276 190.87 329.389 190.895L329.853 191.006C330.078 191.057 330.285 191.124 330.473 191.208C330.661 191.292 330.825 191.396 330.962 191.518C331.1 191.641 331.207 191.786 331.283 191.952C331.36 192.119 331.4 192.309 331.401 192.525C331.4 192.841 331.319 193.115 331.159 193.347C331.001 193.577 330.772 193.756 330.473 193.884C330.176 194.01 329.817 194.073 329.396 194.073C328.979 194.073 328.616 194.009 328.307 193.881C327.999 193.754 327.759 193.565 327.585 193.314C327.414 193.062 327.324 192.75 327.316 192.378H328.372C328.384 192.552 328.434 192.696 328.521 192.812C328.61 192.926 328.729 193.013 328.877 193.072C329.026 193.129 329.195 193.158 329.384 193.158C329.569 193.158 329.729 193.131 329.865 193.077C330.003 193.023 330.11 192.948 330.186 192.852C330.261 192.757 330.299 192.647 330.299 192.522C330.299 192.406 330.265 192.309 330.196 192.23C330.128 192.151 330.029 192.083 329.898 192.028C329.769 191.972 329.61 191.922 329.421 191.876L328.859 191.735C328.424 191.629 328.08 191.464 327.828 191.238C327.575 191.013 327.45 190.71 327.452 190.328C327.45 190.015 327.533 189.742 327.701 189.508C327.871 189.275 328.104 189.092 328.4 188.961C328.696 188.83 329.032 188.764 329.409 188.764C329.792 188.764 330.127 188.83 330.413 188.961C330.7 189.092 330.924 189.275 331.083 189.508C331.243 189.742 331.326 190.013 331.331 190.32H330.284ZM332.136 194V188.835H333.228V190.966H335.445V188.835H336.534V194H335.445V191.866H333.228V194H332.136ZM337.435 194V188.835H339.472C339.862 188.835 340.195 188.905 340.471 189.044C340.748 189.182 340.959 189.378 341.104 189.632C341.25 189.884 341.323 190.181 341.323 190.522C341.323 190.865 341.25 191.16 341.102 191.407C340.954 191.653 340.739 191.841 340.458 191.972C340.179 192.103 339.841 192.169 339.445 192.169H338.08V191.291H339.268C339.477 191.291 339.65 191.263 339.788 191.206C339.925 191.148 340.028 191.063 340.095 190.948C340.164 190.834 340.199 190.692 340.199 190.522C340.199 190.351 340.164 190.206 340.095 190.088C340.028 189.971 339.925 189.882 339.785 189.821C339.647 189.759 339.473 189.728 339.263 189.728H338.527V194H337.435ZM340.224 191.649L341.508 194H340.302L339.046 191.649H340.224ZM346.842 191.417C346.842 191.981 346.735 192.46 346.521 192.855C346.309 193.25 346.02 193.552 345.654 193.76C345.289 193.967 344.879 194.071 344.423 194.071C343.964 194.071 343.552 193.966 343.187 193.758C342.822 193.549 342.534 193.248 342.322 192.852C342.11 192.457 342.004 191.979 342.004 191.417C342.004 190.854 342.11 190.375 342.322 189.98C342.534 189.585 342.822 189.284 343.187 189.077C343.552 188.869 343.964 188.764 344.423 188.764C344.879 188.764 345.289 188.869 345.654 189.077C346.02 189.284 346.309 189.585 346.521 189.98C346.735 190.375 346.842 190.854 346.842 191.417ZM345.734 191.417C345.734 191.053 345.68 190.745 345.571 190.494C345.463 190.244 345.311 190.054 345.114 189.924C344.917 189.795 344.687 189.73 344.423 189.73C344.159 189.73 343.929 189.795 343.732 189.924C343.535 190.054 343.382 190.244 343.273 190.494C343.165 190.745 343.112 191.053 343.112 191.417C343.112 191.782 343.165 192.09 343.273 192.341C343.382 192.591 343.535 192.781 343.732 192.91C343.929 193.04 344.159 193.105 344.423 193.105C344.687 193.105 344.917 193.04 345.114 192.91C345.311 192.781 345.463 192.591 345.571 192.341C345.68 192.09 345.734 191.782 345.734 191.417ZM352.397 191.417C352.397 191.981 352.29 192.46 352.077 192.855C351.865 193.25 351.576 193.552 351.209 193.76C350.844 193.967 350.434 194.071 349.978 194.071C349.519 194.071 349.107 193.966 348.743 193.758C348.378 193.549 348.089 193.248 347.878 192.852C347.666 192.457 347.56 191.979 347.56 191.417C347.56 190.854 347.666 190.375 347.878 189.98C348.089 189.585 348.378 189.284 348.743 189.077C349.107 188.869 349.519 188.764 349.978 188.764C350.434 188.764 350.844 188.869 351.209 189.077C351.576 189.284 351.865 189.585 352.077 189.98C352.29 190.375 352.397 190.854 352.397 191.417ZM351.29 191.417C351.29 191.053 351.235 190.745 351.126 190.494C351.018 190.244 350.866 190.054 350.669 189.924C350.473 189.795 350.242 189.73 349.978 189.73C349.714 189.73 349.484 189.795 349.287 189.924C349.091 190.054 348.938 190.244 348.828 190.494C348.721 190.745 348.667 191.053 348.667 191.417C348.667 191.782 348.721 192.09 348.828 192.341C348.938 192.591 349.091 192.781 349.287 192.91C349.484 193.04 349.714 193.105 349.978 193.105C350.242 193.105 350.473 193.04 350.669 192.91C350.866 192.781 351.018 192.591 351.126 192.341C351.235 192.09 351.29 191.782 351.29 191.417ZM353.206 188.835H354.553L355.975 192.305H356.036L357.458 188.835H358.805V194H357.746V190.638H357.703L356.366 193.975H355.645L354.308 190.626H354.265V194H353.206V188.835ZM362.506 190.32C362.486 190.117 362.4 189.959 362.247 189.846C362.094 189.734 361.886 189.677 361.624 189.677C361.446 189.677 361.295 189.702 361.172 189.753C361.05 189.802 360.955 189.87 360.89 189.957C360.826 190.045 360.794 190.144 360.794 190.255C360.791 190.347 360.81 190.428 360.852 190.497C360.896 190.566 360.955 190.626 361.031 190.676C361.107 190.725 361.194 190.768 361.293 190.805C361.393 190.84 361.499 190.87 361.611 190.895L362.075 191.006C362.301 191.057 362.507 191.124 362.696 191.208C362.884 191.292 363.047 191.396 363.185 191.518C363.323 191.641 363.43 191.786 363.505 191.952C363.583 192.119 363.622 192.309 363.624 192.525C363.622 192.841 363.541 193.115 363.382 193.347C363.224 193.577 362.995 193.756 362.696 193.884C362.398 194.01 362.039 194.073 361.619 194.073C361.202 194.073 360.839 194.009 360.529 193.881C360.222 193.754 359.981 193.565 359.808 193.314C359.636 193.062 359.546 192.75 359.538 192.378H360.595C360.607 192.552 360.656 192.696 360.744 192.812C360.833 192.926 360.951 193.013 361.099 193.072C361.249 193.129 361.418 193.158 361.606 193.158C361.791 193.158 361.952 193.131 362.088 193.077C362.226 193.023 362.332 192.948 362.408 192.852C362.484 192.757 362.522 192.647 362.522 192.522C362.522 192.406 362.487 192.309 362.418 192.23C362.351 192.151 362.252 192.083 362.121 192.028C361.991 191.972 361.832 191.922 361.644 191.876L361.082 191.735C360.646 191.629 360.302 191.464 360.05 191.238C359.798 191.013 359.673 190.71 359.674 190.328C359.673 190.015 359.756 189.742 359.924 189.508C360.094 189.275 360.327 189.092 360.623 188.961C360.918 188.83 361.255 188.764 361.631 188.764C362.015 188.764 362.349 188.83 362.635 188.961C362.923 189.092 363.146 189.275 363.306 189.508C363.466 189.742 363.548 190.013 363.553 190.32H362.506Z" fill="black"/>
<path d="M327.757 116.403C327.733 116.167 327.633 115.984 327.455 115.853C327.278 115.722 327.037 115.657 326.733 115.657C326.526 115.657 326.351 115.686 326.209 115.745C326.067 115.801 325.958 115.88 325.881 115.982C325.807 116.083 325.77 116.198 325.77 116.327C325.766 116.434 325.789 116.528 325.838 116.608C325.888 116.688 325.958 116.757 326.045 116.816C326.133 116.872 326.234 116.922 326.35 116.965C326.465 117.006 326.587 117.041 326.718 117.07L327.256 117.199C327.518 117.257 327.758 117.335 327.976 117.433C328.195 117.53 328.384 117.65 328.544 117.793C328.704 117.935 328.827 118.103 328.915 118.296C329.005 118.489 329.051 118.71 329.053 118.96C329.051 119.327 328.957 119.645 328.772 119.914C328.589 120.181 328.323 120.389 327.976 120.537C327.631 120.683 327.215 120.756 326.727 120.756C326.243 120.756 325.822 120.682 325.463 120.534C325.106 120.386 324.827 120.166 324.626 119.876C324.427 119.583 324.323 119.221 324.313 118.79H325.539C325.553 118.991 325.61 119.159 325.712 119.294C325.815 119.426 325.953 119.527 326.124 119.595C326.298 119.661 326.494 119.694 326.712 119.694C326.927 119.694 327.113 119.663 327.271 119.601C327.431 119.538 327.555 119.452 327.643 119.34C327.73 119.229 327.774 119.101 327.774 118.957C327.774 118.823 327.734 118.709 327.654 118.618C327.576 118.526 327.461 118.448 327.309 118.384C327.159 118.319 326.975 118.261 326.756 118.208L326.104 118.044C325.599 117.922 325.2 117.729 324.907 117.468C324.615 117.207 324.469 116.855 324.471 116.412C324.469 116.049 324.566 115.732 324.761 115.461C324.958 115.19 325.228 114.978 325.571 114.826C325.915 114.674 326.305 114.598 326.742 114.598C327.186 114.598 327.574 114.674 327.906 114.826C328.239 114.978 328.499 115.19 328.684 115.461C328.869 115.732 328.965 116.046 328.971 116.403H327.757ZM329.677 115.724V114.68H334.597V115.724H332.763V120.672H331.511V115.724H329.677ZM335.708 120.672H334.351L336.419 114.68H338.052L340.117 120.672H338.76L337.259 116.049H337.212L335.708 120.672ZM335.623 118.316H338.83V119.305H335.623V118.316ZM342.105 114.68V120.672H340.838V114.68H342.105ZM343.147 120.672V114.68H345.511C345.964 114.68 346.35 114.761 346.67 114.923C346.991 115.083 347.236 115.31 347.404 115.604C347.574 115.897 347.658 116.241 347.658 116.637C347.658 117.035 347.573 117.377 347.401 117.664C347.229 117.949 346.981 118.167 346.655 118.319C346.331 118.472 345.939 118.548 345.479 118.548H343.896V117.529H345.274C345.516 117.529 345.717 117.496 345.877 117.43C346.037 117.364 346.156 117.264 346.234 117.132C346.314 116.999 346.354 116.834 346.354 116.637C346.354 116.438 346.314 116.271 346.234 116.134C346.156 115.997 346.036 115.894 345.874 115.824C345.714 115.752 345.512 115.716 345.268 115.716H344.414V120.672H343.147ZM346.383 117.945L347.872 120.672H346.474L345.017 117.945H346.383ZM351.804 116.403C351.78 116.167 351.68 115.984 351.503 115.853C351.325 115.722 351.084 115.657 350.78 115.657C350.573 115.657 350.399 115.686 350.256 115.745C350.114 115.801 350.005 115.88 349.929 115.982C349.854 116.083 349.817 116.198 349.817 116.327C349.814 116.434 349.836 116.528 349.885 116.608C349.935 116.688 350.005 116.757 350.092 116.816C350.18 116.872 350.282 116.922 350.397 116.965C350.512 117.006 350.635 117.041 350.765 117.07L351.304 117.199C351.565 117.257 351.805 117.335 352.023 117.433C352.242 117.53 352.431 117.65 352.591 117.793C352.751 117.935 352.875 118.103 352.962 118.296C353.052 118.489 353.098 118.71 353.1 118.96C353.098 119.327 353.004 119.645 352.819 119.914C352.636 120.181 352.37 120.389 352.023 120.537C351.678 120.683 351.262 120.756 350.774 120.756C350.29 120.756 349.869 120.682 349.51 120.534C349.153 120.386 348.874 120.166 348.674 119.876C348.475 119.583 348.37 119.221 348.361 118.79H349.586C349.6 118.991 349.658 119.159 349.759 119.294C349.862 119.426 350 119.527 350.171 119.595C350.345 119.661 350.541 119.694 350.759 119.694C350.974 119.694 351.16 119.663 351.318 119.601C351.478 119.538 351.602 119.452 351.69 119.34C351.778 119.229 351.821 119.101 351.821 118.957C351.821 118.823 351.781 118.709 351.701 118.618C351.623 118.526 351.508 118.448 351.356 118.384C351.206 118.319 351.022 118.261 350.803 118.208L350.151 118.044C349.646 117.922 349.247 117.729 348.954 117.468C348.662 117.207 348.517 116.855 348.518 116.412C348.517 116.049 348.613 115.732 348.808 115.461C349.005 115.19 349.275 114.978 349.618 114.826C349.962 114.674 350.352 114.598 350.789 114.598C351.233 114.598 351.622 114.674 351.953 114.826C352.287 114.978 352.546 115.19 352.731 115.461C352.917 115.732 353.012 116.046 353.018 116.403H351.804Z" fill="black"/>
<path d="M197.521 128.009H199.083L200.733 132.034H200.803L202.453 128.009H204.015V134H202.787V130.1H202.737L201.186 133.971H200.35L198.799 130.086H198.749V134H197.521V128.009ZM207.917 132.087V129.506H209.164V134H207.967V133.184H207.92C207.819 133.447 207.65 133.659 207.414 133.819C207.18 133.979 206.894 134.059 206.557 134.059C206.257 134.059 205.992 133.99 205.764 133.854C205.536 133.717 205.358 133.523 205.229 133.272C205.102 133.02 205.038 132.719 205.036 132.368V129.506H206.282V132.145C206.284 132.41 206.355 132.62 206.496 132.774C206.636 132.928 206.824 133.005 207.06 133.005C207.21 133.005 207.351 132.971 207.481 132.903C207.612 132.833 207.717 132.729 207.797 132.593C207.879 132.456 207.919 132.288 207.917 132.087ZM210.161 134V129.506H211.369V130.29H211.416C211.497 130.012 211.635 129.801 211.828 129.659C212.021 129.514 212.243 129.442 212.495 129.442C212.557 129.442 212.625 129.446 212.697 129.454C212.769 129.462 212.832 129.472 212.887 129.486V130.592C212.829 130.574 212.748 130.559 212.644 130.545C212.541 130.531 212.446 130.524 212.361 130.524C212.177 130.524 212.013 130.564 211.869 130.644C211.727 130.722 211.614 130.832 211.53 130.972C211.448 131.113 211.407 131.274 211.407 131.458V134H210.161ZM214.684 134.085C214.397 134.085 214.142 134.035 213.918 133.936C213.693 133.834 213.516 133.685 213.385 133.488C213.256 133.289 213.192 133.041 213.192 132.745C213.192 132.495 213.238 132.286 213.33 132.116C213.421 131.946 213.546 131.81 213.704 131.706C213.862 131.603 214.041 131.525 214.242 131.472C214.445 131.42 214.658 131.383 214.88 131.361C215.141 131.334 215.352 131.309 215.512 131.285C215.672 131.26 215.788 131.223 215.86 131.174C215.932 131.125 215.968 131.053 215.968 130.957V130.94C215.968 130.755 215.91 130.611 215.793 130.51C215.678 130.408 215.514 130.358 215.301 130.358C215.077 130.358 214.899 130.407 214.766 130.507C214.633 130.604 214.546 130.727 214.503 130.876L213.35 130.782C213.409 130.509 213.524 130.273 213.695 130.074C213.867 129.873 214.088 129.719 214.359 129.612C214.632 129.502 214.948 129.448 215.307 129.448C215.557 129.448 215.796 129.477 216.024 129.536C216.254 129.594 216.458 129.685 216.635 129.808C216.815 129.931 216.956 130.089 217.06 130.282C217.163 130.473 217.215 130.702 217.215 130.969V134H216.033V133.377H215.998C215.926 133.517 215.829 133.641 215.708 133.748C215.587 133.854 215.442 133.937 215.272 133.997C215.102 134.056 214.906 134.085 214.684 134.085ZM215.041 133.225C215.224 133.225 215.386 133.189 215.527 133.116C215.667 133.042 215.777 132.943 215.857 132.818C215.937 132.693 215.977 132.552 215.977 132.394V131.917C215.938 131.942 215.885 131.966 215.816 131.987C215.75 132.007 215.675 132.025 215.591 132.043C215.507 132.058 215.423 132.073 215.339 132.087C215.256 132.098 215.179 132.109 215.111 132.119C214.965 132.14 214.837 132.174 214.728 132.221C214.619 132.268 214.534 132.331 214.473 132.411C214.413 132.489 214.383 132.587 214.383 132.704C214.383 132.874 214.444 133.003 214.567 133.093C214.692 133.181 214.85 133.225 215.041 133.225ZM219.428 128.009V134H218.182V128.009H219.428Z" fill="black"/>
<path d="M315.521 101V95.0085H319.558V96.0529H316.787V97.4806H319.35V98.525H316.787V99.9556H319.57V101H315.521ZM320.565 101V95.0085H321.832V99.9556H324.4V101H320.565ZM325.239 101V95.0085H329.277V96.0529H326.506V97.4806H329.069V98.525H326.506V99.9556H329.288V101H325.239ZM331.366 95.0085L332.814 99.5606H332.87L334.321 95.0085H335.725L333.66 101H332.027L329.959 95.0085H331.366ZM336.683 101H335.325L337.393 95.0085H339.026L341.091 101H339.734L338.233 96.3777H338.186L336.683 101ZM336.598 98.6449H339.804V99.6338H336.598V98.6449ZM340.852 96.0529V95.0085H345.773V96.0529H343.939V101H342.687V96.0529H340.852ZM351.816 98.0043C351.816 98.6576 351.692 99.2135 351.444 99.6718C351.198 100.13 350.863 100.48 350.438 100.722C350.014 100.962 349.539 101.082 349.01 101.082C348.478 101.082 348 100.961 347.577 100.719C347.153 100.477 346.819 100.127 346.573 99.6689C346.327 99.2105 346.204 98.6557 346.204 98.0043C346.204 97.3509 346.327 96.795 346.573 96.3367C346.819 95.8784 347.153 95.5293 347.577 95.2894C348 95.0475 348.478 94.9266 349.01 94.9266C349.539 94.9266 350.014 95.0475 350.438 95.2894C350.863 95.5293 351.198 95.8784 351.444 96.3367C351.692 96.795 351.816 97.3509 351.816 98.0043ZM350.531 98.0043C350.531 97.581 350.468 97.2241 350.341 96.9335C350.216 96.6429 350.04 96.4225 349.812 96.2723C349.583 96.1222 349.316 96.0471 349.01 96.0471C348.704 96.0471 348.437 96.1222 348.208 96.2723C347.98 96.4225 347.803 96.6429 347.676 96.9335C347.551 97.2241 347.489 97.581 347.489 98.0043C347.489 98.4275 347.551 98.7844 347.676 99.075C347.803 99.3656 347.98 99.586 348.208 99.7362C348.437 99.8863 348.704 99.9614 349.01 99.9614C349.316 99.9614 349.583 99.8863 349.812 99.7362C350.04 99.586 350.216 99.3656 350.341 99.075C350.468 98.7844 350.531 98.4275 350.531 98.0043ZM352.754 101V95.0085H355.118C355.57 95.0085 355.956 95.0895 356.276 95.2513C356.598 95.4113 356.843 95.6385 357.011 95.933C357.18 96.2255 357.265 96.5698 357.265 96.9657C357.265 97.3636 357.179 97.7059 357.008 97.9926C356.836 98.2773 356.587 98.4957 356.262 98.6479C355.938 98.8 355.546 98.8761 355.086 98.8761H353.503V97.858H354.881C355.123 97.858 355.324 97.8248 355.484 97.7585C355.643 97.6922 355.762 97.5927 355.84 97.4601C355.92 97.3275 355.96 97.1627 355.96 96.9657C355.96 96.7668 355.92 96.599 355.84 96.4625C355.762 96.326 355.642 96.2226 355.481 96.1524C355.321 96.0802 355.119 96.0441 354.875 96.0441H354.021V101H352.754ZM355.99 98.2734L357.479 101H356.08L354.623 98.2734H355.99Z" fill="black"/>
<path d="M459.757 45.6889C459.733 45.4529 459.633 45.2696 459.455 45.1389C459.278 45.0083 459.037 44.9429 458.733 44.9429C458.526 44.9429 458.351 44.9722 458.209 45.0307C458.067 45.0872 457.958 45.1662 457.881 45.2676C457.807 45.3691 457.77 45.4841 457.77 45.6129C457.766 45.7201 457.789 45.8137 457.838 45.8937C457.888 45.9737 457.958 46.0429 458.045 46.1014C458.133 46.158 458.234 46.2077 458.35 46.2506C458.465 46.2916 458.587 46.3267 458.718 46.3559L459.256 46.4847C459.518 46.5432 459.758 46.6212 459.976 46.7187C460.195 46.8162 460.384 46.9362 460.544 47.0786C460.704 47.2209 460.827 47.3887 460.915 47.5817C461.005 47.7748 461.051 47.9962 461.053 48.2458C461.051 48.6125 460.957 48.9304 460.772 49.1996C460.589 49.4668 460.323 49.6745 459.976 49.8227C459.631 49.969 459.215 50.0421 458.727 50.0421C458.243 50.0421 457.822 49.968 457.463 49.8198C457.106 49.6715 456.827 49.4521 456.626 49.1615C456.427 48.869 456.323 48.5072 456.313 48.0762H457.539C457.553 48.277 457.61 48.4448 457.712 48.5793C457.815 48.712 457.953 48.8124 458.124 48.8807C458.298 48.947 458.494 48.9801 458.712 48.9801C458.927 48.9801 459.113 48.9489 459.271 48.8865C459.431 48.8241 459.555 48.7373 459.643 48.6262C459.73 48.515 459.774 48.3872 459.774 48.2429C459.774 48.1083 459.734 47.9952 459.654 47.9036C459.576 47.8119 459.461 47.7339 459.309 47.6695C459.159 47.6051 458.975 47.5466 458.756 47.494L458.104 47.3301C457.599 47.2073 457.2 47.0152 456.907 46.7538C456.615 46.4925 456.469 46.1404 456.471 45.6977C456.469 45.3349 456.566 45.018 456.761 44.7469C456.958 44.4758 457.228 44.2642 457.571 44.1121C457.915 43.9599 458.305 43.8839 458.742 43.8839C459.186 43.8839 459.574 43.9599 459.906 44.1121C460.239 44.2642 460.499 44.4758 460.684 44.7469C460.869 45.018 460.965 45.332 460.971 45.6889H459.757ZM461.677 45.0102V43.9658H466.597V45.0102H464.763V49.9573H463.511V45.0102H461.677ZM467.708 49.9573H466.351L468.419 43.9658H470.052L472.117 49.9573H470.76L469.259 45.3349H469.212L467.708 49.9573ZM467.623 47.6022H470.83V48.5911H467.623V47.6022ZM474.105 43.9658V49.9573H472.838V43.9658H474.105ZM475.147 49.9573V43.9658H477.511C477.964 43.9658 478.35 44.0467 478.67 44.2086C478.991 44.3685 479.236 44.5958 479.404 44.8903C479.574 45.1828 479.658 45.527 479.658 45.923C479.658 46.3208 479.573 46.6631 479.401 46.9498C479.229 47.2346 478.981 47.453 478.655 47.6051C478.331 47.7573 477.939 47.8333 477.479 47.8333H475.896V46.8153H477.274C477.516 46.8153 477.717 46.7821 477.877 46.7158C478.037 46.6495 478.156 46.55 478.234 46.4174C478.314 46.2848 478.354 46.12 478.354 45.923C478.354 45.724 478.314 45.5563 478.234 45.4198C478.156 45.2833 478.036 45.1799 477.874 45.1097C477.714 45.0375 477.512 45.0014 477.268 45.0014H476.414V49.9573H475.147ZM478.383 47.2307L479.872 49.9573H478.474L477.017 47.2307H478.383ZM483.804 45.6889C483.78 45.4529 483.68 45.2696 483.503 45.1389C483.325 45.0083 483.084 44.9429 482.78 44.9429C482.573 44.9429 482.399 44.9722 482.256 45.0307C482.114 45.0872 482.005 45.1662 481.929 45.2676C481.854 45.3691 481.817 45.4841 481.817 45.6129C481.814 45.7201 481.836 45.8137 481.885 45.8937C481.935 45.9737 482.005 46.0429 482.092 46.1014C482.18 46.158 482.282 46.2077 482.397 46.2506C482.512 46.2916 482.635 46.3267 482.765 46.3559L483.304 46.4847C483.565 46.5432 483.805 46.6212 484.023 46.7187C484.242 46.8162 484.431 46.9362 484.591 47.0786C484.751 47.2209 484.875 47.3887 484.962 47.5817C485.052 47.7748 485.098 47.9962 485.1 48.2458C485.098 48.6125 485.004 48.9304 484.819 49.1996C484.636 49.4668 484.37 49.6745 484.023 49.8227C483.678 49.969 483.262 50.0421 482.774 50.0421C482.29 50.0421 481.869 49.968 481.51 49.8198C481.153 49.6715 480.874 49.4521 480.674 49.1615C480.475 48.869 480.37 48.5072 480.361 48.0762H481.586C481.6 48.277 481.658 48.4448 481.759 48.5793C481.862 48.712 482 48.8124 482.171 48.8807C482.345 48.947 482.541 48.9801 482.759 48.9801C482.974 48.9801 483.16 48.9489 483.318 48.8865C483.478 48.8241 483.602 48.7373 483.69 48.6262C483.778 48.515 483.821 48.3872 483.821 48.2429C483.821 48.1083 483.781 47.9952 483.701 47.9036C483.623 47.8119 483.508 47.7339 483.356 47.6695C483.206 47.6051 483.022 47.5466 482.803 47.494L482.151 47.3301C481.646 47.2073 481.247 47.0152 480.954 46.7538C480.662 46.4925 480.517 46.1404 480.518 45.6977C480.517 45.3349 480.613 45.018 480.808 44.7469C481.005 44.4758 481.275 44.2642 481.618 44.1121C481.962 43.9599 482.352 43.8839 482.789 43.8839C483.233 43.8839 483.622 43.9599 483.953 44.1121C484.287 44.2642 484.546 44.4758 484.731 44.7469C484.917 45.018 485.012 45.332 485.018 45.6889H483.804Z" fill="black"/>
<path d="M292.4 116.443H151.443H125.986L156.157 85.8001H172.657V71.1858H203.3V30.1715H292.4V71.1858H306.071V69.3001V30.1715H439.486V54.6858H389.986H317.386V69.3001H306.071V71.1858H292.4V116.443Z" fill="#E9B3F7"/>
<path d="M292.4 71.1858V30.1715H203.3V71.1858H172.657V85.8001H156.157L125.986 116.443H151.443H292.4V71.1858ZM292.4 71.1858H306.071M306.071 71.1858V30.1715H439.486V54.6858H389.986H317.386V69.3001H306.071V71.1858Z" stroke="black" stroke-width="2"/>
<path d="M228.436 44.6491H227.154C227.131 44.4833 227.083 44.3361 227.011 44.2073C226.939 44.0767 226.846 43.9655 226.733 43.8738C226.62 43.7822 226.489 43.7119 226.341 43.6632C226.195 43.6144 226.036 43.59 225.864 43.59C225.554 43.59 225.284 43.6671 225.054 43.8212C224.824 43.9733 224.645 44.1956 224.518 44.4882C224.392 44.7788 224.328 45.1318 224.328 45.5472C224.328 45.9744 224.392 46.3332 224.518 46.6238C224.647 46.9144 224.827 47.1338 225.057 47.2821C225.287 47.4303 225.553 47.5044 225.855 47.5044C226.025 47.5044 226.182 47.482 226.326 47.4371C226.473 47.3923 226.602 47.3269 226.716 47.2411C226.829 47.1533 226.922 47.047 226.996 46.9222C227.072 46.7974 227.125 46.655 227.154 46.4951L228.436 46.5009C228.403 46.7759 228.32 47.0412 228.187 47.2967C228.056 47.5502 227.88 47.7775 227.658 47.9783C227.437 48.1773 227.174 48.3353 226.868 48.4523C226.563 48.5673 226.219 48.6249 225.835 48.6249C225.301 48.6249 224.823 48.504 224.401 48.2621C223.982 48.0203 223.651 47.6702 223.407 47.2119C223.165 46.7535 223.044 46.1986 223.044 45.5472C223.044 44.8939 223.167 44.338 223.413 43.8797C223.658 43.4213 223.992 43.0722 224.413 42.8323C224.834 42.5905 225.308 42.4696 225.835 42.4696C226.182 42.4696 226.504 42.5183 226.8 42.6158C227.099 42.7134 227.363 42.8557 227.593 43.043C227.823 43.2283 228.011 43.4555 228.155 43.7246C228.301 43.9938 228.395 44.3019 228.436 44.6491ZM230.264 48.543H228.907L230.975 42.5515H232.608L234.673 48.543H233.316L231.815 43.9206H231.768L230.264 48.543ZM230.179 46.1879H233.386V47.1767H230.179V46.1879ZM235.394 48.543V42.5515H237.758C238.21 42.5515 238.597 42.6324 238.916 42.7943C239.238 42.9542 239.483 43.1814 239.651 43.4759C239.82 43.7685 239.905 44.1127 239.905 44.5087C239.905 44.9065 239.819 45.2488 239.648 45.5355C239.476 45.8203 239.228 46.0387 238.902 46.1908C238.578 46.343 238.186 46.419 237.726 46.419H236.143V45.4009H237.521C237.763 45.4009 237.964 45.3678 238.124 45.3015C238.284 45.2352 238.403 45.1357 238.481 45.0031C238.561 44.8705 238.601 44.7056 238.601 44.5087C238.601 44.3097 238.561 44.142 238.481 44.0055C238.403 43.8689 238.283 43.7656 238.121 43.6954C237.961 43.6232 237.759 43.5871 237.515 43.5871H236.661V48.543H235.394ZM238.63 45.8164L240.119 48.543H238.72L237.264 45.8164H238.63ZM240.801 48.543V42.5515H244.838V43.5959H242.067V45.0236H244.63V46.068H242.067V47.4986H244.849V48.543H240.801ZM245.845 48.543V42.5515H249.882V43.5959H247.112V45.0236H249.674V46.068H247.112V47.4986H249.894V48.543H245.845ZM250.889 48.543V42.5515H253.253C253.706 42.5515 254.092 42.6324 254.412 42.7943C254.733 42.9542 254.978 43.1814 255.146 43.4759C255.316 43.7685 255.4 44.1127 255.4 44.5087C255.4 44.9065 255.315 45.2488 255.143 45.5355C254.971 45.8203 254.723 46.0387 254.397 46.1908C254.073 46.343 253.681 46.419 253.221 46.419H251.638V45.4009H253.016C253.258 45.4009 253.459 45.3678 253.619 45.3015C253.779 45.2352 253.898 45.1357 253.976 45.0031C254.056 44.8705 254.096 44.7056 254.096 44.5087C254.096 44.3097 254.056 44.142 253.976 44.0055C253.898 43.8689 253.778 43.7656 253.616 43.6954C253.456 43.6232 253.254 43.5871 253.01 43.5871H252.156V48.543H250.889ZM254.125 45.8164L255.614 48.543H254.216L252.759 45.8164H254.125ZM258.202 48.543V42.5515H262.169V43.5959H259.469V45.0236H261.906V46.068H259.469V48.543H258.202ZM263.306 48.543H261.948L264.017 42.5515H265.649L267.715 48.543H266.357L264.856 43.9206H264.81L263.306 48.543ZM263.221 46.1879H266.427V47.1767H263.221V46.1879ZM269.703 42.5515V48.543H268.436V42.5515H269.703ZM270.745 48.543V42.5515H273.109C273.561 42.5515 273.947 42.6324 274.267 42.7943C274.589 42.9542 274.834 43.1814 275.001 43.4759C275.171 43.7685 275.256 44.1127 275.256 44.5087C275.256 44.9065 275.17 45.2488 274.999 45.5355C274.827 45.8203 274.578 46.0387 274.253 46.1908C273.929 46.343 273.537 46.419 273.076 46.419H271.494V45.4009H272.872C273.113 45.4009 273.314 45.3678 273.474 45.3015C273.634 45.2352 273.753 45.1357 273.831 45.0031C273.911 44.8705 273.951 44.7056 273.951 44.5087C273.951 44.3097 273.911 44.142 273.831 44.0055C273.753 43.8689 273.633 43.7656 273.471 43.6954C273.311 43.6232 273.11 43.5871 272.866 43.5871H272.012V48.543H270.745ZM273.98 45.8164L275.47 48.543H274.071L272.614 45.8164H273.98Z" fill="black"/>
<path d="M354.807 42.1061H353.526C353.502 41.9403 353.455 41.7931 353.382 41.6644C353.31 41.5337 353.218 41.4225 353.105 41.3309C352.991 41.2392 352.861 41.169 352.712 41.1202C352.566 41.0715 352.407 41.0471 352.236 41.0471C351.926 41.0471 351.655 41.1241 351.425 41.2782C351.195 41.4303 351.017 41.6527 350.89 41.9452C350.763 42.2358 350.7 42.5888 350.7 43.0043C350.7 43.4314 350.763 43.7902 350.89 44.0809C351.019 44.3715 351.198 44.5909 351.428 44.7391C351.658 44.8873 351.925 44.9614 352.227 44.9614C352.397 44.9614 352.554 44.939 352.698 44.8941C352.844 44.8493 352.974 44.784 353.087 44.6981C353.2 44.6104 353.294 44.5041 353.368 44.3793C353.444 44.2544 353.497 44.1121 353.526 43.9521L354.807 43.958C354.774 44.233 354.691 44.4982 354.559 44.7537C354.428 45.0073 354.251 45.2345 354.029 45.4354C353.809 45.6343 353.545 45.7923 353.239 45.9093C352.935 46.0244 352.591 46.0819 352.206 46.0819C351.672 46.0819 351.194 45.961 350.773 45.7191C350.354 45.4773 350.022 45.1272 349.778 44.6689C349.536 44.2105 349.415 43.6557 349.415 43.0043C349.415 42.3509 349.538 41.795 349.784 41.3367C350.03 40.8784 350.363 40.5293 350.785 40.2894C351.206 40.0475 351.68 39.9266 352.206 39.9266C352.554 39.9266 352.875 39.9754 353.172 40.0729C353.47 40.1704 353.734 40.3128 353.965 40.5C354.195 40.6853 354.382 40.9125 354.526 41.1816C354.673 41.4508 354.766 41.759 354.807 42.1061ZM356.636 46H355.278L357.347 40.0085H358.979L361.044 46H359.687L358.186 41.3777H358.139L356.636 46ZM356.551 43.6449H359.757V44.6338H356.551V43.6449ZM361.766 46V40.0085H364.129C364.582 40.0085 364.968 40.0895 365.288 40.2513C365.61 40.4113 365.854 40.6385 366.022 40.933C366.192 41.2255 366.277 41.5698 366.277 41.9657C366.277 42.3636 366.191 42.7059 366.019 42.9926C365.848 43.2773 365.599 43.4957 365.273 43.6479C364.95 43.8 364.557 43.8761 364.097 43.8761H362.514V42.858H363.892C364.134 42.858 364.335 42.8248 364.495 42.7585C364.655 42.6922 364.774 42.5927 364.852 42.4601C364.932 42.3275 364.972 42.1627 364.972 41.9657C364.972 41.7668 364.932 41.599 364.852 41.4625C364.774 41.326 364.654 41.2226 364.492 41.1524C364.332 41.0802 364.13 41.0441 363.887 41.0441H363.032V46H361.766ZM365.001 43.2734L366.49 46H365.092L363.635 43.2734H365.001ZM367.172 46V40.0085H371.209V41.0529H368.439V42.4806H371.001V43.525H368.439V44.9556H371.221V46H367.172ZM372.216 46V40.0085H376.254V41.0529H373.483V42.4806H376.046V43.525H373.483V44.9556H376.265V46H372.216ZM377.261 46V40.0085H379.624C380.077 40.0085 380.463 40.0895 380.783 40.2513C381.105 40.4113 381.35 40.6385 381.517 40.933C381.687 41.2255 381.772 41.5698 381.772 41.9657C381.772 42.3636 381.686 42.7059 381.514 42.9926C381.343 43.2773 381.094 43.4957 380.768 43.6479C380.445 43.8 380.053 43.8761 379.592 43.8761H378.01V42.858H379.387C379.629 42.858 379.83 42.8248 379.99 42.7585C380.15 42.6922 380.269 42.5927 380.347 42.4601C380.427 42.3275 380.467 42.1627 380.467 41.9657C380.467 41.7668 380.427 41.599 380.347 41.4625C380.269 41.326 380.149 41.2226 379.987 41.1524C379.827 41.0802 379.625 41.0441 379.382 41.0441H378.527V46H377.261ZM380.496 43.2734L381.985 46H380.587L379.13 43.2734H380.496ZM384.574 46V40.0085H388.541V41.0529H385.84V42.4806H388.277V43.525H385.84V46H384.574ZM389.677 46H388.32L390.388 40.0085H392.021L394.086 46H392.729L391.228 41.3777H391.181L389.677 46ZM389.592 43.6449H392.799V44.6338H389.592V43.6449ZM396.074 40.0085V46H394.807V40.0085H396.074ZM397.116 46V40.0085H399.48C399.933 40.0085 400.319 40.0895 400.639 40.2513C400.96 40.4113 401.205 40.6385 401.373 40.933C401.543 41.2255 401.627 41.5698 401.627 41.9657C401.627 42.3636 401.542 42.7059 401.37 42.9926C401.198 43.2773 400.95 43.4957 400.624 43.6479C400.3 43.8 399.908 43.8761 399.448 43.8761H397.865V42.858H399.243C399.485 42.858 399.686 42.8248 399.846 42.7585C400.006 42.6922 400.125 42.5927 400.203 42.4601C400.283 42.3275 400.323 42.1627 400.323 41.9657C400.323 41.7668 400.283 41.599 400.203 41.4625C400.125 41.326 400.005 41.2226 399.843 41.1524C399.683 41.0802 399.481 41.0441 399.237 41.0441H398.383V46H397.116ZM400.352 43.2734L401.841 46H400.443L398.986 43.2734H400.352Z" fill="black"/>
<path d="M212.728 91.8889C212.705 91.6529 212.604 91.4695 212.427 91.3389C212.249 91.2082 212.008 91.1429 211.704 91.1429C211.497 91.1429 211.323 91.1721 211.181 91.2306C211.038 91.2872 210.929 91.3662 210.853 91.4676C210.779 91.569 210.742 91.6841 210.742 91.8128C210.738 91.9201 210.76 92.0137 210.809 92.0937C210.86 92.1736 210.929 92.2429 211.017 92.3014C211.104 92.3579 211.206 92.4077 211.321 92.4506C211.436 92.4915 211.559 92.5266 211.69 92.5559L212.228 92.6846C212.489 92.7431 212.729 92.8211 212.948 92.9187C213.166 93.0162 213.355 93.1361 213.515 93.2785C213.675 93.4209 213.799 93.5886 213.887 93.7817C213.976 93.9748 214.022 94.1961 214.024 94.4458C214.022 94.8125 213.929 95.1304 213.743 95.3995C213.56 95.6667 213.295 95.8744 212.948 96.0227C212.602 96.1689 212.186 96.2421 211.698 96.2421C211.215 96.2421 210.793 96.168 210.435 96.0197C210.078 95.8715 209.799 95.6521 209.598 95.3615C209.399 95.0689 209.295 94.7071 209.285 94.2761H210.511C210.524 94.477 210.582 94.6447 210.683 94.7793C210.787 94.9119 210.924 95.0124 211.096 95.0806C211.269 95.1469 211.465 95.1801 211.684 95.1801C211.898 95.1801 212.085 95.1489 212.243 95.0865C212.402 95.0241 212.526 94.9373 212.614 94.8261C212.702 94.7149 212.746 94.5872 212.746 94.4429C212.746 94.3083 212.706 94.1952 212.626 94.1035C212.548 94.0118 212.433 93.9338 212.281 93.8695C212.13 93.8051 211.946 93.7466 211.728 93.6939L211.075 93.5301C210.57 93.4072 210.171 93.2151 209.879 92.9538C209.586 92.6924 209.441 92.3404 209.443 91.8977C209.441 91.5349 209.537 91.218 209.732 90.9469C209.929 90.6758 210.2 90.4641 210.543 90.312C210.886 90.1599 211.276 90.0838 211.713 90.0838C212.158 90.0838 212.546 90.1599 212.877 90.312C213.211 90.4641 213.47 90.6758 213.656 90.9469C213.841 91.218 213.936 91.532 213.942 91.8889H212.728ZM214.876 96.1572V90.1657H217.24C217.694 90.1657 218.082 90.2525 218.402 90.4261C218.721 90.5977 218.965 90.8367 219.133 91.1429C219.303 91.4471 219.387 91.7982 219.387 92.1961C219.387 92.5939 219.302 92.945 219.13 93.2492C218.958 93.5535 218.71 93.7905 218.384 93.9602C218.06 94.1298 217.668 94.2147 217.208 94.2147H215.701V93.1995H217.003C217.247 93.1995 217.448 93.1576 217.606 93.0737C217.766 92.9879 217.885 92.8699 217.963 92.7197C218.043 92.5676 218.083 92.393 218.083 92.1961C218.083 91.9971 218.043 91.8235 217.963 91.6753C217.885 91.5251 217.766 91.4091 217.606 91.3272C217.446 91.2433 217.243 91.2014 216.997 91.2014H216.143V96.1572H214.876ZM220.21 96.1572V90.1657H224.247V91.2102H221.477V92.6378H224.04V93.6822H221.477V95.1128H224.259V96.1572H220.21ZM225.255 96.1572V90.1657H229.292V91.2102H226.521V92.6378H229.084V93.6822H226.521V95.1128H229.303V96.1572H225.255ZM232.423 96.1572H230.299V90.1657H232.44C233.043 90.1657 233.562 90.2857 233.997 90.5256C234.432 90.7635 234.766 91.1058 235 91.5524C235.236 91.9991 235.354 92.5335 235.354 93.1556C235.354 93.7797 235.236 94.3161 235 94.7647C234.766 95.2133 234.43 95.5575 233.991 95.7974C233.554 96.0373 233.031 96.1572 232.423 96.1572ZM231.566 95.0719H232.37C232.745 95.0719 233.06 95.0055 233.315 94.8729C233.573 94.7383 233.766 94.5306 233.894 94.2498C234.025 93.967 234.09 93.6023 234.09 93.1556C234.09 92.7129 234.025 92.3511 233.894 92.0703C233.766 91.7894 233.574 91.5827 233.318 91.45C233.063 91.3174 232.748 91.2511 232.373 91.2511H231.566V95.0719ZM214.489 100.166V106.157H213.395L210.789 102.386H210.745V106.157H209.478V100.166H210.59L213.176 103.934H213.228V100.166H214.489ZM215.536 106.157V100.166H219.573V101.21H216.803V102.638H219.365V103.682H216.803V105.113H219.585V106.157H215.536ZM220.352 101.21V100.166H225.273V101.21H223.439V106.157H222.186V101.21H220.352ZM227.432 106.157L225.718 100.166H227.101L228.093 104.329H228.143L229.237 100.166H230.422L231.513 104.338H231.566L232.557 100.166H233.941L232.227 106.157H230.992L229.851 102.24H229.804L228.666 106.157H227.432ZM239.787 103.161C239.787 103.815 239.663 104.371 239.416 104.829C239.17 105.287 238.834 105.637 238.409 105.879C237.986 106.119 237.51 106.239 236.982 106.239C236.449 106.239 235.971 106.118 235.548 105.876C235.125 105.635 234.79 105.284 234.545 104.826C234.299 104.368 234.176 103.813 234.176 103.161C234.176 102.508 234.299 101.952 234.545 101.494C234.79 101.036 235.125 100.686 235.548 100.447C235.971 100.205 236.449 100.084 236.982 100.084C237.51 100.084 237.986 100.205 238.409 100.447C238.834 100.686 239.17 101.036 239.416 101.494C239.663 101.952 239.787 102.508 239.787 103.161ZM238.503 103.161C238.503 102.738 238.439 102.381 238.313 102.091C238.188 101.8 238.011 101.58 237.783 101.43C237.555 101.279 237.288 101.204 236.982 101.204C236.675 101.204 236.408 101.279 236.18 101.43C235.952 101.58 235.774 101.8 235.648 102.091C235.523 102.381 235.46 102.738 235.46 103.161C235.46 103.585 235.523 103.942 235.648 104.232C235.774 104.523 235.952 104.743 236.18 104.893C236.408 105.044 236.675 105.119 236.982 105.119C237.288 105.119 237.555 105.044 237.783 104.893C238.011 104.743 238.188 104.523 238.313 104.232C238.439 103.942 238.503 103.585 238.503 103.161ZM240.726 106.157V100.166H243.089C243.542 100.166 243.928 100.247 244.248 100.409C244.57 100.568 244.814 100.796 244.982 101.09C245.152 101.383 245.237 101.727 245.237 102.123C245.237 102.521 245.151 102.863 244.979 103.15C244.808 103.435 244.559 103.653 244.233 103.805C243.909 103.957 243.517 104.033 243.057 104.033H241.474V103.015H242.852C243.094 103.015 243.295 102.982 243.455 102.916C243.615 102.849 243.734 102.75 243.812 102.617C243.892 102.485 243.932 102.32 243.932 102.123C243.932 101.924 243.892 101.756 243.812 101.62C243.734 101.483 243.614 101.38 243.452 101.31C243.292 101.237 243.09 101.201 242.847 101.201H241.992V106.157H240.726ZM243.961 103.431L245.45 106.157H244.052L242.595 103.431H243.961ZM246.132 106.157V100.166H247.399V102.807H247.478L249.634 100.166H251.152L248.929 102.848L251.178 106.157H249.663L248.022 103.694L247.399 104.455V106.157H246.132ZM253.079 100.166V106.157H251.812V100.166H253.079ZM259.132 100.166V106.157H258.038L255.431 102.386H255.388V106.157H254.121V100.166H255.232L257.819 103.934H257.871V100.166H259.132ZM264.152 102.102C264.111 101.96 264.053 101.834 263.979 101.725C263.905 101.614 263.814 101.52 263.707 101.444C263.602 101.366 263.481 101.307 263.344 101.266C263.21 101.225 263.06 101.204 262.897 101.204C262.59 101.204 262.321 101.28 262.089 101.432C261.859 101.585 261.68 101.806 261.551 102.097C261.422 102.385 261.358 102.738 261.358 103.156C261.358 103.573 261.421 103.928 261.548 104.221C261.675 104.513 261.854 104.736 262.086 104.89C262.318 105.043 262.592 105.119 262.908 105.119C263.195 105.119 263.44 105.068 263.643 104.967C263.847 104.863 264.003 104.718 264.111 104.531C264.22 104.343 264.275 104.122 264.275 103.867L264.532 103.905H262.987V102.951H265.495V103.706C265.495 104.232 265.383 104.685 265.161 105.063C264.939 105.439 264.632 105.73 264.242 105.935C263.852 106.138 263.406 106.239 262.902 106.239C262.341 106.239 261.847 106.115 261.422 105.868C260.997 105.618 260.665 105.264 260.427 104.806C260.192 104.345 260.074 103.799 260.074 103.167C260.074 102.682 260.144 102.249 260.284 101.868C260.427 101.486 260.625 101.162 260.881 100.897C261.136 100.632 261.434 100.43 261.773 100.292C262.113 100.153 262.48 100.084 262.876 100.084C263.216 100.084 263.531 100.134 263.824 100.233C264.117 100.331 264.376 100.469 264.602 100.648C264.83 100.828 265.017 101.041 265.161 101.289C265.305 101.535 265.398 101.806 265.439 102.102H264.152Z" fill="black"/>
</svg>
