<svg width="539" height="216" viewBox="0 0 539 216" fill="none" xmlns="http://www.w3.org/2000/svg">
<path d="M2.94815 14V3.09091H10.1712V4.99254H5.25462V7.59197H9.69176V9.49361H5.25462V14H2.94815ZM13.9491 3.09091V14H11.68V3.09091H13.9491ZM19.4636 14.1598C18.6362 14.1598 17.9206 13.984 17.3169 13.6325C16.7168 13.2773 16.2534 12.7837 15.9267 12.1516C15.6 11.516 15.4366 10.7791 15.4366 9.94105C15.4366 9.09588 15.6 8.35724 15.9267 7.72514C16.2534 7.08949 16.7168 6.59588 17.3169 6.24432C17.9206 5.8892 18.6362 5.71165 19.4636 5.71165C20.291 5.71165 21.0048 5.8892 21.6049 6.24432C22.2086 6.59588 22.6738 7.08949 23.0005 7.72514C23.3272 8.35724 23.4906 9.09588 23.4906 9.94105C23.4906 10.7791 23.3272 11.516 23.0005 12.1516C22.6738 12.7837 22.2086 13.2773 21.6049 13.6325C21.0048 13.984 20.291 14.1598 19.4636 14.1598ZM19.4743 12.402C19.8507 12.402 20.165 12.2955 20.4171 12.0824C20.6692 11.8658 20.8592 11.571 20.987 11.1982C21.1184 10.8253 21.1841 10.4009 21.1841 9.92507C21.1841 9.44922 21.1184 9.02486 20.987 8.65199C20.8592 8.27912 20.6692 7.98437 20.4171 7.76776C20.165 7.55114 19.8507 7.44283 19.4743 7.44283C19.0943 7.44283 18.7747 7.55114 18.5154 7.76776C18.2598 7.98437 18.0662 8.27912 17.9348 8.65199C17.807 9.02486 17.7431 9.44922 17.7431 9.92507C17.7431 10.4009 17.807 10.8253 17.9348 11.1982C18.0662 11.571 18.2598 11.8658 18.5154 12.0824C18.7747 12.2955 19.0943 12.402 19.4743 12.402ZM28.6628 14.1598C27.8354 14.1598 27.1199 13.984 26.5162 13.6325C25.916 13.2773 25.4526 12.7837 25.1259 12.1516C24.7992 11.516 24.6358 10.7791 24.6358 9.94105C24.6358 9.09588 24.7992 8.35724 25.1259 7.72514C25.4526 7.08949 25.916 6.59588 26.5162 6.24432C27.1199 5.8892 27.8354 5.71165 28.6628 5.71165C29.4902 5.71165 30.204 5.8892 30.8042 6.24432C31.4078 6.59588 31.873 7.08949 32.1998 7.72514C32.5265 8.35724 32.6898 9.09588 32.6898 9.94105C32.6898 10.7791 32.5265 11.516 32.1998 12.1516C31.873 12.7837 31.4078 13.2773 30.8042 13.6325C30.204 13.984 29.4902 14.1598 28.6628 14.1598ZM28.6735 12.402C29.0499 12.402 29.3642 12.2955 29.6163 12.0824C29.8684 11.8658 30.0584 11.571 30.1863 11.1982C30.3176 10.8253 30.3833 10.4009 30.3833 9.92507C30.3833 9.44922 30.3176 9.02486 30.1863 8.65199C30.0584 8.27912 29.8684 7.98437 29.6163 7.76776C29.3642 7.55114 29.0499 7.44283 28.6735 7.44283C28.2935 7.44283 27.9739 7.55114 27.7147 7.76776C27.459 7.98437 27.2654 8.27912 27.1341 8.65199C27.0062 9.02486 26.9423 9.44922 26.9423 9.92507C26.9423 10.4009 27.0062 10.8253 27.1341 11.1982C27.2654 11.571 27.459 11.8658 27.7147 12.0824C27.9739 12.2955 28.2935 12.402 28.6735 12.402ZM34.1653 14V5.81818H36.3652V7.24574H36.4505C36.5996 6.73793 36.85 6.3544 37.2015 6.09517C37.5531 5.83239 37.9579 5.70099 38.416 5.70099C38.5297 5.70099 38.6522 5.7081 38.7836 5.7223C38.915 5.73651 39.0304 5.75604 39.1298 5.78089V7.79439C39.0233 7.76243 38.8759 7.73402 38.6877 7.70916C38.4995 7.6843 38.3272 7.67188 38.171 7.67188C37.8372 7.67188 37.5389 7.74467 37.2761 7.89027C37.0169 8.03232 36.8109 8.23118 36.6582 8.48686C36.5091 8.74254 36.4345 9.03729 36.4345 9.37109V14H34.1653ZM48.0307 14.2397C47.1145 14.2362 46.3262 14.0107 45.6657 13.5632C45.0087 13.1158 44.5027 12.4677 44.1475 11.619C43.796 10.7702 43.622 9.74929 43.6255 8.55611C43.6255 7.36648 43.8013 6.35263 44.1529 5.51456C44.508 4.67649 45.014 4.03906 45.671 3.60227C46.3315 3.16193 47.1181 2.94176 48.0307 2.94176C48.9434 2.94176 49.7282 3.16193 50.3851 3.60227C51.0456 4.04261 51.5534 4.68182 51.9086 5.51989C52.2637 6.3544 52.4395 7.36648 52.4359 8.55611C52.4359 9.75284 52.2583 10.7756 51.9032 11.6243C51.5517 12.473 51.0474 13.1211 50.3904 13.5685C49.7335 14.016 48.9469 14.2397 48.0307 14.2397ZM48.0307 12.3274C48.6557 12.3274 49.1547 12.0131 49.5275 11.3846C49.9004 10.756 50.085 9.81321 50.0815 8.55611C50.0815 7.72869 49.9963 7.03977 49.8258 6.48935C49.6589 5.93892 49.421 5.52521 49.112 5.24822C48.8066 4.97124 48.4462 4.83274 48.0307 4.83274C47.4093 4.83274 46.9121 5.14347 46.5392 5.76491C46.1664 6.38636 45.9782 7.31676 45.9746 8.55611C45.9746 9.39418 46.0581 10.0938 46.225 10.6548C46.3954 11.2124 46.6351 11.6314 46.9441 11.9119C47.253 12.1889 47.6152 12.3274 48.0307 12.3274ZM58.0742 8.54545C58.0742 7.22443 58.25 6.00817 58.6016 4.89666C58.9567 3.78516 59.4982 2.75533 60.2262 1.80717H62.3942C62.1172 2.15874 61.8597 2.58842 61.6218 3.09624C61.3839 3.6005 61.1761 4.15447 60.9986 4.75817C60.821 5.36186 60.6825 5.98686 60.5831 6.63317C60.4837 7.27592 60.4339 7.91335 60.4339 8.54545C60.4339 9.38707 60.5192 10.2376 60.6896 11.0969C60.8636 11.9528 61.098 12.7482 61.3928 13.4833C61.6911 14.2184 62.0249 14.8203 62.3942 15.2891H60.2262C59.4982 14.3409 58.9567 13.3111 58.6016 12.1996C58.25 11.0881 58.0742 9.87003 58.0742 8.54545ZM63.7538 14V3.09091H68.1217C68.9243 3.09091 69.5937 3.20987 70.1299 3.4478C70.6661 3.68572 71.0692 4.01598 71.339 4.43857C71.6089 4.8576 71.7439 5.34055 71.7439 5.88743C71.7439 6.31357 71.6586 6.68821 71.4882 7.01136C71.3177 7.33097 71.0834 7.59375 70.7851 7.79972C70.4903 8.00213 70.153 8.14595 69.773 8.23118V8.33771C70.1885 8.35547 70.5773 8.47266 70.9395 8.68928C71.3053 8.90589 71.6018 9.20952 71.8291 9.60014C72.0564 9.98722 72.17 10.4489 72.17 10.9851C72.17 11.5639 72.0262 12.0806 71.7385 12.5352C71.4545 12.9862 71.0336 13.343 70.4761 13.6058C69.9186 13.8686 69.2314 14 68.4147 14H63.7538ZM66.0603 12.1143H67.9406C68.5834 12.1143 69.0521 11.9918 69.3469 11.7468C69.6416 11.4982 69.789 11.168 69.789 10.756C69.789 10.4542 69.7162 10.1879 69.5706 9.95703C69.425 9.72621 69.2172 9.5451 68.9474 9.41371C68.681 9.28232 68.3632 9.21662 67.9939 9.21662H66.0603V12.1143ZM66.0603 7.65589H67.7702C68.0862 7.65589 68.3667 7.60085 68.6118 7.49077C68.8604 7.37713 69.0557 7.21733 69.1977 7.01136C69.3433 6.8054 69.4161 6.55859 69.4161 6.27095C69.4161 5.87678 69.2758 5.55895 68.9953 5.31747C68.7183 5.07599 68.3241 4.95526 67.8128 4.95526H66.0603V7.65589ZM75.9613 14.1545C75.4393 14.1545 74.9741 14.0639 74.5657 13.8828C74.1573 13.6982 73.8342 13.4265 73.5962 13.0678C73.3619 12.7056 73.2447 12.2546 73.2447 11.7148C73.2447 11.2603 73.3281 10.8786 73.495 10.5696C73.6619 10.2607 73.8892 10.0121 74.1768 9.82386C74.4645 9.63565 74.7912 9.49361 75.157 9.39773C75.5263 9.30185 75.9134 9.23438 76.3182 9.19531C76.794 9.1456 77.1776 9.09943 77.4688 9.05682C77.7599 9.01065 77.9712 8.94318 78.1026 8.8544C78.234 8.76562 78.2997 8.63423 78.2997 8.46023V8.42827C78.2997 8.09091 78.1932 7.8299 77.9801 7.64524C77.7706 7.46058 77.4723 7.36825 77.0852 7.36825C76.6768 7.36825 76.3519 7.45881 76.1104 7.63991C75.869 7.81747 75.7092 8.04119 75.631 8.31108L73.5323 8.14062C73.6388 7.64347 73.8484 7.21378 74.1609 6.85156C74.4734 6.4858 74.8764 6.20526 75.37 6.00994C75.8672 5.81108 76.4425 5.71165 77.0959 5.71165C77.5504 5.71165 77.9854 5.76491 78.4009 5.87145C78.82 5.97798 79.1911 6.14311 79.5142 6.36683C79.8409 6.59055 80.0984 6.8782 80.2866 7.22976C80.4748 7.57777 80.5689 7.99503 80.5689 8.48153V14H78.4169V12.8654H78.353C78.2216 13.1211 78.0458 13.3466 77.8256 13.5419C77.6055 13.7337 77.3409 13.8846 77.032 13.9947C76.723 14.1012 76.3661 14.1545 75.9613 14.1545ZM76.6112 12.5884C76.945 12.5884 77.2397 12.5227 77.4954 12.3913C77.7511 12.2564 77.9517 12.0753 78.0973 11.848C78.2429 11.6207 78.3157 11.3633 78.3157 11.0756V10.2074C78.2447 10.2536 78.147 10.2962 78.0227 10.3352C77.902 10.3707 77.7653 10.4045 77.6126 10.4364C77.4599 10.4648 77.3072 10.4915 77.1545 10.5163C77.0018 10.5376 76.8633 10.5572 76.739 10.5749C76.4727 10.614 76.2401 10.6761 76.0412 10.7614C75.8423 10.8466 75.6879 10.962 75.5778 11.1076C75.4677 11.2496 75.4126 11.4272 75.4126 11.6403C75.4126 11.9492 75.5245 12.1854 75.7482 12.3487C75.9755 12.5085 76.2631 12.5884 76.6112 12.5884ZM89.1369 8.15128L87.0595 8.27912C87.024 8.10156 86.9476 7.94176 86.8304 7.79972C86.7132 7.65412 86.5588 7.53871 86.367 7.45348C86.1788 7.3647 85.9533 7.32031 85.6905 7.32031C85.339 7.32031 85.0424 7.39489 84.801 7.54403C84.5595 7.68963 84.4387 7.88494 84.4387 8.12997C84.4387 8.32528 84.5169 8.49041 84.6731 8.62536C84.8294 8.7603 85.0975 8.86861 85.4775 8.95028L86.9583 9.24858C87.7537 9.41193 88.3468 9.67472 88.7374 10.0369C89.128 10.3991 89.3233 10.875 89.3233 11.4645C89.3233 12.0007 89.1653 12.4712 88.8493 12.8761C88.5368 13.2809 88.1071 13.5969 87.5602 13.8242C87.0169 14.0479 86.3901 14.1598 85.6799 14.1598C84.5968 14.1598 83.7338 13.9343 83.0911 13.4833C82.4519 13.0288 82.0772 12.4109 81.9672 11.6296L84.199 11.5124C84.2665 11.8427 84.4299 12.0948 84.6891 12.2688C84.9483 12.4393 85.2804 12.5245 85.6852 12.5245C86.0829 12.5245 86.4025 12.4482 86.644 12.2955C86.889 12.1392 87.0133 11.9386 87.0169 11.6935C87.0133 11.4876 86.9263 11.3189 86.7559 11.1875C86.5854 11.0526 86.3226 10.9496 85.9675 10.8786L84.5506 10.5962C83.7516 10.4364 83.1568 10.1594 82.7662 9.76527C82.3791 9.37109 82.1855 8.86861 82.1855 8.25781C82.1855 7.73224 82.3276 7.27947 82.6117 6.8995C82.8993 6.51953 83.3024 6.22656 83.8208 6.0206C84.3429 5.81463 84.9537 5.71165 85.6532 5.71165C86.6866 5.71165 87.4998 5.93004 88.0929 6.36683C88.6895 6.80362 89.0375 7.39844 89.1369 8.15128ZM94.4809 14.1598C93.6393 14.1598 92.9149 13.9893 92.3076 13.6484C91.7039 13.304 91.2387 12.8175 90.912 12.1889C90.5853 11.5568 90.422 10.8093 90.422 9.94638C90.422 9.10476 90.5853 8.36612 90.912 7.73047C91.2387 7.09482 91.6986 6.59943 92.2916 6.24432C92.8882 5.8892 93.5878 5.71165 94.3904 5.71165C94.9301 5.71165 95.4326 5.79865 95.8978 5.97266C96.3666 6.14311 96.7749 6.40057 97.123 6.74503C97.4745 7.08949 97.748 7.52273 97.9433 8.04474C98.1386 8.56321 98.2362 9.17045 98.2362 9.86648V10.4897H91.3275V9.08345H96.1002C96.1002 8.75675 96.0292 8.46733 95.8872 8.2152C95.7451 7.96307 95.548 7.76598 95.2959 7.62393C95.0473 7.47834 94.7579 7.40554 94.4276 7.40554C94.0832 7.40554 93.7778 7.48544 93.5115 7.64524C93.2487 7.80149 93.0427 8.01278 92.8936 8.27912C92.7444 8.5419 92.6681 8.83487 92.6645 9.15803V10.495C92.6645 10.8999 92.7391 11.2496 92.8882 11.5444C93.0409 11.8391 93.2558 12.0664 93.5328 12.2262C93.8097 12.386 94.1382 12.4659 94.5182 12.4659C94.7703 12.4659 95.0012 12.4304 95.2107 12.3594C95.4202 12.2884 95.5995 12.1818 95.7487 12.0398C95.8978 11.8977 96.0115 11.7237 96.0896 11.5178L98.1883 11.6562C98.0818 12.1605 97.8634 12.6009 97.5331 12.9773C97.2064 13.3501 96.7838 13.6413 96.2654 13.8509C95.7504 14.0568 95.1556 14.1598 94.4809 14.1598ZM99.7171 14V5.81818H101.88V7.26172H101.976C102.146 6.78232 102.43 6.40412 102.828 6.12713C103.226 5.85014 103.701 5.71165 104.255 5.71165C104.816 5.71165 105.294 5.85192 105.688 6.13246C106.082 6.40945 106.345 6.78587 106.477 7.26172H106.562C106.729 6.79297 107.031 6.41832 107.467 6.13778C107.908 5.85369 108.428 5.71165 109.028 5.71165C109.792 5.71165 110.411 5.9549 110.887 6.44141C111.367 6.92436 111.606 7.60973 111.606 8.49751V14H109.342V8.94496C109.342 8.49041 109.222 8.1495 108.98 7.92223C108.739 7.69496 108.437 7.58132 108.075 7.58132C107.663 7.58132 107.341 7.71271 107.111 7.9755C106.88 8.23473 106.764 8.57741 106.764 9.00355V14H104.564V8.89702C104.564 8.49574 104.449 8.17614 104.218 7.93821C103.991 7.70028 103.691 7.58132 103.318 7.58132C103.066 7.58132 102.839 7.64524 102.636 7.77308C102.437 7.89737 102.279 8.07315 102.162 8.30043C102.045 8.52415 101.986 8.78693 101.986 9.08878V14H99.7171ZM117.127 14.1598C116.286 14.1598 115.561 13.9893 114.954 13.6484C114.35 13.304 113.885 12.8175 113.559 12.1889C113.232 11.5568 113.068 10.8093 113.068 9.94638C113.068 9.10476 113.232 8.36612 113.559 7.73047C113.885 7.09482 114.345 6.59943 114.938 6.24432C115.535 5.8892 116.234 5.71165 117.037 5.71165C117.577 5.71165 118.079 5.79865 118.544 5.97266C119.013 6.14311 119.421 6.40057 119.769 6.74503C120.121 7.08949 120.394 7.52273 120.59 8.04474C120.785 8.56321 120.883 9.17045 120.883 9.86648V10.4897H113.974V9.08345H118.747C118.747 8.75675 118.676 8.46733 118.534 8.2152C118.392 7.96307 118.195 7.76598 117.942 7.62393C117.694 7.47834 117.404 7.40554 117.074 7.40554C116.73 7.40554 116.424 7.48544 116.158 7.64524C115.895 7.80149 115.689 8.01278 115.54 8.27912C115.391 8.5419 115.315 8.83487 115.311 9.15803V10.495C115.311 10.8999 115.386 11.2496 115.535 11.5444C115.687 11.8391 115.902 12.0664 116.179 12.2262C116.456 12.386 116.785 12.4659 117.165 12.4659C117.417 12.4659 117.648 12.4304 117.857 12.3594C118.067 12.2884 118.246 12.1818 118.395 12.0398C118.544 11.8977 118.658 11.7237 118.736 11.5178L120.835 11.6562C120.728 12.1605 120.51 12.6009 120.18 12.9773C119.853 13.3501 119.43 13.6413 118.912 13.8509C118.397 14.0568 117.802 14.1598 117.127 14.1598ZM124.633 9.26989V14H122.364V5.81818H124.526V7.26172H124.622C124.803 6.78587 125.107 6.40945 125.533 6.13246C125.959 5.85192 126.476 5.71165 127.083 5.71165C127.651 5.71165 128.147 5.83594 128.569 6.08452C128.992 6.3331 129.32 6.68821 129.555 7.14986C129.789 7.60795 129.906 8.15483 129.906 8.79048V14H127.637V9.19531C127.641 8.6946 127.513 8.30398 127.253 8.02344C126.994 7.73935 126.637 7.5973 126.183 7.5973C125.877 7.5973 125.608 7.663 125.373 7.79439C125.142 7.92578 124.961 8.11754 124.83 8.36967C124.702 8.61825 124.636 8.91832 124.633 9.26989ZM136.047 5.81818V7.52273H131.119V5.81818H136.047ZM132.238 3.85795H134.507V11.4858C134.507 11.6953 134.539 11.8587 134.603 11.9759C134.667 12.0895 134.756 12.1694 134.869 12.2156C134.987 12.2617 135.121 12.2848 135.274 12.2848C135.381 12.2848 135.487 12.2759 135.594 12.2582C135.7 12.2369 135.782 12.2209 135.839 12.2102L136.196 13.8988C136.082 13.9343 135.922 13.9751 135.716 14.0213C135.51 14.071 135.26 14.1012 134.965 14.1119C134.418 14.1332 133.939 14.0604 133.527 13.8935C133.119 13.7266 132.801 13.4673 132.574 13.1158C132.346 12.7642 132.234 12.3203 132.238 11.7841V3.85795ZM141.349 9.62678C141.349 10.9513 141.172 12.1694 140.817 13.2809C140.465 14.3924 139.925 15.4222 139.197 16.3704H137.029C137.306 16.0188 137.564 15.5891 137.802 15.0813C138.04 14.5735 138.247 14.0195 138.425 13.4194C138.602 12.8157 138.741 12.1907 138.84 11.5444C138.94 10.8981 138.99 10.2589 138.99 9.62678C138.99 8.78516 138.903 7.93643 138.729 7.08061C138.558 6.22124 138.324 5.42578 138.025 4.69425C137.731 3.95916 137.399 3.35724 137.029 2.88849H139.197C139.925 3.83665 140.465 4.86648 140.817 5.97798C141.172 7.08949 141.349 8.30575 141.349 9.62678Z" fill="black"/>
<path d="M536.487 22H2.5766V214H63.1171V160.378L117.315 105.027H403.874L408.487 99.8378H428.09L440.198 112.523V129.243L504.775 192.667H536.487V22Z" fill="#D9D9D9" stroke="black" stroke-width="4"/>
<path d="M98.2883 105.604H2.5766V22H123.081V84.8468L98.2883 105.604Z" fill="#FF73A5" stroke="black" stroke-width="2"/>
<path d="M151.333 79.6577V22H244.739V79.6577H151.333Z" fill="#53F5FF" stroke="black" stroke-width="2"/>
<path d="M312.775 66.3964V22H388.306V79.0811H322.577V66.3964H312.775Z" fill="#53F5FF" stroke="black" stroke-width="2"/>
<path d="M417.135 81.964V22H535.91V102.721H514V115.982H460.955V102.721H450.577L428.667 81.964H417.135Z" fill="#FF73A5" stroke="black" stroke-width="2"/>
<path d="M313.351 22H245.315V45.0631H313.351V22Z" fill="#8FFF00" stroke="black" stroke-width="2"/>
<path d="M151.91 22H123.081V73.8919H151.91V22Z" fill="#575757" stroke="black" stroke-width="2"/>
<path d="M417.135 22H388.306V73.8919H417.135V22Z" fill="#575757" stroke="black" stroke-width="2"/>
<path d="M444.234 133.279L460.955 115.982H514V103.297H536.486V192.09H504.775L444.234 133.279Z" fill="#575757" stroke="black" stroke-width="2"/>
<path d="M26.7928 106.18H2V212.847H64.2703V159.802L72.3423 152.306H53.8919V139.045H64.2703L88.4865 113.676H26.7928V106.18Z" fill="#575757" stroke="black" stroke-width="2"/>
<path d="M256.27 105.604V76.7748H308.739V105.604H256.27Z" fill="#FD6D2F" stroke="black" stroke-width="2"/>
<path d="M28.0856 43.8379L26.3712 37.8464H27.755L28.7468 42.0094H28.7965L29.8907 37.8464H31.0755L32.1667 42.0182H32.2194L33.2111 37.8464H34.5949L32.8805 43.8379H31.646L30.505 39.9206H30.4582L29.3202 43.8379H28.0856ZM40.4409 40.8421C40.4409 41.4955 40.317 42.0514 40.0693 42.5097C39.8236 42.968 39.4881 43.3181 39.0629 43.56C38.6397 43.7999 38.1638 43.9198 37.6353 43.9198C37.1028 43.9198 36.625 43.7989 36.2018 43.557C35.7785 43.3152 35.444 42.9651 35.1983 42.5068C34.9526 42.0484 34.8297 41.4936 34.8297 40.8421C34.8297 40.1888 34.9526 39.6329 35.1983 39.1746C35.444 38.7163 35.7785 38.3671 36.2018 38.1273C36.625 37.8854 37.1028 37.7645 37.6353 37.7645C38.1638 37.7645 38.6397 37.8854 39.0629 38.1273C39.4881 38.3671 39.8236 38.7163 40.0693 39.1746C40.317 39.6329 40.4409 40.1888 40.4409 40.8421ZM39.1565 40.8421C39.1565 40.4189 39.0932 40.062 38.9664 39.7714C38.8416 39.4808 38.6651 39.2604 38.4369 39.1102C38.2087 38.9601 37.9415 38.885 37.6353 38.885C37.3291 38.885 37.0619 38.9601 36.8337 39.1102C36.6055 39.2604 36.428 39.4808 36.3012 39.7714C36.1764 40.062 36.114 40.4189 36.114 40.8421C36.114 41.2654 36.1764 41.6223 36.3012 41.9129C36.428 42.2035 36.6055 42.4239 36.8337 42.5741C37.0619 42.7242 37.3291 42.7993 37.6353 42.7993C37.9415 42.7993 38.2087 42.7242 38.4369 42.5741C38.6651 42.4239 38.8416 42.2035 38.9664 41.9129C39.0932 41.6223 39.1565 41.2654 39.1565 40.8421ZM41.3792 43.8379V37.8464H43.743C44.1955 37.8464 44.5817 37.9273 44.9016 38.0892C45.2234 38.2491 45.4681 38.4764 45.6359 38.7709C45.8055 39.0634 45.8904 39.4077 45.8904 39.8036C45.8904 40.2015 45.8046 40.5437 45.6329 40.8304C45.4613 41.1152 45.2126 41.3336 44.8869 41.4858C44.5632 41.6379 44.1712 41.714 43.7109 41.714H42.1282V40.6959H43.5061C43.7479 40.6959 43.9488 40.6627 44.1087 40.5964C44.2687 40.5301 44.3876 40.4306 44.4657 40.298C44.5456 40.1654 44.5856 40.0006 44.5856 39.8036C44.5856 39.6046 44.5456 39.4369 44.4657 39.3004C44.3876 39.1639 44.2677 39.0605 44.1058 38.9903C43.9459 38.9181 43.744 38.882 43.5002 38.882H42.646V43.8379H41.3792ZM44.6149 41.1113L46.104 43.8379H44.7055L43.2486 41.1113H44.6149ZM46.7856 43.8379V37.8464H48.0524V40.4882H48.1313L50.2875 37.8464H51.8058L49.5824 40.5291L51.8321 43.8379H50.3167L48.6755 41.3746L48.0524 42.1352V43.8379H46.7856ZM55.6675 39.5695C55.6441 39.3335 55.5437 39.1502 55.3662 39.0195C55.1887 38.8889 54.9478 38.8235 54.6436 38.8235C54.4368 38.8235 54.2623 38.8528 54.1199 38.9113C53.9775 38.9679 53.8683 39.0468 53.7922 39.1483C53.7181 39.2497 53.6811 39.3648 53.6811 39.4935C53.6772 39.6007 53.6996 39.6944 53.7484 39.7743C53.7991 39.8543 53.8683 39.9235 53.9561 39.982C54.0438 40.0386 54.1453 40.0883 54.2603 40.1312C54.3754 40.1722 54.4983 40.2073 54.629 40.2366L55.1672 40.3653C55.4286 40.4238 55.6685 40.5018 55.8869 40.5993C56.1054 40.6968 56.2946 40.8168 56.4545 40.9592C56.6144 41.1015 56.7383 41.2693 56.826 41.4624C56.9157 41.6554 56.9616 41.8768 56.9635 42.1265C56.9616 42.4931 56.868 42.811 56.6827 43.0802C56.4993 43.3474 56.2341 43.5551 55.8869 43.7033C55.5417 43.8496 55.1253 43.9227 54.6377 43.9227C54.154 43.9227 53.7328 43.8486 53.3739 43.7004C53.017 43.5522 52.7381 43.3327 52.5372 43.0421C52.3383 42.7496 52.2339 42.3878 52.2242 41.9568H53.45C53.4636 42.1577 53.5211 42.3254 53.6226 42.46C53.7259 42.5926 53.8634 42.693 54.0351 42.7613C54.2086 42.8276 54.4047 42.8608 54.6231 42.8608C54.8376 42.8608 55.0239 42.8296 55.1819 42.7671C55.3418 42.7047 55.4657 42.6179 55.5534 42.5068C55.6412 42.3956 55.6851 42.2679 55.6851 42.1235C55.6851 41.989 55.6451 41.8758 55.5651 41.7842C55.4871 41.6925 55.372 41.6145 55.2199 41.5501C55.0697 41.4858 54.8854 41.4273 54.667 41.3746L54.0146 41.2108C53.5094 41.0879 53.1106 40.8958 52.818 40.6344C52.5255 40.3731 52.3802 40.021 52.3821 39.5783C52.3802 39.2156 52.4767 38.8986 52.6718 38.6275C52.8688 38.3564 53.1389 38.1448 53.4821 37.9927C53.8254 37.8406 54.2155 37.7645 54.6524 37.7645C55.097 37.7645 55.4852 37.8406 55.8167 37.9927C56.1502 38.1448 56.4096 38.3564 56.5949 38.6275C56.7802 38.8986 56.8758 39.2126 56.8816 39.5695H55.6675ZM57.8156 43.8379V37.8464H59.0823V40.3185H61.6539V37.8464H62.9177V43.8379H61.6539V41.3629H59.0823V43.8379H57.8156ZM69.468 40.8421C69.468 41.4955 69.3441 42.0514 69.0964 42.5097C68.8507 42.968 68.5152 43.3181 68.0901 43.56C67.6668 43.7999 67.1909 43.9198 66.6624 43.9198C66.1299 43.9198 65.6521 43.7989 65.2289 43.557C64.8057 43.3152 64.4712 42.9651 64.2254 42.5068C63.9797 42.0484 63.8568 41.4936 63.8568 40.8421C63.8568 40.1888 63.9797 39.6329 64.2254 39.1746C64.4712 38.7163 64.8057 38.3671 65.2289 38.1273C65.6521 37.8854 66.1299 37.7645 66.6624 37.7645C67.1909 37.7645 67.6668 37.8854 68.0901 38.1273C68.5152 38.3671 68.8507 38.7163 69.0964 39.1746C69.3441 39.6329 69.468 40.1888 69.468 40.8421ZM68.1837 40.8421C68.1837 40.4189 68.1203 40.062 67.9935 39.7714C67.8687 39.4808 67.6922 39.2604 67.464 39.1102C67.2358 38.9601 66.9686 38.885 66.6624 38.885C66.3562 38.885 66.089 38.9601 65.8608 39.1102C65.6326 39.2604 65.4551 39.4808 65.3284 39.7714C65.2035 40.062 65.1411 40.4189 65.1411 40.8421C65.1411 41.2654 65.2035 41.6223 65.3284 41.9129C65.4551 42.2035 65.6326 42.4239 65.8608 42.5741C66.089 42.7242 66.3562 42.7993 66.6624 42.7993C66.9686 42.7993 67.2358 42.7242 67.464 42.5741C67.6922 42.4239 67.8687 42.2035 67.9935 41.9129C68.1203 41.6223 68.1837 41.2654 68.1837 40.8421ZM70.4063 43.8379V37.8464H72.7702C73.2246 37.8464 73.6117 37.9332 73.9316 38.1068C74.2515 38.2784 74.4953 38.5173 74.663 38.8235C74.8327 39.1278 74.9175 39.4788 74.9175 39.8767C74.9175 40.2746 74.8317 40.6257 74.6601 40.9299C74.4884 41.2342 74.2398 41.4711 73.9141 41.6408C73.5903 41.8105 73.1983 41.8953 72.738 41.8953H71.2313V40.8802H72.5332C72.777 40.8802 72.9779 40.8382 73.1359 40.7544C73.2958 40.6686 73.4148 40.5506 73.4928 40.4004C73.5727 40.2483 73.6127 40.0737 73.6127 39.8767C73.6127 39.6778 73.5727 39.5042 73.4928 39.356C73.4148 39.2058 73.2958 39.0898 73.1359 39.0078C72.9759 38.924 72.7731 38.882 72.5274 38.882H71.6731V43.8379H70.4063ZM26.7369 53.8379V47.8464H29.1008C29.5532 47.8464 29.9394 47.9273 30.2593 48.0892C30.5811 48.2491 30.8258 48.4764 30.9936 48.7709C31.1633 49.0634 31.2481 49.4077 31.2481 49.8036C31.2481 50.2015 31.1623 50.5437 30.9907 50.8304C30.819 51.1152 30.5704 51.3336 30.2446 51.4858C29.9209 51.6379 29.5289 51.714 29.0686 51.714H27.4859V50.6959H28.8638C29.1056 50.6959 29.3065 50.6627 29.4665 50.5964C29.6264 50.5301 29.7454 50.4306 29.8234 50.298C29.9033 50.1654 29.9433 50.0006 29.9433 49.8036C29.9433 49.6046 29.9033 49.4369 29.8234 49.3004C29.7454 49.1639 29.6254 49.0605 29.4635 48.9903C29.3036 48.9181 29.1017 48.882 28.8579 48.882H28.0037V53.8379H26.7369ZM29.9726 51.1113L31.4617 53.8379H30.0633L28.6063 51.1113H29.9726ZM37.6492 50.8421C37.6492 51.4955 37.5253 52.0514 37.2776 52.5097C37.0319 52.968 36.6964 53.3181 36.2712 53.56C35.848 53.7999 35.3721 53.9198 34.8436 53.9198C34.3111 53.9198 33.8333 53.7989 33.4101 53.557C32.9868 53.3152 32.6524 52.9651 32.4066 52.5068C32.1609 52.0484 32.038 51.4936 32.038 50.8421C32.038 50.1888 32.1609 49.6329 32.4066 49.1746C32.6524 48.7163 32.9868 48.3671 33.4101 48.1273C33.8333 47.8854 34.3111 47.7645 34.8436 47.7645C35.3721 47.7645 35.848 47.8854 36.2712 48.1273C36.6964 48.3671 37.0319 48.7163 37.2776 49.1746C37.5253 49.6329 37.6492 50.1888 37.6492 50.8421ZM36.3649 50.8421C36.3649 50.4189 36.3015 50.062 36.1747 49.7714C36.0499 49.4808 35.8734 49.2604 35.6452 49.1102C35.417 48.9601 35.1498 48.885 34.8436 48.885C34.5374 48.885 34.2702 48.9601 34.042 49.1102C33.8138 49.2604 33.6363 49.4808 33.5095 49.7714C33.3847 50.062 33.3223 50.4189 33.3223 50.8421C33.3223 51.2654 33.3847 51.6223 33.5095 51.9129C33.6363 52.2035 33.8138 52.4239 34.042 52.5741C34.2702 52.7242 34.5374 52.7993 34.8436 52.7993C35.1498 52.7993 35.417 52.7242 35.6452 52.5741C35.8734 52.4239 36.0499 52.2035 36.1747 51.9129C36.3015 51.6223 36.3649 51.2654 36.3649 50.8421ZM44.0934 50.8421C44.0934 51.4955 43.9695 52.0514 43.7218 52.5097C43.4761 52.968 43.1406 53.3181 42.7155 53.56C42.2922 53.7999 41.8163 53.9198 41.2878 53.9198C40.7553 53.9198 40.2775 53.7989 39.8543 53.557C39.4311 53.3152 39.0966 52.9651 38.8508 52.5068C38.6051 52.0484 38.4822 51.4936 38.4822 50.8421C38.4822 50.1888 38.6051 49.6329 38.8508 49.1746C39.0966 48.7163 39.4311 48.3671 39.8543 48.1273C40.2775 47.8854 40.7553 47.7645 41.2878 47.7645C41.8163 47.7645 42.2922 47.8854 42.7155 48.1273C43.1406 48.3671 43.4761 48.7163 43.7218 49.1746C43.9695 49.6329 44.0934 50.1888 44.0934 50.8421ZM42.8091 50.8421C42.8091 50.4189 42.7457 50.062 42.6189 49.7714C42.4941 49.4808 42.3176 49.2604 42.0894 49.1102C41.8612 48.9601 41.594 48.885 41.2878 48.885C40.9816 48.885 40.7144 48.9601 40.4862 49.1102C40.258 49.2604 40.0805 49.4808 39.9538 49.7714C39.8289 50.062 39.7665 50.4189 39.7665 50.8421C39.7665 51.2654 39.8289 51.6223 39.9538 51.9129C40.0805 52.2035 40.258 52.4239 40.4862 52.5741C40.7144 52.7242 40.9816 52.7993 41.2878 52.7993C41.594 52.7993 41.8612 52.7242 42.0894 52.5741C42.3176 52.4239 42.4941 52.2035 42.6189 51.9129C42.7457 51.6223 42.8091 51.2654 42.8091 50.8421ZM45.0317 47.8464H46.594L48.244 51.8719H48.3142L49.9642 47.8464H51.5264V53.8379H50.2977V49.9382H50.248L48.6974 53.8086H47.8607L46.3102 49.9235H46.2605V53.8379H45.0317V47.8464ZM32.0234 59.944H30.742C30.7186 59.7782 30.6708 59.631 30.5986 59.5023C30.5265 59.3716 30.4338 59.2604 30.3207 59.1687C30.2076 59.0771 30.0769 59.0069 29.9287 58.9581C29.7824 58.9093 29.6235 58.885 29.4518 58.885C29.1417 58.885 28.8716 58.962 28.6415 59.1161C28.4113 59.2682 28.2329 59.4906 28.1061 59.7831C27.9793 60.0737 27.9159 60.4267 27.9159 60.8421C27.9159 61.2693 27.9793 61.6281 28.1061 61.9187C28.2348 62.2093 28.4142 62.4288 28.6444 62.577C28.8745 62.7252 29.1407 62.7993 29.443 62.7993C29.6127 62.7993 29.7697 62.7769 29.9141 62.732C30.0603 62.6872 30.19 62.6218 30.3032 62.536C30.4163 62.4483 30.5099 62.342 30.584 62.2171C30.6601 62.0923 30.7127 61.9499 30.742 61.79L32.0234 61.7959C31.9902 62.0709 31.9073 62.3361 31.7747 62.5916C31.644 62.8452 31.4675 63.0724 31.2452 63.2733C31.0248 63.4722 30.7615 63.6302 30.4553 63.7472C30.151 63.8623 29.8068 63.9198 29.4226 63.9198C28.8882 63.9198 28.4103 63.7989 27.9891 63.557C27.5697 63.3152 27.2382 62.9651 26.9944 62.5068C26.7525 62.0484 26.6316 61.4936 26.6316 60.8421C26.6316 60.1888 26.7545 59.6329 27.0002 59.1746C27.246 58.7163 27.5795 58.3671 28.0008 58.1273C28.422 57.8854 28.896 57.7645 29.4226 57.7645C29.7697 57.7645 30.0915 57.8132 30.388 57.9108C30.6864 58.0083 30.9507 58.1507 31.1808 58.3379C31.411 58.5232 31.5982 58.7504 31.7425 59.0195C31.8888 59.2887 31.9824 59.5968 32.0234 59.944ZM35.2458 63.9695C34.7426 63.9676 34.3097 63.8437 33.9469 63.598C33.5861 63.3523 33.3082 62.9963 33.1131 62.5302C32.92 62.064 32.8245 61.5033 32.8264 60.848C32.8264 60.1946 32.923 59.6378 33.1161 59.1775C33.3111 58.7172 33.589 58.3671 33.9498 58.1273C34.3126 57.8854 34.7446 57.7645 35.2458 57.7645C35.7471 57.7645 36.1781 57.8854 36.5389 58.1273C36.9017 58.3691 37.1806 58.7202 37.3756 59.1804C37.5707 59.6388 37.6672 60.1946 37.6653 60.848C37.6653 61.5053 37.5677 62.067 37.3727 62.5331C37.1796 62.9992 36.9027 63.3552 36.5419 63.6009C36.181 63.8467 35.749 63.9695 35.2458 63.9695ZM35.2458 62.9193C35.5891 62.9193 35.8631 62.7467 36.0679 62.4015C36.2727 62.0562 36.3741 61.5384 36.3722 60.848C36.3722 60.3936 36.3254 60.0152 36.2317 59.7129C36.1401 59.4106 36.0094 59.1834 35.8397 59.0312C35.672 58.8791 35.474 58.8031 35.2458 58.8031C34.9045 58.8031 34.6315 58.9737 34.4267 59.315C34.2219 59.6563 34.1185 60.1673 34.1166 60.848C34.1166 61.3083 34.1624 61.6925 34.2541 62.0007C34.3477 62.3069 34.4794 62.537 34.649 62.6911C34.8187 62.8432 35.0176 62.9193 35.2458 62.9193ZM38.4778 62.7847V61.7871L40.9792 57.8464H41.8393V59.2273H41.3302L39.7534 61.7227V61.7695H43.3079V62.7847H38.4778ZM41.3536 63.8379V62.4804L41.377 62.0387V57.8464H42.5648V63.8379H41.3536ZM46.5011 63.9695C45.9979 63.9676 45.5649 63.8437 45.2022 63.598C44.8413 63.3523 44.5634 62.9963 44.3684 62.5302C44.1753 62.064 44.0797 61.5033 44.0817 60.848C44.0817 60.1946 44.1782 59.6378 44.3713 59.1775C44.5663 58.7172 44.8443 58.3671 45.2051 58.1273C45.5678 57.8854 45.9999 57.7645 46.5011 57.7645C47.0023 57.7645 47.4334 57.8854 47.7942 58.1273C48.1569 58.3691 48.4358 58.7202 48.6309 59.1804C48.8259 59.6388 48.9225 60.1946 48.9205 60.848C48.9205 61.5053 48.823 62.067 48.628 62.5331C48.4349 62.9992 48.1579 63.3552 47.7971 63.6009C47.4363 63.8467 47.0043 63.9695 46.5011 63.9695ZM46.5011 62.9193C46.8444 62.9193 47.1184 62.7467 47.3232 62.4015C47.528 62.0562 47.6294 61.5384 47.6274 60.848C47.6274 60.3936 47.5806 60.0152 47.487 59.7129C47.3953 59.4106 47.2647 59.1834 47.095 59.0312C46.9272 58.8791 46.7293 58.8031 46.5011 58.8031C46.1598 58.8031 45.8867 58.9737 45.6819 59.315C45.4772 59.6563 45.3738 60.1673 45.3718 60.848C45.3718 61.3083 45.4177 61.6925 45.5093 62.0007C45.603 62.3069 45.7346 62.537 45.9043 62.6911C46.074 62.8432 46.2729 62.9193 46.5011 62.9193Z" fill="black"/>
<path d="M437.869 50L436.155 44.0085H437.539L438.531 48.1715H438.58L439.674 44.0085H440.859L441.951 48.1803H442.003L442.995 44.0085H444.379L442.664 50H441.43L440.289 46.0827H440.242L439.104 50H437.869ZM450.225 47.0043C450.225 47.6576 450.101 48.2135 449.853 48.6718C449.607 49.1301 449.272 49.4802 448.847 49.7221C448.424 49.962 447.948 50.0819 447.419 50.0819C446.887 50.0819 446.409 49.961 445.986 49.7191C445.562 49.4773 445.228 49.1272 444.982 48.6689C444.736 48.2105 444.613 47.6557 444.613 47.0043C444.613 46.3509 444.736 45.795 444.982 45.3367C445.228 44.8784 445.562 44.5293 445.986 44.2894C446.409 44.0475 446.887 43.9266 447.419 43.9266C447.948 43.9266 448.424 44.0475 448.847 44.2894C449.272 44.5293 449.607 44.8784 449.853 45.3367C450.101 45.795 450.225 46.3509 450.225 47.0043ZM448.94 47.0043C448.94 46.581 448.877 46.2241 448.75 45.9335C448.625 45.6429 448.449 45.4225 448.221 45.2723C447.992 45.1222 447.725 45.0471 447.419 45.0471C447.113 45.0471 446.846 45.1222 446.617 45.2723C446.389 45.4225 446.212 45.6429 446.085 45.9335C445.96 46.2241 445.898 46.581 445.898 47.0043C445.898 47.4275 445.96 47.7844 446.085 48.075C446.212 48.3656 446.389 48.586 446.617 48.7362C446.846 48.8863 447.113 48.9614 447.419 48.9614C447.725 48.9614 447.992 48.8863 448.221 48.7362C448.449 48.586 448.625 48.3656 448.75 48.075C448.877 47.7844 448.94 47.4275 448.94 47.0043ZM451.163 50V44.0085H453.527C453.979 44.0085 454.366 44.0895 454.685 44.2513C455.007 44.4113 455.252 44.6385 455.42 44.933C455.589 45.2255 455.674 45.5698 455.674 45.9657C455.674 46.3636 455.588 46.7059 455.417 46.9926C455.245 47.2773 454.996 47.4957 454.671 47.6479C454.347 47.8 453.955 47.8761 453.495 47.8761H451.912V46.858H453.29C453.532 46.858 453.733 46.8248 453.893 46.7585C454.052 46.6922 454.171 46.5927 454.249 46.4601C454.329 46.3275 454.369 46.1627 454.369 45.9657C454.369 45.7668 454.329 45.599 454.249 45.4625C454.171 45.326 454.052 45.2226 453.89 45.1524C453.73 45.0802 453.528 45.0441 453.284 45.0441H452.43V50H451.163ZM454.399 47.2734L455.888 50H454.489L453.032 47.2734H454.399ZM456.569 50V44.0085H457.836V46.6503H457.915L460.071 44.0085H461.59L459.366 46.6912L461.616 50H460.101L458.459 47.5367L457.836 48.2973V50H456.569ZM465.451 45.7316C465.428 45.4957 465.327 45.3123 465.15 45.1816C464.973 45.051 464.732 44.9856 464.427 44.9856C464.221 44.9856 464.046 45.0149 463.904 45.0734C463.761 45.13 463.652 45.209 463.576 45.3104C463.502 45.4118 463.465 45.5269 463.465 45.6556C463.461 45.7629 463.483 45.8565 463.532 45.9364C463.583 46.0164 463.652 46.0856 463.74 46.1441C463.828 46.2007 463.929 46.2504 464.044 46.2934C464.159 46.3343 464.282 46.3694 464.413 46.3987L464.951 46.5274C465.212 46.5859 465.452 46.6639 465.671 46.7614C465.889 46.859 466.078 46.9789 466.238 47.1213C466.398 47.2637 466.522 47.4314 466.61 47.6245C466.7 47.8176 466.745 48.0389 466.747 48.2886C466.745 48.6552 466.652 48.9731 466.466 49.2423C466.283 49.5095 466.018 49.7172 465.671 49.8654C465.326 50.0117 464.909 50.0848 464.422 50.0848C463.938 50.0848 463.517 50.0107 463.158 49.8625C462.801 49.7143 462.522 49.4949 462.321 49.2043C462.122 48.9117 462.018 48.5499 462.008 48.1189H463.234C463.247 48.3198 463.305 48.4875 463.406 48.6221C463.51 48.7547 463.647 48.8551 463.819 48.9234C463.992 48.9897 464.188 49.0229 464.407 49.0229C464.621 49.0229 464.808 48.9917 464.966 48.9293C465.126 48.8668 465.249 48.7801 465.337 48.6689C465.425 48.5577 465.469 48.43 465.469 48.2856C465.469 48.1511 465.429 48.0379 465.349 47.9463C465.271 47.8546 465.156 47.7766 465.004 47.7122C464.854 47.6479 464.669 47.5894 464.451 47.5367L463.798 47.3729C463.293 47.25 462.894 47.0579 462.602 46.7965C462.309 46.5352 462.164 46.1832 462.166 45.7404C462.164 45.3777 462.261 45.0607 462.456 44.7896C462.653 44.5185 462.923 44.3069 463.266 44.1548C463.609 44.0027 463.999 43.9266 464.436 43.9266C464.881 43.9266 465.269 44.0027 465.601 44.1548C465.934 44.3069 466.193 44.5185 466.379 44.7896C466.564 45.0607 466.66 45.3747 466.665 45.7316H465.451ZM467.599 50V44.0085H468.866V46.4806H471.438V44.0085H472.702V50H471.438V47.525H468.866V50H467.599ZM479.252 47.0043C479.252 47.6576 479.128 48.2135 478.88 48.6718C478.635 49.1301 478.299 49.4802 477.874 49.7221C477.451 49.962 476.975 50.0819 476.446 50.0819C475.914 50.0819 475.436 49.961 475.013 49.7191C474.589 49.4773 474.255 49.1272 474.009 48.6689C473.763 48.2105 473.641 47.6557 473.641 47.0043C473.641 46.3509 473.763 45.795 474.009 45.3367C474.255 44.8784 474.589 44.5293 475.013 44.2894C475.436 44.0475 475.914 43.9266 476.446 43.9266C476.975 43.9266 477.451 44.0475 477.874 44.2894C478.299 44.5293 478.635 44.8784 478.88 45.3367C479.128 45.795 479.252 46.3509 479.252 47.0043ZM477.967 47.0043C477.967 46.581 477.904 46.2241 477.777 45.9335C477.653 45.6429 477.476 45.4225 477.248 45.2723C477.02 45.1222 476.752 45.0471 476.446 45.0471C476.14 45.0471 475.873 45.1222 475.645 45.2723C475.416 45.4225 475.239 45.6429 475.112 45.9335C474.987 46.2241 474.925 46.581 474.925 47.0043C474.925 47.4275 474.987 47.7844 475.112 48.075C475.239 48.3656 475.416 48.586 475.645 48.7362C475.873 48.8863 476.14 48.9614 476.446 48.9614C476.752 48.9614 477.02 48.8863 477.248 48.7362C477.476 48.586 477.653 48.3656 477.777 48.075C477.904 47.7844 477.967 47.4275 477.967 47.0043ZM480.19 50V44.0085H482.554C483.008 44.0085 483.396 44.0953 483.715 44.2689C484.035 44.4405 484.279 44.6794 484.447 44.9856C484.616 45.2899 484.701 45.641 484.701 46.0388C484.701 46.4367 484.616 46.7878 484.444 47.092C484.272 47.3963 484.024 47.6332 483.698 47.8029C483.374 47.9726 482.982 48.0574 482.522 48.0574H481.015V47.0423H482.317C482.561 47.0423 482.762 47.0004 482.92 46.9165C483.08 46.8307 483.199 46.7127 483.277 46.5625C483.357 46.4104 483.397 46.2358 483.397 46.0388C483.397 45.8399 483.357 45.6663 483.277 45.5181C483.199 45.3679 483.08 45.2519 482.92 45.1699C482.76 45.0861 482.557 45.0441 482.311 45.0441H481.457V50H480.19ZM487.431 50V44.0085H489.795C490.247 44.0085 490.633 44.0895 490.953 44.2513C491.275 44.4113 491.52 44.6385 491.687 44.933C491.857 45.2255 491.942 45.5698 491.942 45.9657C491.942 46.3636 491.856 46.7059 491.685 46.9926C491.513 47.2773 491.264 47.4957 490.939 47.6479C490.615 47.8 490.223 47.8761 489.762 47.8761H488.18V46.858H489.558C489.8 46.858 490 46.8248 490.16 46.7585C490.32 46.6922 490.439 46.5927 490.517 46.4601C490.597 46.3275 490.637 46.1627 490.637 45.9657C490.637 45.7668 490.597 45.599 490.517 45.4625C490.439 45.326 490.319 45.2226 490.157 45.1524C489.998 45.0802 489.796 45.0441 489.552 45.0441H488.698V50H487.431ZM490.666 47.2734L492.156 50H490.757L489.3 47.2734H490.666ZM498.343 47.0043C498.343 47.6576 498.219 48.2135 497.972 48.6718C497.726 49.1301 497.39 49.4802 496.965 49.7221C496.542 49.962 496.066 50.0819 495.537 50.0819C495.005 50.0819 494.527 49.961 494.104 49.7191C493.681 49.4773 493.346 49.1272 493.101 48.6689C492.855 48.2105 492.732 47.6557 492.732 47.0043C492.732 46.3509 492.855 45.795 493.101 45.3367C493.346 44.8784 493.681 44.5293 494.104 44.2894C494.527 44.0475 495.005 43.9266 495.537 43.9266C496.066 43.9266 496.542 44.0475 496.965 44.2894C497.39 44.5293 497.726 44.8784 497.972 45.3367C498.219 45.795 498.343 46.3509 498.343 47.0043ZM497.059 47.0043C497.059 46.581 496.995 46.2241 496.869 45.9335C496.744 45.6429 496.567 45.4225 496.339 45.2723C496.111 45.1222 495.844 45.0471 495.537 45.0471C495.231 45.0471 494.964 45.1222 494.736 45.2723C494.508 45.4225 494.33 45.6429 494.203 45.9335C494.079 46.2241 494.016 46.581 494.016 47.0043C494.016 47.4275 494.079 47.7844 494.203 48.075C494.33 48.3656 494.508 48.586 494.736 48.7362C494.964 48.8863 495.231 48.9614 495.537 48.9614C495.844 48.9614 496.111 48.8863 496.339 48.7362C496.567 48.586 496.744 48.3656 496.869 48.075C496.995 47.7844 497.059 47.4275 497.059 47.0043ZM504.787 47.0043C504.787 47.6576 504.663 48.2135 504.416 48.6718C504.17 49.1301 503.835 49.4802 503.409 49.7221C502.986 49.962 502.51 50.0819 501.982 50.0819C501.449 50.0819 500.971 49.961 500.548 49.7191C500.125 49.4773 499.79 49.1272 499.545 48.6689C499.299 48.2105 499.176 47.6557 499.176 47.0043C499.176 46.3509 499.299 45.795 499.545 45.3367C499.79 44.8784 500.125 44.5293 500.548 44.2894C500.971 44.0475 501.449 43.9266 501.982 43.9266C502.51 43.9266 502.986 44.0475 503.409 44.2894C503.835 44.5293 504.17 44.8784 504.416 45.3367C504.663 45.795 504.787 46.3509 504.787 47.0043ZM503.503 47.0043C503.503 46.581 503.44 46.2241 503.313 45.9335C503.188 45.6429 503.011 45.4225 502.783 45.2723C502.555 45.1222 502.288 45.0471 501.982 45.0471C501.676 45.0471 501.408 45.1222 501.18 45.2723C500.952 45.4225 500.774 45.6429 500.648 45.9335C500.523 46.2241 500.46 46.581 500.46 47.0043C500.46 47.4275 500.523 47.7844 500.648 48.075C500.774 48.3656 500.952 48.586 501.18 48.7362C501.408 48.8863 501.676 48.9614 501.982 48.9614C502.288 48.9614 502.555 48.8863 502.783 48.7362C503.011 48.586 503.188 48.3656 503.313 48.075C503.44 47.7844 503.503 47.4275 503.503 47.0043ZM505.726 44.0085H507.288L508.938 48.034H509.008L510.658 44.0085H512.22V50H510.992V46.1003H510.942L509.391 49.9707H508.555L507.004 46.0856H506.954V50H505.726V44.0085ZM441.807 56.1061H440.526C440.502 55.9403 440.455 55.7931 440.382 55.6644C440.31 55.5337 440.218 55.4225 440.105 55.3309C439.991 55.2392 439.861 55.169 439.712 55.1202C439.566 55.0715 439.407 55.0471 439.236 55.0471C438.926 55.0471 438.655 55.1241 438.425 55.2782C438.195 55.4303 438.017 55.6527 437.89 55.9452C437.763 56.2358 437.7 56.5888 437.7 57.0043C437.7 57.4314 437.763 57.7902 437.89 58.0809C438.019 58.3715 438.198 58.5909 438.428 58.7391C438.658 58.8873 438.925 58.9614 439.227 58.9614C439.397 58.9614 439.554 58.939 439.698 58.8941C439.844 58.8493 439.974 58.784 440.087 58.6981C440.2 58.6104 440.294 58.5041 440.368 58.3793C440.444 58.2544 440.497 58.1121 440.526 57.9521L441.807 57.958C441.774 58.233 441.691 58.4982 441.559 58.7537C441.428 59.0073 441.251 59.2345 441.029 59.4354C440.809 59.6343 440.545 59.7923 440.239 59.9093C439.935 60.0244 439.591 60.0819 439.206 60.0819C438.672 60.0819 438.194 59.961 437.773 59.7191C437.354 59.4773 437.022 59.1272 436.778 58.6689C436.536 58.2105 436.415 57.6557 436.415 57.0043C436.415 56.3509 436.538 55.795 436.784 55.3367C437.03 54.8784 437.363 54.5293 437.785 54.2894C438.206 54.0475 438.68 53.9266 439.206 53.9266C439.554 53.9266 439.875 53.9754 440.172 54.0729C440.47 54.1704 440.734 54.3128 440.965 54.5C441.195 54.6853 441.382 54.9125 441.526 55.1816C441.673 55.4508 441.766 55.759 441.807 56.1061ZM445.03 60.1316C444.526 60.1297 444.093 60.0059 443.731 59.7601C443.37 59.5144 443.092 59.1584 442.897 58.6923C442.704 58.2262 442.608 57.6654 442.61 57.0101C442.61 56.3567 442.707 55.7999 442.9 55.3396C443.095 54.8793 443.373 54.5293 443.734 54.2894C444.096 54.0475 444.528 53.9266 445.03 53.9266C445.531 53.9266 445.962 54.0475 446.323 54.2894C446.686 54.5312 446.964 54.8823 447.159 55.3426C447.354 55.8009 447.451 56.3567 447.449 57.0101C447.449 57.6674 447.352 58.2291 447.157 58.6952C446.963 59.1613 446.686 59.5173 446.326 59.763C445.965 60.0088 445.533 60.1316 445.03 60.1316ZM445.03 59.0814C445.373 59.0814 445.647 58.9088 445.852 58.5636C446.057 58.2184 446.158 57.7005 446.156 57.0101C446.156 56.5557 446.109 56.1773 446.016 55.875C445.924 55.5727 445.793 55.3455 445.624 55.1934C445.456 55.0412 445.258 54.9652 445.03 54.9652C444.688 54.9652 444.415 55.1358 444.211 55.4771C444.006 55.8184 443.902 56.3294 443.9 57.0101C443.9 57.4704 443.946 57.8546 444.038 58.1628C444.132 58.469 444.263 58.6991 444.433 58.8532C444.603 59.0053 444.801 59.0814 445.03 59.0814ZM450.959 54.0085V60H449.692V55.2109H449.657L448.285 56.071V54.9476L449.768 54.0085H450.959ZM454.732 60.1316C454.229 60.1297 453.796 60.0059 453.433 59.7601C453.072 59.5144 452.795 59.1584 452.599 58.6923C452.406 58.2262 452.311 57.6654 452.313 57.0101C452.313 56.3567 452.409 55.7999 452.602 55.3396C452.797 54.8793 453.075 54.5293 453.436 54.2894C453.799 54.0475 454.231 53.9266 454.732 53.9266C455.233 53.9266 455.664 54.0475 456.025 54.2894C456.388 54.5312 456.667 54.8823 456.862 55.3426C457.057 55.8009 457.154 56.3567 457.152 57.0101C457.152 57.6674 457.054 58.2291 456.859 58.6952C456.666 59.1613 456.389 59.5173 456.028 59.763C455.667 60.0088 455.235 60.1316 454.732 60.1316ZM454.732 59.0814C455.075 59.0814 455.349 58.9088 455.554 58.5636C455.759 58.2184 455.86 57.7005 455.859 57.0101C455.859 56.5557 455.812 56.1773 455.718 55.875C455.626 55.5727 455.496 55.3455 455.326 55.1934C455.158 55.0412 454.96 54.9652 454.732 54.9652C454.391 54.9652 454.118 55.1358 453.913 55.4771C453.708 55.8184 453.605 56.3294 453.603 57.0101C453.603 57.4704 453.649 57.8546 453.74 58.1628C453.834 58.469 453.966 58.6991 454.135 58.8532C454.305 59.0053 454.504 59.0814 454.732 59.0814Z" fill="black"/>
<path d="M175.285 37.2631C175.261 37.0272 175.161 36.8438 174.983 36.7131C174.806 36.5825 174.565 36.5171 174.261 36.5171C174.054 36.5171 173.879 36.5464 173.737 36.6049C173.595 36.6615 173.485 36.7404 173.409 36.8419C173.335 36.9433 173.298 37.0584 173.298 37.1871C173.294 37.2943 173.317 37.388 173.365 37.4679C173.416 37.5479 173.485 37.6171 173.573 37.6756C173.661 37.7322 173.762 37.7819 173.877 37.8248C173.992 37.8658 174.115 37.9009 174.246 37.9302L174.784 38.0589C175.046 38.1174 175.286 38.1954 175.504 38.2929C175.722 38.3904 175.912 38.5104 176.071 38.6528C176.231 38.7951 176.355 38.9629 176.443 39.156C176.533 39.349 176.579 39.5704 176.581 39.8201C176.579 40.1867 176.485 40.5046 176.3 40.7738C176.116 41.041 175.851 41.2487 175.504 41.3969C175.159 41.5432 174.742 41.6163 174.255 41.6163C173.771 41.6163 173.35 41.5422 172.991 41.394C172.634 41.2458 172.355 41.0264 172.154 40.7357C171.955 40.4432 171.851 40.0814 171.841 39.6504H173.067C173.081 39.8513 173.138 40.019 173.24 40.1536C173.343 40.2862 173.48 40.3866 173.652 40.4549C173.826 40.5212 174.022 40.5544 174.24 40.5544C174.455 40.5544 174.641 40.5232 174.799 40.4607C174.959 40.3983 175.083 40.3115 175.17 40.2004C175.258 40.0892 175.302 39.9615 175.302 39.8171C175.302 39.6826 175.262 39.5694 175.182 39.4778C175.104 39.3861 174.989 39.3081 174.837 39.2437C174.687 39.1794 174.502 39.1209 174.284 39.0682L173.632 38.9044C173.126 38.7815 172.728 38.5894 172.435 38.328C172.143 38.0667 171.997 37.7147 171.999 37.2719C171.997 36.9092 172.094 36.5922 172.289 36.3211C172.486 36.05 172.756 35.8384 173.099 35.6863C173.442 35.5342 173.832 35.4581 174.269 35.4581C174.714 35.4581 175.102 35.5342 175.434 35.6863C175.767 35.8384 176.027 36.05 176.212 36.3211C176.397 36.5922 176.493 36.9062 176.499 37.2631H175.285ZM177.433 41.5315V35.54H178.699V40.4871H181.268V41.5315H177.433ZM182.107 41.5315V35.54H186.144V36.5844H183.374V38.0121H185.936V39.0565H183.374V40.4871H186.156V41.5315H182.107ZM187.151 41.5315V35.54H191.188V36.5844H188.418V38.0121H190.981V39.0565H188.418V40.4871H191.2V41.5315H187.151ZM192.196 41.5315V35.54H194.559C195.014 35.54 195.401 35.6268 195.721 35.8004C196.041 35.972 196.284 36.2109 196.452 36.5171C196.622 36.8214 196.707 37.1725 196.707 37.5703C196.707 37.9682 196.621 38.3193 196.449 38.6235C196.278 38.9278 196.029 39.1647 195.703 39.3344C195.38 39.5041 194.987 39.5889 194.527 39.5889H193.021V38.5738H194.322C194.566 38.5738 194.767 38.5318 194.925 38.448C195.085 38.3622 195.204 38.2442 195.282 38.094C195.362 37.9419 195.402 37.7673 195.402 37.5703C195.402 37.3714 195.362 37.1978 195.282 37.0496C195.204 36.8994 195.085 36.7834 194.925 36.7014C194.765 36.6176 194.562 36.5756 194.317 36.5756H193.462V41.5315H192.196ZM198.796 35.54V41.5315H197.53V35.54H198.796ZM204.85 35.54V41.5315H203.756L201.149 37.7605H201.105V41.5315H199.839V35.54H200.95L203.536 39.3081H203.589V35.54H204.85ZM209.869 37.4767C209.828 37.3343 209.771 37.2085 209.697 37.0993C209.623 36.9881 209.532 36.8945 209.425 36.8185C209.319 36.7404 209.199 36.681 209.062 36.64C208.927 36.599 208.778 36.5786 208.614 36.5786C208.308 36.5786 208.039 36.6546 207.807 36.8068C207.577 36.9589 207.397 37.1803 207.269 37.4709C207.14 37.7595 207.076 38.1125 207.076 38.5299C207.076 38.9473 207.139 39.3022 207.266 39.5948C207.392 39.8873 207.572 40.1107 207.804 40.2647C208.036 40.4169 208.31 40.4929 208.626 40.4929C208.913 40.4929 209.158 40.4422 209.36 40.3408C209.565 40.2374 209.721 40.0921 209.828 39.9049C209.938 39.7177 209.992 39.4963 209.992 39.2408L210.25 39.2788H208.705V38.3251H211.212V39.0799C211.212 39.6065 211.101 40.059 210.879 40.4373C210.656 40.8138 210.35 41.1044 209.96 41.3092C209.57 41.512 209.123 41.6134 208.62 41.6134C208.059 41.6134 207.565 41.4896 207.14 41.2419C206.715 40.9922 206.383 40.6382 206.145 40.1799C205.909 39.7196 205.791 39.1735 205.791 38.5416C205.791 38.056 205.861 37.623 206.002 37.2427C206.144 36.8604 206.343 36.5366 206.599 36.2714C206.854 36.0061 207.152 35.8043 207.491 35.6658C207.83 35.5273 208.198 35.4581 208.594 35.4581C208.933 35.4581 209.249 35.5078 209.542 35.6073C209.834 35.7048 210.094 35.8433 210.32 36.0227C210.548 36.2022 210.734 36.4157 210.879 36.6634C211.023 36.9092 211.116 37.1803 211.157 37.4767H209.869ZM172.034 51.5315V45.54H174.398C174.851 45.54 175.237 45.6209 175.557 45.7828C175.878 45.9428 176.123 46.17 176.291 46.4645C176.461 46.757 176.545 47.1013 176.545 47.4972C176.545 47.8951 176.46 48.2373 176.288 48.524C176.116 48.8088 175.868 49.0272 175.542 49.1794C175.218 49.3315 174.826 49.4076 174.366 49.4076H172.783V48.3895H174.161C174.403 48.3895 174.604 48.3563 174.764 48.29C174.924 48.2237 175.043 48.1242 175.121 47.9916C175.201 47.859 175.241 47.6942 175.241 47.4972C175.241 47.2982 175.201 47.1305 175.121 46.994C175.043 46.8575 174.923 46.7541 174.761 46.6839C174.601 46.6117 174.399 46.5756 174.155 46.5756H173.301V51.5315H172.034ZM175.27 48.8049L176.759 51.5315H175.361L173.904 48.8049H175.27ZM182.946 48.5357C182.946 49.1891 182.823 49.745 182.575 50.2033C182.329 50.6616 181.994 51.0117 181.569 51.2536C181.145 51.4935 180.669 51.6134 180.141 51.6134C179.608 51.6134 179.131 51.4925 178.707 51.2506C178.284 51.0088 177.95 50.6587 177.704 50.2004C177.458 49.742 177.335 49.1872 177.335 48.5357C177.335 47.8824 177.458 47.3265 177.704 46.8682C177.95 46.4099 178.284 46.0607 178.707 45.8209C179.131 45.579 179.608 45.4581 180.141 45.4581C180.669 45.4581 181.145 45.579 181.569 45.8209C181.994 46.0607 182.329 46.4099 182.575 46.8682C182.823 47.3265 182.946 47.8824 182.946 48.5357ZM181.662 48.5357C181.662 48.1125 181.599 47.7556 181.472 47.465C181.347 47.1744 181.171 46.954 180.943 46.8038C180.714 46.6537 180.447 46.5786 180.141 46.5786C179.835 46.5786 179.568 46.6537 179.339 46.8038C179.111 46.954 178.934 47.1744 178.807 47.465C178.682 47.7556 178.62 48.1125 178.62 48.5357C178.62 48.959 178.682 49.3159 178.807 49.6065C178.934 49.8971 179.111 50.1175 179.339 50.2677C179.568 50.4178 179.835 50.4929 180.141 50.4929C180.447 50.4929 180.714 50.4178 180.943 50.2677C181.171 50.1175 181.347 49.8971 181.472 49.6065C181.599 49.3159 181.662 48.959 181.662 48.5357ZM189.391 48.5357C189.391 49.1891 189.267 49.745 189.019 50.2033C188.773 50.6616 188.438 51.0117 188.013 51.2536C187.59 51.4935 187.114 51.6134 186.585 51.6134C186.053 51.6134 185.575 51.4925 185.152 51.2506C184.728 51.0088 184.394 50.6587 184.148 50.2004C183.902 49.742 183.78 49.1872 183.78 48.5357C183.78 47.8824 183.902 47.3265 184.148 46.8682C184.394 46.4099 184.728 46.0607 185.152 45.8209C185.575 45.579 186.053 45.4581 186.585 45.4581C187.114 45.4581 187.59 45.579 188.013 45.8209C188.438 46.0607 188.773 46.4099 189.019 46.8682C189.267 47.3265 189.391 47.8824 189.391 48.5357ZM188.106 48.5357C188.106 48.1125 188.043 47.7556 187.916 47.465C187.791 47.1744 187.615 46.954 187.387 46.8038C187.159 46.6537 186.891 46.5786 186.585 46.5786C186.279 46.5786 186.012 46.6537 185.784 46.8038C185.555 46.954 185.378 47.1744 185.251 47.465C185.126 47.7556 185.064 48.1125 185.064 48.5357C185.064 48.959 185.126 49.3159 185.251 49.6065C185.378 49.8971 185.555 50.1175 185.784 50.2677C186.012 50.4178 186.279 50.4929 186.585 50.4929C186.891 50.4929 187.159 50.4178 187.387 50.2677C187.615 50.1175 187.791 49.8971 187.916 49.6065C188.043 49.3159 188.106 48.959 188.106 48.5357ZM190.329 45.54H191.891L193.541 49.5655H193.612L195.262 45.54H196.824V51.5315H195.595V47.6318H195.545L193.995 51.5022H193.158L191.608 47.6171H191.558V51.5315H190.329V45.54ZM177.321 57.6376H176.039C176.016 57.4718 175.968 57.3246 175.896 57.1959C175.824 57.0652 175.731 56.954 175.618 56.8623C175.505 56.7707 175.374 56.7005 175.226 56.6517C175.08 56.6029 174.921 56.5786 174.749 56.5786C174.439 56.5786 174.169 56.6556 173.939 56.8097C173.709 56.9618 173.53 57.1842 173.403 57.4767C173.277 57.7673 173.213 58.1203 173.213 58.5357C173.213 58.9629 173.277 59.3217 173.403 59.6123C173.532 59.9029 173.712 60.1224 173.942 60.2706C174.172 60.4188 174.438 60.4929 174.74 60.4929C174.91 60.4929 175.067 60.4705 175.211 60.4256C175.358 60.3808 175.487 60.3154 175.6 60.2296C175.714 60.1419 175.807 60.0356 175.881 59.9107C175.957 59.7859 176.01 59.6436 176.039 59.4836L177.321 59.4895C177.288 59.7645 177.205 60.0297 177.072 60.2852C176.941 60.5388 176.765 60.766 176.543 60.9669C176.322 61.1658 176.059 61.3238 175.753 61.4408C175.448 61.5559 175.104 61.6134 174.72 61.6134C174.186 61.6134 173.708 61.4925 173.286 61.2506C172.867 61.0088 172.536 60.6587 172.292 60.2004C172.05 59.742 171.929 59.1872 171.929 58.5357C171.929 57.8824 172.052 57.3265 172.298 56.8682C172.543 56.4099 172.877 56.0607 173.298 55.8209C173.719 55.579 174.193 55.4581 174.72 55.4581C175.067 55.4581 175.389 55.5068 175.685 55.6044C175.984 55.7019 176.248 55.8443 176.478 56.0315C176.708 56.2168 176.896 56.444 177.04 56.7131C177.186 56.9823 177.28 57.2904 177.321 57.6376ZM180.543 61.6631C180.04 61.6612 179.607 61.5373 179.244 61.2916C178.883 61.0459 178.605 60.6899 178.41 60.2238C178.217 59.7576 178.122 59.1969 178.124 58.5416C178.124 57.8882 178.22 57.3314 178.413 56.8711C178.608 56.4108 178.886 56.0607 179.247 55.8209C179.61 55.579 180.042 55.4581 180.543 55.4581C181.044 55.4581 181.475 55.579 181.836 55.8209C182.199 56.0627 182.478 56.4138 182.673 56.874C182.868 57.3324 182.965 57.8882 182.963 58.5416C182.963 59.1989 182.865 59.7606 182.67 60.2267C182.477 60.6928 182.2 61.0488 181.839 61.2945C181.478 61.5403 181.046 61.6631 180.543 61.6631ZM180.543 60.6129C180.886 60.6129 181.16 60.4403 181.365 60.0951C181.57 59.7498 181.671 59.232 181.67 58.5416C181.67 58.0872 181.623 57.7088 181.529 57.4065C181.437 57.1042 181.307 56.877 181.137 56.7248C180.969 56.5727 180.771 56.4967 180.543 56.4967C180.202 56.4967 179.929 56.6673 179.724 57.0086C179.519 57.3499 179.416 57.8609 179.414 58.5416C179.414 59.0019 179.46 59.3861 179.551 59.6943C179.645 60.0005 179.777 60.2306 179.946 60.3847C180.116 60.5368 180.315 60.6129 180.543 60.6129ZM186.08 61.6134C185.644 61.6134 185.254 61.5383 184.913 61.3881C184.574 61.236 184.306 61.0273 184.109 60.7621C183.914 60.4949 183.813 60.1867 183.807 59.8376H185.083C185.091 59.9839 185.138 60.1126 185.226 60.2238C185.316 60.333 185.435 60.4178 185.583 60.4783C185.731 60.5388 185.898 60.569 186.083 60.569C186.276 60.569 186.447 60.5349 186.595 60.4666C186.744 60.3983 186.86 60.3037 186.944 60.1828C187.027 60.0619 187.069 59.9225 187.069 59.7645C187.069 59.6045 187.024 59.4631 186.935 59.3403C186.847 59.2154 186.72 59.1179 186.554 59.0477C186.391 58.9775 186.196 58.9424 185.969 58.9424H185.411V58.0121H185.969C186.16 58.0121 186.329 57.9789 186.475 57.9126C186.624 57.8463 186.739 57.7546 186.821 57.6376C186.903 57.5186 186.944 57.3802 186.944 57.2222C186.944 57.072 186.907 56.9404 186.835 56.8272C186.765 56.7122 186.666 56.6225 186.537 56.5581C186.41 56.4937 186.262 56.4615 186.092 56.4615C185.921 56.4615 185.764 56.4928 185.621 56.5552C185.479 56.6156 185.365 56.7024 185.279 56.8155C185.193 56.9287 185.147 57.0613 185.141 57.2134H183.927C183.933 56.8682 184.032 56.5639 184.223 56.3006C184.414 56.0373 184.671 55.8316 184.995 55.6834C185.321 55.5332 185.688 55.4581 186.098 55.4581C186.512 55.4581 186.873 55.5332 187.183 55.6834C187.494 55.8335 187.734 56.0364 187.906 56.2919C188.08 56.5454 188.165 56.8302 188.163 57.1461C188.165 57.4816 188.061 57.7615 187.85 57.9857C187.642 58.21 187.37 58.3524 187.034 58.4129V58.4597C187.475 58.5162 187.81 58.6693 188.041 58.919C188.273 59.1667 188.388 59.4768 188.386 59.8493C188.388 60.1906 188.289 60.4939 188.09 60.7592C187.893 61.0244 187.621 61.2331 187.274 61.3852C186.927 61.5373 186.529 61.6134 186.08 61.6134ZM191.646 61.6631C191.142 61.6612 190.709 61.5373 190.347 61.2916C189.986 61.0459 189.708 60.6899 189.513 60.2238C189.32 59.7576 189.224 59.1969 189.226 58.5416C189.226 57.8882 189.323 57.3314 189.516 56.8711C189.711 56.4108 189.989 56.0607 190.35 55.8209C190.712 55.579 191.144 55.4581 191.646 55.4581C192.147 55.4581 192.578 55.579 192.939 55.8209C193.301 56.0627 193.58 56.4138 193.775 56.874C193.97 57.3324 194.067 57.8882 194.065 58.5416C194.065 59.1989 193.967 59.7606 193.772 60.2267C193.579 60.6928 193.302 61.0488 192.942 61.2945C192.581 61.5403 192.149 61.6631 191.646 61.6631ZM191.646 60.6129C191.989 60.6129 192.263 60.4403 192.468 60.0951C192.672 59.7498 192.774 59.232 192.772 58.5416C192.772 58.0872 192.725 57.7088 192.631 57.4065C192.54 57.1042 192.409 56.877 192.239 56.7248C192.072 56.5727 191.874 56.4967 191.646 56.4967C191.304 56.4967 191.031 56.6673 190.826 57.0086C190.622 57.3499 190.518 57.8609 190.516 58.5416C190.516 59.0019 190.562 59.3861 190.654 59.6943C190.747 60.0005 190.879 60.2306 191.049 60.3847C191.218 60.5368 191.417 60.6129 191.646 60.6129Z" fill="black"/>
<path d="M330.96 34.9569C330.937 34.7209 330.836 34.5375 330.659 34.4069C330.481 34.2762 330.241 34.2109 329.936 34.2109C329.73 34.2109 329.555 34.2401 329.413 34.2986C329.27 34.3552 329.161 34.4342 329.085 34.5356C329.011 34.637 328.974 34.7521 328.974 34.8808C328.97 34.9881 328.992 35.0817 329.041 35.1617C329.092 35.2416 329.161 35.3109 329.249 35.3694C329.337 35.4259 329.438 35.4757 329.553 35.5186C329.668 35.5595 329.791 35.5946 329.922 35.6239L330.46 35.7526C330.721 35.8111 330.961 35.8891 331.18 35.9867C331.398 36.0842 331.587 36.2041 331.747 36.3465C331.907 36.4889 332.031 36.6566 332.119 36.8497C332.208 37.0428 332.254 37.2641 332.256 37.5138C332.254 37.8805 332.161 38.1984 331.975 38.4675C331.792 38.7347 331.527 38.9424 331.18 39.0906C330.834 39.2369 330.418 39.3101 329.93 39.3101C329.447 39.3101 329.025 39.2359 328.667 39.0877C328.31 38.9395 328.031 38.7201 327.83 38.4295C327.631 38.1369 327.527 37.7751 327.517 37.3441H328.743C328.756 37.545 328.814 37.7127 328.915 37.8473C329.019 37.9799 329.156 38.0804 329.328 38.1486C329.501 38.2149 329.697 38.2481 329.916 38.2481C330.13 38.2481 330.317 38.2169 330.475 38.1545C330.634 38.0921 330.758 38.0053 330.846 37.8941C330.934 37.7829 330.978 37.6552 330.978 37.5109C330.978 37.3763 330.938 37.2632 330.858 37.1715C330.78 37.0798 330.665 37.0018 330.513 36.9375C330.362 36.8731 330.178 36.8146 329.96 36.7619L329.307 36.5981C328.802 36.4752 328.403 36.2831 328.111 36.0218C327.818 35.7604 327.673 35.4084 327.675 34.9656C327.673 34.6029 327.769 34.2859 327.964 34.0148C328.161 33.7437 328.432 33.5321 328.775 33.38C329.118 33.2279 329.508 33.1518 329.945 33.1518C330.39 33.1518 330.778 33.2279 331.109 33.38C331.443 33.5321 331.702 33.7437 331.888 34.0148C332.073 34.2859 332.168 34.6 332.174 34.9569H330.96ZM333.108 39.2252V33.2337H334.375V38.1808H336.944V39.2252H333.108ZM337.783 39.2252V33.2337H341.82V34.2781H339.049V35.7058H341.612V36.7502H339.049V38.1808H341.831V39.2252H337.783ZM342.827 39.2252V33.2337H346.864V34.2781H344.094V35.7058H346.656V36.7502H344.094V38.1808H346.876V39.2252H342.827ZM347.871 39.2252V33.2337H350.235C350.689 33.2337 351.077 33.3205 351.396 33.4941C351.716 33.6657 351.96 33.9047 352.128 34.2109C352.298 34.5151 352.382 34.8662 352.382 35.264C352.382 35.6619 352.297 36.013 352.125 36.3172C351.953 36.6215 351.705 36.8585 351.379 37.0281C351.055 37.1978 350.663 37.2827 350.203 37.2827H348.696V36.2675H349.998C350.242 36.2675 350.443 36.2256 350.601 36.1417C350.761 36.0559 350.88 35.9379 350.958 35.7877C351.038 35.6356 351.078 35.461 351.078 35.264C351.078 35.0651 351.038 34.8915 350.958 34.7433C350.88 34.5931 350.761 34.4771 350.601 34.3952C350.441 34.3113 350.238 34.2694 349.992 34.2694H349.138V39.2252H347.871ZM354.472 33.2337V39.2252H353.205V33.2337H354.472ZM360.526 33.2337V39.2252H359.431L356.825 35.4542H356.781V39.2252H355.514V33.2337H356.626L359.212 37.0018H359.265V33.2337H360.526ZM365.545 35.1704C365.504 35.0281 365.447 34.9023 365.372 34.793C365.298 34.6819 365.208 34.5883 365.1 34.5122C364.995 34.4342 364.874 34.3747 364.738 34.3337C364.603 34.2928 364.454 34.2723 364.29 34.2723C363.984 34.2723 363.715 34.3484 363.483 34.5005C363.252 34.6526 363.073 34.874 362.944 35.1646C362.816 35.4532 362.751 35.8062 362.751 36.2236C362.751 36.641 362.815 36.996 362.941 37.2885C363.068 37.5811 363.248 37.8044 363.48 37.9585C363.712 38.1106 363.986 38.1867 364.302 38.1867C364.588 38.1867 364.833 38.1359 365.036 38.0345C365.241 37.9312 365.397 37.7859 365.504 37.5986C365.613 37.4114 365.668 37.19 365.668 36.9345L365.925 36.9726H364.381V36.0188H366.888V36.7736C366.888 37.3002 366.777 37.7527 366.554 38.1311C366.332 38.5075 366.026 38.7981 365.636 39.0029C365.246 39.2057 364.799 39.3071 364.296 39.3071C363.734 39.3071 363.241 39.1833 362.816 38.9356C362.39 38.6859 362.059 38.332 361.821 37.8736C361.585 37.4133 361.467 36.8672 361.467 36.2353C361.467 35.7497 361.537 35.3167 361.678 34.9364C361.82 34.5541 362.019 34.2304 362.274 33.9651C362.53 33.6999 362.827 33.498 363.167 33.3595C363.506 33.2211 363.874 33.1518 364.27 33.1518C364.609 33.1518 364.925 33.2015 365.217 33.301C365.51 33.3985 365.769 33.537 365.996 33.7164C366.224 33.8959 366.41 34.1094 366.554 34.3571C366.699 34.6029 366.791 34.874 366.832 35.1704H365.545ZM327.71 49.2252V43.2337H330.074C330.526 43.2337 330.912 43.3147 331.232 43.4765C331.554 43.6365 331.799 43.8637 331.967 44.1582C332.136 44.4508 332.221 44.795 332.221 45.1909C332.221 45.5888 332.135 45.9311 331.964 46.2178C331.792 46.5025 331.543 46.721 331.218 46.8731C330.894 47.0252 330.502 47.1013 330.042 47.1013H328.459V46.0832H329.837C330.079 46.0832 330.28 46.05 330.439 45.9837C330.599 45.9174 330.718 45.818 330.796 45.6853C330.876 45.5527 330.916 45.3879 330.916 45.1909C330.916 44.992 330.876 44.8242 330.796 44.6877C330.718 44.5512 330.598 44.4478 330.437 44.3776C330.277 44.3055 330.075 44.2694 329.831 44.2694H328.977V49.2252H327.71ZM330.946 46.4986L332.435 49.2252H331.036L329.579 46.4986H330.946ZM338.622 46.2295C338.622 46.8828 338.498 47.4387 338.251 47.897C338.005 48.3554 337.669 48.7055 337.244 48.9473C336.821 49.1872 336.345 49.3071 335.817 49.3071C335.284 49.3071 334.806 49.1862 334.383 48.9444C333.96 48.7025 333.625 48.3524 333.38 47.8941C333.134 47.4358 333.011 46.8809 333.011 46.2295C333.011 45.5761 333.134 45.0203 333.38 44.5619C333.625 44.1036 333.96 43.7545 334.383 43.5146C334.806 43.2727 335.284 43.1518 335.817 43.1518C336.345 43.1518 336.821 43.2727 337.244 43.5146C337.669 43.7545 338.005 44.1036 338.251 44.5619C338.498 45.0203 338.622 45.5761 338.622 46.2295ZM337.338 46.2295C337.338 45.8062 337.274 45.4493 337.148 45.1587C337.023 44.8681 336.846 44.6477 336.618 44.4976C336.39 44.3474 336.123 44.2723 335.817 44.2723C335.51 44.2723 335.243 44.3474 335.015 44.4976C334.787 44.6477 334.609 44.8681 334.483 45.1587C334.358 45.4493 334.295 45.8062 334.295 46.2295C334.295 46.6527 334.358 47.0096 334.483 47.3002C334.609 47.5908 334.787 47.8112 335.015 47.9614C335.243 48.1116 335.51 48.1867 335.817 48.1867C336.123 48.1867 336.39 48.1116 336.618 47.9614C336.846 47.8112 337.023 47.5908 337.148 47.3002C337.274 47.0096 337.338 46.6527 337.338 46.2295ZM345.066 46.2295C345.066 46.8828 344.943 47.4387 344.695 47.897C344.449 48.3554 344.114 48.7055 343.688 48.9473C343.265 49.1872 342.789 49.3071 342.261 49.3071C341.728 49.3071 341.251 49.1862 340.827 48.9444C340.404 48.7025 340.07 48.3524 339.824 47.8941C339.578 47.4358 339.455 46.8809 339.455 46.2295C339.455 45.5761 339.578 45.0203 339.824 44.5619C340.07 44.1036 340.404 43.7545 340.827 43.5146C341.251 43.2727 341.728 43.1518 342.261 43.1518C342.789 43.1518 343.265 43.2727 343.688 43.5146C344.114 43.7545 344.449 44.1036 344.695 44.5619C344.943 45.0203 345.066 45.5761 345.066 46.2295ZM343.782 46.2295C343.782 45.8062 343.719 45.4493 343.592 45.1587C343.467 44.8681 343.291 44.6477 343.062 44.4976C342.834 44.3474 342.567 44.2723 342.261 44.2723C341.955 44.2723 341.687 44.3474 341.459 44.4976C341.231 44.6477 341.054 44.8681 340.927 45.1587C340.802 45.4493 340.74 45.8062 340.74 46.2295C340.74 46.6527 340.802 47.0096 340.927 47.3002C341.054 47.5908 341.231 47.8112 341.459 47.9614C341.687 48.1116 341.955 48.1867 342.261 48.1867C342.567 48.1867 342.834 48.1116 343.062 47.9614C343.291 47.8112 343.467 47.5908 343.592 47.3002C343.719 47.0096 343.782 46.6527 343.782 46.2295ZM346.005 43.2337H347.567L349.217 47.2593H349.287L350.937 43.2337H352.499V49.2252H351.271V45.3255H351.221L349.67 49.196H348.834L347.283 45.3109H347.233V49.2252H346.005V43.2337ZM332.996 55.3313H331.715C331.692 55.1656 331.644 55.0183 331.572 54.8896C331.499 54.7589 331.407 54.6477 331.294 54.5561C331.181 54.4644 331.05 54.3942 330.902 54.3454C330.755 54.2967 330.596 54.2723 330.425 54.2723C330.115 54.2723 329.845 54.3493 329.614 54.5034C329.384 54.6555 329.206 54.8779 329.079 55.1704C328.952 55.461 328.889 55.814 328.889 56.2295C328.889 56.6566 328.952 57.0155 329.079 57.3061C329.208 57.5967 329.387 57.8161 329.617 57.9643C329.848 58.1125 330.114 58.1867 330.416 58.1867C330.586 58.1867 330.743 58.1642 330.887 58.1194C331.033 58.0745 331.163 58.0092 331.276 57.9234C331.389 57.8356 331.483 57.7293 331.557 57.6045C331.633 57.4797 331.686 57.3373 331.715 57.1773L332.996 57.1832C332.963 57.4582 332.88 57.7234 332.748 57.9789C332.617 58.2325 332.441 58.4597 332.218 58.6606C331.998 58.8595 331.734 59.0175 331.428 59.1345C331.124 59.2496 330.78 59.3071 330.396 59.3071C329.861 59.3071 329.383 59.1862 328.962 58.9444C328.543 58.7025 328.211 58.3524 327.967 57.8941C327.726 57.4358 327.605 56.8809 327.605 56.2295C327.605 55.5761 327.727 55.0203 327.973 54.5619C328.219 54.1036 328.552 53.7545 328.974 53.5146C329.395 53.2727 329.869 53.1518 330.396 53.1518C330.743 53.1518 331.065 53.2006 331.361 53.2981C331.659 53.3956 331.924 53.538 332.154 53.7252C332.384 53.9105 332.571 54.1377 332.716 54.4069C332.862 54.676 332.955 54.9842 332.996 55.3313ZM336.219 59.3569C335.716 59.3549 335.283 59.2311 334.92 58.9853C334.559 58.7396 334.281 58.3836 334.086 57.9175C333.893 57.4514 333.797 56.8906 333.799 56.2353C333.799 55.582 333.896 55.0251 334.089 54.5648C334.284 54.1046 334.562 53.7545 334.923 53.5146C335.286 53.2727 335.718 53.1518 336.219 53.1518C336.72 53.1518 337.151 53.2727 337.512 53.5146C337.875 53.7564 338.154 54.1075 338.349 54.5678C338.544 55.0261 338.64 55.582 338.638 56.2353C338.638 56.8926 338.541 57.4543 338.346 57.9204C338.153 58.3866 337.876 58.7425 337.515 58.9883C337.154 59.234 336.722 59.3569 336.219 59.3569ZM336.219 58.3066C336.562 58.3066 336.836 58.134 337.041 57.7888C337.246 57.4436 337.347 56.9258 337.345 56.2353C337.345 55.7809 337.298 55.4025 337.205 55.1002C337.113 54.7979 336.982 54.5707 336.813 54.4186C336.645 54.2664 336.447 54.1904 336.219 54.1904C335.878 54.1904 335.604 54.361 335.4 54.7023C335.195 55.0437 335.092 55.5547 335.09 56.2353C335.09 56.6956 335.135 57.0798 335.227 57.388C335.321 57.6942 335.452 57.9243 335.622 58.0784C335.792 58.2305 335.991 58.3066 336.219 58.3066ZM339.542 59.2252V58.3125L341.674 56.3377C341.856 56.1622 342.008 56.0042 342.131 55.8638C342.255 55.7234 342.35 55.5859 342.414 55.4513C342.479 55.3148 342.511 55.1675 342.511 55.0095C342.511 54.834 342.471 54.6828 342.391 54.5561C342.311 54.4273 342.202 54.3289 342.063 54.2606C341.925 54.1904 341.768 54.1553 341.592 54.1553C341.409 54.1553 341.249 54.1923 341.113 54.2664C340.976 54.3406 340.871 54.4469 340.797 54.5853C340.722 54.7238 340.685 54.8886 340.685 55.0797H339.483C339.483 54.6877 339.572 54.3474 339.749 54.0587C339.927 53.7701 340.175 53.5468 340.495 53.3888C340.815 53.2308 341.184 53.1518 341.601 53.1518C342.03 53.1518 342.404 53.2279 342.722 53.38C343.041 53.5302 343.29 53.7389 343.468 54.0061C343.645 54.2733 343.734 54.5795 343.734 54.9247C343.734 55.1509 343.689 55.3742 343.599 55.5946C343.511 55.815 343.354 56.0598 343.128 56.3289C342.902 56.5961 342.583 56.917 342.172 57.2914L341.297 58.1486V58.1896H343.813V59.2252H339.542ZM347.08 59.3569C346.577 59.3549 346.144 59.2311 345.781 58.9853C345.42 58.7396 345.142 58.3836 344.947 57.9175C344.754 57.4514 344.659 56.8906 344.66 56.2353C344.66 55.582 344.757 55.0251 344.95 54.5648C345.145 54.1046 345.423 53.7545 345.784 53.5146C346.147 53.2727 346.579 53.1518 347.08 53.1518C347.581 53.1518 348.012 53.2727 348.373 53.5146C348.736 53.7564 349.015 54.1075 349.21 54.5678C349.405 55.0261 349.501 55.582 349.499 56.2353C349.499 56.8926 349.402 57.4543 349.207 57.9204C349.014 58.3866 348.737 58.7425 348.376 58.9883C348.015 59.234 347.583 59.3569 347.08 59.3569ZM347.08 58.3066C347.423 58.3066 347.697 58.134 347.902 57.7888C348.107 57.4436 348.208 56.9258 348.206 56.2353C348.206 55.7809 348.159 55.4025 348.066 55.1002C347.974 54.7979 347.843 54.5707 347.674 54.4186C347.506 54.2664 347.308 54.1904 347.08 54.1904C346.739 54.1904 346.466 54.361 346.261 54.7023C346.056 55.0437 345.953 55.5547 345.951 56.2353C345.951 56.6956 345.996 57.0798 346.088 57.388C346.182 57.6942 346.313 57.9243 346.483 58.0784C346.653 58.2305 346.852 58.3066 347.08 58.3066Z" fill="black"/>
<path d="M305.279 45.0631H252.234V63.5136H305.279V45.0631Z" fill="#3BDE73" stroke="black" stroke-width="2"/>
<path d="M265.23 52.2541C265.207 52.0181 265.107 51.8348 264.929 51.7041C264.752 51.5734 264.511 51.5081 264.207 51.5081C264 51.5081 263.825 51.5374 263.683 51.5959C263.541 51.6524 263.431 51.7314 263.355 51.8328C263.281 51.9343 263.244 52.0493 263.244 52.178C263.24 52.2853 263.263 52.3789 263.311 52.4589C263.362 52.5389 263.431 52.6081 263.519 52.6666C263.607 52.7232 263.708 52.7729 263.823 52.8158C263.938 52.8568 264.061 52.8919 264.192 52.9211L264.73 53.0499C264.992 53.1084 265.231 53.1864 265.45 53.2839C265.668 53.3814 265.858 53.5014 266.017 53.6437C266.177 53.7861 266.301 53.9538 266.389 54.1469C266.479 54.34 266.525 54.5614 266.526 54.811C266.525 55.1777 266.431 55.4956 266.246 55.7647C266.062 56.0319 265.797 56.2397 265.45 56.3879C265.105 56.5342 264.688 56.6073 264.201 56.6073C263.717 56.6073 263.296 56.5332 262.937 56.385C262.58 56.2367 262.301 56.0173 262.1 55.7267C261.901 55.4342 261.797 55.0724 261.787 54.6413H263.013C263.027 54.8422 263.084 55.01 263.186 55.1445C263.289 55.2772 263.426 55.3776 263.598 55.4459C263.772 55.5122 263.968 55.5453 264.186 55.5453C264.401 55.5453 264.587 55.5141 264.745 55.4517C264.905 55.3893 265.029 55.3025 265.116 55.1913C265.204 55.0802 265.248 54.9524 265.248 54.8081C265.248 54.6735 265.208 54.5604 265.128 54.4687C265.05 54.3771 264.935 54.2991 264.783 54.2347C264.633 54.1703 264.448 54.1118 264.23 54.0592L263.578 53.8953C263.072 53.7725 262.674 53.5804 262.381 53.319C262.088 53.0577 261.943 52.7056 261.945 52.2629C261.943 51.9001 262.04 51.5832 262.235 51.3121C262.432 51.041 262.702 50.8294 263.045 50.6772C263.388 50.5251 263.778 50.4491 264.215 50.4491C264.66 50.4491 265.048 50.5251 265.38 50.6772C265.713 50.8294 265.973 51.041 266.158 51.3121C266.343 51.5832 266.439 51.8972 266.445 52.2541H265.23ZM267.15 51.5754V50.531H272.071V51.5754H270.237V56.5225H268.985V51.5754H267.15ZM273.182 56.5225H271.825L273.893 50.531H275.525L277.591 56.5225H276.233L274.733 51.9001H274.686L273.182 56.5225ZM273.097 54.1674H276.304V55.1562H273.097V54.1674ZM279.579 50.531V56.5225H278.312V50.531H279.579ZM280.621 56.5225V50.531H282.985C283.437 50.531 283.823 50.6119 284.143 50.7738C284.465 50.9337 284.71 51.1609 284.878 51.4554C285.047 51.748 285.132 52.0922 285.132 52.4882C285.132 52.886 285.046 53.2283 284.875 53.515C284.703 53.7998 284.454 54.0182 284.129 54.1703C283.805 54.3225 283.413 54.3985 282.953 54.3985H281.37V53.3804H282.748C282.99 53.3804 283.191 53.3473 283.35 53.281C283.51 53.2147 283.629 53.1152 283.707 52.9826C283.787 52.8499 283.827 52.6851 283.827 52.4882C283.827 52.2892 283.787 52.1215 283.707 51.985C283.629 51.8484 283.509 51.7451 283.348 51.6749C283.188 51.6027 282.986 51.5666 282.742 51.5666H281.888V56.5225H280.621ZM283.857 53.7959L285.346 56.5225H283.947L282.49 53.7959H283.857ZM289.278 52.2541C289.254 52.0181 289.154 51.8348 288.976 51.7041C288.799 51.5734 288.558 51.5081 288.254 51.5081C288.047 51.5081 287.872 51.5374 287.73 51.5959C287.588 51.6524 287.478 51.7314 287.402 51.8328C287.328 51.9343 287.291 52.0493 287.291 52.178C287.287 52.2853 287.31 52.3789 287.358 52.4589C287.409 52.5389 287.478 52.6081 287.566 52.6666C287.654 52.7232 287.755 52.7729 287.87 52.8158C287.986 52.8568 288.108 52.8919 288.239 52.9211L288.777 53.0499C289.039 53.1084 289.279 53.1864 289.497 53.2839C289.715 53.3814 289.905 53.5014 290.065 53.6437C290.225 53.7861 290.348 53.9538 290.436 54.1469C290.526 54.34 290.572 54.5614 290.574 54.811C290.572 55.1777 290.478 55.4956 290.293 55.7647C290.109 56.0319 289.844 56.2397 289.497 56.3879C289.152 56.5342 288.735 56.6073 288.248 56.6073C287.764 56.6073 287.343 56.5332 286.984 56.385C286.627 56.2367 286.348 56.0173 286.147 55.7267C285.948 55.4342 285.844 55.0724 285.834 54.6413H287.06C287.074 54.8422 287.131 55.01 287.233 55.1445C287.336 55.2772 287.474 55.3776 287.645 55.4459C287.819 55.5122 288.015 55.5453 288.233 55.5453C288.448 55.5453 288.634 55.5141 288.792 55.4517C288.952 55.3893 289.076 55.3025 289.164 55.1913C289.251 55.0802 289.295 54.9524 289.295 54.8081C289.295 54.6735 289.255 54.5604 289.175 54.4687C289.097 54.3771 288.982 54.2991 288.83 54.2347C288.68 54.1703 288.496 54.1118 288.277 54.0592L287.625 53.8953C287.12 53.7725 286.721 53.5804 286.428 53.319C286.136 53.0577 285.99 52.7056 285.992 52.2629C285.99 51.9001 286.087 51.5832 286.282 51.3121C286.479 51.041 286.749 50.8294 287.092 50.6772C287.436 50.5251 287.826 50.4491 288.262 50.4491C288.707 50.4491 289.095 50.5251 289.427 50.6772C289.76 50.8294 290.02 51.041 290.205 51.3121C290.39 51.5832 290.486 51.8972 290.492 52.2541H289.278Z" fill="black"/>
<path d="M250.644 35.7657L248.93 29.7743H250.314L251.305 33.9373H251.355L252.449 29.7743H253.634L254.725 33.9461H254.778L255.77 29.7743H257.154L255.439 35.7657H254.205L253.064 31.8485H253.017L251.879 35.7657H250.644ZM258.261 35.7657H256.903L258.972 29.7743H260.604L262.67 35.7657H261.312L259.811 31.1434H259.765L258.261 35.7657ZM258.176 33.4107H261.382V34.3995H258.176V33.4107ZM266.504 31.4974C266.481 31.2614 266.38 31.0781 266.203 30.9474C266.025 30.8167 265.785 30.7514 265.48 30.7514C265.274 30.7514 265.099 30.7806 264.957 30.8392C264.814 30.8957 264.705 30.9747 264.629 31.0761C264.555 31.1775 264.518 31.2926 264.518 31.4213C264.514 31.5286 264.536 31.6222 264.585 31.7022C264.636 31.7821 264.705 31.8514 264.793 31.9099C264.881 31.9665 264.982 32.0162 265.097 32.0591C265.212 32.1001 265.335 32.1352 265.466 32.1644L266.004 32.2931C266.265 32.3517 266.505 32.4297 266.724 32.5272C266.942 32.6247 267.131 32.7446 267.291 32.887C267.451 33.0294 267.575 33.1971 267.663 33.3902C267.752 33.5833 267.798 33.8047 267.8 34.0543C267.798 34.421 267.705 34.7389 267.519 35.008C267.336 35.2752 267.071 35.4829 266.724 35.6312C266.378 35.7774 265.962 35.8506 265.474 35.8506C264.991 35.8506 264.569 35.7765 264.211 35.6282C263.854 35.48 263.575 35.2606 263.374 34.97C263.175 34.6774 263.071 34.3157 263.061 33.8846H264.287C264.3 34.0855 264.358 34.2532 264.459 34.3878C264.563 34.5204 264.7 34.6209 264.872 34.6892C265.045 34.7555 265.241 34.7886 265.46 34.7886C265.674 34.7886 265.861 34.7574 266.019 34.695C266.179 34.6326 266.302 34.5458 266.39 34.4346C266.478 34.3235 266.522 34.1957 266.522 34.0514C266.522 33.9168 266.482 33.8037 266.402 33.712C266.324 33.6204 266.209 33.5423 266.057 33.478C265.906 33.4136 265.722 33.3551 265.504 33.3024L264.851 33.1386C264.346 33.0157 263.947 32.8236 263.655 32.5623C263.362 32.3009 263.217 31.9489 263.219 31.5062C263.217 31.1434 263.313 30.8265 263.508 30.5554C263.705 30.2843 263.976 30.0727 264.319 29.9205C264.662 29.7684 265.052 29.6923 265.489 29.6923C265.934 29.6923 266.322 29.7684 266.653 29.9205C266.987 30.0727 267.246 30.2843 267.432 30.5554C267.617 30.8265 267.712 31.1405 267.718 31.4974H266.504ZM268.652 35.7657V29.7743H269.919V32.2463H272.491V29.7743H273.754V35.7657H272.491V33.2907H269.919V35.7657H268.652ZM274.799 35.7657V29.7743H277.163C277.615 29.7743 278.001 29.8552 278.321 30.0171C278.643 30.177 278.888 30.4042 279.055 30.6987C279.225 30.9913 279.31 31.3355 279.31 31.7314C279.31 32.1293 279.224 32.4716 279.053 32.7583C278.881 33.0431 278.632 33.2615 278.307 33.4136C277.983 33.5657 277.591 33.6418 277.13 33.6418H275.548V32.6237H276.926C277.168 32.6237 277.368 32.5906 277.528 32.5243C277.688 32.4579 277.807 32.3585 277.885 32.2259C277.965 32.0932 278.005 31.9284 278.005 31.7314C278.005 31.5325 277.965 31.3648 277.885 31.2282C277.807 31.0917 277.687 30.9884 277.525 30.9181C277.366 30.846 277.164 30.8099 276.92 30.8099H276.066V35.7657H274.799ZM278.034 33.0392L279.524 35.7657H278.125L276.668 33.0392H278.034ZM285.711 32.77C285.711 33.4234 285.587 33.9792 285.34 34.4376C285.094 34.8959 284.758 35.246 284.333 35.4878C283.91 35.7277 283.434 35.8477 282.905 35.8477C282.373 35.8477 281.895 35.7267 281.472 35.4849C281.049 35.2431 280.714 34.893 280.469 34.4346C280.223 33.9763 280.1 33.4214 280.1 32.77C280.1 32.1166 280.223 31.5608 280.469 31.1024C280.714 30.6441 281.049 30.295 281.472 30.0551C281.895 29.8133 282.373 29.6923 282.905 29.6923C283.434 29.6923 283.91 29.8133 284.333 30.0551C284.758 30.295 285.094 30.6441 285.34 31.1024C285.587 31.5608 285.711 32.1166 285.711 32.77ZM284.427 32.77C284.427 32.3468 284.363 31.9899 284.237 31.6993C284.112 31.4087 283.935 31.1883 283.707 31.0381C283.479 30.8879 283.212 30.8128 282.905 30.8128C282.599 30.8128 282.332 30.8879 282.104 31.0381C281.876 31.1883 281.698 31.4087 281.571 31.6993C281.447 31.9899 281.384 32.3468 281.384 32.77C281.384 33.1932 281.447 33.5501 281.571 33.8407C281.698 34.1313 281.876 34.3517 282.104 34.5019C282.332 34.6521 282.599 34.7272 282.905 34.7272C283.212 34.7272 283.479 34.6521 283.707 34.5019C283.935 34.3517 284.112 34.1313 284.237 33.8407C284.363 33.5501 284.427 33.1932 284.427 32.77ZM292.155 32.77C292.155 33.4234 292.031 33.9792 291.784 34.4376C291.538 34.8959 291.203 35.246 290.777 35.4878C290.354 35.7277 289.878 35.8477 289.35 35.8477C288.817 35.8477 288.339 35.7267 287.916 35.4849C287.493 35.2431 287.158 34.893 286.913 34.4346C286.667 33.9763 286.544 33.4214 286.544 32.77C286.544 32.1166 286.667 31.5608 286.913 31.1024C287.158 30.6441 287.493 30.295 287.916 30.0551C288.339 29.8133 288.817 29.6923 289.35 29.6923C289.878 29.6923 290.354 29.8133 290.777 30.0551C291.203 30.295 291.538 30.6441 291.784 31.1024C292.031 31.5608 292.155 32.1166 292.155 32.77ZM290.871 32.77C290.871 32.3468 290.808 31.9899 290.681 31.6993C290.556 31.4087 290.379 31.1883 290.151 31.0381C289.923 30.8879 289.656 30.8128 289.35 30.8128C289.044 30.8128 288.776 30.8879 288.548 31.0381C288.32 31.1883 288.142 31.4087 288.016 31.6993C287.891 31.9899 287.828 32.3468 287.828 32.77C287.828 33.1932 287.891 33.5501 288.016 33.8407C288.142 34.1313 288.32 34.3517 288.548 34.5019C288.776 34.6521 289.044 34.7272 289.35 34.7272C289.656 34.7272 289.923 34.6521 290.151 34.5019C290.379 34.3517 290.556 34.1313 290.681 33.8407C290.808 33.5501 290.871 33.1932 290.871 32.77ZM293.094 29.7743H294.656L296.306 33.7998H296.376L298.026 29.7743H299.588V35.7657H298.36V31.866H298.31L296.759 35.7365H295.923L294.372 31.8514H294.322V35.7657H293.094V29.7743Z" fill="black"/>
<path d="M258.521 93.4235V87.432H262.558V88.4764H259.787V89.904H262.35V90.9485H259.787V92.379H262.57V93.4235H258.521ZM263.565 93.4235V87.432H264.832V92.379H267.4V93.4235H263.565ZM268.239 93.4235V87.432H272.277V88.4764H269.506V89.904H272.069V90.9485H269.506V92.379H272.288V93.4235H268.239ZM274.366 87.432L275.814 91.9841H275.87L277.321 87.432H278.725L276.66 93.4235H275.027L272.959 87.432H274.366ZM279.683 93.4235H278.325L280.393 87.432H282.026L284.091 93.4235H282.734L281.233 88.8011H281.186L279.683 93.4235ZM279.598 91.0684H282.804V92.0572H279.598V91.0684ZM283.852 88.4764V87.432H288.773V88.4764H286.939V93.4235H285.687V88.4764H283.852ZM294.816 90.4277C294.816 91.0811 294.692 91.6369 294.444 92.0953C294.198 92.5536 293.863 92.9037 293.438 93.1455C293.014 93.3854 292.539 93.5054 292.01 93.5054C291.478 93.5054 291 93.3845 290.577 93.1426C290.153 92.9008 289.819 92.5507 289.573 92.0923C289.327 91.634 289.204 91.0791 289.204 90.4277C289.204 89.7743 289.327 89.2185 289.573 88.7602C289.819 88.3018 290.153 87.9527 290.577 87.7128C291 87.471 291.478 87.3501 292.01 87.3501C292.539 87.3501 293.014 87.471 293.438 87.7128C293.863 87.9527 294.198 88.3018 294.444 88.7602C294.692 89.2185 294.816 89.7743 294.816 90.4277ZM293.531 90.4277C293.531 90.0045 293.468 89.6476 293.341 89.357C293.216 89.0664 293.04 88.846 292.812 88.6958C292.583 88.5456 292.316 88.4705 292.01 88.4705C291.704 88.4705 291.437 88.5456 291.208 88.6958C290.98 88.846 290.803 89.0664 290.676 89.357C290.551 89.6476 290.489 90.0045 290.489 90.4277C290.489 90.8509 290.551 91.2079 290.676 91.4985C290.803 91.7891 290.98 92.0095 291.208 92.1596C291.437 92.3098 291.704 92.3849 292.01 92.3849C292.316 92.3849 292.583 92.3098 292.812 92.1596C293.04 92.0095 293.216 91.7891 293.341 91.4985C293.468 91.2079 293.531 90.8509 293.531 90.4277ZM295.754 93.4235V87.432H298.118C298.57 87.432 298.956 87.5129 299.276 87.6748C299.598 87.8347 299.843 88.0619 300.011 88.3564C300.18 88.649 300.265 88.9932 300.265 89.3892C300.265 89.787 300.179 90.1293 300.008 90.416C299.836 90.7008 299.587 90.9192 299.262 91.0713C298.938 91.2235 298.546 91.2995 298.086 91.2995H296.503V90.2814H297.881C298.123 90.2814 298.324 90.2483 298.484 90.182C298.643 90.1157 298.762 90.0162 298.84 89.8836C298.92 89.7509 298.96 89.5861 298.96 89.3892C298.96 89.1902 298.92 89.0225 298.84 88.886C298.762 88.7494 298.642 88.6461 298.481 88.5759C298.321 88.5037 298.119 88.4676 297.875 88.4676H297.021V93.4235H295.754ZM298.99 90.6969L300.479 93.4235H299.08L297.623 90.6969H298.99Z" fill="black"/>
</svg>
