<svg width="99" height="102" viewBox="0 0 99 102" fill="none" xmlns="http://www.w3.org/2000/svg">
<path d="M39.1995 15.307C32.2402 11.9098 22.513 10.2457 9.49008 10.1866C8.26189 10.1695 7.05779 10.5357 6.03837 11.2363C5.20161 11.8145 4.51666 12.5942 4.04375 13.5066C3.57084 14.419 3.32447 15.4363 3.3263 16.4689V72.8125C3.3263 76.6213 5.97673 79.4946 9.49008 79.4946C23.1794 79.4946 36.9112 80.8023 45.136 88.7506C45.2485 88.8599 45.3899 88.9329 45.5427 88.9606C45.6954 88.9884 45.8528 88.9696 45.9952 88.9067C46.1376 88.8437 46.2588 88.7394 46.3437 88.6066C46.4286 88.4738 46.4735 88.3185 46.4727 88.1598V21.7704C46.4731 21.3225 46.3794 20.8797 46.1979 20.472C46.0165 20.0643 45.7516 19.7012 45.4211 19.4072C43.5371 17.7605 41.4443 16.3813 39.1995 15.307Z" fill="#1F256C"/>
<path d="M93.0704 11.2295C92.0505 10.5307 90.8463 10.1666 89.6187 10.1858C76.5958 10.2449 66.8685 11.9011 59.9092 15.3061C57.6645 16.3785 55.5712 17.755 53.6858 19.3985C53.356 19.693 53.0917 20.0563 52.9106 20.4639C52.7296 20.8715 52.6359 21.314 52.636 21.7617V88.1551C52.6359 88.3075 52.6798 88.4566 52.7623 88.5836C52.8447 88.7106 52.962 88.8099 53.0995 88.869C53.2369 88.9281 53.3883 88.9444 53.5348 88.9158C53.6812 88.8873 53.8162 88.8151 53.9227 88.7085C58.8672 83.6866 67.5446 79.4879 89.6264 79.4898C91.2611 79.4898 92.8289 78.8259 93.9848 77.644C95.1408 76.4622 95.7902 74.8593 95.7902 73.1879V16.47C95.7924 15.4354 95.5455 14.4161 95.0711 13.5021C94.5968 12.5882 93.9097 11.8077 93.0704 11.2295Z" fill="#1F256C"/>
</svg>
