<svg width="98" height="75" viewBox="0 0 98 75" fill="none" xmlns="http://www.w3.org/2000/svg">
<path d="M82.1551 7.01879C75.9703 4.17611 69.338 2.08176 62.4035 0.882229C62.2773 0.859079 62.1511 0.916933 62.0861 1.03264C61.2331 2.55229 60.2883 4.5348 59.6266 6.09304C52.1682 4.97454 44.748 4.97454 37.4424 6.09304C36.7807 4.50017 35.8016 2.55229 34.9448 1.03264C34.8797 0.920794 34.7535 0.862939 34.6273 0.882229C27.6966 2.07792 21.0643 4.17228 14.8757 7.01879C14.8221 7.04193 14.7762 7.08053 14.7457 7.13064C2.16565 25.9569 -1.28055 44.3204 0.41004 62.4562C0.41769 62.5449 0.467412 62.6298 0.536261 62.6837C8.83622 68.7894 16.8762 72.496 24.7668 74.9529C24.8931 74.9915 25.0269 74.9452 25.1072 74.8411C26.9738 72.2878 28.6376 69.5956 30.0642 66.7644C30.1484 66.5986 30.068 66.4019 29.8959 66.3363C27.2568 65.3335 24.7438 64.1108 22.3265 62.7223C22.1353 62.6105 22.12 62.3365 22.2959 62.2054C22.8046 61.8235 23.3134 61.4262 23.7991 61.0251C23.887 60.9519 24.0095 60.9364 24.1128 60.9827C39.9936 68.2456 57.1864 68.2456 72.8798 60.9827C72.9831 60.9326 73.1055 60.948 73.1972 61.0213C73.6831 61.4224 74.1918 61.8235 74.7043 62.2054C74.8802 62.3365 74.8687 62.6105 74.6775 62.7223C72.2602 64.1378 69.7472 65.3335 67.1043 66.3325C66.9322 66.3981 66.8557 66.5986 66.9398 66.7644C68.397 69.5916 70.0609 72.2838 71.893 74.8372C71.9695 74.9453 72.1071 74.9915 72.2334 74.9529C80.1623 72.496 88.2022 68.7894 96.5022 62.6837C96.5749 62.6298 96.6208 62.5487 96.6284 62.46C98.6517 41.493 93.2395 23.2801 82.2813 7.13447C82.2545 7.08053 82.2087 7.04193 82.1551 7.01879ZM32.4357 51.4134C27.6545 51.4134 23.715 47.0164 23.715 41.6165C23.715 36.2166 27.5781 31.8196 32.4357 31.8196C37.3315 31.8196 41.2329 36.2552 41.1564 41.6165C41.1564 47.0164 37.2932 51.4134 32.4357 51.4134ZM64.6793 51.4134C59.8982 51.4134 55.9586 47.0164 55.9586 41.6165C55.9586 36.2166 59.8217 31.8196 64.6793 31.8196C69.5751 31.8196 73.4765 36.2552 73.4001 41.6165C73.4001 47.0164 69.5751 51.4134 64.6793 51.4134Z" fill="#1F256C"/>
</svg>
