<svg width="555" height="489" viewBox="0 0 555 489" fill="none" xmlns="http://www.w3.org/2000/svg">
<path d="M233.821 197.82C231.511 207.457 216.286 210.578 201.476 204.989C188.945 200.261 171.289 186.845 168.83 184.81C163.257 180.193 158.325 174.945 153.626 169.472C149.103 164.197 144.995 158.599 141.355 152.681C138.7 148.364 136.402 143.857 135.14 138.899C134.89 137.9 134.557 136.907 134.466 135.895C134.376 134.897 133.958 134.171 133.355 133.414C131.096 130.578 129.672 127.339 129.411 123.715C129.07 119.031 130.487 114.811 133.235 111.03C135.539 107.863 140.718 103.843 144.037 103.295C143.449 102.163 142.777 100.856 142.084 99.5587C140.957 97.4291 139.983 95.2259 139.702 92.8286C139.171 88.2444 141.097 84.2871 146.104 82.9755C149.844 81.9893 152.93 83.4091 155.825 85.5602C159.28 88.1294 161.694 91.5609 163.787 95.2473C164.579 96.6357 165.342 98.0342 166.164 99.5116C166.76 99.0817 167.27 98.7048 167.781 98.3505C169.746 96.9855 171.867 95.9351 174.257 95.654C178.666 95.1301 182.041 97.9267 182.61 102.325C183.093 106.061 182.336 109.617 181.296 113.151C180.516 115.781 179.773 118.399 180.323 121.186C180.807 123.642 181.721 125.949 182.899 128.143C186.265 134.434 190.387 140.191 195.417 145.249C197.891 147.739 200.549 150.054 203.19 152.364C207.62 156.238 211.885 160.316 216.557 163.896C234.598 177.729 235.794 189.542 233.806 197.828L233.821 197.82Z" fill="url(#paint0_linear_8062_3072)"/>
<path d="M132.731 132.582C132.731 132.582 134.516 134.292 135.321 134.728C143.303 139.032 151.523 134.783 151.204 134.147C149.945 131.618 148.548 128.985 146.667 126.849C145.835 125.905 144.811 125.206 143.82 124.458C142.895 123.766 142.471 122.864 142.693 121.689C143.142 119.285 145.635 119.056 147.026 119.954C152.801 123.709 156.207 131.489 156.44 131.827C158.102 130.662 159.433 129.266 160.522 127.608C162.083 125.219 162.886 122.587 162.631 119.777C162.328 116.483 161.123 113.499 158.731 111.086C153.234 105.534 143.371 103.342 144.035 103.279C144.035 103.279 142.656 101.97 141.929 99.244C148.041 99.4244 157.69 100.226 164.271 109.03C168.934 115.268 169.795 124.133 164.92 130.998C161.36 136.011 156.547 139.118 150.663 140.685C146.678 141.745 142.684 141.945 138.658 140.945C137.624 140.688 135.466 140.082 135.466 140.082C135.466 140.082 134.521 137.397 134.432 135.395C134.394 134.47 132.722 132.575 132.722 132.575L132.731 132.582Z" fill="#A27E73"/>
<path d="M306.302 317.064C306.243 317.562 306.184 318.006 306.27 318.518C306.365 319.114 306.794 320.91 307.852 321.533C312.347 324.16 337.061 326.3 357.957 318.174C363.044 316.193 367.922 313.799 372.484 310.795C375.375 308.893 378.043 306.708 380.619 304.401C382.234 302.948 383.819 301.472 385.204 299.791C386.46 298.263 386.108 296.596 384.291 295.839C383.87 295.665 383.433 295.529 383.012 295.348C382.153 294.977 382.138 294.938 382.547 294.072C382.926 293.275 383.359 292.5 383.531 291.612C383.8 290.218 383.307 289.516 381.899 289.546C379.673 289.601 377.463 289.887 375.262 290.233C371.225 290.863 367.18 291.47 363.088 291.733C360.029 291.93 356.976 291.952 353.923 291.873C350.756 291.796 347.587 291.58 344.426 291.273C340.469 290.892 336.498 290.742 332.52 290.935C330.7 291.028 329.135 291.945 327.648 292.916C325.031 294.618 322.653 296.625 320.344 298.732C318.485 300.423 316.695 302.176 314.989 304.004C312.118 307.093 309.386 310.303 307.229 313.962C306.66 314.928 306.45 315.947 306.325 317.072L306.302 317.064Z" fill="url(#paint1_linear_8062_3072)"/>
<path d="M361.482 291.809C361.482 291.809 357.846 300.095 357.149 301.628C352.846 311.142 349.607 320.858 349.607 320.858C349.607 320.858 351.074 320.507 351.51 320.383C355.384 319.241 359.172 317.839 362.829 316.117C365.952 314.649 369.044 313.098 371.927 311.172C374.521 309.439 377.022 307.592 379.346 305.501C381.03 303.994 382.737 302.51 384.291 300.858C384.892 300.212 385.532 299.59 385.804 298.709C386.09 297.774 385.978 296.612 384.79 296.097C384.115 295.809 383.433 295.537 382.751 295.28C382.207 295.075 382.129 294.808 382.395 294.309C382.827 293.504 383.26 292.691 383.493 291.795C383.832 290.508 383.537 289.561 382.213 289.475C379.993 289.332 377.073 289.865 373.373 290.509C370.552 291.003 367.7 291.307 364.847 291.618C364.205 291.689 361.49 291.809 361.49 291.809L361.482 291.809Z" fill="#675C5A"/>
<path d="M182.579 345.646C186.969 343.53 196.178 339.657 200.018 337.78C203.392 336.128 206.767 334.484 210.211 332.999C214.869 330.989 219.612 329.262 224.34 327.482C225.425 327.071 226.486 326.623 227.47 325.976C228.378 325.383 228.528 324.655 228.102 323.632C227.7 322.67 227.428 321.646 226.393 321.229C226.271 321.176 226.156 321.085 226.025 321.04C222.616 319.907 219.297 318.507 215.857 317.451C209.736 315.581 204.084 312.614 199.297 308.022C196.969 305.791 195.144 303.091 193.349 300.367C192.679 299.353 191.932 298.384 190.737 298.007C189.994 297.773 189.344 297.868 188.673 298.391C187.591 299.237 186.276 299.641 185.078 300.274C181.353 302.234 177.791 304.522 174.181 306.718C172.159 307.951 170.099 309.093 167.821 309.669C165.941 310.136 164.075 310.099 162.168 309.801C159.282 309.355 156.388 308.84 153.428 309.213C145.201 310.267 148.768 324.435 149.708 327.629C150.795 331.343 152.532 334.724 154.268 338.106C155.75 340.999 160.616 347.84 162.435 349.278C164.424 350.845 168.058 352.642 182.579 345.639L182.579 345.646Z" fill="url(#paint2_linear_8062_3072)"/>
<path d="M185.675 298.55C185.797 298.61 185.943 298.602 186.171 298.341C185.934 298.434 185.82 298.48 185.675 298.55Z" fill="url(#paint3_linear_8062_3072)"/>
<path d="M185.644 298.588C185.644 298.588 185.614 298.618 185.599 298.634C185.614 298.634 185.622 298.634 185.637 298.603C185.637 298.573 185.637 298.588 185.644 298.588Z" fill="url(#paint4_linear_8062_3072)"/>
<path d="M185.224 298.851L185.248 298.819C185.248 298.819 185.208 298.835 185.224 298.851Z" fill="url(#paint5_linear_8062_3072)"/>
<path d="M217.01 179.028C215.97 180.899 214.999 182.74 214.135 184.633C190.411 236.634 183.457 283.25 183.538 301.443C183.552 304.74 184.914 316.876 198.776 323.509C206.267 327.095 214.338 328.727 222.304 330.734C228.316 332.245 234.284 333.932 240.289 335.459C246.784 337.113 253.332 338.538 259.969 339.511C263.345 340.008 266.744 340.322 270.142 340.659C275.768 341.215 281.408 341.458 287.061 341.41C320.54 341.162 324.624 323.654 331.492 295.576C332.853 290.016 334.075 284.425 335.052 278.782C335.798 274.433 336.429 270.062 336.907 265.676C337.443 260.739 337.827 255.787 338.141 250.828C338.42 246.466 338.646 242.112 338.626 237.735C338.613 234.645 338.737 231.561 338.685 228.47C338.603 223.918 338.529 219.359 338.257 214.816C337.976 210.257 337.566 205.699 337.01 201.164C336.661 198.328 336.35 195.475 336.154 192.615C335.622 184.875 338.963 179.083 327.864 172.637C324.228 170.526 320.214 169.435 316.148 168.611C311.3 167.631 306.402 167.101 301.451 166.917C293.929 166.637 286.402 166.961 278.881 166.826C269.791 166.667 260.71 166.868 251.621 166.778C247.405 166.736 243.189 166.632 238.973 166.444C236.447 166.333 226.728 165.596 223.388 169.803C222.429 171.009 221.447 172.161 220.565 173.412C219.296 175.208 218.11 177.064 217.01 179.043L217.01 179.028Z" fill="url(#paint6_linear_8062_3072)"/>
<path d="M270.936 360.708C275.083 358.149 283.841 353.341 287.466 351.077C290.651 349.084 293.836 347.098 297.108 345.265C301.532 342.783 305.98 339.997 310.498 337.736C314.711 334.246 316.18 333.712 311.597 331.731C307.014 329.75 286.514 315.019 274.112 312.48C273.348 312.325 272.712 312.486 272.099 313.076C271.11 314.03 269.845 314.568 268.718 315.321C265.217 317.657 261.91 320.302 258.548 322.861C256.665 324.297 254.734 325.646 252.528 326.455C250.707 327.115 248.846 327.271 246.919 327.172C244.002 327.028 241.07 326.815 238.166 327.493C230.092 329.394 235.108 343.117 236.374 346.196C237.841 349.777 239.918 352.96 241.996 356.143C243.77 358.867 249.318 365.167 251.277 366.409C253.417 367.761 257.219 369.172 270.935 360.701L270.936 360.708Z" fill="url(#paint7_linear_8062_3072)"/>
<path d="M275.522 319.823C275.649 319.876 275.793 319.858 276.004 319.583C275.774 319.691 275.663 319.745 275.522 319.823Z" fill="url(#paint8_linear_8062_3072)"/>
<path d="M275.495 319.863C275.495 319.863 275.466 319.896 275.452 319.912C275.467 319.911 275.475 319.91 275.488 319.879C275.486 319.848 275.487 319.864 275.495 319.863Z" fill="url(#paint9_linear_8062_3072)"/>
<path d="M275.092 320.152L275.114 320.119C275.114 320.119 275.075 320.138 275.092 320.152Z" fill="url(#paint10_linear_8062_3072)"/>
<g filter="url(#filter0_d_8062_3072)">
<path d="M313.498 181.753C300.645 181.81 273.671 180.621 265.496 179.732C256.709 178.776 248.472 177.734 240.399 174.059C234.856 171.536 229.648 168.514 224.858 164.794C222.593 163.037 220.404 161.18 218.185 159.361C217.947 159.171 217.694 158.989 217.441 158.829C215.968 157.902 214.86 158.29 214.362 159.945C213.842 161.668 213.674 163.467 213.445 165.243C212.831 170.004 212.857 179.453 213.49 184.155C216.109 203.6 224.195 222.392 224.974 223.85C225.646 225.102 226.818 225.471 228.07 224.808C229.756 223.913 231.135 222.591 232.614 221.414C236.556 218.267 240.643 215.319 244.6 212.203C248.473 209.156 252.024 205.781 255.243 202.026C257.945 198.877 260.118 195.386 262.152 191.797C262.426 191.306 262.554 190.823 263.063 191.831C264.777 195.213 266.513 198.579 268.326 201.907C272.167 208.989 276.626 215.656 281.589 221.992C284.09 225.187 286.606 228.389 289.495 231.253C290.287 232.037 292.994 235.177 296.41 232.507C300.245 229.507 302.972 226.832 305.941 223.651C311.546 217.644 327.872 200.388 330.597 197.246C332.599 194.942 334.432 192.501 336.35 190.129C336.951 189.376 342.886 182.028 341.262 181.699C339.401 181.317 315.181 181.73 313.498 181.738L313.498 181.753Z" fill="url(#paint11_linear_8062_3072)"/>
<path d="M318.913 207.251C298.689 220.263 280.421 217.337 277.433 216.455C281.229 221.909 285.453 227.184 290.271 231.952C292.3 233.963 292.947 234.94 295.838 232.96C301.116 229.349 313.739 215.315 325.839 202.561C326.113 202.277 326.509 201.762 326.798 201.409C326.866 201.263 321.919 205.317 318.913 207.251Z" fill="#5C4E49"/>
<path d="M240.88 215.065C236.695 213.362 227.406 207.979 220.478 196.832C215.331 188.554 213.344 178.785 213 177.142C212.622 191.97 219.341 209.522 221.919 216.427C222.709 218.535 223.475 220.437 224.426 222.689C225.818 225.988 226.713 226.099 229.42 223.952C233.179 220.975 237.083 218.081 240.887 215.065L240.88 215.065Z" fill="#5D4F4A"/>
</g>
<path d="M323.096 185.087C327.034 184.8 330.894 184.512 334.832 184.233C339.31 183.676 343.76 183.375 347.983 181.955C353.494 180.112 358.768 177.634 363.307 174.02C367.157 170.955 371.01 167.821 374.189 163.976C377.636 159.806 380.781 155.48 382.759 150.404C383.301 149.007 383.828 147.595 383.854 146.067C383.91 142.618 382.267 140.283 378.989 139.088C377.61 138.582 376.205 138.147 374.761 137.907C373.907 137.77 374.007 137.464 374.334 136.895C375.68 134.526 376.876 132.084 377.462 129.395C378.21 125.973 377.08 123.401 374.037 121.652C371.868 120.406 369.524 119.618 367.075 119.159C366.203 118.993 366.013 118.7 366.241 117.824C367.502 113.022 368.003 108.107 368.411 103.175C368.805 98.3678 368.869 93.5611 368.856 88.7371C368.835 81.6046 368.462 74.4901 367.77 67.3989C367.289 62.4786 366.654 57.5616 365.809 52.6908C364.453 44.9268 362.781 37.2396 360.115 29.8012C359.056 26.8483 358.024 23.8474 356.334 21.1783C354.567 18.3997 351.383 17.7647 348.544 19.4366C346.278 20.7676 344.383 22.5472 342.645 24.4918C337.728 29.974 333.614 36.0498 329.742 42.2845C326.445 47.5797 323.389 53.0184 320.629 58.6121C320.341 59.1931 320.052 59.3292 319.438 59.2281C314.71 58.4525 310.004 57.5602 305.242 57.0555C301.4 56.6449 297.544 56.3581 293.684 56.1252C287.92 55.7778 282.158 55.7526 276.383 55.7742C275.011 55.7821 273.632 55.8135 272.257 55.8906C268.284 56.1033 264.317 56.3077 260.348 56.5738C258.37 56.7025 256.394 56.9538 254.416 57.1822C253.816 57.2566 253.574 57.0901 253.384 56.4902C250.71 47.7943 247.15 39.4545 243.076 31.3362C241.075 27.3549 239.05 23.3524 236.029 19.9902C234.051 17.7946 231.571 17.0316 229.191 17.9567C227.483 18.618 226.272 19.8952 225.254 21.4038C222.263 25.8406 220.237 30.7748 218.011 35.6009C216.057 39.8471 214.207 44.1471 212.744 48.5955C212.116 50.5129 211.544 52.4493 211.042 54.4036C209.326 61.0642 207.092 67.5784 205.508 74.2677C203.542 82.5574 201.529 90.8352 200.186 99.256C199.838 101.422 199.49 103.595 199.18 105.765C199.078 106.478 198.877 106.769 198.091 106.504C196.376 105.923 194.619 105.606 192.777 105.794C190.256 106.047 188.121 107.706 187.4 110.121C186.598 112.803 186.604 115.518 186.989 118.274C187.341 120.795 187.859 123.266 188.663 125.678C188.889 126.352 188.56 126.475 187.989 126.432C186.068 126.281 184.215 126.531 182.447 127.327C179.699 128.57 178.561 130.847 178.423 133.695C178.225 137.814 179.6 141.534 181.451 145.142C184.025 150.156 187.452 154.547 191.128 158.79C193.339 161.337 195.57 163.851 198.107 166.037C203.369 170.563 208.746 174.981 215.174 177.827C219.019 179.534 223.102 180.51 227.206 181.346C234.548 182.837 241.988 183.561 249.438 184.222C254.387 184.66 259.344 184.997 264.311 185.264C268.393 185.481 272.48 185.567 276.564 185.714C282.24 185.915 287.919 185.854 293.6 185.908C295.703 185.924 297.818 185.892 299.923 185.831C304.507 185.689 309.088 185.701 313.665 185.452C316.774 185.279 319.891 185.213 323.09 185.103L323.096 185.087Z" fill="url(#paint12_linear_8062_3072)"/>
<path d="M349.054 164.641C349.967 165.273 350.919 165.387 351.892 164.841C352.887 164.285 353.221 163.394 353.094 162.283C352.97 161.211 352.382 160.617 351.395 160.129C349.08 158.986 338.523 152.751 334.842 150.557C334.04 150.078 333.229 149.892 332.322 150.288C330.693 150.989 330.318 153.111 331.661 154.271C332.798 155.247 348.651 164.379 349.048 164.657L349.054 164.641Z" fill="#E3D3BF"/>
<path d="M219.839 140.115C220.991 140.353 222.335 139.841 222.715 138.74C223.178 137.409 222.494 136.132 221.497 135.706C219.303 134.769 209.045 130.307 203.589 127.974C201.982 127.286 200.427 128.151 200.128 129.837C199.937 130.909 200.536 131.97 201.655 132.48C204.359 133.694 207.055 134.902 209.772 136.084C211.896 137.011 218.6 139.86 219.831 140.123L219.839 140.115Z" fill="#E3D3BF"/>
<path d="M222.403 152.163C222.973 151.876 223.322 151.406 223.611 150.84C224.434 149.184 222.723 146.862 220.702 147.554C217.649 148.597 208.372 153.415 203.53 156.33C201.935 157.289 201.903 158.956 202.48 159.935C203.199 161.163 204.874 161.41 206.208 160.561C206.905 160.119 217.699 154.561 222.403 152.163Z" fill="#E3D3BF"/>
<path d="M355.076 135.889C356.487 135.249 357.272 133.919 356.779 132.628C356.24 131.225 354.883 130.702 353.304 131.255C348.869 132.813 338.151 137.429 336.535 138.099C332.812 139.643 335.383 143.966 338.353 142.722C340.832 141.69 351.824 137.361 355.083 135.881L355.076 135.889Z" fill="#E3D3BF"/>
<path d="M277.691 152.525C283.786 151.736 283.02 148.6 282.871 148.343C281.406 145.918 279.179 147.683 276.898 147.957C274.259 148.272 271.996 147.746 269.924 146.156C268.698 145.217 267.828 143.286 266.386 143.176C265.074 143.072 264.136 144.299 263.24 144.847C260.199 146.703 257.065 147.161 253.885 145.114C251.97 143.881 248.998 146.468 251.151 148.65C252.8 150.325 260.087 152.848 265.857 148.446C267.717 150.497 269.862 153.095 277.691 152.525Z" fill="#744D43"/>
<path d="M240.728 109.69C238.719 109.606 236.716 109.484 234.709 109.522C234.273 109.531 233.835 109.532 233.314 109.54C233.517 110 233.973 110.266 234.349 110.377C255.535 116.566 252.807 148.216 290.036 127.378C296.994 123.489 308.618 115.524 312.696 114.321C313.274 114.149 313.833 113.917 314.409 113.721C314.709 113.623 314.902 113.44 314.87 113.105C314.83 112.762 314.507 112.755 314.284 112.741C313.134 112.648 311.985 112.563 310.83 112.509C307.228 112.342 243.697 109.811 240.719 109.683L240.728 109.69Z" fill="url(#paint13_linear_8062_3072)"/>
<path d="M273.541 132.614C272.938 130.441 267.946 128.887 264.026 129.518C262.017 129.84 261.211 131.31 261.815 133.284C262.48 135.46 263.785 136.96 265.462 138.488C265.881 138.871 266.392 139.049 266.989 138.921C269.308 138.43 271.278 137.351 272.744 135.464C273.319 134.724 273.831 133.651 273.548 132.613L273.541 132.614Z" fill="url(#paint14_linear_8062_3072)"/>
<path d="M234.725 129.12C237.458 132.411 241.325 132.314 244.132 130.736C246.94 129.158 250.051 126.684 250.532 113.494C250.556 112.763 250.548 112.027 250.556 111.29C250.567 110.492 250.222 110.187 249.379 110.195C249.379 110.195 234.451 109.656 233.843 109.838C233.234 110.02 233.082 110.461 233.012 110.972C232.643 113.584 232.249 116.19 232.256 118.913C232.275 123.069 232.893 126.921 234.726 129.127L234.725 129.12Z" fill="#362925"/>
<path d="M312.885 127.241C314.234 123.537 314.45 119.655 314.589 115.764C314.617 115.002 314.608 114.236 314.598 113.469C314.594 112.787 314.259 112.504 313.562 112.517C313.562 112.517 304.588 112.426 300.103 112.247C297.441 112.141 297.44 112.126 297.082 114.683C296.661 117.652 296.326 120.63 296.529 123.637C296.913 129.224 299.712 133.945 304.172 134.096C309.623 134.275 311.779 130.274 312.893 127.24L312.885 127.241Z" fill="#362925"/>
<path d="M221.993 82.2731C222.168 82.5748 252.594 105.573 252.594 105.573C253.235 106.056 254.067 106.003 254.737 105.41C255.365 104.858 257.88 98.952 258.792 94.6206C259.089 93.2258 258.812 92.6784 257.408 92.2514C245.984 88.7569 234.561 85.2623 223.13 81.7684C222.785 81.6631 222.335 81.3814 222.027 81.7874C221.936 81.909 221.888 82.0966 221.993 82.2807L221.993 82.2731Z" fill="#91695F"/>
<path d="M296.119 95.3614C293.36 95.3936 297.637 105.254 298.736 107.697C299.422 109.22 299.845 109.335 301.305 108.538C310.483 103.521 331.642 91.9691 333.649 90.8794C333.811 90.7908 333.99 90.7241 334.12 90.6073C334.35 90.3987 334.843 90.3168 334.705 89.8973C334.559 89.4783 334.135 89.655 333.824 89.7006C331.873 89.9808 297.3 95.3521 296.127 95.3685L296.119 95.3614Z" fill="#91695F"/>
<path d="M255.696 102.67C255.74 102.644 255.782 102.58 255.823 102.516C255.799 102.502 255.775 102.488 255.751 102.475C255.732 102.53 255.712 102.577 255.697 102.678L255.696 102.67Z" fill="#9D7970"/>
<path d="M255.703 102.762C255.659 102.788 255.618 102.852 255.577 102.924C255.601 102.938 255.625 102.952 255.649 102.965C255.668 102.91 255.687 102.863 255.703 102.762Z" fill="#9D7970"/>
<path d="M320.152 59.3301C320.152 59.3301 332.318 63.9672 341.595 69.3823C355.798 77.6529 368.206 91.93 368.79 92.2634C368.976 84.065 368.61 75.8837 367.786 67.7282C367.196 61.8338 366.408 55.9616 365.315 50.1269C364.118 43.6938 362.635 37.3428 360.579 31.1257C359.595 28.1367 358.493 25.2329 356.948 22.2387C353.777 16.0874 348.71 18.9801 347.351 20.015C344.452 22.2359 342.144 24.8893 339.887 27.7002C333.734 35.3743 328.62 43.7321 323.868 52.3244C322.601 54.6183 320.143 59.3231 320.143 59.3231L320.152 59.3301Z" fill="url(#paint15_linear_8062_3072)"/>
<path d="M203.574 82.6858C203.574 82.6858 210.117 76.7783 214.992 73.2475C222.272 67.9844 231.241 63.5954 236.319 61.9062C247.344 58.2421 253.224 57.4534 253.603 57.2877C251.633 50.5581 249.015 44.1057 246.151 37.7479C243.635 32.1702 240.934 26.6828 237.408 21.6543C236.543 20.4209 235.549 19.3043 234.24 18.5021C230.16 15.984 227.067 18.7023 225.281 21.3561C216.113 35.026 213.794 44.5841 209.882 57.0121C208.161 62.461 207.002 68.1299 205.649 73.6824C204.922 76.6503 203.559 82.6869 203.559 82.6869L203.574 82.6858Z" fill="url(#paint16_linear_8062_3072)"/>
<path opacity="0.93" d="M368.05 70.4078C368.05 70.4078 365.507 45.2865 361.162 31.4348C359.533 26.2375 357.508 21.184 356.708 15.7882C355.965 10.7412 354.808 11.6002 352.711 13.8778C348.872 18.0389 347.256 19.4453 343.787 23.2112C342.82 24.2635 340.267 27.2339 340.267 27.2339C340.267 27.2339 343.843 30.1953 346.696 35.8864C352.871 48.2089 368.042 70.4007 368.042 70.4007L368.05 70.4078Z" fill="#534643"/>
<path d="M211.63 50.8922C210.601 53.9281 209.026 60.0032 209.026 60.0032C209.026 60.0032 214.116 54.6924 217.839 50.4094C221.151 46.5935 225.034 43.3421 228.552 39.726C232.478 35.6967 235.278 33.2759 237.914 28.2972C238.906 26.4224 239.31 24.3908 239.31 24.3908C239.31 24.3908 234.15 14.2038 232.072 10.9568C231.284 9.72548 229.903 9.81843 228.992 11.1045C227.796 12.8101 226.904 14.6777 226.037 16.5665C223.213 22.7632 220.325 28.9262 217.556 35.1495C215.335 40.1439 213.437 45.2682 211.768 50.4679C211.731 50.5857 211.685 50.6964 211.621 50.8775L211.63 50.8922Z" fill="#534643"/>
<g filter="url(#filter1_d_8062_3072)">
<path d="M283.287 270.44C278.947 270.357 274.78 269.605 270.697 268.425C264.863 266.738 259.591 264.032 255.615 259.311C251.926 254.935 249.385 250.015 249.067 244.151C248.734 238.039 250.986 233.005 255.283 228.749C260.413 223.669 266.613 220.676 273.624 219.407C277.552 218.7 281.538 218.309 285.516 217.881C291.214 217.264 296.889 216.57 302.426 215.01C312.799 212.067 321.162 206.235 327.594 197.599C329.908 194.494 332.173 191.35 334.56 188.303C336.681 185.594 339.278 183.421 342.518 182.133C348.138 179.903 353.091 181.014 357.249 185.418C362.702 191.203 364.634 198.218 364.346 205.963C364.204 209.712 363.232 213.29 361.949 216.821C359.849 222.613 356.606 227.729 352.997 232.64C348.629 238.583 343.767 244.107 338.281 249.054C332.156 254.58 325.531 259.401 318.048 262.959C307.884 267.781 297.183 270.362 285.914 270.489C285.062 270.5 284.215 270.463 283.301 270.446L283.287 270.44Z" fill="url(#paint17_linear_8062_3072)"/>
</g>
<path d="M250.276 250.288C253.341 250.159 256.528 250.201 259.585 250.068C262.364 249.945 265.138 249.703 267.914 249.495C269.064 249.41 270.329 250.056 270.797 251.02C271.227 251.918 271.068 253.077 270.256 253.761C269.818 254.13 269.208 254.473 268.656 254.518C264.947 254.809 261.235 255.031 257.519 255.244C256.036 255.33 254.305 255.356 252.774 255.438C251.866 253.804 250.863 252.327 250.283 250.292L250.276 250.288Z" fill="#A47F74"/>
<path d="M250.844 234.852C255.825 234.597 260.754 234.419 265.679 234.214C266.781 234.165 267.71 234.429 268.408 235.322C269.488 236.7 268.508 239.104 266.781 239.215C262.588 239.472 258.378 239.639 254.182 239.812C252.609 239.875 249.244 240.045 249.244 240.045C249.244 240.045 249.846 236.849 250.844 234.852Z" fill="#A37F74"/>
<path d="M192.768 96.0293L192.17 103.142L191.571 110.255L198.684 110.853L198.086 117.965L205.199 118.563L204.601 125.676L211.713 126.274L211.115 133.387L218.228 133.985L225.34 134.583L232.453 135.181L239.566 135.779L246.678 136.377L247.277 129.265L254.389 129.863L254.987 122.75L262.1 123.348L262.698 116.235L263.296 109.123L270.409 109.721L277.521 110.319L276.923 117.432L276.325 124.544L283.438 125.142L282.84 132.255L289.953 132.853L289.354 139.966L296.467 140.564L303.58 141.162L310.692 141.76L317.805 142.358L324.918 142.956L325.516 135.843L332.628 136.441L333.227 129.329L340.339 129.927L340.937 122.814L348.05 123.412L348.648 116.3L349.246 109.187L342.133 108.589L335.021 107.991L327.908 107.393L320.795 106.795L313.683 106.197L306.57 105.599L299.457 105L292.345 104.402L285.232 103.804L278.119 103.206L271.007 102.608L263.894 102.01L256.782 101.412L249.669 100.814L242.556 100.216L235.444 99.6178L228.331 99.0197L221.218 98.4216L214.106 97.8235L206.993 97.2255L199.88 96.6274L192.768 96.0293Z" fill="#2B2E27"/>
<path d="M241.958 107.329L234.845 106.73L234.247 113.843L241.36 114.441L241.958 107.329Z" fill="#9EA1A8"/>
<path d="M256.183 108.525L249.071 107.927L248.473 115.039L255.585 115.637L256.183 108.525Z" fill="#9EA1A8"/>
<path d="M320.197 113.908L313.085 113.31L312.487 120.422L319.599 121.02L320.197 113.908Z" fill="#9EA1A8"/>
<path d="M334.423 115.104L327.31 114.506L326.712 121.619L333.825 122.217L334.423 115.104Z" fill="#9EA1A8"/>
<path d="M234.247 113.843L227.135 113.245L226.537 120.358L233.649 120.956L234.247 113.843Z" fill="#9EA1A8"/>
<path d="M248.473 115.039L241.36 114.441L240.762 121.554L247.875 122.152L248.473 115.039Z" fill="#9EA1A8"/>
<path d="M312.487 120.422L305.374 119.824L304.776 126.937L311.888 127.535L312.487 120.422Z" fill="#9EA1A8"/>
<path d="M326.712 121.618L319.599 121.02L319.001 128.132L326.114 128.73L326.712 121.618Z" fill="#9EA1A8"/>
<path d="M226.537 120.358L219.424 119.76L218.826 126.872L225.939 127.471L226.537 120.358Z" fill="#9EA1A8"/>
<path d="M240.762 121.554L233.649 120.956L233.051 128.069L240.164 128.667L240.762 121.554Z" fill="#9EA1A8"/>
<path d="M304.776 126.937L297.663 126.339L297.065 133.452L304.178 134.05L304.776 126.937Z" fill="#9EA1A8"/>
<path d="M319.001 128.132L311.889 127.534L311.29 134.647L318.403 135.245L319.001 128.132Z" fill="#9EA1A8"/>
<path d="M275.078 333.64C277.781 325.486 270.641 321.95 262.065 322.478C255.369 322.892 249.142 325.038 243.045 327.669C237.806 329.933 232.769 332.593 227.772 335.328C221.524 338.745 215.277 342.173 209.091 345.7C206.945 346.919 206.032 349.715 206.867 352.333C208.397 357.113 212.115 356.615 215.015 356.298C216.821 356.105 232.055 353.897 240.253 352.345C247.258 351.014 254.208 349.448 260.735 346.462C263.776 345.072 266.684 343.438 269.296 341.331C270.555 340.309 273.725 337.706 275.074 333.646L275.078 333.64Z" fill="url(#paint18_linear_8062_3072)"/>
<path d="M249.577 350.311C257.212 348.488 266.472 344.349 270.956 339.878C274.242 336.603 277.194 331.981 274.983 327.32C273.495 324.181 268.845 321.843 261.414 322.516C255.456 323.057 249.28 324.792 244.308 327.126C242.518 328.617 239.393 333.404 238.555 336.487C237.491 340.396 238.965 344.522 242.344 346.969C244.472 348.506 246.802 350.177 249.571 350.306L249.577 350.311Z" fill="url(#paint19_linear_8062_3072)"/>
<path d="M152.849 263.972C152.357 270.944 146.647 274.914 139.225 274.527C137.624 274.446 136.003 274.25 134.458 273.858C111.481 268.095 103.429 257.944 99.3446 253.06C92.5478 244.932 93.6862 235.901 93.7055 235.708C94.0849 230.271 96.6859 225.909 100.552 222.206C101.152 221.63 101.235 221.29 100.871 220.6C99.7486 218.46 99.6897 216.171 100.151 213.866C100.637 211.477 104.249 207.215 111.085 213.214C113.693 215.501 115.642 218.276 117.417 221.204C117.581 221.471 117.753 221.738 117.925 222.019C118.585 221.379 119.141 220.764 119.785 220.249C120.45 219.719 121.164 219.221 121.926 218.844C125.421 217.133 129.023 219.095 129.455 222.925C129.657 224.687 129.414 226.413 128.628 227.977C127.829 229.563 126.796 231.036 125.899 232.578C125.75 232.832 125.645 233.296 125.772 233.496C127.245 235.709 128.611 238.023 130.312 240.062C133.707 244.133 137.743 247.592 142.398 250.146C146.292 252.28 153.303 257.53 152.849 263.972Z" fill="#A06E68"/>
<path d="M93.6637 239.03C93.9353 239.203 95.9084 242.053 97.6444 243.143C100.945 245.221 104.92 244.608 107.45 241.635C110.204 238.392 110.405 233.793 107.923 230.279C104.686 225.687 99.3331 224.186 98.818 224.003C99.5566 223.106 100.166 222.743 101.05 221.511C101.838 221.757 110.177 223.243 112.758 232.482C114.596 239.064 110.839 245.734 104.248 247.512C101.592 248.233 99.0183 247.852 96.5993 246.551C96.1155 246.291 95.657 245.975 95.1358 245.655C94.3256 243.818 93.7119 239.81 93.677 239.016L93.6637 239.03Z" fill="#C68D83"/>
<path d="M119.274 350.422C118.532 345.643 118.126 340.904 118.076 336.132C118.064 334.799 118.02 333.461 117.783 332.145C117.503 330.596 116.666 329.869 115.104 329.845C113.889 329.824 112.729 330.028 111.584 330.564C107.766 332.348 103.907 334.038 100.064 335.764C95.9343 337.613 91.6628 338.321 87.1259 337.727C80.6485 336.871 71.1952 342.836 78.6069 357.258C81.2441 362.389 84.8481 366.749 89.1454 370.592C93.1531 374.179 97.4682 374.732 102.259 372.487C105.673 370.886 112.527 367.37 119.405 368.778C122.528 369.418 123.534 368.207 122.692 365.103C121.389 360.274 120.052 355.45 119.272 350.433L119.274 350.422Z" fill="url(#paint20_linear_8062_3072)"/>
<path d="M117.679 366.092C114.926 363.73 112.637 360.922 110.745 357.87C108.183 353.736 106.412 349.29 105.723 344.479C105.19 340.748 104.903 337.003 105.445 333.268C105.788 330.903 106.31 328.561 106.825 326.225C107.73 322.143 109.22 318.242 111.056 314.485C112.956 310.604 115.227 306.931 117.856 303.468C121.047 299.27 124.756 295.56 128.774 292.121C130.958 290.254 133.296 288.551 135.358 286.575C137.924 284.112 140.472 281.581 141.94 278.263C142.839 276.24 143.392 274.133 143.584 271.939C143.737 270.201 143.816 268.46 143.954 266.727C144.077 265.221 144.348 263.716 144.348 262.215C144.343 259.877 144.571 257.615 145.244 255.359C146.429 251.411 148.884 248.558 152.702 246.904C154.35 246.191 156.144 245.807 157.876 245.276C164.805 243.146 171.919 242.851 179.188 243.446C180.719 243.574 186.575 244.484 187.699 244.723C190.31 245.275 192.94 245.737 195.513 246.423C198.988 247.344 202.452 248.35 205.858 249.487C222.319 254.969 227.477 256.736 230.061 275.598C230.885 281.652 231.308 287.719 230.937 293.82C230.742 297.015 230.628 300.213 230.294 303.389C229.973 306.468 229.477 309.538 228.942 312.596C228.429 315.538 227.829 318.475 227.151 321.383C226.444 324.418 225.734 327.466 224.779 330.429C223.265 335.137 221.699 339.831 219.881 344.427C217.111 351.453 213.093 357.789 208.117 363.539C204.606 367.597 200.588 371.088 195.954 373.913C192.841 375.811 189.588 377.427 186.114 378.566C180.381 380.444 174.478 381.655 168.412 381.988C164.845 382.187 136.09 381.905 117.659 366.089L117.679 366.092Z" fill="url(#paint21_linear_8062_3072)"/>
<g filter="url(#filter2_d_8062_3072)">
<path d="M177.869 261.959C184.943 262.817 192.007 263.963 199.133 264.055C212.93 264.235 223.379 260.736 232.678 251.122C235.179 248.536 237.377 245.714 238.987 242.488C240.597 239.263 241.779 234.488 242.058 233.172C242.763 229.831 243.339 224.08 242.584 219.52C242.303 217.816 242.014 216.11 241.617 214.428C241.405 213.508 241.652 212.805 242.274 212.114C245.99 208.052 248.082 203.212 248.898 197.813C250.405 187.84 242.46 169.804 221.544 173.09C218.58 173.558 215.744 174.408 213.172 175.996C212.342 176.502 211.596 176.574 210.701 176.115C209.082 175.292 199.78 172.28 195.995 171.725C188.477 170.623 181.586 170.228 174.406 171.935C173.458 172.162 172.501 172.34 171.577 172.622C170.819 172.848 170.306 172.6 169.817 172.043C166.998 168.782 152.952 157.262 139.003 169.641C135.946 172.353 127.251 184.141 133.952 197.755C134.489 198.838 135.066 199.916 135.78 200.9C136.092 201.328 136.145 201.753 135.961 202.261C135.207 204.278 134.591 206.335 133.844 208.355C133.14 210.252 131.79 216.643 131.486 217.881C130.67 221.254 129.955 224.631 130.325 228.135C130.722 231.899 132.169 235.275 134.135 238.459C137.712 244.246 142.679 248.693 148.095 252.644C151.159 254.878 155.63 256.74 158.346 257.59C163.12 259.079 173.861 261.491 177.865 261.974L177.869 261.959Z" fill="url(#paint22_linear_8062_3072)"/>
<g opacity="0.88">
<path d="M135.724 200.789C136.069 201.297 136.2 201.587 135.965 202.246C134.423 206.539 132.88 210.888 132.058 215.339C134.462 214.76 137.375 214.136 139.889 214.172C143.9 214.238 147.544 215.486 151.022 217.428C155.549 219.952 159.963 222.68 164.553 225.096C171.854 228.935 179.536 231.18 187.867 230.668C191.735 230.433 195.477 229.556 199.16 228.362C204.379 226.674 209.57 224.86 215.019 224.002C222.243 222.86 229.395 222.864 236.423 225.191C238.556 225.9 240.683 227.269 242.746 228.335C243.082 225.734 243.066 222.709 242.658 220.117C242.343 218.119 241.977 216.13 241.552 214.157C241.384 213.36 241.804 212.572 242.171 212.227C245.166 209.371 248.006 203.648 248.783 198.467C249.926 190.889 247.812 184.477 242.393 179.121C230.615 167.473 215.19 174.748 213.356 175.875C212.716 176.269 211.557 176.515 210.491 176.023C208.642 175.175 200.5 172.634 197.559 172.02C189.32 170.319 180.815 170.001 172.638 172.331C170.956 172.808 170.237 172.62 169.053 171.235C165.649 167.255 160.819 165.048 155.742 164.292C150.711 163.541 145.756 164.8 141.488 167.665C136.598 170.945 134.002 176.169 132.994 179.108C131.016 184.879 130.234 192.772 135.713 200.802L135.724 200.789Z" fill="url(#paint23_linear_8062_3072)"/>
</g>
<g opacity="0.59">
<path d="M135.724 200.789C136.069 201.297 136.2 201.587 135.965 202.246C134.423 206.539 132.88 210.888 132.058 215.339C134.462 214.76 137.375 214.136 139.889 214.172C143.9 214.238 147.544 215.486 151.022 217.428C155.549 219.952 159.963 222.68 164.553 225.096C171.854 228.935 179.536 231.18 187.867 230.668C191.735 230.433 195.477 229.556 199.16 228.362C204.379 226.674 209.57 224.86 215.019 224.002C222.243 222.86 229.395 222.864 236.423 225.191C238.556 225.9 240.683 227.269 242.746 228.335C243.082 225.734 243.066 222.709 242.658 220.117C242.343 218.119 241.977 216.13 241.552 214.157C241.384 213.36 241.804 212.572 242.171 212.227C245.166 209.371 248.006 203.648 248.783 198.467C249.926 190.889 247.812 184.477 242.393 179.121C230.615 167.473 215.19 174.748 213.356 175.875C212.716 176.269 211.557 176.515 210.491 176.023C208.642 175.175 200.5 172.634 197.559 172.02C189.32 170.319 180.815 170.001 172.638 172.331C170.956 172.808 170.237 172.62 169.053 171.235C165.649 167.255 160.819 165.048 155.742 164.292C150.711 163.541 145.756 164.8 141.488 167.665C136.598 170.945 134.002 176.169 132.994 179.108C131.016 184.879 130.234 192.772 135.713 200.802L135.724 200.789Z" fill="url(#paint24_linear_8062_3072)"/>
</g>
<path d="M211.943 226.89C206.658 226.533 202.576 229.522 201.461 233.976C200.395 238.231 202.132 242.25 205.716 244.624C208.867 246.717 212.253 247.127 215.829 245.808C221.193 243.83 223.014 237.029 220.82 232.565C219.654 230.2 217.194 227.254 211.95 226.892L211.943 226.89Z" fill="url(#paint25_linear_8062_3072)"/>
<path d="M140.249 224.983C137.141 229.597 139.167 235.874 144.088 238.455C148.117 240.569 152.58 240.07 155.8 237.286C158.682 234.8 159.655 230.763 158.237 227.205C155.524 220.402 146.829 218.446 141.464 223.428C140.993 223.862 140.638 224.392 140.242 224.981L140.249 224.983Z" fill="url(#paint26_linear_8062_3072)"/>
<path d="M165.7 237.803C167.258 238.482 169.021 238.493 169.406 238.5C171.454 238.561 173.483 238.444 175.306 237.384C176.041 236.962 176.548 237.035 177.239 237.547C180.298 239.827 183.822 240.497 187.558 240.225C188.549 240.151 189.103 239.394 188.983 238.484C188.885 237.747 188.231 237.356 187.266 237.421C185.025 237.565 182.841 237.229 180.782 236.345C179.46 235.78 178.41 234.756 177.21 233.871C176.87 233.625 176.263 233.429 175.258 234.137C172.814 235.856 170.135 235.987 167.378 235.172C166.387 234.883 165.048 234.518 164.66 235.41C164.543 235.684 164.514 235.786 164.534 236.076C164.584 236.902 165.094 237.52 165.69 237.784L165.7 237.803Z" fill="#864F4B"/>
<path d="M173.116 228.544C174.879 230.946 177.216 231.878 180.069 230.803C180.89 230.492 183.361 229.624 184.271 227.28C184.914 225.626 184.277 224.065 182.542 223.288C179.017 221.704 174.741 222.24 173.877 222.617C170.837 223.962 172.251 227.368 173.114 228.552L173.116 228.544Z" fill="#593B39"/>
<path d="M158.177 210.864C154.826 212.002 152.968 215.851 153.505 219.765C153.887 222.555 155.543 224.61 157.877 225.194C159.446 225.585 160.881 225.196 162.16 224.25C165.822 221.544 166.453 215.628 163.445 212.281C162.032 210.705 160.243 210.173 158.185 210.866L158.177 210.864Z" fill="#342723"/>
<path d="M193.396 226.275C193.968 228.149 195.074 229.559 196.923 230.242C198.556 230.848 200.097 230.56 201.532 229.674C205.281 227.356 206.313 221.253 203.573 217.849C201.573 215.365 198.192 215.083 195.844 217.294C193.246 219.75 192.338 222.836 193.389 226.273L193.396 226.275Z" fill="#342723"/>
<path d="M237.703 190.888C236.6 185.552 229.734 183.46 225.456 186.78C224.737 187.34 224.085 187.968 223.525 188.692C223.03 189.324 223.037 189.909 223.685 190.433C225.917 192.265 227.81 194.427 229.653 196.63C230.377 197.498 230.969 198.439 231.52 199.416C232.18 200.589 233.097 200.858 234.142 200.011C237.02 197.681 238.481 194.619 237.71 190.891L237.703 190.888Z" fill="#C7978A"/>
<path d="M145.445 188.472C146.706 188.278 148.091 186.29 149.404 185.164C151.319 183.531 153.491 182.271 155.49 180.757C156.758 179.792 156.893 179.01 155.822 177.839C154.041 175.89 152.031 174.333 149.166 174.647C143.834 175.231 142.329 180.032 142.221 180.522C141.69 183.005 142.175 185.351 143.623 187.166C144.135 187.808 144.791 188.578 145.445 188.472Z" fill="#C7978A"/>
</g>
<path d="M159.674 359.111C154.879 363.639 149.388 365.527 144.881 366.318C138.445 367.442 131.844 376 143.234 387.54C147.287 391.647 152.031 394.727 157.282 397.107C162.18 399.329 166.463 398.565 170.361 394.988C173.139 392.439 179.777 386.042 186.604 381.111C193.811 376.938 202.371 369.027 200.639 366.318C190.459 347.413 173.329 346.215 159.674 359.111Z" fill="url(#paint27_linear_8062_3072)"/>
<path d="M120.705 195.252L119.926 200.849L119.148 206.445L124.745 207.223L123.966 212.82L129.563 213.598L128.784 219.195L134.381 219.973L133.603 225.57L139.199 226.348L144.796 227.127L150.392 227.905L155.989 228.683L161.585 229.462L162.364 223.865L167.96 224.644L168.739 219.047L174.335 219.825L175.114 214.229L175.892 208.632L181.489 209.411L187.085 210.189L186.307 215.786L185.528 221.382L191.125 222.161L190.347 227.757L195.943 228.536L195.165 234.132L200.761 234.911L206.358 235.689L211.954 236.467L217.551 237.246L223.147 238.024L223.926 232.428L229.522 233.206L230.301 227.609L235.897 228.388L236.676 222.791L242.272 223.57L243.051 217.973L243.829 212.376L238.233 211.598L232.636 210.82L227.039 210.041L221.443 209.263L215.846 208.485L210.25 207.706L204.653 206.928L199.057 206.149L193.46 205.371L187.864 204.593L182.267 203.814L176.67 203.036L171.074 202.257L165.477 201.479L159.881 200.701L154.284 199.922L148.688 199.144L143.091 198.366L137.495 197.587L131.898 196.809L126.301 196.03L120.705 195.252Z" fill="#292C23"/>
<path d="M159.102 206.297L153.506 205.519L152.727 211.115L158.324 211.893L159.102 206.297Z" fill="#9EA1A8"/>
<path d="M170.295 207.854L164.699 207.075L163.92 212.672L169.517 213.45L170.295 207.854Z" fill="#9EA1A8"/>
<path d="M220.664 214.859L215.068 214.081L214.289 219.678L219.886 220.456L220.664 214.859Z" fill="#9EA1A8"/>
<path d="M231.858 216.416L226.261 215.638L225.483 221.234L231.079 222.013L231.858 216.416Z" fill="#9EA1A8"/>
<path d="M152.727 211.115L147.131 210.337L146.352 215.933L151.949 216.712L152.727 211.115Z" fill="#9EA1A8"/>
<path d="M163.921 212.672L158.324 211.894L157.546 217.49L163.142 218.268L163.921 212.672Z" fill="#9EA1A8"/>
<path d="M214.29 219.678L208.693 218.899L207.915 224.496L213.511 225.274L214.29 219.678Z" fill="#9EA1A8"/>
<path d="M225.483 221.234L219.886 220.456L219.108 226.053L224.704 226.831L225.483 221.234Z" fill="#9EA1A8"/>
<path d="M146.352 215.934L140.756 215.155L139.977 220.752L145.574 221.53L146.352 215.934Z" fill="#9EA1A8"/>
<path d="M157.546 217.49L151.949 216.712L151.171 222.308L156.767 223.087L157.546 217.49Z" fill="#9EA1A8"/>
<path d="M207.915 224.496L202.318 223.718L201.54 229.314L207.136 230.093L207.915 224.496Z" fill="#9EA1A8"/>
<path d="M219.108 226.053L213.511 225.274L212.733 230.871L218.329 231.649L219.108 226.053Z" fill="#9EA1A8"/>
<path d="M482.025 273.64C475.516 275.704 469.533 278.765 463.985 282.418C458.665 285.922 453.939 289.967 449.572 294.346C447.486 296.443 445.489 298.603 443.651 300.847C440.21 305.059 437.081 309.439 434.497 314.094C430.171 321.881 427.125 330.003 426.489 338.556C425.846 347.153 428.506 354.966 429.543 358.213C430.469 361.107 432.479 363.249 435.118 365.075C440.66 368.907 447.12 370.914 454.077 371.923C458.762 372.605 463.501 372.83 468.276 372.663C473.381 372.483 482.612 370.521 483.317 370.341C488.464 369.055 493.218 367.036 497.688 364.464C502.87 361.48 507.374 357.828 511.382 353.738C516.356 348.658 520.364 343.044 523.687 337.064C527.218 330.704 529.587 324.023 531.709 317.264C533.332 312.094 534.894 306.905 537.146 301.883C539.074 297.581 541.941 293.8 545.485 290.372C546.812 289.086 548.36 287.993 549.804 286.816C552.346 284.739 555.172 282.026 553.044 279.396C551.49 277.473 548.132 274.727 544.795 273.312C536.946 269.981 528.572 268.162 519.776 268.181C501.992 268.219 492.513 270.303 482.018 273.634L482.025 273.64Z" fill="url(#paint28_linear_8062_3072)"/>
<path d="M481.244 274.198C479.102 277.877 476.939 281.478 474.859 285.111C473.333 287.786 471.84 290.493 471.039 293.406C470.293 296.113 471.363 297.644 474.473 298.287C477.409 298.898 486.633 298.808 490.896 298.493C491.034 298.48 491.172 298.505 491.393 298.512C490.481 300.306 489.555 302.023 488.726 303.765C487.4 306.543 486.08 309.334 485.334 312.273C485.106 313.186 484.975 314.099 485.078 315.032C485.486 318.748 490.198 318.446 493.86 318.375C499.891 318.26 505.916 317.957 511.934 317.501C512.549 317.456 512.673 317.585 512.646 318.112C512.39 322.652 512.162 327.192 511.941 331.731C511.865 333.378 511.858 335.017 512.065 336.651C512.397 339.255 513.979 340.625 516.992 340.959C518.339 341.107 519.859 341.165 521.255 340.901C522.042 340.753 524.357 335.982 525.752 333.108C528.233 328.015 529.967 322.735 531.66 317.443C533.318 312.254 534.866 307.039 537.118 301.984C539.032 297.682 541.878 293.882 545.423 290.448C546.77 289.143 548.366 288.056 549.803 286.828C550.57 286.172 554.356 283.445 553.997 281.497C553.921 281.072 553.548 277.356 546.528 274.089C538.583 270.391 529.967 268.591 520.868 268.244C510.11 267.832 502.199 269.041 498.62 269.691C497.826 269.838 493.535 270.52 490.529 271.131C487.607 271.729 484.823 272.674 482.031 273.613C481.72 273.716 481.437 273.864 481.25 274.198H481.244Z" fill="url(#paint29_linear_8062_3072)"/>
<path d="M340.837 287.555C338.72 287.886 336.607 288.354 334.475 288.52C328.302 289.006 322.278 287.962 316.317 286.454C310.646 285.021 305.064 283.293 299.733 280.891C296.158 279.281 292.686 277.395 289.275 275.454C284.311 272.632 279.609 269.417 275.911 264.967C274.311 263.041 273.316 260.953 274.3 258.368C274.84 256.947 275.851 255.945 276.936 254.964C279.132 252.967 281.315 250.959 283.434 248.886C285.311 247.053 286.074 244.57 287.019 242.219C287.313 241.487 287.475 240.708 287.812 240.001C288.686 238.182 290.375 237.504 292.598 238.286C294.814 239.072 296.941 240.112 299.13 240.997C303.207 242.64 307.44 243.279 311.843 243.137C318.269 242.928 324.633 242.221 330.984 241.228C334.681 240.651 338.428 240.201 342.167 240.047C348.593 239.773 353.555 242.399 356.71 248.133C356.788 248.274 358.556 251.307 359.157 255.296C360.299 262.956 359.231 269.023 354.748 276.671C350.664 283.645 341.212 287.515 340.843 287.569L340.837 287.555Z" fill="url(#paint30_linear_8062_3072)"/>
<path d="M298.539 237.264C298.495 237.443 298.468 237.625 298.471 237.802C298.498 241.087 297.591 244.146 296.203 247.075C293.174 253.478 288.115 257.787 281.854 260.82C278.161 262.607 274.33 263.659 270.173 263.047C267.992 262.728 266.155 261.893 265.017 259.918C264.674 259.327 264.261 259.226 263.608 259.243C258.338 259.371 254.082 257.537 251.256 252.864C244.822 242.209 250.596 232.075 257.68 225.852C257.807 225.738 257.899 225.597 258.021 225.451C257.762 225.202 257.543 224.994 257.332 224.783C254.993 222.418 253.151 219.739 252.389 216.447C251.771 213.757 253.531 210.929 254.984 209.976C256.892 208.725 260.119 207.289 267.15 210.302C272.521 212.6 277.118 216.027 281.257 220.102C281.809 220.645 282.365 221.178 283.002 221.794C283.162 221.073 283.733 217.777 286.104 215.623C288.595 213.358 291.759 213.378 294.447 215.404C297.309 217.566 301.689 224.071 298.529 237.259L298.539 237.264Z" fill="#3F302B"/>
<path d="M252.098 232.193C253.368 230.262 255.71 227.403 258.024 225.458C266.851 222.708 278.078 221.365 283.829 228.868C286.947 232.932 287.241 237.495 285.789 242.255C285.064 244.65 283.955 246.869 282.467 248.909C282.329 247.523 281.549 246.621 280.468 245.909C281.807 243.275 283.015 240.595 283.046 237.565C283.076 233.649 281.25 230.045 277.418 228.258C274.517 226.899 271.517 226.523 268.389 226.807C264.739 227.129 261.197 227.939 257.877 229.492C255.97 230.385 254.025 231.162 252.103 232.207L252.098 232.193Z" fill="#795456"/>
<path d="M280.475 245.906C281.609 246.63 282.389 247.467 282.488 248.901C282.126 249.521 281.681 250.116 281.179 250.668C280.193 250.79 279.342 250.883 278.607 250.224C278.397 250.037 278.092 249.943 277.829 249.809C277.614 249.527 277.448 249.184 277.175 248.981C274.142 246.714 271.012 244.598 267.326 243.479C266.127 243.113 265.516 242.146 265.701 241.09C265.892 240.007 266.76 239.411 268.08 239.543C273.243 240.042 280.247 245.823 280.477 245.913L280.475 245.906Z" fill="#7C5658"/>
<path d="M277.819 249.805C278.136 249.91 278.384 250.025 278.598 250.219C279.333 250.878 281.219 250.645 281.219 250.645C281.219 250.645 278.492 253.856 276.958 255.189C271.932 259.583 266.799 260.781 265.869 261.068C265.739 261.069 264.563 259.418 264.563 259.418C264.563 259.418 259.347 259.37 257.648 258.344C260.981 258.087 267.953 258.781 275.945 251.563C276.549 251.02 277.17 250.398 277.809 249.801L277.819 249.805Z" fill="#795556"/>
<path d="M291.11 374.132C291.568 376.022 292.255 380.404 303.14 387.488C306.387 389.605 309.845 391.418 313.442 393.035C318.1 395.132 323.121 395.673 328.391 395.02C329.845 394.841 331.543 395.094 337.07 392.616C340.35 391.145 342.321 389.817 344.554 387.884C346.632 386.092 348.354 384.012 350.334 382.139C352.32 380.258 354.562 378.659 356.825 377.075C357.563 376.554 358.249 375.998 358.689 375.223C359.316 374.114 359.255 373.034 358.947 371.919C358.168 369.123 357.008 366.529 355.315 364.101C352.275 359.742 348.426 356.129 343.77 353.219C341.078 351.529 338.125 350.202 335.059 349.128C332.598 348.269 329.993 348.272 327.229 348.864C326.912 348.93 326.658 348.984 326.331 349.096C324.345 349.77 322.913 351.12 321.453 352.376C319.055 354.439 316.61 356.457 313.934 358.223C311.978 359.517 309.831 360.284 307.525 360.739C303.541 361.527 299.641 362.569 296.304 365C294.25 366.492 292.444 368.151 291.438 370.405C290.894 371.629 290.794 372.829 291.118 374.13L291.11 374.132Z" fill="#3F2E29"/>
<path d="M290.964 373.289C290.974 373.813 291.173 376.044 292.675 378.053C293.018 377.665 293.7 377.125 294.152 376.799C295.828 375.581 297.791 374.665 299.833 374.15C301.143 373.817 302.511 373.679 303.781 373.212C305.05 372.744 305.701 371.796 305.715 371.214C305.737 369.971 304.639 369.012 303.329 369.015C300.904 369.016 298.564 369.547 296.292 370.446C294.71 371.072 291.536 372.789 290.966 373.296L290.964 373.289Z" fill="#795456"/>
<path d="M298.823 384.423C300.087 385.582 301.732 386.641 303.292 387.587C305.053 386.761 307.008 385.627 308.732 384.841C310.029 384.249 311.285 383.764 312.607 382.922C313.205 382.539 313.608 381.994 313.74 381.53C314.113 380.204 312.818 379.106 311.416 379.13C307.911 379.19 299.267 384.181 298.821 384.416L298.823 384.423Z" fill="#795556"/>
<path d="M320.077 342.944C319.911 340.025 319.87 336.295 320.132 334.096C323.117 309.062 338.967 249.471 341.122 249.233C349.358 248.32 357.442 247.934 365.602 248.539C388.174 250.095 411.022 252.011 433.602 250.018C440.594 278.955 459.677 328.508 445.423 356.564C436.538 374.209 413.835 374.492 396.112 375.205C376.76 375.984 357.172 373.675 338.02 369.103C325.819 366.19 320.685 353.625 320.077 342.944Z" fill="url(#paint31_linear_8062_3072)"/>
<g filter="url(#filter3_d_8062_3072)">
<path d="M320.077 342.944C319.911 340.025 319.87 336.295 320.132 334.096C323.117 309.062 338.967 249.471 341.122 249.233C349.358 248.32 357.442 247.934 365.602 248.539C388.174 250.095 411.022 252.011 433.602 250.018C440.594 278.955 459.677 328.508 445.423 356.564C436.538 374.209 413.835 374.492 396.112 375.205C376.76 375.984 357.172 373.675 338.02 369.103C325.819 366.19 320.685 353.625 320.077 342.944Z" fill="url(#paint32_radial_8062_3072)"/>
</g>
<g filter="url(#filter4_d_8062_3072)">
<path d="M360.62 323.43C361.864 323.353 366.769 322.337 373.63 316.691C379.123 312.17 384.394 307.437 389.293 302.351C391.131 300.441 392.907 298.473 394.565 296.422C395.912 294.757 397.239 293.072 398.565 291.393C398.842 291.04 399.111 290.757 399.602 291.143C401.882 292.905 404.258 292.506 406.587 291.297C409.06 290.011 411.181 288.275 413.233 286.468C416.792 283.33 420.06 279.954 422.803 276.173C426.692 270.797 429.028 264.932 429.055 258.367C429.076 253.145 426.188 251.705 423.853 252.341C421.517 252.978 419.286 253.795 416.964 254.425C412.612 255.602 408.155 256.2 403.657 256.566C394.53 257.312 385.514 256.367 376.553 254.881C370.099 253.814 363.708 252.451 357.283 251.261C353.359 250.534 349.406 249.994 345.399 249.956C344.1 249.943 342.822 250.168 341.565 250.431C339.706 250.83 338.476 251.994 337.516 253.467C332.59 261.042 329.128 269.105 328.161 277.992C327.656 282.629 328.7 291.31 329.798 294.519C331.291 298.878 333.412 302.904 336.818 306.273C338.227 307.669 339.775 308.891 341.689 309.656C343.63 310.434 345.475 310.498 347.154 309.096C347.783 308.569 347.907 309.09 348.073 309.489C349.317 312.492 350.809 315.379 352.557 318.157C353.227 319.218 354.001 320.215 354.934 321.102C356.475 322.575 358.229 323.591 360.613 323.443L360.62 323.43Z" fill="url(#paint33_linear_8062_3072)"/>
</g>
<g filter="url(#filter5_d_8062_3072)">
<path d="M293.444 219.868C293.076 220.984 292.799 221.996 292.625 223.015C291.723 228.284 292.691 233.242 295.62 237.872C296.857 239.833 298.435 241.565 300.156 243.121C302.373 245.13 304.737 247.007 307.298 248.633C310.304 250.541 313.428 252.251 316.684 253.751C320.825 255.66 325.093 257.249 329.45 258.651C333.854 260.069 338.314 261.271 342.807 262.411C347.476 263.602 352.206 264.404 356.941 265.246C362.688 266.266 368.493 266.852 374.293 267.411C377.733 267.745 381.178 268.001 384.642 268.078C388.162 268.152 391.671 268.284 395.193 268.229C398.84 268.17 402.475 268.072 406.112 267.968C408.61 267.894 411.096 267.801 413.575 267.598C417.935 267.233 422.219 266.471 426.434 265.4C430.234 264.43 433.956 263.268 437.548 261.697C444.773 258.539 451.226 254.342 457.086 249.279C459.42 247.267 461.565 245.081 463.591 242.81C467.635 238.273 470.93 233.259 473.278 227.71C474.477 224.879 475.568 222.008 476.496 219.081C476.955 217.649 476.914 216.228 475.748 215.162C464.83 205.136 457.574 168.123 456.382 163.194C455.881 161.11 455.471 159.013 454.893 156.943C454.177 154.373 453.551 151.784 452.828 149.214C451.924 146.039 450.873 142.892 450.046 139.703C449.235 136.592 445.07 117.188 436.499 104.243C435.025 102.021 433.355 99.9079 431.316 98.1498C428.81 96.0053 425.941 94.6285 422.435 94.4584C417.395 94.2217 413.489 96.2414 410.269 99.5587C406.006 103.952 402.838 109.039 400.603 114.647C400.177 115.707 399.616 116.72 399.116 117.742C398.597 117.539 396.098 106.139 388.563 98.0733C383.473 92.625 377.234 93.221 371.54 96.7615C369.312 98.1489 367.275 99.775 365.373 101.552C362.737 104.027 360.429 106.775 358.194 109.567C355.596 112.805 353.197 116.178 351.049 119.718C346.902 126.555 343.431 133.722 340.163 140.962C338.064 145.613 335.929 150.275 334.436 155.174C334.05 156.449 333.434 157.651 332.994 158.916C332.573 160.112 331.459 160.693 330.565 161.418C326.487 164.728 323.093 168.555 320.187 172.848C317.366 177.018 315.599 181.57 314.26 186.331C312.895 191.188 311.945 196.137 311.691 201.141C311.556 203.819 310.363 204.743 307.998 205.502C304.38 206.658 302.011 208.378 299.514 210.643C296.678 213.219 294.634 216.25 293.436 219.874L293.444 219.868Z" fill="url(#paint34_linear_8062_3072)"/>
<path d="M473.795 212.946C469.064 216.089 463.729 217.63 458.296 219.197C450.638 221.397 439.089 222.563 432.839 223.113C429.014 223.45 425.195 223.696 421.366 223.781C417.6 223.864 413.842 224.128 410.085 224.076C406.688 224.029 403.755 224.073 399.901 224.02C399.3 224.011 398.667 224.052 398.089 224.199C395.918 224.746 395.423 226.51 396.874 228.17C398.113 229.589 399.67 230.618 401.313 231.498C407.205 234.642 413.347 237.269 419.695 239.426C426.516 241.751 433.572 243.074 440.735 243.76C444.595 244.128 448.478 244.35 452.353 244.5C455.261 244.616 458.177 244.514 461.252 244.512C462.789 244.508 464.193 242.317 465.418 240.719C468.589 236.599 471.366 232.271 473.398 227.499C474.621 224.618 475.72 221.722 476.557 218.718C476.915 217.434 476.7 216.33 475.836 215.304C475.189 214.538 474.549 213.765 473.795 212.946Z" fill="#CFC6DC"/>
<path d="M452.582 252.736C445.767 250.83 438.813 249.733 431.59 249.933C431.167 249.942 421.09 250.346 416.314 251.01C412.391 251.559 408.461 252.011 404.514 252.21C394 252.738 383.564 252.124 373.397 249.098C366.4 247.018 359.93 243.815 353.7 240.151C349.566 237.721 345.766 234.862 341.952 232.015C338 229.056 334.078 226.066 329.585 223.83C325.46 221.774 321.191 220.301 316.538 219.994C314.022 219.828 311.545 220.096 309.106 220.605C306.914 221.066 304.737 221.607 302.646 222.397C299.511 223.587 296.056 223.06 292.905 221.754C292.404 223.498 292.279 224.921 292.279 226.526C292.284 233.403 295.444 238.925 300.644 243.575C306.502 248.819 313.331 252.543 320.663 255.496C332.692 260.345 345.23 263.418 358.048 265.453C366.427 266.783 374.857 267.658 383.327 268.06C388.98 268.333 394.645 268.329 400.309 268.151C405.549 267.989 410.793 267.969 415.99 267.321C424.107 266.306 431.967 264.403 439.324 260.932C444.056 258.698 448.529 256.092 452.589 252.736L452.582 252.736Z" fill="#FBFBFD"/>
<path d="M436.498 154.634C437.101 154.927 437.533 155.285 438.128 155.294C438.612 154.999 438.365 154.569 438.293 154.203C436.644 146.052 435.086 137.882 433.283 129.759C432.045 124.188 430.351 118.709 427.729 113.534C426.576 111.263 425.206 109.132 423.087 107.517C420.29 105.391 417.287 105.152 414.252 106.89C412.082 108.133 410.47 109.918 409.021 111.861C405.809 116.172 403.521 120.939 401.461 125.818C399.692 129.996 398.174 134.255 397.096 138.655C396.999 139.048 396.957 139.457 396.841 139.842C396.571 140.752 397.029 141.138 397.914 141.257C398.518 141.343 399.119 141.462 399.723 141.536C412.222 143.065 423.846 146.952 434.491 153.504C435.109 153.881 435.758 154.216 436.511 154.635L436.498 154.634Z" fill="url(#paint35_linear_8062_3072)"/>
<path d="M384.29 112.674C383.824 110.883 383.184 109.311 382.138 107.905C380.034 105.066 376.852 104.209 373.595 105.648C372.437 106.162 371.386 106.85 370.385 107.606C366.923 110.224 364.272 113.522 361.853 116.978C356.261 124.986 351.995 133.646 348.38 142.621C347.879 143.863 347.418 145.12 347.21 146.44C346.954 148.047 347.642 148.72 349.346 148.611C351.203 148.494 352.892 147.798 354.607 147.239C362.733 144.587 371.073 142.737 379.558 141.412C380.16 141.318 380.772 141.283 381.372 141.215C383.305 141 383.626 140.77 383.961 138.918C384.337 136.868 384.762 134.822 384.891 132.736C385.121 129.097 385.426 125.463 385.428 121.809C385.429 118.773 385.087 115.778 384.282 112.687L384.29 112.674Z" fill="url(#paint36_linear_8062_3072)"/>
<path d="M331.402 237.571C333.899 237.111 336.142 236.427 338.263 235.393C338.428 235.314 338.579 235.228 338.738 235.136C340.59 234.083 341.127 232.818 340.298 231.472C339.526 230.214 338.223 230.124 336.298 231.03C331.138 233.453 325.816 234.202 320.268 231.997C319.304 231.615 318.396 231.134 317.534 230.572C317.083 230.276 316.603 230.011 316.032 229.959C315.013 229.863 314.048 230.306 313.602 231.152C313.155 232.004 313.285 232.845 313.877 233.601C314.36 234.221 315.046 234.629 315.733 235.011C320.59 237.698 325.742 238.613 331.395 237.57L331.402 237.571Z" fill="#775147"/>
<path d="M320.61 216.569C318.746 212.754 312.371 210.988 308.524 212.547C307.555 212.938 306.806 213.454 306.209 214.393C304.67 216.827 304.654 219.578 306.108 222.211C306.847 223.544 308.049 224.394 309.611 224.443C313.467 224.56 316.965 223.64 319.637 220.84C320.764 219.66 321.423 218.229 320.61 216.562L320.61 216.569Z" fill="#413532"/>
<path d="M392.203 208.56C394.681 205.257 394.689 201.209 393.945 197.323C393.359 194.266 391.128 192.269 388.055 191.839C385.064 191.414 382.396 192.655 380.976 195.375C379.11 198.946 378.611 202.786 379.547 206.698C380.181 209.358 382.051 211.073 384.937 211.6C388.036 212.167 390.762 210.492 392.21 208.567L392.203 208.56Z" fill="#41312C"/>
<path d="M338.881 189.252C336.277 187.133 332.994 187.436 330.724 189.633C329.463 190.854 328.614 192.317 328.224 193.973C327.518 196.986 327.372 200.012 328.348 203.05C329.802 207.585 335.155 208.9 338.602 205.508C339.53 204.592 340.253 203.553 340.677 202.312C341.674 199.403 341.857 196.437 341.267 193.425C340.96 191.851 340.277 190.399 338.873 189.258L338.881 189.252Z" fill="#42312C"/>
<path d="M384.767 178.483C382.009 174.071 374.685 175.94 372.885 180.367C372.06 182.398 372.221 184.491 373.576 186.338C374.488 187.58 376.015 188.13 377.493 188.192C380.262 188.305 382.584 187.273 384.38 185.217C385.831 183.558 386.075 181.724 385.333 179.72C385.193 179.337 385.061 178.948 384.767 178.483Z" fill="#C3BACE"/>
<path d="M348.763 180.276C348.763 177.962 348.195 175.841 346.535 174.199C343.462 171.158 339.875 171.447 337.62 174.734C336.943 175.725 336.634 176.89 336.673 178.033C336.766 180.515 337.72 182.759 339.934 184.194C343.368 186.421 348.767 184.446 348.764 180.269L348.763 180.276Z" fill="#C3BACE"/>
</g>
<path d="M360.133 380.901C360.327 382.974 360.371 387.725 370.95 396.888C374.105 399.625 377.536 402.071 381.146 404.331C385.822 407.262 391.134 408.596 396.903 408.703C403.439 408.831 409.859 407.097 415.411 403.587C421.733 399.608 426.949 394.657 431.175 388.494C444.064 369.699 441.31 361.806 434.49 356.693C430.268 353.528 416.248 345.732 403.7 354.965C397.707 360.961 395.382 363.336 387.641 366.932C385.332 368.008 382.688 368.198 380.137 368.331C375.729 368.563 371.29 369.684 367.317 371.756C364.873 373.027 362.516 374.761 361.077 376.999C360.298 378.214 360 379.472 360.142 380.9L360.133 380.901Z" fill="#3F2E29"/>
<path d="M360.112 379.985C360.038 380.542 359.9 382.937 361.196 385.296C361.626 384.936 362.445 384.467 362.982 384.19C364.977 383.153 367.233 382.479 369.51 382.243C370.971 382.088 372.464 382.149 373.903 381.846C375.342 381.543 376.191 380.637 376.299 380.021C376.52 378.707 375.491 377.523 374.082 377.328C371.475 376.961 368.875 377.169 366.291 377.778C364.49 378.202 360.805 379.541 360.113 379.992L360.112 379.985Z" fill="#795456"/>
<path d="M366.795 392.983C367.97 394.403 369.57 395.776 371.098 397.015C373.122 396.406 375.404 395.501 377.381 394.929C378.87 394.498 380.297 394.174 381.852 393.482C382.556 393.166 383.075 392.649 383.29 392.177C383.902 390.828 382.684 389.467 381.172 389.28C377.394 388.812 367.311 392.793 366.794 392.976L366.795 392.983Z" fill="#795556"/>
<path d="M286.06 178.333L285.417 184.804L284.774 191.276L291.246 191.919L290.603 198.39L297.074 199.033L296.431 205.505L302.903 206.148L302.26 212.619L308.731 213.262L315.203 213.905L321.674 214.548L328.146 215.191L334.617 215.834L335.26 209.362L341.732 210.005L342.375 203.534L348.846 204.177L349.489 197.705L350.132 191.234L356.603 191.877L363.075 192.52L362.432 198.991L361.789 205.463L368.26 206.106L367.618 212.577L374.089 213.22L373.446 219.691L379.917 220.334L386.389 220.977L392.86 221.62L399.332 222.263L405.803 222.906L406.446 216.435L412.918 217.078L413.561 210.606L420.032 211.249L420.675 204.778L427.147 205.421L427.79 198.949L428.432 192.478L421.961 191.835L415.49 191.192L409.018 190.549L402.547 189.906L396.075 189.263L389.604 188.62L383.132 187.977L376.661 187.334L370.189 186.691L363.718 186.048L357.246 185.405L350.775 184.762L344.303 184.119L337.832 183.477L331.36 182.834L324.889 182.191L318.418 181.548L311.946 180.905L305.475 180.262L299.003 179.619L292.532 178.976L286.06 178.333Z" fill="#292C23"/>
<path d="M330.717 189.306L324.246 188.663L323.603 195.135L330.075 195.777L330.717 189.306Z" fill="#9EA1A8"/>
<path d="M343.66 190.592L337.189 189.949L336.546 196.421L343.017 197.064L343.66 190.592Z" fill="#9EA1A8"/>
<path d="M401.904 196.378L395.432 195.735L394.789 202.207L401.261 202.85L401.904 196.378Z" fill="#9EA1A8"/>
<path d="M414.847 197.664L408.375 197.021L407.732 203.493L414.204 204.136L414.847 197.664Z" fill="#9EA1A8"/>
<path d="M323.603 195.134L317.132 194.491L316.489 200.963L322.96 201.606L323.603 195.134Z" fill="#9EA1A8"/>
<path d="M336.546 196.42L330.075 195.777L329.432 202.249L335.903 202.892L336.546 196.42Z" fill="#9EA1A8"/>
<path d="M394.789 202.207L388.318 201.564L387.675 208.036L394.146 208.679L394.789 202.207Z" fill="#9EA1A8"/>
<path d="M407.732 203.494L401.261 202.851L400.618 209.322L407.089 209.965L407.732 203.494Z" fill="#9EA1A8"/>
<path d="M316.489 200.963L310.017 200.32L309.374 206.792L315.846 207.435L316.489 200.963Z" fill="#9EA1A8"/>
<path d="M329.432 202.249L322.96 201.606L322.317 208.078L328.789 208.721L329.432 202.249Z" fill="#9EA1A8"/>
<path d="M387.675 208.036L381.203 207.393L380.561 213.864L387.032 214.507L387.675 208.036Z" fill="#9EA1A8"/>
<path d="M400.618 209.322L394.146 208.679L393.503 215.15L399.975 215.793L400.618 209.322Z" fill="#9EA1A8"/>
<path d="M434.541 402.335C446.107 408.93 453.484 418.866 456.641 431.718C462.752 456.611 447.237 481.841 422.327 487.731C397.514 493.602 372.546 478.259 366.569 453.453C360.603 428.724 375.848 403.638 400.565 397.642C412.44 394.755 423.862 396.232 434.541 402.325V402.335Z" fill="#182043"/>
<path d="M410.094 464.731C408.974 464.615 408.009 464.248 407.024 464.016C398.605 462.027 392.165 454.573 391.199 445.979C389.906 434.479 398.402 423.848 410.162 422.738C420.773 421.733 430.814 429.236 432.677 439.77C432.793 440.417 432.957 441.045 433.073 441.75C433.285 443.015 433.372 444.299 433.073 445.661C433.005 445.97 432.919 446.105 432.89 446.25C431.451 455.461 425.378 462.114 416.553 464.132C415.675 464.335 414.815 464.625 413.927 464.721C412.691 464.856 411.436 464.866 410.094 464.721V464.731Z" fill="#323B63"/>
<path d="M176.093 395.037C186.308 395.963 195.268 399.835 202.876 406.681C211.276 414.242 216.354 423.666 217.812 434.896C221.781 465.341 198.087 484.826 178.005 487.028C158.627 489.143 142.407 482.383 131.729 466.162C120.635 449.302 123.628 425.848 137.213 410.544C145.323 401.409 155.528 396.243 167.713 395.056C168.784 394.95 174.935 394.94 176.093 395.037Z" fill="#182043"/>
<path d="M173.226 419.63C174.423 419.756 175.466 420.113 176.537 420.354C184.898 422.266 191.512 430.02 192.362 438.527C193.54 450.249 184.831 460.552 173.351 461.643C162.866 462.637 152.641 455.067 150.874 444.687C150.768 444.04 149.986 441.636 150.643 438.208C152.352 429.228 158.058 422.324 166.902 420.248C167.742 420.055 168.553 419.727 169.402 419.62C170.638 419.466 171.893 419.485 173.235 419.62L173.226 419.63Z" fill="#323B63"/>
<path d="M507.249 431.681C507.249 434.394 507.249 437.098 507.172 439.985C507.076 442.283 507.047 444.407 507.027 446.628C506.95 447.69 506.95 448.666 506.747 449.602C506.66 450.008 506.216 450.539 505.84 450.626C504.652 450.925 503.426 451.186 502.209 451.195C488.538 451.292 474.876 451.34 461.205 451.398C460.751 451.398 460.297 451.398 459.776 451.398C459.757 451.08 459.728 450.857 459.737 450.635C459.863 448.859 460.172 447.072 460.094 445.305C459.979 442.698 459.728 440.072 459.293 437.503C457.439 426.467 452.293 417.168 443.874 409.83C432.23 399.672 418.665 395.887 403.429 398.542C391.438 400.628 381.715 406.663 374.175 416.212C369.009 422.759 365.833 430.184 364.568 438.401C364.056 441.704 363.651 445.054 364.259 448.415C364.462 449.525 364.607 450.645 364.8 451.871C316.197 452.103 267.758 452.344 219.569 452.576C219.212 447.333 219.096 442.273 218.498 437.272C217.281 427.201 213.014 418.404 205.975 411.191C193.675 398.581 178.632 393.627 161.34 397.19C144.077 400.744 132.385 411.278 125.935 427.645C124.227 431.971 123.406 436.519 123.116 441.134C122.971 443.432 123.174 445.75 123.3 448.057C123.387 449.689 123.628 451.302 123.802 453.011C123.155 453.011 122.701 453.011 122.238 453.011C98.718 453.136 75.2082 453.262 51.6886 453.378C41.9564 453.426 32.2242 453.465 22.3857 453.484C19.8079 453.484 17.3362 453.484 14.7583 453.484C11.3984 453.455 8.1543 453.455 4.82333 453.426C2.80544 452.789 1.84959 451.524 1.90752 449.438C1.94614 448.057 1.83028 446.667 1.77235 445.276C1.50201 438.807 1.17374 432.338 0.990299 425.858C0.932369 423.869 1.93649 422.054 3.33646 420.789C6.53226 417.892 9.94047 415.237 13.2328 412.446C13.6094 412.128 13.899 411.529 13.9473 411.027C14.0825 409.53 14.1114 408.024 14.1307 406.518C14.3991 378.943 14.3222 354.487 14.4493 326.519C14.4493 325.206 14.43 323.893 14.5169 322.579C14.6231 321.005 15.4342 320.223 16.9886 320.021C17.5969 319.943 18.2148 319.866 18.7941 319.683C33.0352 315.415 47.2763 311.137 61.5174 306.85C69.7917 304.359 78.0757 301.868 86.35 299.386C88.0976 298.865 89.7775 298.942 91.5347 299.589C96.3719 301.385 101.209 303.268 106.162 304.687C110.642 305.971 115.267 306.724 119.853 307.632C126.177 308.887 132.578 309.399 138.979 308.762C147.64 307.893 155.905 305.44 163.822 301.829C164.362 301.578 165 301.423 165.588 301.423C186.598 301.539 207.597 301.665 228.597 301.81C252.261 301.964 275.935 302.138 299.6 302.302C334.348 302.543 369.096 302.775 403.854 303.007C434.316 303.21 464.787 303.393 495.248 303.586C497.45 303.596 499.68 303.77 501.843 303.461C504.044 303.142 505.386 304.417 505.386 306.695C505.386 310.751 505.511 314.806 505.569 318.862C505.801 336.194 506.043 353.536 506.265 370.868C506.516 390.788 506.757 410.718 507.018 430.638C507.018 430.986 507.162 431.343 507.23 431.691L507.249 431.681Z" fill="url(#paint37_linear_8062_3072)"/>
<path d="M122.827 245.825C126.331 245.13 146.279 251.966 153.906 272.079C156.87 279.9 161.591 295.524 161.591 295.524C161.591 295.524 163.378 301.597 163.291 302.08C160.22 306.502 147.785 307.999 143.556 308.472C135.813 309.341 125.26 308.868 114.736 307.246C108.624 306.3 98.7471 303.422 93.1762 300.67C89.8162 299.009 89.9997 299.309 90.8203 297.783C95.9471 288.243 101.846 276.926 106.963 267.415C110.304 261.197 113.558 254.921 118.173 249.494C119.418 248.036 121.378 246.115 122.836 245.825H122.827Z" fill="white" fill-opacity="0.38"/>
<g opacity="0.29">
<path d="M105.776 305.228C103.43 304.542 101.093 303.799 98.863 302.997C97.5693 302.524 95.9279 301.935 94.6535 301.366C93.9004 301.028 90.0094 299.724 90.2991 299.048C92.3749 294.249 94.47 290.754 97.0093 286.109C103.71 273.875 107.929 263.379 116.619 251.377C121.369 244.821 122.885 245.584 125.105 245.98C128.736 246.627 132.385 248.413 135.465 250.315C139.443 252.768 146.423 257.798 150.343 264.77C151.039 266.006 151.869 267.309 152.419 268.671C151.946 268.912 109.831 302.447 105.766 305.228H105.776Z" fill="#C3DCFF" fill-opacity="0.06"/>
</g>
<path d="M154.35 320.387C152.535 320.078 149.909 317.664 149.677 314.69C148.808 303.528 147.727 292.414 144.946 281.503C143.585 276.173 140.785 272.165 136.315 268.96C130.222 264.586 123.628 261.322 116.609 258.85C114.687 258.174 113.239 257.199 112.708 255.094C111.096 248.644 120.49 239.287 125.916 241.807C132.771 244.994 139.704 248.007 146.433 251.444C152.448 254.515 156.445 259.565 158.685 265.947C161.253 273.237 163.474 280.624 164.526 288.3C168.398 316.515 166.641 315.25 164.275 317.036C162.093 318.678 156.928 320.821 154.35 320.387Z" fill="url(#paint38_linear_8062_3072)"/>
<path d="M213.921 301.829C220.439 301.751 323.419 302.389 360.011 302.669C360.339 322.792 365.089 363.781 348.782 397.847C344.882 405.996 339.349 412.63 330.949 416.511C326.933 418.365 322.694 419.437 318.35 420.094C290.456 424.265 263.973 421.735 253.507 419.398C247.675 418.095 242.095 416.115 237.47 412.137C233.144 408.42 230.103 403.746 227.767 398.609C223.673 389.562 220.921 380.08 218.981 370.366C217.281 361.859 216.132 353.275 215.292 344.652C214.037 331.916 213.931 303.422 213.921 301.848V301.829Z" fill="#1A6AFF"/>
<path d="M310.51 342.384C320.715 341.07 339.33 341.553 340.344 350.263C340.363 350.456 341.56 358.007 332.62 360.208C327.85 361.386 317.21 361.666 315.501 361.502C312.73 361.242 309.969 360.913 307.449 359.629C304.514 358.132 302.525 355.863 302.042 352.474C302.004 352.213 301.704 343.513 310.5 342.384H310.51Z" fill="#0056EB"/>
<ellipse cx="40.3096" cy="350.496" rx="5.93103" ry="13.2308" fill="#181818"/>
<ellipse cx="136.119" cy="350.496" rx="5.93103" ry="13.2308" fill="#181818"/>
<path d="M57.1903 376.501H122.888V376.501C122.888 386.58 114.717 394.75 104.639 394.75H75.4396C65.3608 394.75 57.1903 386.58 57.1903 376.501V376.501Z" fill="#181818"/>
<ellipse cx="137.944" cy="348.215" rx="1.3687" ry="4.56233" fill="white"/>
<ellipse cx="137.944" cy="348.215" rx="1.3687" ry="4.56233" fill="white"/>
<ellipse cx="137.944" cy="348.215" rx="1.3687" ry="4.56233" fill="white"/>
<ellipse cx="43.0473" cy="347.302" rx="1.3687" ry="4.56233" fill="white"/>
<ellipse cx="43.0473" cy="347.302" rx="1.3687" ry="4.56233" fill="white"/>
<ellipse cx="43.0473" cy="347.302" rx="1.3687" ry="4.56233" fill="white"/>
<path d="M74.5271 394.751H107.376V394.751C107.376 391.223 104.516 388.364 100.989 388.364H80.9144C77.3868 388.364 74.5271 391.223 74.5271 394.751V394.751Z" fill="#0A4CC0"/>
<g filter="url(#filter6_d_8062_3072)">
<path d="M457.422 267.049C468.933 288.684 453.224 317.17 438.85 326.342C435.108 328.724 431.136 330.606 426.845 331.753C420.14 333.55 413.293 334.378 406.375 334.673C406.211 334.682 398.09 333.717 396.725 327.207C395.977 323.653 394.46 320.406 392.992 317.128C391.651 314.117 390.257 311.122 389.118 308.033C387.828 304.513 388.437 301.191 390.861 298.271C392.308 296.524 394.223 295.397 396.222 294.413C400.424 292.348 404.445 290.03 408.03 286.963C412.171 283.422 415.411 279.191 418.194 274.554C420.893 270.061 423.731 265.689 427.66 262.128C431.655 258.51 437.959 256.683 441.705 256.852C449.227 257.202 455.234 262.941 457.416 267.041L457.422 267.049Z" fill="url(#paint39_linear_8062_3072)"/>
<path d="M408.242 331.954C407.32 334.026 405.938 335.664 403.566 336.164C401.565 336.587 399.585 337.13 397.565 337.417C391.938 338.224 381.068 338.796 373.223 336.472C370.004 335.522 364.701 333.509 361.244 330.382C355.208 324.927 355.214 317.443 357.738 313.333C360.739 308.437 364.694 304.444 370.037 302.229C376.149 299.7 382.556 298.218 389.23 298.165C389.406 298.165 396.598 297.521 401.426 303.884C403.06 306.04 410.419 315.16 409.786 326.451C409.779 326.62 408.966 330.328 408.242 331.947L408.242 331.954Z" fill="#40302B"/>
<path d="M356.177 318.509C356.074 318.393 356.585 315.317 357.405 313.924C359.015 313.555 360.578 313.217 362.152 312.902C363.953 312.542 365.753 312.138 367.577 311.885C371.587 311.328 371.881 315.252 368.15 315.771C365.004 316.209 361.92 317.083 358.815 317.777C357.988 317.959 357.05 318.252 356.184 318.51L356.177 318.509Z" fill="#7B5557"/>
<path d="M360.325 329.49C359.314 328.343 358.406 327.312 357.696 325.835C359.118 325.493 360.545 325.181 361.977 324.937C365.293 324.38 368.611 323.868 371.924 323.333C372.354 323.263 372.789 323.2 373.22 323.123C374.246 322.944 375.125 323.447 375.432 324.394C375.751 325.356 375.32 326.422 374.385 326.811C373.91 327.009 373.375 327.095 372.862 327.185C368.974 327.838 360.609 329.349 360.325 329.49Z" fill="#7A5456"/>
</g>
<path d="M237.212 280.826C237.421 278.146 237.158 275.497 236.408 272.843C234.447 265.906 227.402 263.405 222.177 264.984C218.999 265.946 216.344 267.79 213.872 269.872C211.073 272.222 208.691 274.996 206.055 277.519C202.731 280.7 199.13 283.39 194.407 284.33C191.796 284.854 189.139 285.002 186.478 285.237C183.526 285.502 180.612 285.873 177.911 287.161C166.85 292.44 170.234 308.917 185.152 316.253C192.024 319.627 199.679 320.381 206.684 318.273C213.98 316.077 219.731 312.088 225.046 306.733C235.231 296.469 236.624 288.609 237.218 280.832L237.212 280.826Z" fill="url(#paint40_linear_8062_3072)"/>
<path d="M172.893 304.178C174.946 303.771 177.073 304.085 178.949 305.049C181.746 306.483 182.8 303.277 181.298 301.912C179.916 300.654 178.173 300.471 176.48 300.178C174.934 299.917 173.231 299.886 171.636 300.133C171.926 301.672 172.328 302.844 172.905 304.178L172.893 304.178Z" fill="#CC9187"/>
<path d="M171.568 295.382C173.913 294.923 176.174 295.042 178.51 295.735C181.449 296.605 182.403 292.8 179.299 291.845C177.498 291.286 175.663 291.124 173.811 291.208C173.612 291.215 173.219 291.154 173.219 291.154C173.219 291.154 171.814 293.364 171.574 295.388L171.568 295.382Z" fill="#CC9187"/>
<defs>
<filter id="filter0_d_8062_3072" x="209.951" y="158.337" width="134.626" height="81.7739" filterUnits="userSpaceOnUse" color-interpolation-filters="sRGB">
<feFlood flood-opacity="0" result="BackgroundImageFix"/>
<feColorMatrix in="SourceAlpha" type="matrix" values="0 0 0 0 0 0 0 0 0 0 0 0 0 0 0 0 0 0 127 0" result="hardAlpha"/>
<feOffset dy="3.03441"/>
<feGaussianBlur stdDeviation="1.51721"/>
<feComposite in2="hardAlpha" operator="out"/>
<feColorMatrix type="matrix" values="0 0 0 0 0 0 0 0 0 0 0 0 0 0 0 0 0 0 0.25 0"/>
<feBlend mode="normal" in2="BackgroundImageFix" result="effect1_dropShadow_8062_3072"/>
<feBlend mode="normal" in="SourceGraphic" in2="effect1_dropShadow_8062_3072" result="shape"/>
</filter>
<filter id="filter1_d_8062_3072" x="246" y="181.015" width="121.408" height="95.5454" filterUnits="userSpaceOnUse" color-interpolation-filters="sRGB">
<feFlood flood-opacity="0" result="BackgroundImageFix"/>
<feColorMatrix in="SourceAlpha" type="matrix" values="0 0 0 0 0 0 0 0 0 0 0 0 0 0 0 0 0 0 127 0" result="hardAlpha"/>
<feOffset dy="3.03441"/>
<feGaussianBlur stdDeviation="1.51721"/>
<feComposite in2="hardAlpha" operator="out"/>
<feColorMatrix type="matrix" values="0 0 0 0 0 0 0 0 0 0 0 0 0 0 0 0 0 0 0.1 0"/>
<feBlend mode="normal" in2="BackgroundImageFix" result="effect1_dropShadow_8062_3072"/>
<feBlend mode="normal" in="SourceGraphic" in2="effect1_dropShadow_8062_3072" result="shape"/>
</filter>
<filter id="filter2_d_8062_3072" x="127.19" y="164.037" width="124.928" height="106.093" filterUnits="userSpaceOnUse" color-interpolation-filters="sRGB">
<feFlood flood-opacity="0" result="BackgroundImageFix"/>
<feColorMatrix in="SourceAlpha" type="matrix" values="0 0 0 0 0 0 0 0 0 0 0 0 0 0 0 0 0 0 127 0" result="hardAlpha"/>
<feOffset dy="3.03441"/>
<feGaussianBlur stdDeviation="1.51721"/>
<feComposite in2="hardAlpha" operator="out"/>
<feColorMatrix type="matrix" values="0 0 0 0 0 0 0 0 0 0 0 0 0 0 0 0 0 0 0.1 0"/>
<feBlend mode="normal" in2="BackgroundImageFix" result="effect1_dropShadow_8062_3072"/>
<feBlend mode="normal" in="SourceGraphic" in2="effect1_dropShadow_8062_3072" result="shape"/>
</filter>
<filter id="filter3_d_8062_3072" x="316.91" y="248.247" width="136.703" height="133.176" filterUnits="userSpaceOnUse" color-interpolation-filters="sRGB">
<feFlood flood-opacity="0" result="BackgroundImageFix"/>
<feColorMatrix in="SourceAlpha" type="matrix" values="0 0 0 0 0 0 0 0 0 0 0 0 0 0 0 0 0 0 127 0" result="hardAlpha"/>
<feOffset dy="3.03441"/>
<feGaussianBlur stdDeviation="1.51721"/>
<feComposite in2="hardAlpha" operator="out"/>
<feColorMatrix type="matrix" values="0 0 0 0 0 0 0 0 0 0 0 0 0 0 0 0 0 0 0.25 0"/>
<feBlend mode="normal" in2="BackgroundImageFix" result="effect1_dropShadow_8062_3072"/>
<feBlend mode="normal" in="SourceGraphic" in2="effect1_dropShadow_8062_3072" result="shape"/>
</filter>
<filter id="filter4_d_8062_3072" x="324.996" y="249.955" width="107.094" height="79.5708" filterUnits="userSpaceOnUse" color-interpolation-filters="sRGB">
<feFlood flood-opacity="0" result="BackgroundImageFix"/>
<feColorMatrix in="SourceAlpha" type="matrix" values="0 0 0 0 0 0 0 0 0 0 0 0 0 0 0 0 0 0 127 0" result="hardAlpha"/>
<feOffset dy="3.03441"/>
<feGaussianBlur stdDeviation="1.51721"/>
<feComposite in2="hardAlpha" operator="out"/>
<feColorMatrix type="matrix" values="0 0 0 0 0 0 0 0 0 0 0 0 0 0 0 0 0 0 0.05 0"/>
<feBlend mode="normal" in2="BackgroundImageFix" result="effect1_dropShadow_8062_3072"/>
<feBlend mode="normal" in="SourceGraphic" in2="effect1_dropShadow_8062_3072" result="shape"/>
</filter>
<filter id="filter5_d_8062_3072" x="289.245" y="94.041" width="190.558" height="180.304" filterUnits="userSpaceOnUse" color-interpolation-filters="sRGB">
<feFlood flood-opacity="0" result="BackgroundImageFix"/>
<feColorMatrix in="SourceAlpha" type="matrix" values="0 0 0 0 0 0 0 0 0 0 0 0 0 0 0 0 0 0 127 0" result="hardAlpha"/>
<feOffset dy="3.03441"/>
<feGaussianBlur stdDeviation="1.51721"/>
<feComposite in2="hardAlpha" operator="out"/>
<feColorMatrix type="matrix" values="0 0 0 0 0 0 0 0 0 0 0 0 0 0 0 0 0 0 0.05 0"/>
<feBlend mode="normal" in2="BackgroundImageFix" result="effect1_dropShadow_8062_3072"/>
<feBlend mode="normal" in="SourceGraphic" in2="effect1_dropShadow_8062_3072" result="shape"/>
</filter>
<filter id="filter6_d_8062_3072" x="353.109" y="256.842" width="111.327" height="87.3501" filterUnits="userSpaceOnUse" color-interpolation-filters="sRGB">
<feFlood flood-opacity="0" result="BackgroundImageFix"/>
<feColorMatrix in="SourceAlpha" type="matrix" values="0 0 0 0 0 0 0 0 0 0 0 0 0 0 0 0 0 0 127 0" result="hardAlpha"/>
<feOffset dy="3.03441"/>
<feGaussianBlur stdDeviation="1.51721"/>
<feComposite in2="hardAlpha" operator="out"/>
<feColorMatrix type="matrix" values="0 0 0 0 0 0 0 0 0 0 0 0 0 0 0 0 0 0 0.1 0"/>
<feBlend mode="normal" in2="BackgroundImageFix" result="effect1_dropShadow_8062_3072"/>
<feBlend mode="normal" in="SourceGraphic" in2="effect1_dropShadow_8062_3072" result="shape"/>
</filter>
<linearGradient id="paint0_linear_8062_3072" x1="107.182" y1="117.246" x2="196.112" y2="106.478" gradientUnits="userSpaceOnUse">
<stop stop-color="#D1BDAB"/>
<stop offset="1" stop-color="#B28484"/>
</linearGradient>
<linearGradient id="paint1_linear_8062_3072" x1="385.976" y1="306.573" x2="313.877" y2="306.893" gradientUnits="userSpaceOnUse">
<stop stop-color="#CAAF93"/>
<stop offset="0.43" stop-color="#C6AB93"/>
<stop offset="0.85" stop-color="#BD9F96"/>
<stop offset="1" stop-color="#B89998"/>
</linearGradient>
<linearGradient id="paint2_linear_8062_3072" x1="128.452" y1="349.536" x2="206.478" y2="309.115" gradientUnits="userSpaceOnUse">
<stop stop-color="#C5AA9C"/>
<stop offset="0.35" stop-color="#C0A39A"/>
<stop offset="0.83" stop-color="#B39296"/>
<stop offset="1" stop-color="#AD8B94"/>
</linearGradient>
<linearGradient id="paint3_linear_8062_3072" x1="186.172" y1="298.463" x2="185.674" y2="298.465" gradientUnits="userSpaceOnUse">
<stop stop-color="#BD9E7B"/>
<stop offset="1" stop-color="#99BD7B"/>
</linearGradient>
<linearGradient id="paint4_linear_8062_3072" x1="185.644" y1="298.603" x2="185.599" y2="298.603" gradientUnits="userSpaceOnUse">
<stop stop-color="#BD9E7B"/>
<stop offset="1" stop-color="#99BD7B"/>
</linearGradient>
<linearGradient id="paint5_linear_8062_3072" x1="185.248" y1="298.835" x2="185.224" y2="298.835" gradientUnits="userSpaceOnUse">
<stop stop-color="#BD9E7B"/>
<stop offset="1" stop-color="#99BD7B"/>
</linearGradient>
<linearGradient id="paint6_linear_8062_3072" x1="280.021" y1="141.152" x2="248.091" y2="364.321" gradientUnits="userSpaceOnUse">
<stop stop-color="#CCB28F"/>
<stop offset="1" stop-color="#C3A7A0"/>
</linearGradient>
<linearGradient id="paint7_linear_8062_3072" x1="234.246" y1="358.894" x2="313.474" y2="302.483" gradientUnits="userSpaceOnUse">
<stop stop-color="#AC888D"/>
<stop offset="0.35" stop-color="#C0A39A"/>
<stop offset="0.83" stop-color="#C5A99C"/>
</linearGradient>
<linearGradient id="paint8_linear_8062_3072" x1="276.013" y1="319.705" x2="275.517" y2="319.739" gradientUnits="userSpaceOnUse">
<stop stop-color="#BD9E7B"/>
<stop offset="1" stop-color="#99BD7B"/>
</linearGradient>
<linearGradient id="paint9_linear_8062_3072" x1="275.496" y1="319.878" x2="275.45" y2="319.882" gradientUnits="userSpaceOnUse">
<stop stop-color="#BD9E7B"/>
<stop offset="1" stop-color="#99BD7B"/>
</linearGradient>
<linearGradient id="paint10_linear_8062_3072" x1="275.115" y1="320.135" x2="275.091" y2="320.136" gradientUnits="userSpaceOnUse">
<stop stop-color="#BD9E7B"/>
<stop offset="1" stop-color="#99BD7B"/>
</linearGradient>
<linearGradient id="paint11_linear_8062_3072" x1="278.46" y1="165.084" x2="266.046" y2="274.377" gradientUnits="userSpaceOnUse">
<stop stop-color="#DAC5A7"/>
<stop offset="0.09" stop-color="#DEC9AF"/>
<stop offset="0.46" stop-color="#F0DBCE"/>
<stop offset="0.78" stop-color="#FBE6E1"/>
<stop offset="1" stop-color="#FFEAE8"/>
</linearGradient>
<linearGradient id="paint12_linear_8062_3072" x1="287.043" y1="43.2001" x2="272.602" y2="279.826" gradientUnits="userSpaceOnUse">
<stop stop-color="#CCB28F"/>
<stop offset="1" stop-color="#BA9BB3"/>
</linearGradient>
<linearGradient id="paint13_linear_8062_3072" x1="270.781" y1="151.072" x2="273.205" y2="122.099" gradientUnits="userSpaceOnUse">
<stop stop-color="#AD9089"/>
<stop offset="1" stop-color="#A6847C"/>
</linearGradient>
<linearGradient id="paint14_linear_8062_3072" x1="268.443" y1="127.922" x2="265.82" y2="142.995" gradientUnits="userSpaceOnUse">
<stop stop-color="#675D5A"/>
<stop offset="1" stop-color="#665959"/>
</linearGradient>
<linearGradient id="paint15_linear_8062_3072" x1="344.393" y1="76.4046" x2="354.605" y2="-2.0303" gradientUnits="userSpaceOnUse">
<stop stop-color="#AB8F88"/>
<stop offset="1" stop-color="#E6C3BA"/>
</linearGradient>
<linearGradient id="paint16_linear_8062_3072" x1="228.878" y1="73.9085" x2="224.182" y2="9.41583" gradientUnits="userSpaceOnUse">
<stop stop-color="#AB8F88"/>
<stop offset="1" stop-color="#DAB9B0"/>
</linearGradient>
<linearGradient id="paint17_linear_8062_3072" x1="375.743" y1="188.61" x2="247.674" y2="270.755" gradientUnits="userSpaceOnUse">
<stop stop-color="#D1BDAB"/>
<stop offset="1" stop-color="#C6ABA0"/>
</linearGradient>
<linearGradient id="paint18_linear_8062_3072" x1="246.599" y1="339.083" x2="185.266" y2="362.411" gradientUnits="userSpaceOnUse">
<stop stop-color="#A36F61"/>
<stop offset="0.36" stop-color="#A96B66"/>
<stop offset="0.87" stop-color="#BB6277"/>
<stop offset="1" stop-color="#C25F7D"/>
</linearGradient>
<linearGradient id="paint19_linear_8062_3072" x1="265.37" y1="346.209" x2="246.089" y2="320.905" gradientUnits="userSpaceOnUse">
<stop stop-color="#4C3631"/>
<stop offset="1" stop-color="#4D313E"/>
</linearGradient>
<linearGradient id="paint20_linear_8062_3072" x1="120.272" y1="348.713" x2="66.9819" y2="362.08" gradientUnits="userSpaceOnUse">
<stop stop-color="#825245"/>
<stop offset="1" stop-color="#C28478"/>
</linearGradient>
<linearGradient id="paint21_linear_8062_3072" x1="215.082" y1="244.384" x2="132.953" y2="391.513" gradientUnits="userSpaceOnUse">
<stop stop-color="#E6E5D5"/>
<stop offset="1" stop-color="#DFDCCE"/>
</linearGradient>
<linearGradient id="paint22_linear_8062_3072" x1="184.405" y1="267.435" x2="187.78" y2="223.782" gradientUnits="userSpaceOnUse">
<stop stop-color="#EBECDB"/>
<stop offset="1" stop-color="#DED8CB"/>
</linearGradient>
<linearGradient id="paint23_linear_8062_3072" x1="178.838" y1="235.469" x2="196.135" y2="174.564" gradientUnits="userSpaceOnUse">
<stop stop-color="#A6756A"/>
<stop offset="0.54" stop-color="#A26B60"/>
<stop offset="1" stop-color="#9C5F60"/>
</linearGradient>
<linearGradient id="paint24_linear_8062_3072" x1="157.17" y1="217.439" x2="238.809" y2="171.913" gradientUnits="userSpaceOnUse">
<stop stop-color="#A6756A" stop-opacity="0"/>
<stop offset="0.24" stop-color="#9C6B63" stop-opacity="0.0841"/>
<stop offset="0.59" stop-color="#8F5E5B" stop-opacity="0.4489"/>
<stop offset="0.85" stop-color="#875655" stop-opacity="0.8281"/>
<stop offset="1" stop-color="#855454"/>
</linearGradient>
<linearGradient id="paint25_linear_8062_3072" x1="207.012" y1="248.28" x2="218.313" y2="218.51" gradientUnits="userSpaceOnUse">
<stop stop-color="#EBBEC1"/>
<stop offset="0.12" stop-color="#EEBBB9"/>
<stop offset="0.68" stop-color="#FAB39C"/>
<stop offset="1" stop-color="#FFB091"/>
</linearGradient>
<linearGradient id="paint26_linear_8062_3072" x1="144.471" y1="239.581" x2="155.258" y2="216.368" gradientUnits="userSpaceOnUse">
<stop stop-color="#ECBDBE"/>
<stop offset="0.35" stop-color="#F2BAB2"/>
<stop offset="1" stop-color="#FCB7A1"/>
</linearGradient>
<linearGradient id="paint27_linear_8062_3072" x1="180.428" y1="366.911" x2="133.587" y2="395.623" gradientUnits="userSpaceOnUse">
<stop stop-color="#825245"/>
<stop offset="1" stop-color="#C28478"/>
</linearGradient>
<linearGradient id="paint28_linear_8062_3072" x1="515.528" y1="317.558" x2="391.754" y2="305.579" gradientUnits="userSpaceOnUse">
<stop stop-color="#E4E5ED"/>
<stop offset="0.35" stop-color="#DBD8E6"/>
<stop offset="0.98" stop-color="#C5B9D4"/>
<stop offset="1" stop-color="#C5B8D4"/>
</linearGradient>
<linearGradient id="paint29_linear_8062_3072" x1="415.219" y1="354.292" x2="437.082" y2="228.34" gradientUnits="userSpaceOnUse">
<stop stop-color="#FBFBFD"/>
<stop offset="1" stop-color="#F0F1F5"/>
</linearGradient>
<linearGradient id="paint30_linear_8062_3072" x1="272.877" y1="262.343" x2="360.639" y2="264.549" gradientUnits="userSpaceOnUse">
<stop stop-color="#E6DFEA"/>
<stop offset="1" stop-color="#DDD5E5"/>
</linearGradient>
<linearGradient id="paint31_linear_8062_3072" x1="375.793" y1="249.67" x2="388.697" y2="381.886" gradientUnits="userSpaceOnUse">
<stop stop-color="#E8E2EC"/>
<stop offset="1" stop-color="#E7E2EB"/>
</linearGradient>
<radialGradient id="paint32_radial_8062_3072" cx="0" cy="0" r="1" gradientUnits="userSpaceOnUse" gradientTransform="translate(446.328 301.103) scale(43.507 97.5869)">
<stop stop-color="#DAD1E2"/>
<stop offset="0.21" stop-color="#DAD1E2" stop-opacity="0.9801"/>
<stop offset="0.35" stop-color="#DAD1E2" stop-opacity="0.9025"/>
<stop offset="0.47" stop-color="#DBD2E3" stop-opacity="0.7744"/>
<stop offset="0.58" stop-color="#DCD4E4" stop-opacity="0.6241"/>
<stop offset="0.68" stop-color="#DED6E5" stop-opacity="0.4356"/>
<stop offset="0.77" stop-color="#E0D8E7" stop-opacity="0.2601"/>
<stop offset="0.87" stop-color="#E3DBE9" stop-opacity="0.1089"/>
<stop offset="0.95" stop-color="#E6DEEB" stop-opacity="0.0169"/>
<stop offset="1" stop-color="#E8E1ED" stop-opacity="0"/>
</radialGradient>
<linearGradient id="paint33_linear_8062_3072" x1="455.628" y1="255.12" x2="458.456" y2="328.587" gradientUnits="userSpaceOnUse">
<stop stop-color="#F4EFF1"/>
<stop offset="1" stop-color="#F5F0F2"/>
</linearGradient>
<linearGradient id="paint34_linear_8062_3072" x1="416.704" y1="94.8933" x2="425.66" y2="275.692" gradientUnits="userSpaceOnUse">
<stop stop-color="#E8E2EC"/>
<stop offset="0.09" stop-color="#E1DCE8"/>
<stop offset="0.24" stop-color="#DDD8E6"/>
<stop offset="0.61" stop-color="#E7DFE6"/>
<stop offset="1" stop-color="#EDE4E7"/>
</linearGradient>
<linearGradient id="paint35_linear_8062_3072" x1="417.903" y1="146.976" x2="415.822" y2="101.473" gradientUnits="userSpaceOnUse">
<stop stop-color="#FBFBFD"/>
<stop offset="1" stop-color="#F4F4F9"/>
</linearGradient>
<linearGradient id="paint36_linear_8062_3072" x1="361.681" y1="142.764" x2="362.194" y2="100.533" gradientUnits="userSpaceOnUse">
<stop stop-color="#FBFBFD"/>
<stop offset="1" stop-color="#F4F4F9"/>
</linearGradient>
<linearGradient id="paint37_linear_8062_3072" x1="0.987915" y1="376.263" x2="507.249" y2="376.263" gradientUnits="userSpaceOnUse">
<stop stop-color="#005CFD"/>
<stop offset="1" stop-color="#003797"/>
</linearGradient>
<linearGradient id="paint38_linear_8062_3072" x1="118.974" y1="226.986" x2="167.604" y2="324.101" gradientUnits="userSpaceOnUse">
<stop stop-color="#025DFD"/>
<stop offset="1" stop-color="#0151DE"/>
</linearGradient>
<linearGradient id="paint39_linear_8062_3072" x1="390.066" y1="291.399" x2="459.608" y2="300.294" gradientUnits="userSpaceOnUse">
<stop stop-color="#E5DEEA"/>
<stop offset="1" stop-color="#E1DAE8"/>
</linearGradient>
<linearGradient id="paint40_linear_8062_3072" x1="255.932" y1="277.019" x2="183.098" y2="305.841" gradientUnits="userSpaceOnUse">
<stop stop-color="#A36F61"/>
<stop offset="0.66" stop-color="#9F6B62"/>
<stop offset="1" stop-color="#9A6764"/>
</linearGradient>
</defs>
</svg>
