<svg width="58" height="57" viewBox="0 0 58 57" fill="none" xmlns="http://www.w3.org/2000/svg">
<path d="M28.2915 9.78757V7.14478" stroke="url(#paint0_linear_7817_2549)" stroke-width="1.02663" stroke-miterlimit="10"/>
<path d="M28.2437 23.5421V31.5116C28.2437 31.5175 28.2452 31.5233 28.2481 31.5284C28.251 31.5335 28.2551 31.5378 28.2601 31.5408L35.2842 35.7559C35.2894 35.759 35.2953 35.7606 35.3014 35.7607C35.3074 35.7608 35.3133 35.7592 35.3185 35.7563C35.3238 35.7533 35.3281 35.7491 35.3311 35.7439C35.3342 35.7387 35.3359 35.7327 35.3359 35.7267V27.2898C35.3359 27.2837 35.3343 27.2776 35.3311 27.2723C35.328 27.267 35.3234 27.2626 35.3179 27.2597L28.2936 23.511C28.2884 23.5081 28.2824 23.5068 28.2765 23.507C28.2705 23.5072 28.2647 23.5088 28.2597 23.512C28.2546 23.5152 28.2505 23.5196 28.2476 23.5249C28.2448 23.5301 28.2435 23.5361 28.2437 23.5421Z" stroke="url(#paint1_linear_7817_2549)" stroke-width="1.02663" stroke-miterlimit="10"/>
<path d="M29.771 26.1345V30.7153L33.8086 33.139V28.2897L29.771 26.1345Z" stroke="url(#paint2_linear_7817_2549)" stroke-width="1.02663" stroke-miterlimit="10"/>
<path d="M28.2435 23.5161V31.521C28.2436 31.5242 28.2428 31.5274 28.2412 31.5301C28.2397 31.5329 28.2374 31.5353 28.2347 31.5369L21.1805 35.7715C21.1777 35.7732 21.1744 35.7742 21.1711 35.7742C21.1678 35.7743 21.1646 35.7734 21.1617 35.7718C21.1588 35.7701 21.1565 35.7678 21.1548 35.765C21.1531 35.7621 21.1523 35.7588 21.1523 35.7555V27.2821C21.1524 27.2787 21.1533 27.2754 21.155 27.2725C21.1568 27.2696 21.1592 27.2671 21.1622 27.2655L28.2163 23.5003C28.2191 23.4987 28.2222 23.4979 28.2253 23.4979C28.2285 23.498 28.2316 23.4989 28.2343 23.5005C28.2371 23.5021 28.2394 23.5043 28.241 23.507C28.2426 23.5098 28.2435 23.5129 28.2435 23.5161Z" stroke="url(#paint3_linear_7817_2549)" stroke-width="1.02663" stroke-miterlimit="10"/>
<path d="M26.7164 26.1345V30.7153L22.6787 33.139V28.2897L26.7164 26.1345Z" stroke="url(#paint4_linear_7817_2549)" stroke-width="1.02663" stroke-miterlimit="10"/>
<path d="M35.3359 34.9878V31.7338L37.1091 30.6611L38.8819 33.7368V53.8598" stroke="url(#paint5_linear_7817_2549)" stroke-width="1.02663" stroke-miterlimit="10"/>
<path d="M28.2437 19.5789V9.78772" stroke="url(#paint6_linear_7817_2549)" stroke-width="1.02663" stroke-miterlimit="10"/>
<path d="M26.4709 24.4872V20.4099L28.2441 19.265L30.017 20.4099V24.4872" stroke="url(#paint7_linear_7817_2549)" stroke-width="1.02663" stroke-miterlimit="10"/>
<path d="M21.1517 34.8829V31.7345L19.3786 30.6619L17.6055 33.7375V53.8297" stroke="url(#paint8_linear_7817_2549)" stroke-width="1.02663" stroke-miterlimit="10"/>
<path d="M33.6949 22.4857L35.3356 23.4855V27.2695L30.0165 11.7562V9.15772L28.2436 9.78756L26.4705 9.0188V11.8379L21.1514 27.2702V23.4863L22.7586 22.6081" stroke="url(#paint9_linear_7817_2549)" stroke-width="1.02663" stroke-miterlimit="10"/>
<path d="M35.3357 35.788L38.8817 37.7029" stroke="url(#paint10_linear_7817_2549)" stroke-width="1.02663" stroke-miterlimit="10"/>
<path d="M21.1518 35.788L17.6904 37.8385" stroke="url(#paint11_linear_7817_2549)" stroke-width="1.02663" stroke-miterlimit="10"/>
<path d="M22.6787 41.5287V55.013" stroke="url(#paint12_linear_7817_2549)" stroke-width="1.02663" stroke-miterlimit="10" stroke-linecap="round"/>
<path d="M24.5261 44.7103V55.4242" stroke="url(#paint13_linear_7817_2549)" stroke-width="1.02663" stroke-miterlimit="10" stroke-linecap="round"/>
<path d="M26.3735 50.1509V55.697" stroke="url(#paint14_linear_7817_2549)" stroke-width="1.02663" stroke-miterlimit="10" stroke-linecap="round"/>
<path d="M33.7632 41.5287V55.2523" stroke="url(#paint15_linear_7817_2549)" stroke-width="1.02663" stroke-miterlimit="10" stroke-linecap="round"/>
<path d="M31.9158 44.7103V55.4242" stroke="url(#paint16_linear_7817_2549)" stroke-width="1.02663" stroke-miterlimit="10" stroke-linecap="round"/>
<path d="M30.0684 50.1509V55.697" stroke="url(#paint17_linear_7817_2549)" stroke-width="1.02663" stroke-miterlimit="10" stroke-linecap="round"/>
<path d="M28.2209 39.3442V55.9293" stroke="url(#paint18_linear_7817_2549)" stroke-width="1.02663" stroke-miterlimit="10"/>
<path d="M28.221 40.4862C28.7155 40.4862 29.1165 40.0846 29.1165 39.5893C29.1165 39.0939 28.7155 38.6924 28.221 38.6924C27.7264 38.6924 27.3254 39.0939 27.3254 39.5893C27.3254 40.0846 27.7264 40.4862 28.221 40.4862Z" fill="url(#paint19_linear_7817_2549)"/>
<path d="M30.0681 50.8818C30.5627 50.8818 30.9637 50.4803 30.9637 49.9849C30.9637 49.4896 30.5627 49.088 30.0681 49.088C29.5735 49.088 29.1726 49.4896 29.1726 49.9849C29.1726 50.4803 29.5735 50.8818 30.0681 50.8818Z" fill="url(#paint20_linear_7817_2549)"/>
<path d="M31.9158 45.4879C32.4104 45.4879 32.8113 45.0863 32.8113 44.591C32.8113 44.0956 32.4104 43.6941 31.9158 43.6941C31.4212 43.6941 31.0203 44.0956 31.0203 44.591C31.0203 45.0863 31.4212 45.4879 31.9158 45.4879Z" fill="url(#paint21_linear_7817_2549)"/>
<path d="M33.763 42.203C34.2575 42.203 34.6585 41.8014 34.6585 41.3061C34.6585 40.8107 34.2575 40.4092 33.763 40.4092C33.2684 40.4092 32.8674 40.8107 32.8674 41.3061C32.8674 41.8014 33.2684 42.203 33.763 42.203Z" fill="url(#paint22_linear_7817_2549)"/>
<path d="M26.3736 50.8818C26.8681 50.8818 27.2691 50.4803 27.2691 49.9849C27.2691 49.4896 26.8681 49.088 26.3736 49.088C25.879 49.088 25.478 49.4896 25.478 49.9849C25.478 50.4803 25.879 50.8818 26.3736 50.8818Z" fill="url(#paint23_linear_7817_2549)"/>
<path d="M24.5259 45.4879C25.0205 45.4879 25.4214 45.0863 25.4214 44.591C25.4214 44.0956 25.0205 43.6941 24.5259 43.6941C24.0313 43.6941 23.6304 44.0956 23.6304 44.591C23.6304 45.0863 24.0313 45.4879 24.5259 45.4879Z" fill="url(#paint24_linear_7817_2549)"/>
<path d="M22.6787 42.203C23.1733 42.203 23.5742 41.8014 23.5742 41.3061C23.5742 40.8107 23.1733 40.4092 22.6787 40.4092C22.1841 40.4092 21.7832 40.8107 21.7832 41.3061C21.7832 41.8014 22.1841 42.203 22.6787 42.203Z" fill="url(#paint25_linear_7817_2549)"/>
<path d="M21.1516 55.053V40.0101L28.2436 35.7969L35.3356 40.0101V55.053" stroke="url(#paint26_linear_7817_2549)" stroke-width="1.02663" stroke-miterlimit="10"/>
<path d="M28.2915 10.7234V2L31.3597 4.72691V7.54491L28.2915 4.80666" stroke="url(#paint27_linear_7817_2549)" stroke-width="1.02663" stroke-miterlimit="10"/>
<path d="M31.6572 29.0128V29.9514C31.6572 30.0051 31.7007 30.0486 31.7543 30.0486H31.8485C31.9021 30.0486 31.9456 30.0051 31.9456 29.9514V29.0128C31.9456 28.9591 31.9021 28.9155 31.8485 28.9155H31.7543C31.7007 28.9155 31.6572 28.9591 31.6572 29.0128Z" fill="url(#paint28_linear_7817_2549)" stroke="url(#paint29_linear_7817_2549)" stroke-width="1.02663" stroke-miterlimit="10"/>
<path d="M31.9517 29.9058L32.2168 30.0992L32.546 30.3388C32.5776 30.3705 32.5538 30.4665 32.5157 30.5046C32.5005 30.5226 32.4787 30.534 32.4552 30.5361C32.4317 30.5383 32.4082 30.5311 32.3899 30.5161L31.6908 30.0211C31.6591 29.9894 31.8135 29.8772 31.8516 29.8391L31.8827 29.8367C31.9212 29.7981 31.9204 29.8745 31.9517 29.9058Z" fill="url(#paint30_linear_7817_2549)" stroke="url(#paint31_linear_7817_2549)" stroke-width="1.02663"/>
<path d="M24.3206 29.0125V29.9511C24.3206 30.0048 24.364 30.0483 24.4176 30.0483H24.5119C24.5655 30.0483 24.6089 30.0048 24.6089 29.9511V29.0125C24.6089 28.9588 24.5655 28.9153 24.5119 28.9153H24.4176C24.364 28.9153 24.3206 28.9588 24.3206 29.0125Z" fill="url(#paint32_linear_7817_2549)" stroke="url(#paint33_linear_7817_2549)" stroke-width="1.02663" stroke-miterlimit="10"/>
<path d="M24.4406 29.8599L25.2246 29.7913C25.2482 29.7915 25.2709 29.8011 25.2876 29.8179C25.3043 29.8347 25.3138 29.8574 25.314 29.8811L25.3222 29.9751C25.3261 29.9985 25.3207 30.0225 25.3071 30.042C25.2935 30.0614 25.2727 30.0747 25.2494 30.079L24.4657 30.1476C24.4207 30.1515 24.3347 30.0466 24.33 29.9931L24.3678 29.9638C24.3639 29.9404 24.3693 29.9164 24.3829 29.8969C24.3966 29.8775 24.4173 29.8642 24.4406 29.8599Z" fill="url(#paint34_linear_7817_2549)" stroke="url(#paint35_linear_7817_2549)" stroke-width="1.02663"/>
<path d="M45.2912 5.59701C50.0676 9.09724 53.6063 14.0305 55.3939 19.6812C57.1815 25.3318 57.1252 31.4059 55.2329 37.0222C53.3406 42.6386 49.7109 47.5052 44.8703 50.9158C40.0297 54.3264 34.2301 56.1038 28.3128 55.99C22.3954 55.8763 16.6682 53.8772 11.9619 50.283C7.25559 46.6889 3.81508 41.6864 2.13943 36.0015C0.463769 30.3165 0.64017 24.2448 2.64301 18.667C4.64586 13.0892 8.37091 8.2955 13.2779 4.98145" stroke="url(#paint36_linear_7817_2549)" stroke-width="1.02663" stroke-miterlimit="10" stroke-linecap="round"/>
<path d="M45.2912 5.59701C50.0676 9.09724 53.6063 14.0305 55.3939 19.6812C57.1815 25.3318 57.1252 31.4059 55.2329 37.0222C53.3406 42.6386 49.7109 47.5052 44.8703 50.9158C40.0297 54.3264 34.2301 56.1038 28.3128 55.99C22.3954 55.8763 16.6682 53.8772 11.9619 50.283C7.25559 46.6889 3.81508 41.6864 2.13943 36.0015C0.463769 30.3165 0.64017 24.2448 2.64301 18.667C4.64586 13.0892 8.37091 8.2955 13.2779 4.98145" stroke="url(#paint37_linear_7817_2549)" stroke-width="1.02663" stroke-miterlimit="10" stroke-linecap="round"/>
<defs>
<linearGradient id="paint0_linear_7817_2549" x1="29.1264" y1="7.88369" x2="28.6821" y2="10.8339" gradientUnits="userSpaceOnUse">
<stop stop-color="#01A2D9"/>
<stop offset="0.465903" stop-color="#644DA9"/>
</linearGradient>
<linearGradient id="paint1_linear_7817_2549" x1="34.165" y1="26.9331" x2="32.8009" y2="40.7882" gradientUnits="userSpaceOnUse">
<stop stop-color="#01A2D9"/>
<stop offset="0.465903" stop-color="#644DA9"/>
</linearGradient>
<linearGradient id="paint2_linear_7817_2549" x1="33.1419" y1="28.0929" x2="32.3591" y2="36.0121" gradientUnits="userSpaceOnUse">
<stop stop-color="#01A2D9"/>
<stop offset="0.465903" stop-color="#644DA9"/>
</linearGradient>
<linearGradient id="paint3_linear_7817_2549" x1="27.0728" y1="26.9303" x2="25.7035" y2="40.8104" gradientUnits="userSpaceOnUse">
<stop stop-color="#01A2D9"/>
<stop offset="0.465903" stop-color="#644DA9"/>
</linearGradient>
<linearGradient id="paint4_linear_7817_2549" x1="26.0498" y1="28.0929" x2="25.267" y2="36.0121" gradientUnits="userSpaceOnUse">
<stop stop-color="#01A2D9"/>
<stop offset="0.465903" stop-color="#644DA9"/>
</linearGradient>
<linearGradient id="paint5_linear_7817_2549" x1="38.2965" y1="37.1474" x2="29.6281" y2="60.4006" gradientUnits="userSpaceOnUse">
<stop stop-color="#01A2D9"/>
<stop offset="0.465903" stop-color="#644DA9"/>
</linearGradient>
<linearGradient id="paint6_linear_7817_2549" x1="29.0785" y1="12.5253" x2="24.3226" y2="21.0499" gradientUnits="userSpaceOnUse">
<stop stop-color="#01A2D9"/>
<stop offset="0.465903" stop-color="#644DA9"/>
</linearGradient>
<linearGradient id="paint7_linear_7817_2549" x1="29.4315" y1="20.7251" x2="28.9347" y2="26.6453" gradientUnits="userSpaceOnUse">
<stop stop-color="#01A2D9"/>
<stop offset="0.465903" stop-color="#644DA9"/>
</linearGradient>
<linearGradient id="paint8_linear_7817_2549" x1="20.5662" y1="37.1395" x2="11.9185" y2="60.3697" gradientUnits="userSpaceOnUse">
<stop stop-color="#01A2D9"/>
<stop offset="0.465903" stop-color="#644DA9"/>
</linearGradient>
<linearGradient id="paint9_linear_7817_2549" x1="32.9938" y1="14.1218" x2="31.4742" y2="34.847" gradientUnits="userSpaceOnUse">
<stop stop-color="#01A2D9"/>
<stop offset="0.465903" stop-color="#644DA9"/>
</linearGradient>
<linearGradient id="paint10_linear_7817_2549" x1="38.2962" y1="36.3234" x2="38.229" y2="38.5075" gradientUnits="userSpaceOnUse">
<stop stop-color="#01A2D9"/>
<stop offset="0.465903" stop-color="#644DA9"/>
</linearGradient>
<linearGradient id="paint11_linear_7817_2549" x1="20.5803" y1="36.3613" x2="20.5014" y2="38.6996" gradientUnits="userSpaceOnUse">
<stop stop-color="#01A2D9"/>
<stop offset="0.465903" stop-color="#644DA9"/>
</linearGradient>
<linearGradient id="paint12_linear_7817_2549" x1="23.5136" y1="45.2989" x2="16.0762" y2="54.9786" gradientUnits="userSpaceOnUse">
<stop stop-color="#01A2D9"/>
<stop offset="0.465903" stop-color="#644DA9"/>
</linearGradient>
<linearGradient id="paint13_linear_7817_2549" x1="25.361" y1="47.7059" x2="19.9212" y2="56.6164" gradientUnits="userSpaceOnUse">
<stop stop-color="#01A2D9"/>
<stop offset="0.465903" stop-color="#644DA9"/>
</linearGradient>
<linearGradient id="paint14_linear_7817_2549" x1="27.2084" y1="51.7016" x2="25.3891" y2="57.4583" gradientUnits="userSpaceOnUse">
<stop stop-color="#01A2D9"/>
<stop offset="0.465903" stop-color="#644DA9"/>
</linearGradient>
<linearGradient id="paint15_linear_7817_2549" x1="34.5981" y1="45.3658" x2="26.9954" y2="55.088" gradientUnits="userSpaceOnUse">
<stop stop-color="#01A2D9"/>
<stop offset="0.465903" stop-color="#644DA9"/>
</linearGradient>
<linearGradient id="paint16_linear_7817_2549" x1="32.7507" y1="47.7059" x2="27.3109" y2="56.6164" gradientUnits="userSpaceOnUse">
<stop stop-color="#01A2D9"/>
<stop offset="0.465903" stop-color="#644DA9"/>
</linearGradient>
<linearGradient id="paint17_linear_7817_2549" x1="30.9033" y1="51.7016" x2="29.084" y2="57.4583" gradientUnits="userSpaceOnUse">
<stop stop-color="#01A2D9"/>
<stop offset="0.465903" stop-color="#644DA9"/>
</linearGradient>
<linearGradient id="paint18_linear_7817_2549" x1="29.0558" y1="43.9814" x2="19.6039" y2="53.9831" gradientUnits="userSpaceOnUse">
<stop stop-color="#01A2D9"/>
<stop offset="0.465903" stop-color="#644DA9"/>
</linearGradient>
<linearGradient id="paint19_linear_7817_2549" x1="28.8208" y1="39.1939" x2="28.7043" y2="41.2351" gradientUnits="userSpaceOnUse">
<stop stop-color="#01A2D9"/>
<stop offset="0.465903" stop-color="#644DA9"/>
</linearGradient>
<linearGradient id="paint20_linear_7817_2549" x1="30.6679" y1="49.5896" x2="30.5515" y2="51.6308" gradientUnits="userSpaceOnUse">
<stop stop-color="#01A2D9"/>
<stop offset="0.465903" stop-color="#644DA9"/>
</linearGradient>
<linearGradient id="paint21_linear_7817_2549" x1="32.5156" y1="44.1956" x2="32.3991" y2="46.2369" gradientUnits="userSpaceOnUse">
<stop stop-color="#01A2D9"/>
<stop offset="0.465903" stop-color="#644DA9"/>
</linearGradient>
<linearGradient id="paint22_linear_7817_2549" x1="34.3628" y1="40.9107" x2="34.2463" y2="42.9519" gradientUnits="userSpaceOnUse">
<stop stop-color="#01A2D9"/>
<stop offset="0.465903" stop-color="#644DA9"/>
</linearGradient>
<linearGradient id="paint23_linear_7817_2549" x1="26.9734" y1="49.5896" x2="26.8569" y2="51.6308" gradientUnits="userSpaceOnUse">
<stop stop-color="#01A2D9"/>
<stop offset="0.465903" stop-color="#644DA9"/>
</linearGradient>
<linearGradient id="paint24_linear_7817_2549" x1="25.1257" y1="44.1956" x2="25.0092" y2="46.2369" gradientUnits="userSpaceOnUse">
<stop stop-color="#01A2D9"/>
<stop offset="0.465903" stop-color="#644DA9"/>
</linearGradient>
<linearGradient id="paint25_linear_7817_2549" x1="23.2785" y1="40.9107" x2="23.1621" y2="42.9519" gradientUnits="userSpaceOnUse">
<stop stop-color="#01A2D9"/>
<stop offset="0.465903" stop-color="#644DA9"/>
</linearGradient>
<linearGradient id="paint26_linear_7817_2549" x1="32.9938" y1="41.1808" x2="31.3033" y2="63.0337" gradientUnits="userSpaceOnUse">
<stop stop-color="#01A2D9"/>
<stop offset="0.465903" stop-color="#644DA9"/>
</linearGradient>
<linearGradient id="paint27_linear_7817_2549" x1="30.8532" y1="4.43905" x2="29.281" y2="14.1434" gradientUnits="userSpaceOnUse">
<stop stop-color="#01A2D9"/>
<stop offset="0.465903" stop-color="#644DA9"/>
</linearGradient>
<linearGradient id="paint28_linear_7817_2549" x1="31.7379" y1="29.1026" x2="32.067" y2="29.1074" gradientUnits="userSpaceOnUse">
<stop stop-color="#01A2D9"/>
<stop offset="0.465903" stop-color="#644DA9"/>
</linearGradient>
<linearGradient id="paint29_linear_7817_2549" x1="31.7379" y1="29.1026" x2="32.067" y2="29.1074" gradientUnits="userSpaceOnUse">
<stop stop-color="#01A2D9"/>
<stop offset="0.465903" stop-color="#644DA9"/>
</linearGradient>
<linearGradient id="paint30_linear_7817_2549" x1="32.4278" y1="30.3711" x2="32.1133" y2="30.671" gradientUnits="userSpaceOnUse">
<stop stop-color="#01A2D9"/>
<stop offset="0.465903" stop-color="#644DA9"/>
</linearGradient>
<linearGradient id="paint31_linear_7817_2549" x1="32.4278" y1="30.3711" x2="32.1133" y2="30.671" gradientUnits="userSpaceOnUse">
<stop stop-color="#01A2D9"/>
<stop offset="0.465903" stop-color="#644DA9"/>
</linearGradient>
<linearGradient id="paint32_linear_7817_2549" x1="24.4012" y1="29.1024" x2="24.7304" y2="29.1071" gradientUnits="userSpaceOnUse">
<stop stop-color="#01A2D9"/>
<stop offset="0.465903" stop-color="#644DA9"/>
</linearGradient>
<linearGradient id="paint33_linear_7817_2549" x1="24.4012" y1="29.1024" x2="24.7304" y2="29.1071" gradientUnits="userSpaceOnUse">
<stop stop-color="#01A2D9"/>
<stop offset="0.465903" stop-color="#644DA9"/>
</linearGradient>
<linearGradient id="paint34_linear_7817_2549" x1="25.15" y1="29.8789" x2="25.1733" y2="30.2077" gradientUnits="userSpaceOnUse">
<stop stop-color="#01A2D9"/>
<stop offset="0.465903" stop-color="#644DA9"/>
</linearGradient>
<linearGradient id="paint35_linear_7817_2549" x1="25.15" y1="29.8789" x2="25.1733" y2="30.2077" gradientUnits="userSpaceOnUse">
<stop stop-color="#01A2D9"/>
<stop offset="0.465903" stop-color="#644DA9"/>
</linearGradient>
<linearGradient id="paint36_linear_7817_2549" x1="47.4992" y1="19.2447" x2="44.4678" y2="77.326" gradientUnits="userSpaceOnUse">
<stop stop-color="#01A2D9"/>
<stop offset="0.465903" stop-color="#644DA9"/>
</linearGradient>
<linearGradient id="paint37_linear_7817_2549" x1="47.4992" y1="19.2447" x2="44.4678" y2="77.326" gradientUnits="userSpaceOnUse">
<stop stop-color="#01A2D9"/>
<stop offset="0.465903" stop-color="#644DA9"/>
</linearGradient>
</defs>
</svg>
