<svg width="254" height="57" viewBox="0 0 254 57" fill="none" xmlns="http://www.w3.org/2000/svg">
<path d="M86.9208 26.5424V38.1485C86.9208 41.67 86.0032 43.9763 84.168 45.0675C82.3329 46.1587 80.3241 46.7043 78.1418 46.7043C76.009 46.6051 74.0499 46.0099 72.2643 44.9187C70.5284 43.8275 69.6604 41.5708 69.6604 38.1485V26.5424H74.8683V39.1901C74.8683 40.3804 75.2155 41.2484 75.9098 41.794C76.6042 42.3396 77.3978 42.6124 78.2906 42.6124C79.1834 42.6124 79.9769 42.3396 80.6713 41.794C81.4153 41.2484 81.7873 40.3804 81.7873 39.1901V29.0719C81.7873 28.3775 82.0105 27.7824 82.4569 27.2864C82.9529 26.7904 83.5728 26.5424 84.3168 26.5424H86.9208ZM92.575 33.5358C92.575 36.4125 93.195 38.5949 94.435 40.0828C95.6749 41.6204 97.4357 42.3892 99.7172 42.3892C101.949 42.3892 103.71 41.6204 104.999 40.0828C106.289 38.4957 106.934 36.3133 106.934 33.5358C106.934 30.7583 106.289 28.5511 104.999 26.9144C103.71 25.3768 101.949 24.608 99.7172 24.608C97.4357 24.608 95.6749 25.3768 94.435 26.9144C93.195 28.4519 92.575 30.6591 92.575 33.5358ZM87.2927 33.5358C87.2927 29.3695 88.3839 26.0712 90.5663 23.6409C92.8974 21.2105 95.9477 19.9954 99.7172 19.9954C103.437 19.9954 106.487 21.2105 108.868 23.6409C111.1 26.1208 112.216 29.4191 112.216 33.5358C112.216 37.6525 111.1 40.926 108.868 43.3564C106.587 45.7371 103.536 46.9275 99.7172 46.9275C95.8485 46.9275 92.7982 45.7371 90.5663 43.3564C88.3839 40.9756 87.2927 37.7021 87.2927 33.5358ZM122.185 46.3323C120.549 46.4315 118.763 46.4067 116.829 46.2579C114.944 46.1091 114.002 44.8939 114.002 42.6124V20.7393H116.68C117.325 20.7393 117.895 20.9873 118.391 21.4833C118.887 21.9793 119.135 22.5745 119.135 23.2689V26.6168H122.185V27.6584C122.185 28.4023 121.937 29.0223 121.441 29.5183C120.945 29.9647 120.35 30.1879 119.656 30.1879H119.135V41.1988C119.135 42.042 119.631 42.4636 120.623 42.4636H122.185V46.3323ZM131.411 46.3323C129.774 46.4315 127.988 46.4067 126.054 46.2579C124.169 46.1091 123.227 44.8939 123.227 42.6124V20.7393H125.905C126.55 20.7393 127.121 20.9873 127.616 21.4833C128.112 21.9793 128.36 22.5745 128.36 23.2689V26.6168H131.411V27.6584C131.411 28.4023 131.163 29.0223 130.667 29.5183C130.171 29.9647 129.576 30.1879 128.881 30.1879H128.36V41.1988C128.36 42.042 128.856 42.4636 129.848 42.4636H131.411V46.3323ZM143.314 36.3629C142.62 36.7101 141.653 37.0325 140.413 37.3301C139.272 37.5781 138.702 37.7021 138.702 37.7021C137.809 37.9501 137.164 38.2725 136.767 38.6693C136.42 39.2149 136.247 39.7604 136.247 40.306C136.247 41.05 136.47 41.6452 136.916 42.0916C137.363 42.4884 138.007 42.6868 138.851 42.6868C140.239 42.6868 141.331 42.29 142.124 41.4964C142.918 40.7028 143.314 39.6117 143.314 38.2229V36.3629ZM144.505 45.5139C143.463 46.0595 142.347 46.3819 141.157 46.4811C140.016 46.6299 138.999 46.7043 138.107 46.7043C136.321 46.7043 134.759 46.2331 133.42 45.2907C132.08 44.2987 131.411 42.6868 131.411 40.4548C131.411 38.3717 132.006 36.8837 133.196 35.9909C134.436 35.0982 135.999 34.503 137.883 34.2054C138.131 34.2054 138.429 34.1806 138.776 34.131C139.123 34.0318 139.52 33.9574 139.967 33.9078C142.149 33.6102 143.24 32.9654 143.24 31.9734C143.24 31.2295 142.843 30.7583 142.05 30.5599C141.306 30.3119 140.611 30.1879 139.967 30.1879C139.272 30.1879 138.652 30.2871 138.107 30.4855C137.561 30.6839 137.164 31.0559 136.916 31.6015H131.932C132.13 30.0639 132.824 28.7991 134.015 27.8072C135.354 26.6664 137.263 26.096 139.743 26.096C142.521 26.096 144.604 26.5672 145.993 27.5096C147.431 28.5015 148.15 29.8903 148.15 31.6759V38.4461C148.15 40.43 147.778 41.9924 147.034 43.1332C146.34 44.2243 145.497 45.0179 144.505 45.5139ZM148.894 46.3323V23.4177C148.894 22.6737 149.142 22.0537 149.638 21.5577C150.184 21.0121 150.829 20.7393 151.573 20.7393H154.177V30.2623H164.741V20.7393H170.098V46.3323H164.741V34.9494H154.177V46.3323H148.894ZM182.597 36.3629C181.902 36.7101 180.935 37.0325 179.695 37.3301C178.554 37.5781 177.984 37.7021 177.984 37.7021C177.091 37.9501 176.446 38.2725 176.05 38.6693C175.702 39.2149 175.529 39.7604 175.529 40.306C175.529 41.05 175.752 41.6452 176.198 42.0916C176.645 42.4884 177.29 42.6868 178.133 42.6868C179.522 42.6868 180.613 42.29 181.406 41.4964C182.2 40.7028 182.597 39.6117 182.597 38.2229V36.3629ZM183.787 45.5139C182.745 46.0595 181.629 46.3819 180.439 46.4811C179.298 46.6299 178.282 46.7043 177.389 46.7043C175.603 46.7043 174.041 46.2331 172.702 45.2907C171.363 44.2987 170.693 42.6868 170.693 40.4548C170.693 38.3717 171.288 36.8837 172.479 35.9909C173.718 35.0982 175.281 34.503 177.166 34.2054C177.414 34.2054 177.711 34.1806 178.058 34.131C178.406 34.0318 178.802 33.9574 179.249 33.9078C181.431 33.6102 182.522 32.9654 182.522 31.9734C182.522 31.2295 182.125 30.7583 181.332 30.5599C180.588 30.3119 179.894 30.1879 179.249 30.1879C178.554 30.1879 177.934 30.2871 177.389 30.4855C176.843 30.6839 176.446 31.0559 176.198 31.6015H171.214C171.412 30.0639 172.107 28.7991 173.297 27.8072C174.636 26.6664 176.546 26.096 179.026 26.096C181.803 26.096 183.886 26.5672 185.275 27.5096C186.713 28.5015 187.433 29.8903 187.433 31.6759V38.4461C187.433 40.43 187.061 41.9924 186.317 43.1332C185.622 44.2243 184.779 45.0179 183.787 45.5139ZM201.94 40.2316H205.66C205.114 42.3148 204.073 43.9019 202.535 44.9931C200.998 46.1339 199.063 46.7043 196.732 46.7043C193.905 46.7043 191.698 45.7867 190.111 43.9515C188.524 42.166 187.73 39.6117 187.73 36.2885C187.73 33.1142 188.499 30.6343 190.036 28.8487C191.624 27.0136 193.831 26.096 196.658 26.096C199.634 26.096 201.94 26.9888 203.577 28.7743C204.47 29.8655 205.114 31.1303 205.511 32.5686H200.303C200.055 32.0726 199.807 31.7007 199.559 31.4527C198.915 30.7583 197.997 30.4111 196.807 30.4111C195.716 30.4111 194.823 30.7583 194.128 31.4527C193.236 32.4446 192.789 34.0814 192.789 36.3629C192.789 38.6445 193.236 40.2564 194.128 41.1988C194.773 41.9924 195.74 42.3892 197.03 42.3892C197.873 42.3892 198.592 42.2156 199.187 41.8684C199.336 41.8188 199.46 41.7444 199.559 41.6452C199.708 41.4964 199.857 41.3476 200.006 41.1988C200.105 41.05 200.303 40.8516 200.601 40.6036C200.899 40.3556 201.345 40.2316 201.94 40.2316ZM211.686 26.5424V33.8334L218.01 26.5424H224.26L217.192 34.131L224.334 46.3323H218.085L214.439 39.6364C213.695 38.2973 213.05 37.7269 212.505 37.9253C211.959 38.1237 211.686 38.4213 211.686 38.8181V41.5708V46.3323H206.478V20.7393H209.157C209.851 20.7393 210.446 20.9873 210.942 21.4833C211.438 21.9793 211.686 22.5497 211.686 23.1945V26.5424ZM243.082 46.3323H237.577C237.676 42.8604 238.544 39.2893 240.181 35.619C241.619 32.1966 243.801 28.7247 246.728 25.2032H233.783V20.7393H250.745C252.084 20.7393 252.853 21.2353 253.052 22.2273C253.25 23.1697 253.052 23.9881 252.456 24.6824C251.018 26.3192 249.729 27.9808 248.588 29.6671C247.497 31.3039 246.579 33.015 245.835 34.8006C244.198 38.5205 243.281 42.3644 243.082 46.3323Z" fill="url(#paint0_linear_7625_697)"/>
<path d="M28.2915 9.78757V7.14478" stroke="url(#paint1_linear_7625_697)" stroke-width="1.02663" stroke-miterlimit="10"/>
<path d="M28.2437 23.5421V31.5116C28.2437 31.5175 28.2452 31.5233 28.2481 31.5284C28.251 31.5335 28.2551 31.5378 28.2601 31.5408L35.2842 35.7559C35.2894 35.759 35.2953 35.7606 35.3014 35.7607C35.3074 35.7608 35.3133 35.7592 35.3185 35.7563C35.3238 35.7533 35.3281 35.7491 35.3311 35.7439C35.3342 35.7387 35.3359 35.7327 35.3359 35.7267V27.2898C35.3359 27.2837 35.3343 27.2776 35.3311 27.2723C35.328 27.267 35.3234 27.2626 35.3179 27.2597L28.2936 23.511C28.2884 23.5081 28.2824 23.5068 28.2765 23.507C28.2705 23.5072 28.2647 23.5088 28.2597 23.512C28.2546 23.5152 28.2505 23.5196 28.2476 23.5249C28.2448 23.5301 28.2435 23.5361 28.2437 23.5421Z" stroke="url(#paint2_linear_7625_697)" stroke-width="1.02663" stroke-miterlimit="10"/>
<path d="M29.771 26.1345V30.7153L33.8086 33.139V28.2897L29.771 26.1345Z" stroke="url(#paint3_linear_7625_697)" stroke-width="1.02663" stroke-miterlimit="10"/>
<path d="M28.2435 23.5161V31.521C28.2436 31.5242 28.2428 31.5274 28.2412 31.5301C28.2397 31.5329 28.2374 31.5353 28.2347 31.5369L21.1805 35.7715C21.1777 35.7732 21.1744 35.7742 21.1711 35.7742C21.1678 35.7743 21.1646 35.7734 21.1617 35.7718C21.1588 35.7701 21.1565 35.7678 21.1548 35.765C21.1531 35.7621 21.1523 35.7588 21.1523 35.7555V27.2821C21.1524 27.2787 21.1533 27.2754 21.155 27.2725C21.1568 27.2696 21.1592 27.2671 21.1622 27.2655L28.2163 23.5003C28.2191 23.4987 28.2222 23.4979 28.2253 23.4979C28.2285 23.498 28.2316 23.4989 28.2343 23.5005C28.2371 23.5021 28.2394 23.5043 28.241 23.507C28.2426 23.5098 28.2435 23.5129 28.2435 23.5161Z" stroke="url(#paint4_linear_7625_697)" stroke-width="1.02663" stroke-miterlimit="10"/>
<path d="M26.7164 26.1345V30.7153L22.6787 33.139V28.2897L26.7164 26.1345Z" stroke="url(#paint5_linear_7625_697)" stroke-width="1.02663" stroke-miterlimit="10"/>
<path d="M35.3359 34.9878V31.7338L37.1091 30.6611L38.8819 33.7368V53.8598" stroke="url(#paint6_linear_7625_697)" stroke-width="1.02663" stroke-miterlimit="10"/>
<path d="M28.2437 19.5789V9.78772" stroke="url(#paint7_linear_7625_697)" stroke-width="1.02663" stroke-miterlimit="10"/>
<path d="M26.4709 24.4872V20.4099L28.2441 19.265L30.017 20.4099V24.4872" stroke="url(#paint8_linear_7625_697)" stroke-width="1.02663" stroke-miterlimit="10"/>
<path d="M21.1517 34.8829V31.7345L19.3786 30.6619L17.6055 33.7375V53.8297" stroke="url(#paint9_linear_7625_697)" stroke-width="1.02663" stroke-miterlimit="10"/>
<path d="M33.6949 22.4857L35.3356 23.4855V27.2695L30.0165 11.7562V9.15772L28.2436 9.78756L26.4705 9.0188V11.8379L21.1514 27.2702V23.4863L22.7586 22.6081" stroke="url(#paint10_linear_7625_697)" stroke-width="1.02663" stroke-miterlimit="10"/>
<path d="M35.3357 35.788L38.8817 37.7029" stroke="url(#paint11_linear_7625_697)" stroke-width="1.02663" stroke-miterlimit="10"/>
<path d="M21.1518 35.788L17.6904 37.8385" stroke="url(#paint12_linear_7625_697)" stroke-width="1.02663" stroke-miterlimit="10"/>
<path d="M22.6787 41.5287V55.013" stroke="url(#paint13_linear_7625_697)" stroke-width="1.02663" stroke-miterlimit="10" stroke-linecap="round"/>
<path d="M24.5261 44.7103V55.4242" stroke="url(#paint14_linear_7625_697)" stroke-width="1.02663" stroke-miterlimit="10" stroke-linecap="round"/>
<path d="M26.3735 50.1509V55.697" stroke="url(#paint15_linear_7625_697)" stroke-width="1.02663" stroke-miterlimit="10" stroke-linecap="round"/>
<path d="M33.7632 41.5287V55.2523" stroke="url(#paint16_linear_7625_697)" stroke-width="1.02663" stroke-miterlimit="10" stroke-linecap="round"/>
<path d="M31.9158 44.7103V55.4242" stroke="url(#paint17_linear_7625_697)" stroke-width="1.02663" stroke-miterlimit="10" stroke-linecap="round"/>
<path d="M30.0684 50.1509V55.697" stroke="url(#paint18_linear_7625_697)" stroke-width="1.02663" stroke-miterlimit="10" stroke-linecap="round"/>
<path d="M28.2209 39.3442V55.9293" stroke="url(#paint19_linear_7625_697)" stroke-width="1.02663" stroke-miterlimit="10"/>
<path d="M28.221 40.4862C28.7155 40.4862 29.1165 40.0846 29.1165 39.5893C29.1165 39.0939 28.7155 38.6924 28.221 38.6924C27.7264 38.6924 27.3254 39.0939 27.3254 39.5893C27.3254 40.0846 27.7264 40.4862 28.221 40.4862Z" fill="url(#paint20_linear_7625_697)"/>
<path d="M30.0681 50.8818C30.5627 50.8818 30.9637 50.4803 30.9637 49.9849C30.9637 49.4896 30.5627 49.088 30.0681 49.088C29.5735 49.088 29.1726 49.4896 29.1726 49.9849C29.1726 50.4803 29.5735 50.8818 30.0681 50.8818Z" fill="url(#paint21_linear_7625_697)"/>
<path d="M31.9158 45.4879C32.4104 45.4879 32.8113 45.0863 32.8113 44.591C32.8113 44.0956 32.4104 43.6941 31.9158 43.6941C31.4212 43.6941 31.0203 44.0956 31.0203 44.591C31.0203 45.0863 31.4212 45.4879 31.9158 45.4879Z" fill="url(#paint22_linear_7625_697)"/>
<path d="M33.763 42.203C34.2575 42.203 34.6585 41.8014 34.6585 41.3061C34.6585 40.8107 34.2575 40.4092 33.763 40.4092C33.2684 40.4092 32.8674 40.8107 32.8674 41.3061C32.8674 41.8014 33.2684 42.203 33.763 42.203Z" fill="url(#paint23_linear_7625_697)"/>
<path d="M26.3736 50.8818C26.8681 50.8818 27.2691 50.4803 27.2691 49.9849C27.2691 49.4896 26.8681 49.088 26.3736 49.088C25.879 49.088 25.478 49.4896 25.478 49.9849C25.478 50.4803 25.879 50.8818 26.3736 50.8818Z" fill="url(#paint24_linear_7625_697)"/>
<path d="M24.5259 45.4879C25.0205 45.4879 25.4214 45.0863 25.4214 44.591C25.4214 44.0956 25.0205 43.6941 24.5259 43.6941C24.0313 43.6941 23.6304 44.0956 23.6304 44.591C23.6304 45.0863 24.0313 45.4879 24.5259 45.4879Z" fill="url(#paint25_linear_7625_697)"/>
<path d="M22.6787 42.203C23.1733 42.203 23.5742 41.8014 23.5742 41.3061C23.5742 40.8107 23.1733 40.4092 22.6787 40.4092C22.1841 40.4092 21.7832 40.8107 21.7832 41.3061C21.7832 41.8014 22.1841 42.203 22.6787 42.203Z" fill="url(#paint26_linear_7625_697)"/>
<path d="M21.1516 55.053V40.0101L28.2436 35.7969L35.3356 40.0101V55.053" stroke="url(#paint27_linear_7625_697)" stroke-width="1.02663" stroke-miterlimit="10"/>
<path d="M28.2915 10.7234V2L31.3597 4.72691V7.54491L28.2915 4.80666" stroke="url(#paint28_linear_7625_697)" stroke-width="1.02663" stroke-miterlimit="10"/>
<path d="M31.6572 29.0128V29.9514C31.6572 30.0051 31.7007 30.0486 31.7543 30.0486H31.8485C31.9021 30.0486 31.9456 30.0051 31.9456 29.9514V29.0128C31.9456 28.9591 31.9021 28.9155 31.8485 28.9155H31.7543C31.7007 28.9155 31.6572 28.9591 31.6572 29.0128Z" fill="url(#paint29_linear_7625_697)" stroke="url(#paint30_linear_7625_697)" stroke-width="1.02663" stroke-miterlimit="10"/>
<path d="M31.9517 29.9058L32.2168 30.0992L32.546 30.3388C32.5776 30.3705 32.5538 30.4665 32.5157 30.5046C32.5005 30.5226 32.4787 30.534 32.4552 30.5361C32.4317 30.5383 32.4082 30.5311 32.3899 30.5161L31.6908 30.0211C31.6591 29.9894 31.8135 29.8772 31.8516 29.8391L31.8827 29.8367C31.9212 29.7981 31.9204 29.8745 31.9517 29.9058Z" fill="url(#paint31_linear_7625_697)" stroke="url(#paint32_linear_7625_697)" stroke-width="1.02663"/>
<path d="M24.3206 29.0125V29.9511C24.3206 30.0048 24.364 30.0483 24.4176 30.0483H24.5119C24.5655 30.0483 24.6089 30.0048 24.6089 29.9511V29.0125C24.6089 28.9588 24.5655 28.9153 24.5119 28.9153H24.4176C24.364 28.9153 24.3206 28.9588 24.3206 29.0125Z" fill="url(#paint33_linear_7625_697)" stroke="url(#paint34_linear_7625_697)" stroke-width="1.02663" stroke-miterlimit="10"/>
<path d="M24.4406 29.8599L25.2246 29.7913C25.2482 29.7915 25.2709 29.8011 25.2876 29.8179C25.3043 29.8347 25.3138 29.8574 25.314 29.8811L25.3222 29.9751C25.3261 29.9985 25.3207 30.0225 25.3071 30.042C25.2935 30.0614 25.2727 30.0747 25.2494 30.079L24.4657 30.1476C24.4207 30.1515 24.3347 30.0466 24.33 29.9931L24.3678 29.9638C24.3639 29.9404 24.3693 29.9164 24.3829 29.8969C24.3966 29.8775 24.4173 29.8642 24.4406 29.8599Z" fill="url(#paint35_linear_7625_697)" stroke="url(#paint36_linear_7625_697)" stroke-width="1.02663"/>
<path d="M45.2912 5.59701C50.0676 9.09724 53.6063 14.0305 55.3939 19.6812C57.1815 25.3318 57.1252 31.4059 55.2329 37.0222C53.3406 42.6386 49.7109 47.5052 44.8703 50.9158C40.0297 54.3264 34.2301 56.1038 28.3128 55.99C22.3954 55.8763 16.6682 53.8772 11.9619 50.283C7.25559 46.6889 3.81508 41.6864 2.13943 36.0015C0.463769 30.3165 0.64017 24.2448 2.64301 18.667C4.64586 13.0892 8.37091 8.2955 13.2779 4.98145" stroke="url(#paint37_linear_7625_697)" stroke-width="1.02663" stroke-miterlimit="10" stroke-linecap="round"/>
<path d="M45.2912 5.59701C50.0676 9.09724 53.6063 14.0305 55.3939 19.6812C57.1815 25.3318 57.1252 31.4059 55.2329 37.0222C53.3406 42.6386 49.7109 47.5052 44.8703 50.9158C40.0297 54.3264 34.2301 56.1038 28.3128 55.99C22.3954 55.8763 16.6682 53.8772 11.9619 50.283C7.25559 46.6889 3.81508 41.6864 2.13943 36.0015C0.463769 30.3165 0.64017 24.2448 2.64301 18.667C4.64586 13.0892 8.37091 8.2955 13.2779 4.98145" stroke="url(#paint38_linear_7625_697)" stroke-width="1.02663" stroke-miterlimit="10" stroke-linecap="round"/>
<defs>
<linearGradient id="paint0_linear_7625_697" x1="224.116" y1="24.7958" x2="223.525" y2="71.5956" gradientUnits="userSpaceOnUse">
<stop stop-color="#01A2D9"/>
<stop offset="0.465903" stop-color="#644DA9"/>
</linearGradient>
<linearGradient id="paint1_linear_7625_697" x1="29.1264" y1="7.88369" x2="28.6821" y2="10.8339" gradientUnits="userSpaceOnUse">
<stop stop-color="#01A2D9"/>
<stop offset="0.465903" stop-color="#644DA9"/>
</linearGradient>
<linearGradient id="paint2_linear_7625_697" x1="34.165" y1="26.9331" x2="32.8009" y2="40.7882" gradientUnits="userSpaceOnUse">
<stop stop-color="#01A2D9"/>
<stop offset="0.465903" stop-color="#644DA9"/>
</linearGradient>
<linearGradient id="paint3_linear_7625_697" x1="33.1419" y1="28.0929" x2="32.3591" y2="36.0121" gradientUnits="userSpaceOnUse">
<stop stop-color="#01A2D9"/>
<stop offset="0.465903" stop-color="#644DA9"/>
</linearGradient>
<linearGradient id="paint4_linear_7625_697" x1="27.0728" y1="26.9303" x2="25.7035" y2="40.8104" gradientUnits="userSpaceOnUse">
<stop stop-color="#01A2D9"/>
<stop offset="0.465903" stop-color="#644DA9"/>
</linearGradient>
<linearGradient id="paint5_linear_7625_697" x1="26.0498" y1="28.0929" x2="25.267" y2="36.0121" gradientUnits="userSpaceOnUse">
<stop stop-color="#01A2D9"/>
<stop offset="0.465903" stop-color="#644DA9"/>
</linearGradient>
<linearGradient id="paint6_linear_7625_697" x1="38.2965" y1="37.1474" x2="29.6281" y2="60.4006" gradientUnits="userSpaceOnUse">
<stop stop-color="#01A2D9"/>
<stop offset="0.465903" stop-color="#644DA9"/>
</linearGradient>
<linearGradient id="paint7_linear_7625_697" x1="29.0785" y1="12.5253" x2="24.3226" y2="21.0499" gradientUnits="userSpaceOnUse">
<stop stop-color="#01A2D9"/>
<stop offset="0.465903" stop-color="#644DA9"/>
</linearGradient>
<linearGradient id="paint8_linear_7625_697" x1="29.4315" y1="20.7251" x2="28.9347" y2="26.6453" gradientUnits="userSpaceOnUse">
<stop stop-color="#01A2D9"/>
<stop offset="0.465903" stop-color="#644DA9"/>
</linearGradient>
<linearGradient id="paint9_linear_7625_697" x1="20.5662" y1="37.1395" x2="11.9185" y2="60.3697" gradientUnits="userSpaceOnUse">
<stop stop-color="#01A2D9"/>
<stop offset="0.465903" stop-color="#644DA9"/>
</linearGradient>
<linearGradient id="paint10_linear_7625_697" x1="32.9938" y1="14.1218" x2="31.4742" y2="34.847" gradientUnits="userSpaceOnUse">
<stop stop-color="#01A2D9"/>
<stop offset="0.465903" stop-color="#644DA9"/>
</linearGradient>
<linearGradient id="paint11_linear_7625_697" x1="38.2962" y1="36.3234" x2="38.229" y2="38.5075" gradientUnits="userSpaceOnUse">
<stop stop-color="#01A2D9"/>
<stop offset="0.465903" stop-color="#644DA9"/>
</linearGradient>
<linearGradient id="paint12_linear_7625_697" x1="20.5803" y1="36.3613" x2="20.5014" y2="38.6996" gradientUnits="userSpaceOnUse">
<stop stop-color="#01A2D9"/>
<stop offset="0.465903" stop-color="#644DA9"/>
</linearGradient>
<linearGradient id="paint13_linear_7625_697" x1="23.5136" y1="45.2989" x2="16.0762" y2="54.9786" gradientUnits="userSpaceOnUse">
<stop stop-color="#01A2D9"/>
<stop offset="0.465903" stop-color="#644DA9"/>
</linearGradient>
<linearGradient id="paint14_linear_7625_697" x1="25.361" y1="47.7059" x2="19.9212" y2="56.6164" gradientUnits="userSpaceOnUse">
<stop stop-color="#01A2D9"/>
<stop offset="0.465903" stop-color="#644DA9"/>
</linearGradient>
<linearGradient id="paint15_linear_7625_697" x1="27.2084" y1="51.7016" x2="25.3891" y2="57.4583" gradientUnits="userSpaceOnUse">
<stop stop-color="#01A2D9"/>
<stop offset="0.465903" stop-color="#644DA9"/>
</linearGradient>
<linearGradient id="paint16_linear_7625_697" x1="34.5981" y1="45.3658" x2="26.9954" y2="55.088" gradientUnits="userSpaceOnUse">
<stop stop-color="#01A2D9"/>
<stop offset="0.465903" stop-color="#644DA9"/>
</linearGradient>
<linearGradient id="paint17_linear_7625_697" x1="32.7507" y1="47.7059" x2="27.3109" y2="56.6164" gradientUnits="userSpaceOnUse">
<stop stop-color="#01A2D9"/>
<stop offset="0.465903" stop-color="#644DA9"/>
</linearGradient>
<linearGradient id="paint18_linear_7625_697" x1="30.9033" y1="51.7016" x2="29.084" y2="57.4583" gradientUnits="userSpaceOnUse">
<stop stop-color="#01A2D9"/>
<stop offset="0.465903" stop-color="#644DA9"/>
</linearGradient>
<linearGradient id="paint19_linear_7625_697" x1="29.0558" y1="43.9814" x2="19.6039" y2="53.9831" gradientUnits="userSpaceOnUse">
<stop stop-color="#01A2D9"/>
<stop offset="0.465903" stop-color="#644DA9"/>
</linearGradient>
<linearGradient id="paint20_linear_7625_697" x1="28.8208" y1="39.1939" x2="28.7043" y2="41.2351" gradientUnits="userSpaceOnUse">
<stop stop-color="#01A2D9"/>
<stop offset="0.465903" stop-color="#644DA9"/>
</linearGradient>
<linearGradient id="paint21_linear_7625_697" x1="30.6679" y1="49.5896" x2="30.5515" y2="51.6308" gradientUnits="userSpaceOnUse">
<stop stop-color="#01A2D9"/>
<stop offset="0.465903" stop-color="#644DA9"/>
</linearGradient>
<linearGradient id="paint22_linear_7625_697" x1="32.5156" y1="44.1956" x2="32.3991" y2="46.2369" gradientUnits="userSpaceOnUse">
<stop stop-color="#01A2D9"/>
<stop offset="0.465903" stop-color="#644DA9"/>
</linearGradient>
<linearGradient id="paint23_linear_7625_697" x1="34.3628" y1="40.9107" x2="34.2463" y2="42.9519" gradientUnits="userSpaceOnUse">
<stop stop-color="#01A2D9"/>
<stop offset="0.465903" stop-color="#644DA9"/>
</linearGradient>
<linearGradient id="paint24_linear_7625_697" x1="26.9734" y1="49.5896" x2="26.8569" y2="51.6308" gradientUnits="userSpaceOnUse">
<stop stop-color="#01A2D9"/>
<stop offset="0.465903" stop-color="#644DA9"/>
</linearGradient>
<linearGradient id="paint25_linear_7625_697" x1="25.1257" y1="44.1956" x2="25.0092" y2="46.2369" gradientUnits="userSpaceOnUse">
<stop stop-color="#01A2D9"/>
<stop offset="0.465903" stop-color="#644DA9"/>
</linearGradient>
<linearGradient id="paint26_linear_7625_697" x1="23.2785" y1="40.9107" x2="23.1621" y2="42.9519" gradientUnits="userSpaceOnUse">
<stop stop-color="#01A2D9"/>
<stop offset="0.465903" stop-color="#644DA9"/>
</linearGradient>
<linearGradient id="paint27_linear_7625_697" x1="32.9938" y1="41.1808" x2="31.3033" y2="63.0337" gradientUnits="userSpaceOnUse">
<stop stop-color="#01A2D9"/>
<stop offset="0.465903" stop-color="#644DA9"/>
</linearGradient>
<linearGradient id="paint28_linear_7625_697" x1="30.8532" y1="4.43905" x2="29.281" y2="14.1434" gradientUnits="userSpaceOnUse">
<stop stop-color="#01A2D9"/>
<stop offset="0.465903" stop-color="#644DA9"/>
</linearGradient>
<linearGradient id="paint29_linear_7625_697" x1="31.7379" y1="29.1026" x2="32.067" y2="29.1074" gradientUnits="userSpaceOnUse">
<stop stop-color="#01A2D9"/>
<stop offset="0.465903" stop-color="#644DA9"/>
</linearGradient>
<linearGradient id="paint30_linear_7625_697" x1="31.7379" y1="29.1026" x2="32.067" y2="29.1074" gradientUnits="userSpaceOnUse">
<stop stop-color="#01A2D9"/>
<stop offset="0.465903" stop-color="#644DA9"/>
</linearGradient>
<linearGradient id="paint31_linear_7625_697" x1="32.4278" y1="30.3711" x2="32.1133" y2="30.671" gradientUnits="userSpaceOnUse">
<stop stop-color="#01A2D9"/>
<stop offset="0.465903" stop-color="#644DA9"/>
</linearGradient>
<linearGradient id="paint32_linear_7625_697" x1="32.4278" y1="30.3711" x2="32.1133" y2="30.671" gradientUnits="userSpaceOnUse">
<stop stop-color="#01A2D9"/>
<stop offset="0.465903" stop-color="#644DA9"/>
</linearGradient>
<linearGradient id="paint33_linear_7625_697" x1="24.4012" y1="29.1024" x2="24.7304" y2="29.1071" gradientUnits="userSpaceOnUse">
<stop stop-color="#01A2D9"/>
<stop offset="0.465903" stop-color="#644DA9"/>
</linearGradient>
<linearGradient id="paint34_linear_7625_697" x1="24.4012" y1="29.1024" x2="24.7304" y2="29.1071" gradientUnits="userSpaceOnUse">
<stop stop-color="#01A2D9"/>
<stop offset="0.465903" stop-color="#644DA9"/>
</linearGradient>
<linearGradient id="paint35_linear_7625_697" x1="25.15" y1="29.8789" x2="25.1733" y2="30.2077" gradientUnits="userSpaceOnUse">
<stop stop-color="#01A2D9"/>
<stop offset="0.465903" stop-color="#644DA9"/>
</linearGradient>
<linearGradient id="paint36_linear_7625_697" x1="25.15" y1="29.8789" x2="25.1733" y2="30.2077" gradientUnits="userSpaceOnUse">
<stop stop-color="#01A2D9"/>
<stop offset="0.465903" stop-color="#644DA9"/>
</linearGradient>
<linearGradient id="paint37_linear_7625_697" x1="47.4992" y1="19.2447" x2="44.4678" y2="77.326" gradientUnits="userSpaceOnUse">
<stop stop-color="#01A2D9"/>
<stop offset="0.465903" stop-color="#644DA9"/>
</linearGradient>
<linearGradient id="paint38_linear_7625_697" x1="47.4992" y1="19.2447" x2="44.4678" y2="77.326" gradientUnits="userSpaceOnUse">
<stop stop-color="#01A2D9"/>
<stop offset="0.465903" stop-color="#644DA9"/>
</linearGradient>
</defs>
</svg>
